<svg xmlns="http://www.w3.org/2000/svg" width="62.564" height="62.565" viewBox="0 0 62.564 62.565">
    <g id="Groupe_2255" data-name="Groupe 2255" transform="translate(-4329.59 2014.66)">
        <g id="Groupe_2254" data-name="Groupe 2254">
            <g id="Groupe_2253" data-name="Groupe 2253">
                <path id="Tracé_2361" data-name="Tracé 2361" d="M4346.434-1997.837l.286.307-.307-.286,10.58,15.4,2.423-2.423,2.423-2.423Z" fill="#111d30"/>
                <path id="Tracé_2362" data-name="Tracé 2362" d="M4361.839-1979.5l-2.423-2.423-2.423-2.423-10.58,15.4.307-.286-.286.307Z" fill="#111d30"/>
                <path id="Tracé_2363" data-name="Tracé 2363" d="M4375.332-1968.939l-10.58-15.4-2.423,2.423-2.423,2.423,15.4,10.58-.286-.307Z" fill="#111d30"/>
                <path id="Tracé_2364" data-name="Tracé 2364" d="M4375.024-1997.529l.286-.307-15.4,10.58,2.423,2.423,2.423,2.423,10.58-15.4Z" fill="#111d30"/>
                <g id="Groupe_2250" data-name="Groupe 2250">
                    <g id="Groupe_2243" data-name="Groupe 2243">
                        <path id="Tracé_2365" data-name="Tracé 2365" d="M4360.786-2014.6l-.011-.059-5.258,28.839h10.709Z" fill="#111d30"/>
                        <g id="Groupe_2242" data-name="Groupe 2242">
                            <path id="Tracé_2366" data-name="Tracé 2366" d="M4360.8-2014.593v28.772h5.423Z" fill="#111d30"/>
                            <path id="Tracé_2367" data-name="Tracé 2367" d="M4361.113-1986.131v-24.885l4.709,24.885Z" fill="#fff"/>
                        </g>
                    </g>
                    <g id="Groupe_2245" data-name="Groupe 2245">
                        <path id="Tracé_2368" data-name="Tracé 2368" d="M4329.649-1983.291l-.059.01,28.838,5.258v-10.709Z" fill="#111d30"/>
                        <g id="Groupe_2244" data-name="Groupe 2244">
                            <path id="Tracé_2369" data-name="Tracé 2369" d="M4329.656-1983.308h28.772v-5.423Z" fill="#111d30"/>
                            <path id="Tracé_2370" data-name="Tracé 2370" d="M4358.119-1983.618h-24.885l24.885-4.709Z" fill="#fff"/>
                        </g>
                    </g>
                    <g id="Groupe_2247" data-name="Groupe 2247">
                        <path id="Tracé_2371" data-name="Tracé 2371" d="M4360.958-1952.154l.011.059,5.258-28.839h-10.709Z" fill="#111d30"/>
                        <g id="Groupe_2246" data-name="Groupe 2246">
                            <path id="Tracé_2372" data-name="Tracé 2372" d="M4360.941-1952.161v-28.772h-5.423Z" fill="#111d30"/>
                            <path id="Tracé_2373" data-name="Tracé 2373" d="M4360.631-1980.624v24.885l-4.709-24.885Z" fill="#fff"/>
                        </g>
                    </g>
                    <g id="Groupe_2249" data-name="Groupe 2249">
                        <path id="Tracé_2374" data-name="Tracé 2374" d="M4392.1-1983.463l.059-.01-28.838-5.258v10.709Z" fill="#111d30"/>
                        <g id="Groupe_2248" data-name="Groupe 2248">
                            <path id="Tracé_2375" data-name="Tracé 2375" d="M4392.088-1983.446h-28.772v5.423Z" fill="#111d30"/>
                            <path id="Tracé_2376" data-name="Tracé 2376" d="M4363.625-1983.136h24.885l-24.885,4.709Z" fill="#fff"/>
                        </g>
                    </g>
                </g>
                <g id="Groupe_2251" data-name="Groupe 2251">
                    <path id="Tracé_2377" data-name="Tracé 2377" d="M4339.03-1986.983a22.194,22.194,0,0,1,18.107-18.214l.673-3.7a25.448,25.448,0,0,0-6.94,1.84,25.616,25.616,0,0,0-8.168,5.506,25.623,25.623,0,0,0-5.506,8.167,25.5,25.5,0,0,0-1.858,7.095Z" fill="#111d30"/>
                    <path id="Tracé_2378" data-name="Tracé 2378" d="M4364.477-2005.219a22.192,22.192,0,0,1,18.215,18.106l3.7.674a25.463,25.463,0,0,0-1.84-6.941,25.621,25.621,0,0,0-5.506-8.167,25.605,25.605,0,0,0-8.168-5.506,25.445,25.445,0,0,0-7.094-1.858Z" fill="#111d30"/>
                    <path id="Tracé_2379" data-name="Tracé 2379" d="M4382.714-1979.772a22.194,22.194,0,0,1-18.106,18.215l-.674,3.695a25.413,25.413,0,0,0,6.94-1.84,25.605,25.605,0,0,0,8.168-5.506,25.62,25.62,0,0,0,5.506-8.167,25.481,25.481,0,0,0,1.858-7.094Z" fill="#111d30"/>
                    <path id="Tracé_2380" data-name="Tracé 2380" d="M4357.267-1961.536a22.192,22.192,0,0,1-18.215-18.106l-3.7-.673a25.473,25.473,0,0,0,1.84,6.94,25.622,25.622,0,0,0,5.506,8.167,25.616,25.616,0,0,0,8.168,5.506,25.413,25.413,0,0,0,7.094,1.858Z" fill="#111d30"/>
                </g>
                <g id="Groupe_2252" data-name="Groupe 2252">
                    <circle id="Ellipse_46" data-name="Ellipse 46" cx="7.169" cy="7.169" r="7.169" transform="translate(4351.792 -1978.867) rotate(-71.414)" fill="#111d30"/>
                    <circle id="Ellipse_47" data-name="Ellipse 47" cx="6.438" cy="6.438" r="6.438" transform="matrix(0.319, -0.948, 0.948, 0.319, 4352.718, -1979.327)" fill="#fff"/>
                    <circle id="Ellipse_48" data-name="Ellipse 48" cx="4.08" cy="4.08" r="4.08" transform="translate(4355.539 -1981.175) rotate(-67.433)" fill="#111d30"/>
                </g>
            </g>
        </g>
    </g>
</svg>
