<svg xmlns="http://www.w3.org/2000/svg" xmlns:xlink="http://www.w3.org/1999/xlink" width="390" height="844" viewBox="0 0 390 844">
  <defs>
    <clipPath id="clip-HOME">
      <rect width="390" height="844"/>
    </clipPath>
  </defs>
  <g id="HOME" clip-path="url(#clip-HOME)">
    <rect width="390" height="844" fill="#16243b"/>
    <g id="Groupe_272" data-name="Groupe 272" transform="translate(2927.299 -3231.946) rotate(-3)">
      <g id="Groupe_241" data-name="Groupe 241" transform="translate(-3590.216 3050.746)">
        <path id="Tracé_415" data-name="Tracé 415" d="M-3590.217,3068.39c41.1,0,41.1,13.479,82.194,13.479s41.1-13.479,82.193-13.479,41.1,13.479,82.192,13.479,41.1-13.479,82.2-13.479,41.1,13.479,82.195,13.479,41.094-13.479,82.189-13.479,41.1,13.479,82.193,13.479,41.1-13.479,82.2-13.479,41.1,13.479,82.191,13.479,41.1-13.479,82.2-13.479,41.1,13.479,82.194,13.479,41.1-13.479,82.2-13.479,41.1,13.479,82.194,13.479,41.1-13.479,82.2-13.479,41.1,13.479,82.2,13.479,41.1-13.479,82.2-13.479" transform="translate(3590.217 -3068.39)" fill="none" stroke="#111d30" stroke-miterlimit="10" stroke-width="2"/>
      </g>
      <g id="Groupe_242" data-name="Groupe 242" transform="translate(-3590.216 3062.439)">
        <path id="Tracé_416" data-name="Tracé 416" d="M-3590.217,3080.535c41.1,0,41.1,13.479,82.194,13.479s41.1-13.479,82.193-13.479,41.1,13.479,82.192,13.479,41.1-13.479,82.2-13.479,41.1,13.479,82.195,13.479,41.094-13.479,82.189-13.479,41.1,13.479,82.193,13.479,41.1-13.479,82.2-13.479,41.1,13.479,82.191,13.479,41.1-13.479,82.2-13.479,41.1,13.479,82.194,13.479,41.1-13.479,82.2-13.479,41.1,13.479,82.194,13.479,41.1-13.479,82.2-13.479,41.1,13.479,82.2,13.479,41.1-13.479,82.2-13.479" transform="translate(3590.217 -3080.535)" fill="none" stroke="#111d30" stroke-miterlimit="10" stroke-width="2"/>
      </g>
      <g id="Groupe_243" data-name="Groupe 243" transform="translate(-3590.216 3074.131)">
        <path id="Tracé_417" data-name="Tracé 417" d="M-3590.217,3092.68c41.1,0,41.1,13.478,82.194,13.478s41.1-13.478,82.193-13.478,41.1,13.478,82.192,13.478,41.1-13.478,82.2-13.478,41.1,13.478,82.195,13.478,41.094-13.478,82.189-13.478,41.1,13.478,82.193,13.478,41.1-13.478,82.2-13.478,41.1,13.478,82.191,13.478,41.1-13.478,82.2-13.478,41.1,13.478,82.194,13.478,41.1-13.478,82.2-13.478,41.1,13.478,82.194,13.478,41.1-13.478,82.2-13.478,41.1,13.478,82.2,13.478,41.1-13.478,82.2-13.478" transform="translate(3590.217 -3092.68)" fill="none" stroke="#111d30" stroke-miterlimit="10" stroke-width="2"/>
      </g>
      <g id="Groupe_244" data-name="Groupe 244" transform="translate(-3590.216 3085.824)">
        <path id="Tracé_418" data-name="Tracé 418" d="M-3590.217,3104.825c41.1,0,41.1,13.479,82.194,13.479s41.1-13.479,82.193-13.479,41.1,13.479,82.192,13.479,41.1-13.479,82.2-13.479,41.1,13.479,82.195,13.479,41.094-13.479,82.189-13.479,41.1,13.479,82.193,13.479,41.1-13.479,82.2-13.479,41.1,13.479,82.191,13.479,41.1-13.479,82.2-13.479,41.1,13.479,82.194,13.479,41.1-13.479,82.2-13.479,41.1,13.479,82.194,13.479,41.1-13.479,82.2-13.479,41.1,13.479,82.2,13.479,41.1-13.479,82.2-13.479" transform="translate(3590.217 -3104.825)" fill="none" stroke="#111d30" stroke-miterlimit="10" stroke-width="2"/>
      </g>
      <g id="Groupe_245" data-name="Groupe 245" transform="translate(-3590.216 3097.516)">
        <path id="Tracé_419" data-name="Tracé 419" d="M-3590.217,3116.97c41.1,0,41.1,13.479,82.194,13.479s41.1-13.479,82.193-13.479,41.1,13.479,82.192,13.479,41.1-13.479,82.2-13.479,41.1,13.479,82.195,13.479,41.094-13.479,82.189-13.479,41.1,13.479,82.193,13.479,41.1-13.479,82.2-13.479,41.1,13.479,82.191,13.479,41.1-13.479,82.2-13.479,41.1,13.479,82.194,13.479,41.1-13.479,82.2-13.479,41.1,13.479,82.194,13.479,41.1-13.479,82.2-13.479,41.1,13.479,82.2,13.479,41.1-13.479,82.2-13.479" transform="translate(3590.217 -3116.97)" fill="none" stroke="#111d30" stroke-miterlimit="10" stroke-width="2"/>
      </g>
      <g id="Groupe_246" data-name="Groupe 246" transform="translate(-3590.216 3109.209)">
        <path id="Tracé_420" data-name="Tracé 420" d="M-3590.217,3129.115c41.1,0,41.1,13.479,82.194,13.479s41.1-13.479,82.193-13.479,41.1,13.479,82.192,13.479,41.1-13.479,82.2-13.479,41.1,13.479,82.195,13.479,41.094-13.479,82.189-13.479,41.1,13.479,82.193,13.479,41.1-13.479,82.2-13.479,41.1,13.479,82.191,13.479,41.1-13.479,82.2-13.479,41.1,13.479,82.194,13.479,41.1-13.479,82.2-13.479,41.1,13.479,82.194,13.479,41.1-13.479,82.2-13.479,41.1,13.479,82.2,13.479,41.1-13.479,82.2-13.479" transform="translate(3590.217 -3129.115)" fill="none" stroke="#111d30" stroke-miterlimit="10" stroke-width="2"/>
      </g>
      <g id="Groupe_247" data-name="Groupe 247" transform="translate(-3590.216 3120.902)">
        <path id="Tracé_421" data-name="Tracé 421" d="M-3590.217,3141.26c41.1,0,41.1,13.479,82.194,13.479s41.1-13.479,82.193-13.479,41.1,13.479,82.192,13.479,41.1-13.479,82.2-13.479,41.1,13.479,82.195,13.479,41.094-13.479,82.189-13.479,41.1,13.479,82.193,13.479,41.1-13.479,82.2-13.479,41.1,13.479,82.191,13.479,41.1-13.479,82.2-13.479,41.1,13.479,82.194,13.479,41.1-13.479,82.2-13.479,41.1,13.479,82.194,13.479,41.1-13.479,82.2-13.479,41.1,13.479,82.2,13.479,41.1-13.479,82.2-13.479" transform="translate(3590.217 -3141.26)" fill="none" stroke="#111d30" stroke-miterlimit="10" stroke-width="2"/>
      </g>
      <g id="Groupe_248" data-name="Groupe 248" transform="translate(-3590.216 3132.595)">
        <path id="Tracé_422" data-name="Tracé 422" d="M-3590.217,3153.405c41.1,0,41.1,13.479,82.194,13.479s41.1-13.479,82.193-13.479,41.1,13.479,82.192,13.479,41.1-13.479,82.2-13.479,41.1,13.479,82.195,13.479,41.094-13.479,82.189-13.479,41.1,13.479,82.193,13.479,41.1-13.479,82.2-13.479,41.1,13.479,82.191,13.479,41.1-13.479,82.2-13.479,41.1,13.479,82.194,13.479,41.1-13.479,82.2-13.479,41.1,13.479,82.194,13.479,41.1-13.479,82.2-13.479,41.1,13.479,82.2,13.479,41.1-13.479,82.2-13.479" transform="translate(3590.217 -3153.405)" fill="none" stroke="#111d30" stroke-miterlimit="10" stroke-width="2"/>
      </g>
      <g id="Groupe_249" data-name="Groupe 249" transform="translate(-3590.216 3144.287)">
        <path id="Tracé_423" data-name="Tracé 423" d="M-3590.217,3165.55c41.1,0,41.1,13.479,82.194,13.479s41.1-13.479,82.193-13.479,41.1,13.479,82.192,13.479,41.1-13.479,82.2-13.479,41.1,13.479,82.195,13.479,41.094-13.479,82.189-13.479,41.1,13.479,82.193,13.479,41.1-13.479,82.2-13.479,41.1,13.479,82.191,13.479,41.1-13.479,82.2-13.479,41.1,13.479,82.194,13.479,41.1-13.479,82.2-13.479,41.1,13.479,82.194,13.479,41.1-13.479,82.2-13.479,41.1,13.479,82.2,13.479,41.1-13.479,82.2-13.479" transform="translate(3590.217 -3165.55)" fill="none" stroke="#111d30" stroke-miterlimit="10" stroke-width="2"/>
      </g>
      <g id="Groupe_250" data-name="Groupe 250" transform="translate(-3590.216 3155.98)">
        <path id="Tracé_424" data-name="Tracé 424" d="M-3590.217,3177.7c41.1,0,41.1,13.478,82.194,13.478s41.1-13.478,82.193-13.478,41.1,13.478,82.192,13.478,41.1-13.478,82.2-13.478,41.1,13.478,82.195,13.478,41.094-13.478,82.189-13.478,41.1,13.478,82.193,13.478,41.1-13.478,82.2-13.478,41.1,13.478,82.191,13.478,41.1-13.478,82.2-13.478,41.1,13.478,82.194,13.478,41.1-13.478,82.2-13.478,41.1,13.478,82.194,13.478,41.1-13.478,82.2-13.478,41.1,13.478,82.2,13.478,41.1-13.478,82.2-13.478" transform="translate(3590.217 -3177.696)" fill="none" stroke="#111d30" stroke-miterlimit="10" stroke-width="2"/>
      </g>
      <g id="Groupe_251" data-name="Groupe 251" transform="translate(-3590.216 3167.672)">
        <path id="Tracé_425" data-name="Tracé 425" d="M-3590.217,3189.84c41.1,0,41.1,13.478,82.194,13.478s41.1-13.478,82.193-13.478,41.1,13.478,82.192,13.478,41.1-13.478,82.2-13.478,41.1,13.478,82.195,13.478,41.094-13.478,82.189-13.478,41.1,13.478,82.193,13.478,41.1-13.478,82.2-13.478,41.1,13.478,82.191,13.478,41.1-13.478,82.2-13.478,41.1,13.478,82.194,13.478,41.1-13.478,82.2-13.478,41.1,13.478,82.194,13.478,41.1-13.478,82.2-13.478,41.1,13.478,82.2,13.478,41.1-13.478,82.2-13.478" transform="translate(3590.217 -3189.84)" fill="none" stroke="#111d30" stroke-miterlimit="10" stroke-width="2"/>
      </g>
      <g id="Groupe_252" data-name="Groupe 252" transform="translate(-3590.216 3179.365)">
        <path id="Tracé_426" data-name="Tracé 426" d="M-3590.217,3201.985c41.1,0,41.1,13.479,82.194,13.479s41.1-13.479,82.193-13.479,41.1,13.479,82.192,13.479,41.1-13.479,82.2-13.479,41.1,13.479,82.195,13.479,41.094-13.479,82.189-13.479,41.1,13.479,82.193,13.479,41.1-13.479,82.2-13.479,41.1,13.479,82.191,13.479,41.1-13.479,82.2-13.479,41.1,13.479,82.194,13.479,41.1-13.479,82.2-13.479,41.1,13.479,82.194,13.479,41.1-13.479,82.2-13.479,41.1,13.479,82.2,13.479,41.1-13.479,82.2-13.479" transform="translate(3590.217 -3201.985)" fill="none" stroke="#111d30" stroke-miterlimit="10" stroke-width="2"/>
      </g>
      <g id="Groupe_253" data-name="Groupe 253" transform="translate(-3590.216 3191.059)">
        <path id="Tracé_427" data-name="Tracé 427" d="M-3590.217,3214.131c41.1,0,41.1,13.478,82.194,13.478s41.1-13.478,82.193-13.478,41.1,13.478,82.192,13.478,41.1-13.478,82.2-13.478,41.1,13.478,82.195,13.478,41.094-13.478,82.189-13.478,41.1,13.478,82.193,13.478,41.1-13.478,82.2-13.478,41.1,13.478,82.191,13.478,41.1-13.478,82.2-13.478,41.1,13.478,82.194,13.478,41.1-13.478,82.2-13.478,41.1,13.478,82.194,13.478,41.1-13.478,82.2-13.478,41.1,13.478,82.2,13.478,41.1-13.478,82.2-13.478" transform="translate(3590.217 -3214.131)" fill="none" stroke="#111d30" stroke-miterlimit="10" stroke-width="2"/>
      </g>
      <g id="Groupe_254" data-name="Groupe 254" transform="translate(-3590.216 3202.751)">
        <path id="Tracé_428" data-name="Tracé 428" d="M-3590.217,3226.276c41.1,0,41.1,13.479,82.194,13.479s41.1-13.479,82.193-13.479,41.1,13.479,82.192,13.479,41.1-13.479,82.2-13.479,41.1,13.479,82.195,13.479,41.094-13.479,82.189-13.479,41.1,13.479,82.193,13.479,41.1-13.479,82.2-13.479,41.1,13.479,82.191,13.479,41.1-13.479,82.2-13.479,41.1,13.479,82.194,13.479,41.1-13.479,82.2-13.479,41.1,13.479,82.194,13.479,41.1-13.479,82.2-13.479,41.1,13.479,82.2,13.479,41.1-13.479,82.2-13.479" transform="translate(3590.217 -3226.276)" fill="none" stroke="#111d30" stroke-miterlimit="10" stroke-width="2"/>
      </g>
      <g id="Groupe_255" data-name="Groupe 255" transform="translate(-3590.216 3214.444)">
        <path id="Tracé_429" data-name="Tracé 429" d="M-3590.217,3238.421c41.1,0,41.1,13.479,82.194,13.479s41.1-13.479,82.193-13.479,41.1,13.479,82.192,13.479,41.1-13.479,82.2-13.479,41.1,13.479,82.195,13.479,41.094-13.479,82.189-13.479,41.1,13.479,82.193,13.479,41.1-13.479,82.2-13.479,41.1,13.479,82.191,13.479,41.1-13.479,82.2-13.479,41.1,13.479,82.194,13.479,41.1-13.479,82.2-13.479,41.1,13.479,82.194,13.479,41.1-13.479,82.2-13.479,41.1,13.479,82.2,13.479,41.1-13.479,82.2-13.479" transform="translate(3590.217 -3238.421)" fill="none" stroke="#111d30" stroke-miterlimit="10" stroke-width="2"/>
      </g>
      <g id="Groupe_256" data-name="Groupe 256" transform="translate(-3590.216 3226.137)">
        <path id="Tracé_430" data-name="Tracé 430" d="M-3590.217,3250.566c41.1,0,41.1,13.479,82.194,13.479s41.1-13.479,82.193-13.479,41.1,13.479,82.192,13.479,41.1-13.479,82.2-13.479,41.1,13.479,82.195,13.479,41.094-13.479,82.189-13.479,41.1,13.479,82.193,13.479,41.1-13.479,82.2-13.479,41.1,13.479,82.191,13.479,41.1-13.479,82.2-13.479,41.1,13.479,82.194,13.479,41.1-13.479,82.2-13.479,41.1,13.479,82.194,13.479,41.1-13.479,82.2-13.479,41.1,13.479,82.2,13.479,41.1-13.479,82.2-13.479" transform="translate(3590.217 -3250.566)" fill="none" stroke="#111d30" stroke-miterlimit="10" stroke-width="2"/>
      </g>
      <g id="Groupe_257" data-name="Groupe 257" transform="translate(-3590.216 3237.829)">
        <path id="Tracé_431" data-name="Tracé 431" d="M-3590.217,3262.711c41.1,0,41.1,13.479,82.194,13.479s41.1-13.479,82.193-13.479,41.1,13.479,82.192,13.479,41.1-13.479,82.2-13.479,41.1,13.479,82.195,13.479,41.094-13.479,82.189-13.479,41.1,13.479,82.193,13.479,41.1-13.479,82.2-13.479,41.1,13.479,82.191,13.479,41.1-13.479,82.2-13.479,41.1,13.479,82.194,13.479,41.1-13.479,82.2-13.479,41.1,13.479,82.194,13.479,41.1-13.479,82.2-13.479,41.1,13.479,82.2,13.479,41.1-13.479,82.2-13.479" transform="translate(3590.217 -3262.711)" fill="none" stroke="#111d30" stroke-miterlimit="10" stroke-width="2"/>
      </g>
      <g id="Groupe_258" data-name="Groupe 258" transform="translate(-3590.216 3249.522)">
        <path id="Tracé_432" data-name="Tracé 432" d="M-3590.217,3274.856c41.1,0,41.1,13.479,82.194,13.479s41.1-13.479,82.193-13.479,41.1,13.479,82.192,13.479,41.1-13.479,82.2-13.479,41.1,13.479,82.195,13.479,41.094-13.479,82.189-13.479,41.1,13.479,82.193,13.479,41.1-13.479,82.2-13.479,41.1,13.479,82.191,13.479,41.1-13.479,82.2-13.479,41.1,13.479,82.194,13.479,41.1-13.479,82.2-13.479,41.1,13.479,82.194,13.479,41.1-13.479,82.2-13.479,41.1,13.479,82.2,13.479,41.1-13.479,82.2-13.479" transform="translate(3590.217 -3274.856)" fill="none" stroke="#111d30" stroke-miterlimit="10" stroke-width="2"/>
      </g>
      <g id="Groupe_259" data-name="Groupe 259" transform="translate(-3590.216 3261.214)">
        <path id="Tracé_433" data-name="Tracé 433" d="M-3590.217,3287c41.1,0,41.1,13.479,82.194,13.479s41.1-13.479,82.193-13.479,41.1,13.479,82.192,13.479,41.1-13.479,82.2-13.479,41.1,13.479,82.195,13.479,41.094-13.479,82.189-13.479,41.1,13.479,82.193,13.479,41.1-13.479,82.2-13.479,41.1,13.479,82.191,13.479,41.1-13.479,82.2-13.479,41.1,13.479,82.194,13.479,41.1-13.479,82.2-13.479,41.1,13.479,82.194,13.479,41.1-13.479,82.2-13.479,41.1,13.479,82.2,13.479,41.1-13.479,82.2-13.479" transform="translate(3590.217 -3287.001)" fill="none" stroke="#111d30" stroke-miterlimit="10" stroke-width="2"/>
      </g>
      <g id="Groupe_260" data-name="Groupe 260" transform="translate(-3590.216 3272.907)">
        <path id="Tracé_434" data-name="Tracé 434" d="M-3590.217,3299.146c41.1,0,41.1,13.479,82.194,13.479s41.1-13.479,82.193-13.479,41.1,13.479,82.192,13.479,41.1-13.479,82.2-13.479,41.1,13.479,82.195,13.479,41.094-13.479,82.189-13.479,41.1,13.479,82.193,13.479,41.1-13.479,82.2-13.479,41.1,13.479,82.191,13.479,41.1-13.479,82.2-13.479,41.1,13.479,82.194,13.479,41.1-13.479,82.2-13.479,41.1,13.479,82.194,13.479,41.1-13.479,82.2-13.479,41.1,13.479,82.2,13.479,41.1-13.479,82.2-13.479" transform="translate(3590.217 -3299.146)" fill="none" stroke="#111d30" stroke-miterlimit="10" stroke-width="2"/>
      </g>
      <g id="Groupe_261" data-name="Groupe 261" transform="translate(-3590.216 3284.6)">
        <path id="Tracé_435" data-name="Tracé 435" d="M-3590.217,3311.291c41.1,0,41.1,13.479,82.194,13.479s41.1-13.479,82.193-13.479,41.1,13.479,82.192,13.479,41.1-13.479,82.2-13.479,41.1,13.479,82.195,13.479,41.094-13.479,82.189-13.479,41.1,13.479,82.193,13.479,41.1-13.479,82.2-13.479,41.1,13.479,82.191,13.479,41.1-13.479,82.2-13.479,41.1,13.479,82.194,13.479,41.1-13.479,82.2-13.479,41.1,13.479,82.194,13.479,41.1-13.479,82.2-13.479,41.1,13.479,82.2,13.479,41.1-13.479,82.2-13.479" transform="translate(3590.217 -3311.291)" fill="none" stroke="#111d30" stroke-miterlimit="10" stroke-width="2"/>
      </g>
      <g id="Groupe_262" data-name="Groupe 262" transform="translate(-3590.216 3296.292)">
        <path id="Tracé_436" data-name="Tracé 436" d="M-3590.217,3323.436c41.1,0,41.1,13.479,82.194,13.479s41.1-13.479,82.193-13.479,41.1,13.479,82.192,13.479,41.1-13.479,82.2-13.479,41.1,13.479,82.195,13.479,41.094-13.479,82.189-13.479,41.1,13.479,82.193,13.479,41.1-13.479,82.2-13.479,41.1,13.479,82.191,13.479,41.1-13.479,82.2-13.479,41.1,13.479,82.194,13.479,41.1-13.479,82.2-13.479,41.1,13.479,82.194,13.479,41.1-13.479,82.2-13.479,41.1,13.479,82.2,13.479,41.1-13.479,82.2-13.479" transform="translate(3590.217 -3323.436)" fill="none" stroke="#111d30" stroke-miterlimit="10" stroke-width="2"/>
      </g>
      <g id="Groupe_263" data-name="Groupe 263" transform="translate(-3590.216 3307.985)">
        <path id="Tracé_437" data-name="Tracé 437" d="M-3590.217,3335.582c41.1,0,41.1,13.479,82.194,13.479s41.1-13.479,82.193-13.479,41.1,13.479,82.192,13.479,41.1-13.479,82.2-13.479,41.1,13.479,82.195,13.479,41.094-13.479,82.189-13.479,41.1,13.479,82.193,13.479,41.1-13.479,82.2-13.479,41.1,13.479,82.191,13.479,41.1-13.479,82.2-13.479,41.1,13.479,82.194,13.479,41.1-13.479,82.2-13.479,41.1,13.479,82.194,13.479,41.1-13.479,82.2-13.479,41.1,13.479,82.2,13.479,41.1-13.479,82.2-13.479" transform="translate(3590.217 -3335.582)" fill="none" stroke="#111d30" stroke-miterlimit="10" stroke-width="2"/>
      </g>
      <g id="Groupe_264" data-name="Groupe 264" transform="translate(-3590.216 3319.677)">
        <path id="Tracé_438" data-name="Tracé 438" d="M-3590.217,3347.726c41.1,0,41.1,13.479,82.194,13.479s41.1-13.479,82.193-13.479,41.1,13.479,82.192,13.479,41.1-13.479,82.2-13.479,41.1,13.479,82.195,13.479,41.094-13.479,82.189-13.479,41.1,13.479,82.193,13.479,41.1-13.479,82.2-13.479,41.1,13.479,82.191,13.479,41.1-13.479,82.2-13.479,41.1,13.479,82.194,13.479,41.1-13.479,82.2-13.479,41.1,13.479,82.194,13.479,41.1-13.479,82.2-13.479,41.1,13.479,82.2,13.479,41.1-13.479,82.2-13.479" transform="translate(3590.217 -3347.726)" fill="none" stroke="#111d30" stroke-miterlimit="10" stroke-width="2"/>
      </g>
      <g id="Groupe_265" data-name="Groupe 265" transform="translate(-3590.216 3331.37)">
        <path id="Tracé_439" data-name="Tracé 439" d="M-3590.217,3359.871c41.1,0,41.1,13.479,82.194,13.479s41.1-13.479,82.193-13.479,41.1,13.479,82.192,13.479,41.1-13.479,82.2-13.479,41.1,13.479,82.195,13.479,41.094-13.479,82.189-13.479,41.1,13.479,82.193,13.479,41.1-13.479,82.2-13.479,41.1,13.479,82.191,13.479,41.1-13.479,82.2-13.479,41.1,13.479,82.194,13.479,41.1-13.479,82.2-13.479,41.1,13.479,82.194,13.479,41.1-13.479,82.2-13.479,41.1,13.479,82.2,13.479,41.1-13.479,82.2-13.479" transform="translate(3590.217 -3359.871)" fill="none" stroke="#111d30" stroke-miterlimit="10" stroke-width="2"/>
      </g>
      <g id="Groupe_266" data-name="Groupe 266" transform="translate(-3590.216 3343.063)">
        <path id="Tracé_440" data-name="Tracé 440" d="M-3590.217,3372.017c41.1,0,41.1,13.479,82.194,13.479s41.1-13.479,82.193-13.479,41.1,13.479,82.192,13.479,41.1-13.479,82.2-13.479,41.1,13.479,82.195,13.479,41.094-13.479,82.189-13.479,41.1,13.479,82.193,13.479,41.1-13.479,82.2-13.479,41.1,13.479,82.191,13.479,41.1-13.479,82.2-13.479,41.1,13.479,82.194,13.479,41.1-13.479,82.2-13.479,41.1,13.479,82.194,13.479,41.1-13.479,82.2-13.479,41.1,13.479,82.2,13.479,41.1-13.479,82.2-13.479" transform="translate(3590.217 -3372.017)" fill="none" stroke="#111d30" stroke-miterlimit="10" stroke-width="2"/>
      </g>
      <g id="Groupe_267" data-name="Groupe 267" transform="translate(-3590.216 3354.755)">
        <path id="Tracé_441" data-name="Tracé 441" d="M-3590.217,3384.161c41.1,0,41.1,13.478,82.194,13.478s41.1-13.478,82.193-13.478,41.1,13.478,82.192,13.478,41.1-13.478,82.2-13.478,41.1,13.478,82.195,13.478,41.094-13.478,82.189-13.478,41.1,13.478,82.193,13.478,41.1-13.478,82.2-13.478,41.1,13.478,82.191,13.478,41.1-13.478,82.2-13.478,41.1,13.478,82.194,13.478,41.1-13.478,82.2-13.478,41.1,13.478,82.194,13.478,41.1-13.478,82.2-13.478,41.1,13.478,82.2,13.478,41.1-13.478,82.2-13.478" transform="translate(3590.217 -3384.161)" fill="none" stroke="#111d30" stroke-miterlimit="10" stroke-width="2"/>
      </g>
      <g id="Groupe_268" data-name="Groupe 268" transform="translate(-3590.216 3366.447)">
        <path id="Tracé_442" data-name="Tracé 442" d="M-3590.217,3396.306c41.1,0,41.1,13.479,82.194,13.479s41.1-13.479,82.193-13.479,41.1,13.479,82.192,13.479,41.1-13.479,82.2-13.479,41.1,13.479,82.195,13.479,41.094-13.479,82.189-13.479,41.1,13.479,82.193,13.479,41.1-13.479,82.2-13.479,41.1,13.479,82.191,13.479,41.1-13.479,82.2-13.479,41.1,13.479,82.194,13.479,41.1-13.479,82.2-13.479,41.1,13.479,82.194,13.479,41.1-13.479,82.2-13.479,41.1,13.479,82.2,13.479,41.1-13.479,82.2-13.479" transform="translate(3590.217 -3396.306)" fill="none" stroke="#111d30" stroke-miterlimit="10" stroke-width="2"/>
      </g>
      <g id="Groupe_269" data-name="Groupe 269" transform="translate(-3590.216 3378.14)">
        <path id="Tracé_443" data-name="Tracé 443" d="M-3590.217,3408.451c41.1,0,41.1,13.479,82.194,13.479s41.1-13.479,82.193-13.479,41.1,13.479,82.192,13.479,41.1-13.479,82.2-13.479,41.1,13.479,82.195,13.479,41.094-13.479,82.189-13.479,41.1,13.479,82.193,13.479,41.1-13.479,82.2-13.479,41.1,13.479,82.191,13.479,41.1-13.479,82.2-13.479,41.1,13.479,82.194,13.479,41.1-13.479,82.2-13.479,41.1,13.479,82.194,13.479,41.1-13.479,82.2-13.479,41.1,13.479,82.2,13.479,41.1-13.479,82.2-13.479" transform="translate(3590.217 -3408.451)" fill="none" stroke="#111d30" stroke-miterlimit="10" stroke-width="2"/>
      </g>
      <g id="Groupe_270" data-name="Groupe 270" transform="translate(-3590.216 3389.833)">
        <path id="Tracé_444" data-name="Tracé 444" d="M-3590.217,3420.6c41.1,0,41.1,13.478,82.194,13.478s41.1-13.478,82.193-13.478,41.1,13.478,82.192,13.478,41.1-13.478,82.2-13.478,41.1,13.478,82.195,13.478,41.094-13.478,82.189-13.478,41.1,13.478,82.193,13.478,41.1-13.478,82.2-13.478,41.1,13.478,82.191,13.478,41.1-13.478,82.2-13.478,41.1,13.478,82.194,13.478,41.1-13.478,82.2-13.478,41.1,13.478,82.194,13.478,41.1-13.478,82.2-13.478,41.1,13.478,82.2,13.478,41.1-13.478,82.2-13.478" transform="translate(3590.217 -3420.596)" fill="none" stroke="#111d30" stroke-miterlimit="10" stroke-width="2"/>
      </g>
      <g id="Groupe_271" data-name="Groupe 271" transform="translate(-3590.216 3401.525)">
        <path id="Tracé_445" data-name="Tracé 445" d="M-3590.217,3432.741c41.1,0,41.1,13.479,82.194,13.479s41.1-13.479,82.193-13.479,41.1,13.479,82.192,13.479,41.1-13.479,82.2-13.479,41.1,13.479,82.195,13.479,41.094-13.479,82.189-13.479,41.1,13.479,82.193,13.479,41.1-13.479,82.2-13.479,41.1,13.479,82.191,13.479,41.1-13.479,82.2-13.479,41.1,13.479,82.194,13.479,41.1-13.479,82.2-13.479,41.1,13.479,82.194,13.479,41.1-13.479,82.2-13.479,41.1,13.479,82.2,13.479,41.1-13.479,82.2-13.479" transform="translate(3590.217 -3432.741)" fill="none" stroke="#111d30" stroke-miterlimit="10" stroke-width="2"/>
      </g>
      <g id="Groupe_2517" data-name="Groupe 2517" transform="translate(-3588.824 3412.258)">
        <path id="Tracé_376" data-name="Tracé 376" d="M0,0C41.1,0,41.1,13.479,82.194,13.479S123.291,0,164.387,0s41.1,13.479,82.192,13.479S287.677,0,328.774,0s41.1,13.479,82.195,13.479S452.063,0,493.158,0s41.1,13.479,82.193,13.479S616.449,0,657.546,0s41.1,13.479,82.191,13.479S780.836,0,821.934,0s41.1,13.479,82.194,13.479S945.226,0,986.324,0s41.1,13.479,82.194,13.479S1109.617,0,1150.716,0s41.1,13.479,82.2,13.479S1274.017,0,1315.117,0" fill="none" stroke="#111d30" stroke-miterlimit="10" stroke-width="2"/>
      </g>
      <g id="Groupe_2518" data-name="Groupe 2518" transform="translate(-3588.823 3423.951)">
        <path id="Tracé_377" data-name="Tracé 377" d="M0,0C41.1,0,41.1,13.478,82.194,13.478S123.291,0,164.387,0s41.1,13.478,82.192,13.478S287.677,0,328.774,0s41.1,13.478,82.195,13.478S452.063,0,493.158,0s41.1,13.478,82.193,13.478S616.449,0,657.546,0s41.1,13.478,82.191,13.478S780.836,0,821.934,0s41.1,13.478,82.194,13.478S945.226,0,986.324,0s41.1,13.478,82.194,13.478S1109.617,0,1150.716,0s41.1,13.478,82.2,13.478S1274.017,0,1315.117,0" fill="none" stroke="#111d30" stroke-miterlimit="10" stroke-width="2"/>
      </g>
      <g id="Groupe_2519" data-name="Groupe 2519" transform="translate(-3588.823 3435.644)">
        <path id="Tracé_378" data-name="Tracé 378" d="M0,0C41.1,0,41.1,13.479,82.194,13.479S123.291,0,164.387,0s41.1,13.479,82.192,13.479S287.677,0,328.774,0s41.1,13.479,82.195,13.479S452.063,0,493.158,0s41.1,13.479,82.193,13.479S616.449,0,657.546,0s41.1,13.479,82.191,13.479S780.836,0,821.934,0s41.1,13.479,82.194,13.479S945.226,0,986.324,0s41.1,13.479,82.194,13.479S1109.617,0,1150.716,0s41.1,13.479,82.2,13.479S1274.017,0,1315.117,0" fill="none" stroke="#111d30" stroke-miterlimit="10" stroke-width="2"/>
      </g>
      <g id="Groupe_2520" data-name="Groupe 2520" transform="translate(-3588.823 3447.338)">
        <path id="Tracé_379" data-name="Tracé 379" d="M0,0C41.1,0,41.1,13.479,82.194,13.479S123.291,0,164.387,0s41.1,13.479,82.192,13.479S287.677,0,328.774,0s41.1,13.479,82.195,13.479S452.063,0,493.158,0s41.1,13.479,82.193,13.479S616.449,0,657.546,0s41.1,13.479,82.191,13.479S780.836,0,821.934,0s41.1,13.479,82.194,13.479S945.226,0,986.324,0s41.1,13.479,82.194,13.479S1109.617,0,1150.716,0s41.1,13.479,82.2,13.479S1274.017,0,1315.117,0" fill="none" stroke="#111d30" stroke-miterlimit="10" stroke-width="2"/>
      </g>
      <g id="Groupe_2521" data-name="Groupe 2521" transform="translate(-3588.824 3459.031)">
        <path id="Tracé_380" data-name="Tracé 380" d="M0,0C41.1,0,41.1,13.479,82.194,13.479S123.291,0,164.387,0s41.1,13.479,82.192,13.479S287.677,0,328.774,0s41.1,13.479,82.195,13.479S452.063,0,493.158,0s41.1,13.479,82.193,13.479S616.449,0,657.546,0s41.1,13.479,82.191,13.479S780.836,0,821.934,0s41.1,13.479,82.194,13.479S945.226,0,986.324,0s41.1,13.479,82.194,13.479S1109.617,0,1150.716,0s41.1,13.479,82.2,13.479S1274.017,0,1315.117,0" fill="none" stroke="#111d30" stroke-miterlimit="10" stroke-width="2"/>
      </g>
      <g id="Groupe_2522" data-name="Groupe 2522" transform="translate(-3588.824 3470.723)">
        <path id="Tracé_381" data-name="Tracé 381" d="M0,0C41.1,0,41.1,13.479,82.194,13.479S123.291,0,164.387,0s41.1,13.479,82.192,13.479S287.677,0,328.774,0s41.1,13.479,82.195,13.479S452.063,0,493.158,0s41.1,13.479,82.193,13.479S616.449,0,657.546,0s41.1,13.479,82.191,13.479S780.836,0,821.934,0s41.1,13.479,82.194,13.479S945.226,0,986.324,0s41.1,13.479,82.194,13.479S1109.617,0,1150.716,0s41.1,13.479,82.2,13.479S1274.017,0,1315.117,0" fill="none" stroke="#111d30" stroke-miterlimit="10" stroke-width="2"/>
      </g>
      <g id="Groupe_2523" data-name="Groupe 2523" transform="translate(-3588.824 3482.415)">
        <path id="Tracé_382" data-name="Tracé 382" d="M0,0C41.1,0,41.1,13.479,82.194,13.479S123.291,0,164.387,0s41.1,13.479,82.192,13.479S287.677,0,328.774,0s41.1,13.479,82.195,13.479S452.063,0,493.158,0s41.1,13.479,82.193,13.479S616.449,0,657.546,0s41.1,13.479,82.191,13.479S780.836,0,821.934,0s41.1,13.479,82.194,13.479S945.226,0,986.324,0s41.1,13.479,82.194,13.479S1109.617,0,1150.716,0s41.1,13.479,82.2,13.479S1274.017,0,1315.117,0" fill="none" stroke="#111d30" stroke-miterlimit="10" stroke-width="2"/>
      </g>
      <g id="Groupe_2524" data-name="Groupe 2524" transform="translate(-3588.823 3494.108)">
        <path id="Tracé_383" data-name="Tracé 383" d="M0,0C41.1,0,41.1,13.479,82.194,13.479S123.291,0,164.387,0s41.1,13.479,82.192,13.479S287.677,0,328.774,0s41.1,13.479,82.195,13.479S452.063,0,493.158,0s41.1,13.479,82.193,13.479S616.449,0,657.546,0s41.1,13.479,82.191,13.479S780.836,0,821.934,0s41.1,13.479,82.194,13.479S945.226,0,986.324,0s41.1,13.479,82.194,13.479S1109.617,0,1150.716,0s41.1,13.479,82.2,13.479S1274.017,0,1315.117,0" fill="none" stroke="#111d30" stroke-miterlimit="10" stroke-width="2"/>
      </g>
      <g id="Groupe_2525" data-name="Groupe 2525" transform="translate(-3588.823 3505.801)">
        <path id="Tracé_384" data-name="Tracé 384" d="M0,0C41.1,0,41.1,13.479,82.194,13.479S123.291,0,164.387,0s41.1,13.479,82.192,13.479S287.677,0,328.774,0s41.1,13.479,82.195,13.479S452.063,0,493.158,0c1.644,0,3.222.021,5.323.08,35.838.977,37.417,13.4,76.87,13.4,41.1,0,41.1-13.479,82.2-13.479s41.1,13.479,82.191,13.479S780.836,0,821.934,0s41.1,13.479,82.194,13.479S945.226,0,986.324,0s41.1,13.479,82.194,13.479S1109.617,0,1150.716,0s41.1,13.479,82.2,13.479S1274.017,0,1315.117,0" fill="none" stroke="#111d30" stroke-miterlimit="10" stroke-width="2"/>
      </g>
      <g id="Groupe_2526" data-name="Groupe 2526" transform="translate(-3588.823 3517.493)">
        <path id="Tracé_385" data-name="Tracé 385" d="M0,0C41.1,0,41.1,13.479,82.194,13.479S123.291,0,164.387,0s41.1,13.479,82.192,13.479S287.677,0,328.774,0s41.1,13.479,82.195,13.479S452.063,0,493.158,0s41.1,13.479,82.193,13.479S616.449,0,657.546,0s41.1,13.479,82.191,13.479S780.836,0,821.934,0s41.1,13.479,82.194,13.479S945.226,0,986.324,0s41.1,13.479,82.194,13.479S1109.617,0,1150.716,0s41.1,13.479,82.2,13.479S1274.017,0,1315.117,0" fill="none" stroke="#111d30" stroke-miterlimit="10" stroke-width="2"/>
      </g>
      <g id="Groupe_2527" data-name="Groupe 2527" transform="translate(-3588.823 3529.186)">
        <path id="Tracé_386" data-name="Tracé 386" d="M0,0C41.1,0,41.1,13.479,82.194,13.479S123.291,0,164.387,0s41.1,13.479,82.192,13.479S287.677,0,328.774,0s41.1,13.479,82.195,13.479S452.063,0,493.158,0s41.1,13.479,82.193,13.479S616.449,0,657.546,0s41.1,13.479,82.191,13.479S780.836,0,821.934,0s41.1,13.479,82.194,13.479S945.226,0,986.324,0s41.1,13.479,82.194,13.479S1109.617,0,1150.716,0s41.1,13.479,82.2,13.479S1274.017,0,1315.117,0" fill="none" stroke="#111d30" stroke-miterlimit="10" stroke-width="2"/>
      </g>
      <g id="Groupe_2528" data-name="Groupe 2528" transform="translate(-3588.823 3540.878)">
        <path id="Tracé_387" data-name="Tracé 387" d="M0,0C41.1,0,41.1,13.479,82.194,13.479S123.291,0,164.387,0s41.1,13.479,82.192,13.479S287.677,0,328.774,0s41.1,13.479,82.195,13.479S452.063,0,493.158,0s41.1,13.479,82.193,13.479S616.449,0,657.546,0s41.1,13.479,82.191,13.479S780.836,0,821.934,0s41.1,13.479,82.194,13.479S945.226,0,986.324,0s41.1,13.479,82.194,13.479S1109.617,0,1150.716,0s41.1,13.479,82.2,13.479S1274.017,0,1315.117,0" fill="none" stroke="#111d30" stroke-miterlimit="10" stroke-width="2"/>
      </g>
      <g id="Groupe_2529" data-name="Groupe 2529" transform="translate(-3588.824 3552.571)">
        <path id="Tracé_388" data-name="Tracé 388" d="M0,0C41.1,0,41.1,13.479,82.194,13.479S123.291,0,164.387,0s41.1,13.479,82.192,13.479S287.677,0,328.774,0s41.1,13.479,82.195,13.479S452.063,0,493.158,0s41.1,13.479,82.193,13.479S616.449,0,657.546,0s41.1,13.479,82.191,13.479S780.836,0,821.934,0s41.1,13.479,82.194,13.479S945.226,0,986.324,0s41.1,13.479,82.194,13.479S1109.617,0,1150.716,0s41.1,13.479,82.2,13.479S1274.017,0,1315.117,0" fill="none" stroke="#111d30" stroke-miterlimit="10" stroke-width="2"/>
      </g>
      <g id="Groupe_2530" data-name="Groupe 2530" transform="translate(-3588.823 3564.263)">
        <path id="Tracé_389" data-name="Tracé 389" d="M0,0C41.1,0,41.1,13.479,82.194,13.479S123.291,0,164.387,0s41.1,13.479,82.192,13.479S287.677,0,328.774,0s41.1,13.479,82.195,13.479S452.063,0,493.158,0s41.1,13.479,82.193,13.479S616.449,0,657.546,0s41.1,13.479,82.191,13.479S780.836,0,821.934,0s41.1,13.479,82.194,13.479S945.226,0,986.324,0s41.1,13.479,82.194,13.479S1109.617,0,1150.716,0s41.1,13.479,82.2,13.479S1274.017,0,1315.117,0" fill="none" stroke="#111d30" stroke-miterlimit="10" stroke-width="2"/>
      </g>
      <g id="Groupe_2531" data-name="Groupe 2531" transform="translate(-3588.823 3575.956)">
        <path id="Tracé_390" data-name="Tracé 390" d="M0,0C41.1,0,41.1,13.478,82.194,13.478S123.291,0,164.387,0s41.1,13.478,82.192,13.478S287.677,0,328.774,0s41.1,13.478,82.195,13.478S452.063,0,493.158,0s41.1,13.478,82.193,13.478S616.449,0,657.546,0s41.1,13.478,82.191,13.478S780.836,0,821.934,0s41.1,13.478,82.194,13.478S945.226,0,986.324,0s41.1,13.478,82.194,13.478S1109.617,0,1150.716,0s41.1,13.478,82.2,13.478S1274.017,0,1315.117,0" fill="none" stroke="#111d30" stroke-miterlimit="10" stroke-width="2"/>
      </g>
      <g id="Groupe_2532" data-name="Groupe 2532" transform="translate(-3588.823 3587.648)">
        <path id="Tracé_391" data-name="Tracé 391" d="M0,0C41.1,0,41.1,13.479,82.194,13.479S123.291,0,164.387,0s41.1,13.479,82.192,13.479S287.677,0,328.774,0s41.1,13.479,82.195,13.479S452.063,0,493.158,0s41.1,13.479,82.193,13.479S616.449,0,657.546,0s41.1,13.479,82.191,13.479S780.836,0,821.934,0s41.1,13.479,82.194,13.479S945.226,0,986.324,0s41.1,13.479,82.194,13.479S1109.617,0,1150.716,0s41.1,13.479,82.2,13.479S1274.017,0,1315.117,0" fill="none" stroke="#111d30" stroke-miterlimit="10" stroke-width="2"/>
      </g>
      <g id="Groupe_2533" data-name="Groupe 2533" transform="translate(-3588.823 3599.341)">
        <path id="Tracé_392" data-name="Tracé 392" d="M0,0C41.1,0,41.1,13.479,82.194,13.479S123.291,0,164.387,0s41.1,13.479,82.192,13.479S287.677,0,328.774,0s41.1,13.479,82.195,13.479S452.063,0,493.158,0s41.1,13.479,82.193,13.479S616.449,0,657.546,0s41.1,13.479,82.191,13.479S780.836,0,821.934,0s41.1,13.479,82.194,13.479S945.226,0,986.324,0s41.1,13.479,82.194,13.479S1109.617,0,1150.716,0s41.1,13.479,82.2,13.479S1274.017,0,1315.117,0" fill="none" stroke="#111d30" stroke-miterlimit="10" stroke-width="2"/>
      </g>
      <g id="Groupe_2534" data-name="Groupe 2534" transform="translate(-3588.824 3611.033)">
        <path id="Tracé_393" data-name="Tracé 393" d="M0,0C41.1,0,41.1,13.479,82.194,13.479S123.291,0,164.387,0s41.1,13.478,82.192,13.478S287.677,0,328.774,0s41.1,13.478,82.195,13.478S452.063,0,493.158,0s41.1,13.478,82.193,13.478S616.449,0,657.546,0s41.1,13.478,82.191,13.478S780.836,0,821.934,0s41.1,13.478,82.194,13.478S945.226,0,986.324,0s41.1,13.478,82.194,13.478S1109.617,0,1150.716,0s41.1,13.478,82.2,13.478S1274.017,0,1315.117,0" fill="none" stroke="#111d30" stroke-miterlimit="10" stroke-width="2"/>
      </g>
      <g id="Groupe_2535" data-name="Groupe 2535" transform="translate(-3588.824 3622.726)">
        <path id="Tracé_394" data-name="Tracé 394" d="M0,0C41.1,0,41.1,13.478,82.194,13.478S123.291,0,164.387,0s41.1,13.478,82.192,13.478S287.677,0,328.774,0s41.1,13.478,82.195,13.478S452.063,0,493.158,0s41.1,13.478,82.193,13.478S616.449,0,657.546,0s41.1,13.478,82.191,13.478S780.836,0,821.934,0s41.1,13.478,82.194,13.478S945.226,0,986.324,0s41.1,13.478,82.194,13.478S1109.617,0,1150.716,0s41.1,13.478,82.2,13.478S1274.017,0,1315.117,0" fill="none" stroke="#111d30" stroke-miterlimit="10" stroke-width="2"/>
      </g>
      <g id="Groupe_2536" data-name="Groupe 2536" transform="translate(-3588.823 3634.419)">
        <path id="Tracé_395" data-name="Tracé 395" d="M0,0C41.1,0,41.1,13.479,82.194,13.479S123.291,0,164.387,0s41.1,13.479,82.192,13.479S287.677,0,328.774,0s41.1,13.479,82.195,13.479S452.063,0,493.158,0s41.1,13.479,82.193,13.479S616.449,0,657.546,0s41.1,13.479,82.191,13.479S780.836,0,821.934,0s41.1,13.479,82.194,13.479S945.226,0,986.324,0s41.1,13.479,82.194,13.479S1109.617,0,1150.716,0s41.1,13.479,82.2,13.479S1274.017,0,1315.117,0" fill="none" stroke="#111d30" stroke-miterlimit="10" stroke-width="2"/>
      </g>
      <g id="Groupe_2537" data-name="Groupe 2537" transform="translate(-3588.823 3646.111)">
        <path id="Tracé_396" data-name="Tracé 396" d="M0,0C41.1,0,41.1,13.479,82.194,13.479S123.291,0,164.387,0s41.1,13.479,82.192,13.479S287.677,0,328.774,0s41.1,13.479,82.195,13.479S452.063,0,493.158,0s41.1,13.479,82.193,13.479S616.449,0,657.546,0s41.1,13.479,82.191,13.479S780.836,0,821.934,0s41.1,13.479,82.194,13.479S945.226,0,986.324,0s41.1,13.479,82.194,13.479S1109.617,0,1150.716,0s41.1,13.479,82.2,13.479S1274.017,0,1315.117,0" fill="none" stroke="#111d30" stroke-miterlimit="10" stroke-width="2"/>
      </g>
      <g id="Groupe_2538" data-name="Groupe 2538" transform="translate(-3588.823 3657.804)">
        <path id="Tracé_397" data-name="Tracé 397" d="M0,0C41.1,0,41.1,13.478,82.194,13.478S123.291,0,164.387,0s41.1,13.478,82.192,13.478S287.677,0,328.774,0s41.1,13.478,82.195,13.478S452.063,0,493.158,0s41.1,13.478,82.193,13.478S616.449,0,657.546,0s41.1,13.478,82.191,13.478S780.836,0,821.934,0s41.1,13.478,82.194,13.478S945.226,0,986.324,0s41.1,13.478,82.194,13.478S1109.617,0,1150.716,0s41.1,13.478,82.2,13.478S1274.017,0,1315.117,0" fill="none" stroke="#111d30" stroke-miterlimit="10" stroke-width="2"/>
      </g>
      <g id="Groupe_2539" data-name="Groupe 2539" transform="translate(-3588.823 3669.496)">
        <path id="Tracé_398" data-name="Tracé 398" d="M0,0C41.1,0,41.1,13.478,82.194,13.478S123.291,0,164.387,0s41.1,13.478,82.192,13.478S287.677,0,328.774,0s41.1,13.478,82.195,13.478S452.063,0,493.158,0s41.1,13.478,82.193,13.478S616.449,0,657.546,0s41.1,13.478,82.191,13.478S780.836,0,821.934,0s41.1,13.478,82.194,13.478S945.226,0,986.324,0s41.1,13.478,82.194,13.478S1109.617,0,1150.716,0s41.1,13.478,82.2,13.478S1274.017,0,1315.117,0" fill="none" stroke="#111d30" stroke-miterlimit="10" stroke-width="2"/>
      </g>
      <g id="Groupe_2540" data-name="Groupe 2540" transform="translate(-3588.823 3681.19)">
        <path id="Tracé_399" data-name="Tracé 399" d="M0,0C41.1,0,41.1,13.478,82.194,13.478S123.291,0,164.387,0s41.1,13.478,82.192,13.478S287.677,0,328.774,0s41.1,13.478,82.195,13.478S452.063,0,493.158,0s41.1,13.478,82.193,13.478S616.449,0,657.546,0s41.1,13.478,82.191,13.478S780.836,0,821.934,0s41.1,13.478,82.194,13.478S945.226,0,986.324,0s41.1,13.478,82.194,13.478S1109.617,0,1150.716,0s41.1,13.478,82.2,13.478S1274.017,0,1315.117,0" fill="none" stroke="#111d30" stroke-miterlimit="10" stroke-width="2"/>
      </g>
      <g id="Groupe_2541" data-name="Groupe 2541" transform="translate(-3588.824 3692.882)">
        <path id="Tracé_400" data-name="Tracé 400" d="M0,0C41.1,0,41.1,13.478,82.194,13.478S123.291,0,164.387,0s41.1,13.478,82.192,13.478S287.677,0,328.774,0s41.1,13.478,82.195,13.478S452.063,0,493.158,0s41.1,13.478,82.193,13.478S616.449,0,657.546,0s41.1,13.478,82.191,13.478S780.836,0,821.934,0s41.1,13.478,82.194,13.478S945.226,0,986.324,0s41.1,13.478,82.194,13.478S1109.617,0,1150.716,0s41.1,13.478,82.2,13.478S1274.017,0,1315.117,0" fill="none" stroke="#111d30" stroke-miterlimit="10" stroke-width="2"/>
      </g>
      <g id="Groupe_2542" data-name="Groupe 2542" transform="translate(-3588.823 3704.574)">
        <path id="Tracé_401" data-name="Tracé 401" d="M0,0C41.1,0,41.1,13.479,82.194,13.479S123.291,0,164.387,0s41.1,13.479,82.192,13.479S287.677,0,328.774,0s41.1,13.479,82.195,13.479S452.063,0,493.158,0s41.1,13.479,82.193,13.479S616.449,0,657.546,0s41.1,13.479,82.191,13.479S780.836,0,821.934,0s41.1,13.479,82.194,13.479S945.226,0,986.324,0s41.1,13.479,82.194,13.479S1109.617,0,1150.716,0s41.1,13.479,82.2,13.479S1274.017,0,1315.117,0" fill="none" stroke="#111d30" stroke-miterlimit="10" stroke-width="2"/>
      </g>
      <g id="Groupe_2543" data-name="Groupe 2543" transform="translate(-3588.823 3716.267)">
        <path id="Tracé_402" data-name="Tracé 402" d="M0,0C41.1,0,41.1,13.479,82.194,13.479S123.291,0,164.387,0s41.1,13.479,82.192,13.479S287.677,0,328.774,0s41.1,13.479,82.195,13.479S452.063,0,493.158,0s41.1,13.479,82.193,13.479S616.449,0,657.546,0s41.1,13.479,82.191,13.479S780.836,0,821.934,0s41.1,13.479,82.194,13.479S945.226,0,986.324,0s41.1,13.479,82.194,13.479S1109.617,0,1150.716,0s41.1,13.479,82.2,13.479S1274.017,0,1315.117,0" fill="none" stroke="#111d30" stroke-miterlimit="10" stroke-width="2"/>
      </g>
      <g id="Groupe_2544" data-name="Groupe 2544" transform="translate(-3588.823 3727.961)">
        <path id="Tracé_403" data-name="Tracé 403" d="M0,0C41.1,0,41.1,13.479,82.194,13.479S123.291,0,164.387,0s41.1,13.479,82.192,13.479S287.677,0,328.774,0s41.1,13.479,82.195,13.479S452.063,0,493.158,0s41.1,13.479,82.193,13.479S616.449,0,657.546,0s41.1,13.479,82.191,13.479S780.836,0,821.934,0s41.1,13.479,82.194,13.479S945.226,0,986.324,0s41.1,13.479,82.194,13.479S1109.617,0,1150.716,0s41.1,13.479,82.2,13.479S1274.017,0,1315.117,0" fill="none" stroke="#111d30" stroke-miterlimit="10" stroke-width="2"/>
      </g>
      <g id="Groupe_2545" data-name="Groupe 2545" transform="translate(-3588.823 3739.653)">
        <path id="Tracé_404" data-name="Tracé 404" d="M0,0C41.1,0,41.1,13.479,82.194,13.479S123.291,0,164.387,0s41.1,13.479,82.192,13.479S287.677,0,328.774,0s41.1,13.479,82.195,13.479S452.063,0,493.158,0s41.1,13.479,82.193,13.479S616.449,0,657.546,0s41.1,13.479,82.191,13.479S780.836,0,821.934,0s41.1,13.479,82.194,13.479S945.226,0,986.324,0s41.1,13.479,82.194,13.479S1109.617,0,1150.716,0s41.1,13.479,82.2,13.479S1274.017,0,1315.117,0" fill="none" stroke="#111d30" stroke-miterlimit="10" stroke-width="2"/>
      </g>
      <g id="Groupe_2546" data-name="Groupe 2546" transform="translate(-3588.824 3751.347)">
        <path id="Tracé_405" data-name="Tracé 405" d="M0,0C41.1,0,41.1,13.479,82.194,13.479S123.291,0,164.387,0s41.1,13.479,82.192,13.479S287.677,0,328.774,0s41.1,13.479,82.195,13.479S452.063,0,493.158,0s41.1,13.479,82.193,13.479S616.449,0,657.546,0s41.1,13.479,82.191,13.479S780.836,0,821.934,0s41.1,13.479,82.194,13.479S945.226,0,986.324,0s41.1,13.479,82.194,13.479S1109.617,0,1150.716,0s41.1,13.479,82.2,13.479S1274.017,0,1315.117,0" fill="none" stroke="#111d30" stroke-miterlimit="10" stroke-width="2"/>
      </g>
      <g id="Groupe_2547" data-name="Groupe 2547" transform="translate(-3588.824 3763.038)">
        <path id="Tracé_406" data-name="Tracé 406" d="M0,0C41.1,0,41.1,13.479,82.194,13.479S123.291,0,164.387,0s41.1,13.479,82.192,13.479S287.677,0,328.774,0s41.1,13.479,82.195,13.479S452.063,0,493.158,0s41.1,13.479,82.193,13.479S616.449,0,657.546,0s41.1,13.479,82.191,13.479S780.836,0,821.934,0s41.1,13.479,82.194,13.479S945.226,0,986.324,0s41.1,13.479,82.194,13.479S1109.617,0,1150.716,0s41.1,13.479,82.2,13.479S1274.017,0,1315.117,0" fill="none" stroke="#111d30" stroke-miterlimit="10" stroke-width="2"/>
      </g>
      <g id="Groupe_2548" data-name="Groupe 2548" transform="translate(-3588.824 3774.731)">
        <path id="Tracé_407" data-name="Tracé 407" d="M0,0C41.1,0,41.1,13.479,82.194,13.479S123.291,0,164.387,0s41.1,13.479,82.192,13.479S287.677,0,328.774,0s41.1,13.479,82.195,13.479S452.063,0,493.158,0s41.1,13.479,82.193,13.479S616.449,0,657.546,0s41.1,13.479,82.191,13.479S780.836,0,821.934,0s41.1,13.479,82.194,13.479S945.226,0,986.324,0s41.1,13.479,82.194,13.479S1109.617,0,1150.716,0s41.1,13.479,82.2,13.479S1274.017,0,1315.117,0" fill="none" stroke="#111d30" stroke-miterlimit="10" stroke-width="2"/>
      </g>
      <g id="Groupe_2549" data-name="Groupe 2549" transform="translate(-3588.823 3786.424)">
        <path id="Tracé_408" data-name="Tracé 408" d="M0,0C41.1,0,41.1,13.479,82.194,13.479S123.291,0,164.387,0s41.1,13.479,82.192,13.479S287.677,0,328.774,0s41.1,13.479,82.195,13.479S452.063,0,493.158,0s41.1,13.479,82.193,13.479S616.449,0,657.546,0s41.1,13.479,82.191,13.479S780.836,0,821.934,0s41.1,13.479,82.194,13.479S945.226,0,986.324,0s41.1,13.479,82.194,13.479S1109.617,0,1150.716,0s41.1,13.479,82.2,13.479S1274.017,0,1315.117,0" fill="none" stroke="#111d30" stroke-miterlimit="10" stroke-width="2"/>
      </g>
      <g id="Groupe_2550" data-name="Groupe 2550" transform="translate(-3588.823 3798.117)">
        <path id="Tracé_409" data-name="Tracé 409" d="M0,0C41.1,0,41.1,13.479,82.194,13.479S123.291,0,164.387,0s41.1,13.479,82.192,13.479S287.677,0,328.774,0s41.1,13.479,82.195,13.479S452.063,0,493.158,0s41.1,13.479,82.193,13.479S616.449,0,657.546,0s41.1,13.479,82.191,13.479S780.836,0,821.934,0s41.1,13.479,82.194,13.479S945.226,0,986.324,0s41.1,13.479,82.194,13.479S1109.617,0,1150.716,0s41.1,13.479,82.2,13.479S1274.017,0,1315.117,0" fill="none" stroke="#111d30" stroke-miterlimit="10" stroke-width="2"/>
      </g>
      <g id="Groupe_2551" data-name="Groupe 2551" transform="translate(-3588.823 3809.81)">
        <path id="Tracé_410" data-name="Tracé 410" d="M0,0C41.1,0,41.1,13.479,82.194,13.479S123.291,0,164.387,0s41.1,13.479,82.192,13.479S287.677,0,328.774,0s41.1,13.479,82.195,13.479S452.063,0,493.158,0s41.1,13.479,82.193,13.479S616.449,0,657.546,0s41.1,13.479,82.191,13.479S780.836,0,821.934,0s41.1,13.479,82.194,13.479S945.226,0,986.324,0s41.1,13.479,82.194,13.479S1109.617,0,1150.716,0s41.1,13.479,82.2,13.479S1274.017,0,1315.117,0" fill="none" stroke="#111d30" stroke-miterlimit="10" stroke-width="2"/>
      </g>
      <g id="Groupe_2552" data-name="Groupe 2552" transform="translate(-3588.823 3821.502)">
        <path id="Tracé_411" data-name="Tracé 411" d="M0,0C41.1,0,41.1,13.479,82.194,13.479S123.291,0,164.387,0s41.1,13.479,82.192,13.479S287.677,0,328.774,0s41.1,13.479,82.195,13.479S452.063,0,493.158,0s41.1,13.479,82.193,13.479S616.449,0,657.546,0s41.1,13.479,82.191,13.479S780.836,0,821.934,0s41.1,13.479,82.194,13.479S945.226,0,986.324,0s41.1,13.479,82.194,13.479S1109.617,0,1150.716,0s41.1,13.479,82.2,13.479S1274.017,0,1315.117,0" fill="none" stroke="#111d30" stroke-miterlimit="10" stroke-width="2"/>
      </g>
      <g id="Groupe_2553" data-name="Groupe 2553" transform="translate(-3588.822 3833.194)">
        <path id="Tracé_412" data-name="Tracé 412" d="M0,0C41.1,0,41.1,13.479,82.194,13.479S123.291,0,164.387,0s41.1,13.479,82.192,13.479S287.677,0,328.774,0s41.1,13.479,82.195,13.479S452.063,0,493.158,0s41.1,13.479,82.193,13.479S616.449,0,657.546,0s41.1,13.479,82.191,13.479S780.836,0,821.934,0s41.1,13.479,82.194,13.479S945.226,0,986.324,0s41.1,13.479,82.194,13.479S1109.617,0,1150.716,0s41.1,13.479,82.2,13.479S1274.017,0,1315.117,0" fill="none" stroke="#111d30" stroke-miterlimit="10" stroke-width="2"/>
      </g>
      <g id="Groupe_2554" data-name="Groupe 2554" transform="translate(-3588.824 3844.887)">
        <path id="Tracé_413" data-name="Tracé 413" d="M0,0C41.1,0,41.1,13.479,82.194,13.479S123.291,0,164.387,0s41.1,13.479,82.192,13.479S287.677,0,328.774,0s41.1,13.479,82.195,13.479S452.063,0,493.158,0s41.1,13.479,82.193,13.479S616.449,0,657.546,0s41.1,13.479,82.191,13.479S780.836,0,821.934,0s41.1,13.479,82.194,13.479S945.226,0,986.324,0s41.1,13.479,82.194,13.479S1109.617,0,1150.716,0s41.1,13.479,82.2,13.479S1274.017,0,1315.117,0" fill="none" stroke="#111d30" stroke-miterlimit="10" stroke-width="2"/>
      </g>
      <g id="Groupe_2555" data-name="Groupe 2555" transform="translate(-3588.823 3856.58)">
        <path id="Tracé_414" data-name="Tracé 414" d="M0,0C41.1,0,41.1,13.479,82.194,13.479S123.291,0,164.387,0s41.1,13.479,82.192,13.479S287.677,0,328.774,0s41.1,13.479,82.195,13.479S452.063,0,493.158,0s41.1,13.479,82.193,13.479S616.449,0,657.546,0s41.1,13.479,82.191,13.479S780.836,0,821.934,0s41.1,13.479,82.194,13.479S945.226,0,986.324,0s41.1,13.479,82.194,13.479S1109.617,0,1150.716,0s41.1,13.479,82.2,13.479S1274.017,0,1315.117,0" fill="none" stroke="#111d30" stroke-miterlimit="10" stroke-width="2"/>
      </g>
      <g id="Groupe_2556" data-name="Groupe 2556" transform="translate(-3588.823 3868.272)">
        <path id="Tracé_415-2" data-name="Tracé 415" d="M0,0C41.1,0,41.1,13.479,82.194,13.479S123.291,0,164.387,0s41.1,13.479,82.192,13.479S287.677,0,328.774,0s41.1,13.479,82.195,13.479S452.063,0,493.158,0s41.1,13.479,82.193,13.479S616.449,0,657.546,0s41.1,13.479,82.191,13.479S780.836,0,821.934,0s41.1,13.479,82.194,13.479S945.226,0,986.324,0s41.1,13.479,82.194,13.479S1109.617,0,1150.716,0s41.1,13.479,82.2,13.479S1274.017,0,1315.117,0" fill="none" stroke="#111d30" stroke-miterlimit="10" stroke-width="2"/>
      </g>
      <g id="Groupe_2557" data-name="Groupe 2557" transform="translate(-3588.823 3879.965)">
        <path id="Tracé_416-2" data-name="Tracé 416" d="M0,0C41.1,0,41.1,13.479,82.194,13.479S123.291,0,164.387,0s41.1,13.479,82.192,13.479S287.677,0,328.774,0s41.1,13.479,82.195,13.479S452.063,0,493.158,0s41.1,13.479,82.193,13.479S616.449,0,657.546,0s41.1,13.479,82.191,13.479S780.836,0,821.934,0s41.1,13.479,82.194,13.479S945.226,0,986.324,0s41.1,13.479,82.194,13.479S1109.617,0,1150.716,0s41.1,13.479,82.2,13.479S1274.017,0,1315.117,0" fill="none" stroke="#111d30" stroke-miterlimit="10" stroke-width="2"/>
      </g>
      <g id="Groupe_2558" data-name="Groupe 2558" transform="translate(-3588.824 3891.657)">
        <path id="Tracé_417-2" data-name="Tracé 417" d="M0,0C41.1,0,41.1,13.478,82.194,13.478S123.291,0,164.387,0s41.1,13.478,82.192,13.478S287.677,0,328.774,0s41.1,13.478,82.195,13.478S452.063,0,493.158,0s41.1,13.478,82.193,13.478S616.449,0,657.546,0s41.1,13.478,82.191,13.478S780.836,0,821.934,0s41.1,13.478,82.194,13.478S945.226,0,986.324,0s41.1,13.478,82.194,13.478S1109.617,0,1150.716,0s41.1,13.478,82.2,13.478S1274.017,0,1315.117,0" fill="none" stroke="#111d30" stroke-miterlimit="10" stroke-width="2"/>
      </g>
      <g id="Groupe_2559" data-name="Groupe 2559" transform="translate(-3588.824 3903.35)">
        <path id="Tracé_418-2" data-name="Tracé 418" d="M0,0C41.1,0,41.1,13.479,82.194,13.479S123.291,0,164.387,0s41.1,13.479,82.192,13.479S287.677,0,328.774,0s41.1,13.479,82.195,13.479S452.063,0,493.158,0s41.1,13.479,82.193,13.479S616.449,0,657.546,0s41.1,13.479,82.191,13.479S780.836,0,821.934,0s41.1,13.479,82.194,13.479S945.226,0,986.324,0s41.1,13.479,82.194,13.479S1109.617,0,1150.716,0s41.1,13.479,82.2,13.479S1274.017,0,1315.117,0" fill="none" stroke="#111d30" stroke-miterlimit="10" stroke-width="2"/>
      </g>
      <g id="Groupe_2560" data-name="Groupe 2560" transform="translate(-3588.824 3915.042)">
        <path id="Tracé_419-2" data-name="Tracé 419" d="M0,0C41.1,0,41.1,13.479,82.194,13.479S123.291,0,164.387,0s41.1,13.479,82.192,13.479S287.677,0,328.774,0s41.1,13.479,82.195,13.479S452.063,0,493.158,0s41.1,13.479,82.193,13.479S616.449,0,657.546,0s41.1,13.479,82.191,13.479S780.836,0,821.934,0s41.1,13.479,82.194,13.479S945.226,0,986.324,0s41.1,13.479,82.194,13.479S1109.617,0,1150.716,0s41.1,13.479,82.2,13.479S1274.017,0,1315.117,0" fill="none" stroke="#111d30" stroke-miterlimit="10" stroke-width="2"/>
      </g>
      <g id="Groupe_2561" data-name="Groupe 2561" transform="translate(-3588.823 3926.735)">
        <path id="Tracé_420-2" data-name="Tracé 420" d="M0,0C41.1,0,41.1,13.479,82.194,13.479S123.291,0,164.387,0s41.1,13.479,82.192,13.479S287.677,0,328.774,0s41.1,13.479,82.195,13.479S452.063,0,493.158,0s41.1,13.479,82.193,13.479S616.449,0,657.546,0s41.1,13.479,82.191,13.479S780.836,0,821.934,0s41.1,13.479,82.194,13.479S945.226,0,986.324,0s41.1,13.479,82.194,13.479S1109.617,0,1150.716,0s41.1,13.479,82.2,13.479S1274.017,0,1315.117,0" fill="none" stroke="#111d30" stroke-miterlimit="10" stroke-width="2"/>
      </g>
      <g id="Groupe_2562" data-name="Groupe 2562" transform="translate(-3588.823 3938.428)">
        <path id="Tracé_421-2" data-name="Tracé 421" d="M0,0C41.1,0,41.1,13.479,82.194,13.479S123.291,0,164.387,0s41.1,13.479,82.192,13.479S287.677,0,328.774,0s41.1,13.479,82.195,13.479S452.063,0,493.158,0s41.1,13.479,82.193,13.479S616.449,0,657.546,0s41.1,13.479,82.191,13.479S780.836,0,821.934,0s41.1,13.479,82.194,13.479S945.226,0,986.324,0s41.1,13.479,82.194,13.479S1109.617,0,1150.716,0s41.1,13.479,82.2,13.479S1274.017,0,1315.117,0" fill="none" stroke="#111d30" stroke-miterlimit="10" stroke-width="2"/>
      </g>
      <g id="Groupe_2563" data-name="Groupe 2563" transform="translate(-3588.823 3950.12)">
        <path id="Tracé_422-2" data-name="Tracé 422" d="M0,0C41.1,0,41.1,13.479,82.194,13.479S123.291,0,164.387,0s41.1,13.479,82.192,13.479S287.677,0,328.774,0s41.1,13.479,82.195,13.479S452.063,0,493.158,0s41.1,13.479,82.193,13.479S616.449,0,657.546,0s41.1,13.479,82.191,13.479S780.836,0,821.934,0s41.1,13.479,82.194,13.479S945.226,0,986.324,0s41.1,13.479,82.194,13.479S1109.617,0,1150.716,0s41.1,13.479,82.2,13.479S1274.017,0,1315.117,0" fill="none" stroke="#111d30" stroke-miterlimit="10" stroke-width="2"/>
      </g>
      <g id="Groupe_2564" data-name="Groupe 2564" transform="translate(-3588.823 3961.813)">
        <path id="Tracé_423-2" data-name="Tracé 423" d="M0,0C41.1,0,41.1,13.479,82.194,13.479S123.291,0,164.387,0s41.1,13.479,82.192,13.479S287.677,0,328.774,0s41.1,13.479,82.195,13.479S452.063,0,493.158,0s41.1,13.479,82.193,13.479S616.449,0,657.546,0s41.1,13.479,82.191,13.479S780.836,0,821.934,0s41.1,13.479,82.194,13.479S945.226,0,986.324,0s41.1,13.479,82.194,13.479S1109.617,0,1150.716,0s41.1,13.479,82.2,13.479S1274.017,0,1315.117,0" fill="none" stroke="#111d30" stroke-miterlimit="10" stroke-width="2"/>
      </g>
      <g id="Groupe_2565" data-name="Groupe 2565" transform="translate(-3588.823 3973.505)">
        <path id="Tracé_424-2" data-name="Tracé 424" d="M0,0C41.1,0,41.1,13.478,82.194,13.478S123.291,0,164.387,0s41.1,13.478,82.192,13.478S287.677,0,328.774,0s41.1,13.478,82.195,13.478S452.063,0,493.158,0s41.1,13.478,82.193,13.478S616.449,0,657.546,0s41.1,13.478,82.191,13.478S780.836,0,821.934,0s41.1,13.478,82.194,13.478S945.226,0,986.324,0s41.1,13.478,82.194,13.478S1109.617,0,1150.716,0s41.1,13.478,82.2,13.478S1274.017,0,1315.117,0" fill="none" stroke="#111d30" stroke-miterlimit="10" stroke-width="2"/>
      </g>
      <g id="Groupe_2566" data-name="Groupe 2566" transform="translate(-3588.824 3985.198)">
        <path id="Tracé_425-2" data-name="Tracé 425" d="M0,0C41.1,0,41.1,13.478,82.194,13.478S123.291,0,164.387,0s41.1,13.478,82.192,13.478S287.677,0,328.774,0s41.1,13.478,82.195,13.478S452.063,0,493.158,0s41.1,13.478,82.193,13.478S616.449,0,657.546,0s41.1,13.478,82.191,13.478S780.836,0,821.934,0s41.1,13.478,82.194,13.478S945.226,0,986.324,0s41.1,13.478,82.194,13.478S1109.617,0,1150.716,0s41.1,13.478,82.2,13.478S1274.017,0,1315.117,0" fill="none" stroke="#111d30" stroke-miterlimit="10" stroke-width="2"/>
      </g>
      <g id="Groupe_2567" data-name="Groupe 2567" transform="translate(-3588.823 3996.891)">
        <path id="Tracé_426-2" data-name="Tracé 426" d="M0,0C41.1,0,41.1,13.479,82.194,13.479S123.291,0,164.387,0s41.1,13.479,82.192,13.479S287.677,0,328.774,0s41.1,13.479,82.195,13.479S452.063,0,493.158,0s41.1,13.479,82.193,13.479S616.449,0,657.546,0s41.1,13.479,82.191,13.479S780.836,0,821.934,0s41.1,13.479,82.194,13.479S945.226,0,986.324,0s41.1,13.479,82.194,13.479S1109.617,0,1150.716,0s41.1,13.479,82.2,13.479S1274.017,0,1315.117,0" fill="none" stroke="#111d30" stroke-miterlimit="10" stroke-width="2"/>
      </g>
      <g id="Groupe_2568" data-name="Groupe 2568" transform="translate(-3588.823 4008.584)">
        <path id="Tracé_427-2" data-name="Tracé 427" d="M0,0C41.1,0,41.1,13.478,82.194,13.478S123.291,0,164.387,0s41.1,13.478,82.192,13.478S287.677,0,328.774,0s41.1,13.478,82.195,13.478S452.063,0,493.158,0s41.1,13.478,82.193,13.478S616.449,0,657.546,0s41.1,13.478,82.191,13.478S780.836,0,821.934,0s41.1,13.478,82.194,13.478S945.226,0,986.324,0s41.1,13.478,82.194,13.478S1109.617,0,1150.716,0s41.1,13.478,82.2,13.478S1274.017,0,1315.117,0" fill="none" stroke="#111d30" stroke-miterlimit="10" stroke-width="2"/>
      </g>
      <g id="Groupe_2569" data-name="Groupe 2569" transform="translate(-3588.823 4020.277)">
        <path id="Tracé_428-2" data-name="Tracé 428" d="M0,0C41.1,0,41.1,13.479,82.194,13.479S123.291,0,164.387,0s41.1,13.479,82.192,13.479S287.677,0,328.774,0s41.1,13.479,82.195,13.479S452.063,0,493.158,0s41.1,13.479,82.193,13.479S616.449,0,657.546,0s41.1,13.479,82.191,13.479S780.836,0,821.934,0s41.1,13.479,82.194,13.479S945.226,0,986.324,0s41.1,13.479,82.194,13.479S1109.617,0,1150.716,0s41.1,13.479,82.2,13.479S1274.017,0,1315.117,0" fill="none" stroke="#111d30" stroke-miterlimit="10" stroke-width="2"/>
      </g>
    </g>
    <g id="Groupe_2620" data-name="Groupe 2620" transform="translate(-1354.48 -1694.419) rotate(90)" opacity="0.405">
      <g id="Groupe_2617" data-name="Groupe 2617" transform="translate(2381.52 -1622.963)">
        <path id="Tracé_2553" data-name="Tracé 2553" d="M3751.908-1490.751a15.781,15.781,0,0,1-11.293-4.146c-5.97-5.662-7.217-16.746-3.251-28.931,3.483-10.7,15.232-34.542,29.345-39.929a15.121,15.121,0,0,1,13.579,1.081c10.5,6.116,15.042,16.223,13.127,29.227h0c-2.241,15.175-12.278,33.484-29.656,40.181A33.216,33.216,0,0,1,3751.908-1490.751Z" transform="translate(-3735.073 1564.876)" fill="none" stroke="#ece4d5" stroke-width="1.5"/>
      </g>
      <g id="Groupe_2614" data-name="Groupe 2614" transform="translate(1891.472 -1809.906)">
        <path id="Tracé_2549" data-name="Tracé 2549" d="M4083.857-1834.676c4.131.219,8.157-1.611,11.74-5.543a91.209,91.209,0,0,0,10.827-15.261h-2.393a85.985,85.985,0,0,1-9.952,13.874c-3.146,3.453-6.579,5.083-10.1,4.875-6.845-.415-13.132-7.333-17.153-12.979a65.467,65.467,0,0,0-3.732-5.77h-2.676a64.618,64.618,0,0,1,4.674,6.875C4069.429-1842.506,4076.2-1835.141,4083.857-1834.676Z" transform="translate(-3361.08 1855.48)" fill="#ece4d5" stroke="#707070" stroke-width="1.5"/>
        <path id="Tracé_2550" data-name="Tracé 2550" d="M3912.759-1808.143a159.029,159.029,0,0,1-10.011-17.839,158.737,158.737,0,0,1-5.905-16.012c-1.464-4.459-2.984-9.063-4.811-13.487-2.188.183-553.692,14.735-536.014,0-20.434,14.807-36.506,34.446-44.22,55.808-10.58,29.29-16.8,62.726-18.48,99.379-.527,11.511.236,23.6.98,35.285,1.321,20.882,2.688,42.475-3.141,62.148-11.062,37.294-43.015,68.307-97.691,94.816-23.676,11.479-49.035,20.111-73.561,28.46-26.918,9.162-54.75,18.638-80.437,31.9a130.17,130.17,0,0,0-12.047,7.089c-35.049,23.2-64.329,64.809-50.729,105.467,7.368,22.03,28.747,41.2,54.469,48.837,13.117,3.9,26.626,5.277,40.261,5.277,16.946,0,34.089-2.136,50.91-4.231l4.639-.576c3.689-.457,7.453-.962,11.252-1.475,15.68-2.116,31.873-4.3,46.956-3.453,6.06.34,12.031,1,17.806,1.644,17,1.887,33.07,3.679,50.634-2.412,21.752-7.541,38.558-24.148,54.811-40.208,6.006-5.931,12.208-12.064,18.56-17.63a204.925,204.925,0,0,1,141.208-50.127c3.955.148,8.413.53,11.323,3.209,6.056,5.586,3.94,13.052,1.7,20.957-2.523,8.9-5.387,19,4.573,26.636,8.237,6.315,21.229,6.456,31.6.332,8.172-4.827,14.982-12.969,20.822-24.9,2.186-4.468,4.111-9.129,5.976-13.64,2.181-5.282,4.438-10.745,7.116-15.879,10.514-20.186,30.592-32.2,48.845-41.291,6.594-3.285,13.585-4.7,20.349-6.066,6.036-1.218,12.282-2.48,18.369-5.058,12.268-5.2,26.159-16.612,28.365-33.072.286-2.136.362-4.307.438-6.408a49.043,49.043,0,0,1,.7-7.921c1.287-6.45,7.945-11.054,14.383-15.5a67.45,67.45,0,0,0,8.911-6.878c9.855-9.722,17.057-19.2,22-28.966,8.855-17.5,10.956-36.512,12.479-56.077.688-8.9,5.182-15.456,9.931-22.4,3.237-4.729,6.584-9.619,8.8-15.436,3.066-8.016,3.614-16.691,4.141-25.079a124.558,124.558,0,0,1,1.87-17.062c6.3-30.78,42.854-37.738,74.969-33.964,3.975.465,7.966,1.018,11.956,1.568,15.384,2.128,31.305,4.322,46.8,1.512,16.73-3.038,30.426-12.894,37.567-27.036,6.906-13.688,6.755-29.931-.427-44.563C3919.1-1797.9,3915.875-1803.1,3912.759-1808.143Z" transform="translate(-2973.292 1855.48)" fill="none" stroke="#ece4d5" stroke-width="1.5"/>
      </g>
      <g id="Groupe_2612" data-name="Groupe 2612" transform="matrix(0.788, -0.616, 0.616, 0.788, 1565.479, -1741.437)">
        <path id="Tracé_2547" data-name="Tracé 2547" d="M2581.876-1012c-14.258-8.1-13.826-29.35-12.3-41.294a250.643,250.643,0,0,1,59.671-132.25c7.92-9.023,14.66-18.666,10.338-28.019-3.151-6.825-11.207-9.584-17.7-9.888-.613-.03-1.226-.042-1.839-.042a84.472,84.472,0,0,0-9.569.724c-2.89.329-5.875.668-8.8.706-.181,0-.362,0-.542,0a44.182,44.182,0,0,1-37.155-20.907,44.16,44.16,0,0,1-1.086-43.09c6.373-11.818,17.243-19.523,28.757-27.682,9.077-6.433,18.465-13.087,25.33-21.92,9.368-12.052,13.379-27.181,17.259-41.816l1.065-4c18.922-70.481,50.644-117.708,94.282-140.368,14.656-7.609,30.828-12.421,46.468-17.072,9.212-2.742,18.736-5.576,27.893-8.958,8.594-3.177,17.479-8.72,26.068-14.08,11.494-7.171,23.375-14.587,34.733-16.479,16.665-2.774,33.793.618,48.528,4.018q3.265.754,6.539,1.536c13.745,3.251,27.958,6.614,42.312,6.679h.317c30.471,0,62.123-19.236,80.7-49.079,6.614-10.625,15.137-26.483,12.775-41.463a154.543,154.543,0,0,0-4.784-19.527c-3.066-10.471-5.966-20.361-5.3-32.145.116-1.96.287-3.92.463-5.882.442-5.054.9-10.278.307-15.442-1.211-10.564-8.679-18.783-15.9-26.732a108.66,108.66,0,0,1-8.991-10.75c-9.448-13.612-4.448-24.762,6.685-38.338,4.353-5.305,8.061-11.469,11.655-17.432,1.744-2.9,3.553-5.9,5.382-8.71l-444.3,43.767-18.427,145.193Z" transform="translate(-2795.756 1815.48)" fill="none" stroke="#ece4d5" stroke-width="1.5"/>
      </g>
      <g id="Groupe_2616" data-name="Groupe 2616" transform="translate(2251.308 -1724.043)">
        <path id="Tracé_2552" data-name="Tracé 2552" d="M3558.193-1436.173c-10.433,0-20.555-4.357-24.188-13.9-4.563-11.956,3.372-24.058,10.373-34.735l.3-.459a198.826,198.826,0,0,0,26.21-59.251c2.92-11.29,4.895-23.073,6.8-34.466,3.252-19.4,6.609-39.449,14.746-57.713h0c31.763-71.3,118.873-95.3,184.741-81.66,9.438,1.955,21,5.405,26.606,14.808,5.77,9.665,2.89,22.129.216,30.664-4.056,12.966-7.885,25.212-2.086,38.583,2.6,5.985,6.594,11.361,10.454,16.557,3.96,5.327,8.056,10.838,10.754,17.1,7.127,16.547,8.373,33.235,3.518,46.988-3.628,10.275-10.554,18.919-17.253,27.277-5.775,7.2-11.745,14.655-15.519,23.075-1.548,3.455-2.88,7.292-4.167,11-3.885,11.21-7.9,22.8-18.741,27.214-11.79,4.8-24.329-2.1-35.376-8.2l-.744-.41c-12.348-6.807-20.49-8.85-33.305-2.076-11.112,5.878-24.139,9.127-41,10.223-3.261.214-6.549.372-9.845.533-14.991.734-30.5,1.49-44.246,7.47a125.535,125.535,0,0,0-15.861,8.82c-6.353,3.945-12.926,8.026-20.148,10.522A37.9,37.9,0,0,1,3558.193-1436.173Z" transform="translate(-3532.658 1722.005)" fill="none" stroke="#ece4d5" stroke-width="1.5"/>
      </g>
      <g id="Groupe_2618" data-name="Groupe 2618" transform="translate(2007.339 -1840.871)">
        <path id="Tracé_2554" data-name="Tracé 2554" d="M2603.381-1433.613a42.136,42.136,0,0,1-4.408-.229c-36.989-3.832-44.759-52.5-47.312-68.5-5.3-33.177,3.684-87.965,39.779-100.2,15.057-5.1,30.582-4.226,43.7,2.463a50.907,50.907,0,0,1,25.435,30.677,148.3,148.3,0,0,1,4.96,21.394h0c3.377,21.893,1.558,43.641-5.267,62.892C2650.985-1458.875,2630.038-1433.613,2603.381-1433.613Z" transform="translate(-2550.26 1605.813)" fill="none" stroke="#ece4d5" stroke-width="1.5"/>
      </g>
    </g>
    <text id="_" data-name="…" transform="translate(341 106)" fill="#111d30" font-size="36" font-family="Fuji-Regular, Fuji" letter-spacing="0.07em"><tspan x="-10.998" y="0">…</tspan></text>
  </g>
</svg>
