<svg xmlns="http://www.w3.org/2000/svg" width="267.212" height="180.242" viewBox="0 0 267.212 180.242">
  <g id="Groupe_2666" data-name="Groupe 2666" transform="translate(3506.475 7475.714)">
    <g id="Groupe_2396" data-name="Groupe 2396">
      <path id="Tracé_2481" data-name="Tracé 2481" d="M-3395.484-7400l-.663,2.158-.509,2.042-.559,2.164,1.957.1,1.716-.358-.8-1.881-.522-2.045Z" fill="#ece4d5"/>
    </g>
    <g id="Groupe_2397" data-name="Groupe 2397">
      <path id="Tracé_2482" data-name="Tracé 2482" d="M-3410.463-7402.859l-.479,1.671-.4,1.815-.472,1.718,1.686.665,1.856-.04,1.084-1.71.008-1.086-.209-1.726-1.348-.964Z" fill="#ece4d5"/>
    </g>
    <g id="Groupe_2398" data-name="Groupe 2398">
      <path id="Tracé_2483" data-name="Tracé 2483" d="M-3435.588-7404.986l.53-1.878.479-1.894.665-1.848-.33-1.951-1.713-.767-1.8-.588-.408,2.033-.5,2.04-.69,1.995-.55,2.032-.421,2.107,1.949.308,1.858.009Z" fill="#ece4d5"/>
    </g>
    <g id="Groupe_2399" data-name="Groupe 2399">
      <path id="Tracé_2484" data-name="Tracé 2484" d="M-3435.531-7381.316l1.192-1.612.1-1.062-.28-1.864-1.461-.955-1.7-.145-.585,1.576-.522,1.785-.279,1.793,1.753.51Z" fill="#ece4d5"/>
    </g>
    <g id="Groupe_2400" data-name="Groupe 2400">
      <path id="Tracé_2485" data-name="Tracé 2485" d="M-3382.523-7401.529l.077-.041.113,1.19.8,1.209,1.141-.566,1.611-1.124.124-1.843-.133-.439-1.457-1.224-2,.351-1.246.5Z" fill="#ece4d5"/>
    </g>
    <g id="Groupe_2401" data-name="Groupe 2401">
      <path id="Tracé_2486" data-name="Tracé 2486" d="M-3390.082-7372.807l-.692-1.734-2.088-.3-1.161.323-.131,2.364.59,2.309,1.222-.056,1.9-.711.494-1.752Z" fill="#ece4d5"/>
    </g>
    <g id="Groupe_2402" data-name="Groupe 2402">
      <path id="Tracé_2487" data-name="Tracé 2487" d="M-3419.778-7380.713l-2-.4-1.3,1.521-1.147,1.7-.826,1.86-.523,2.012-.5,1.764,1.4,1.3,1.916.5,1.239-1.519.718-1.911,1.4-1.572.822-1.862-.173-1.842Z" fill="#ece4d5"/>
    </g>
    <g id="Groupe_2403" data-name="Groupe 2403">
      <path id="Tracé_2488" data-name="Tracé 2488" d="M-3464.725-7456.995l1.214-.293,1.675-.982,1.582-1.135,1.727-.893,1.545-1.226.826-1.162-.045-1.424-1.023-1.28-1.512.589-1.877.809-1.771,1.007-1.589,1.3-1.917.781-1.075,1.307.57,1.561Z" fill="#ece4d5"/>
    </g>
    <g id="Groupe_2405" data-name="Groupe 2405">
      <g id="Groupe_2404" data-name="Groupe 2404">
        <path id="Tracé_2489" data-name="Tracé 2489" d="M-3326.96-7378l2.02.813,1.778.8,1.7.944,1.786.752,1.936.465,1.6,1.138,2.611,1.415.066-.8.594-.334.5.8.123.916,2.05.577,1.819.929,1.951.6,1.876.839,1.994.469,1.928.767,2.027.362.38-.079.575-.314-.146-.479.225-.338.284-.566.723-.109.156.6.065-.6-.324-1.428-1.268-.609-2.033-.857-2.123-.371-2.09-.484-.321-.194-.045.412-.335-.569-.2.239-1.573-.984-1.74-.54-.019-.294-.333,0-1.821-.937-2.032-.5-1.592-1.38-2.009-.419-1.673-1.094-1.777-.879-1.905-.593-1.813-1.051.007,2.021-.575.244-.033-.036-.573-.286.385-1.9.034-.136-2.47-.774.394-2.531-.389-2.5.178-2.041-.173-2.03-.22-2.025-.1-2.034-.391-2-.314-2.007-.221-2.024-.509-1.972-.089-1.885,1.808.167,1.8.806,1.839.669,1.835.682,1.577,1.235,1.807.734,1.8.762,1.76.9,1.667,1.1,1.815.8,2.02.306,1.8.8,1.784.9,1.99.241,1.886.581,1.958.267,1.925.412,1.909.663,1.986.106,1.992-.163,1.97.477,1.993-.291,2.008-.106,2-.081,2-.135,2.017.036,1.97-.4,1.4-.664.377-1.564.134-.192-.216-.155-.249-.4-2.032-.818-1.961.248-.063.088.113-.049.253.255-.138-.129.387.66.5-.252.144.368.044.494.123.286.56-.106-.293.319.588.359-.825.751-.228.439-1.133-.418-.013-.542-.372.2-.068.027-.322-.32-.285-.653.229-.27-.683-.416-.262-.214-.035.078-.582.233.28-.636-.325-.558-.194-.073-2.42.27-2.435.335-1.994-.12-1.994-.015-1.975-.286-1.954-.408-2-.063-1.955-.388-1.959-.367-1.827-.83-1.875-.627-1.934-.492-1.863-.694-1.833-.773-1.647-1.146-1.945-.547-1.856-.942-1.684-1.293-1.9-.87-1.992-.643-1.867-.97-2-.619-2.009-.594-2.279-.06-.4-2.17-.8-1.891-.156-2.108-1.134-1.766-.74-1.9-.678-1.932-1.043-1.772-.584-1.983-1.151-1.711-.669-1.958-1.113-1.723-1.02-1.773-.832-1.894-1.185-1.676-1.483-1.464-.849-1.908-1.532-1.408-1.017-1.84-.541.454.379.736-1.291.387-.235-.211-.057.345-.355-.243-.057-1.292,1.05-1.287.24.308-1.327-1.51-1.343-1.5-1.205-1.627-1.429-1.42-1.432-1.416-1.6-1.231-1.623-1.2-1.176-1.713-1.556-1.282-1.571-1.265-1.914-.8-1.64-1.152-1.341-1.6-1.874-.813-1.7-1.07-1.7-1.076-1.714-1.055-1.822-.859-1.686-1.125-1.949-.589-1.9-.661-1.673-1.2-1.927-.6-1.841-.825-1.865-.774-1.94-.552-2.038-.2-1.845-.879-1.946-.524-1.99-.332-1.989-.315-1.952-.521-2.036,0-2-.175-1.985-.32-1.987-.358-2-.269-2.03.42-2-.308-2.013-.169-2.013.444-2.023-.014-2.01.214-2.056-.256-2,.333-1.978.477-1.972.464-2.068-.055-1.924.695-2,.313-1.9.734-1.936.576-1.99.4-1.895.711-1.859.8-2,.436-.981,1.155-.018,1.442.891,1.279,1.677.124,1.927-.72,1.92-.743,1.834-1.035,2.085-.23,1.98-.57,2.009-.453,1.989-.55,1.981-.631,2.082-.069,2.027-.383,2.019-.513,2.063-.16,2.066-.107,2.076.2,2.062.1,1.99-.215,2-.278,1.975.509,1.976.259,2.02-.211,1.973.309,1.995.146,1.9.741,1.989.185,2.018.1,1.968.817,1.489-1.22.471-.039.114.494-.826,1.188,2.07.263,1.827.794,1.962.369,1.86.684,1.9.584,1.659,1.171,1.905.578,1.862.692,1.676,1.079,1.656,1.1,1.754.9,1.782.864,1.641,1.1,1.906.7,1.439,1.408,1.56,1.217,1.673,1.062,1.74.993,1.258,1.588,1.458,1.333,1.7,1.07,1.51,1.287,1.17,1.634,1.524,1.277,1.5,1.312.957,1.852.809.124.071.424.316.136.076.06-.417.245,1.3,1.45,1.327,1.433,1.338,1.435.694,1.9,1.157,1.562,1.471,1.369.969,1.7.793,1.8.869,1.743,1.132,1.606.745,1.807.6,1.865.776,1.781.744,1.8.668,1.823.677,1.82.951,1.734.334,1.756-2,.124-2.123-.207-2.124-.421-2.146-.109-.6.276.631,1.887.45,1.97,1.784-.041,1.844.477,1.847.183,1.861.038,1.967.041.212,2.024.735,1.82.232,1.925.218,1.922-.013,1.948.333,1.9.106,1.926.133,1.921.58,1.906-.383,1.943.21,1.992.035,2.157-2.316-.371-2.15-.545-2.2-.159-2.04.085-.443,1.787,0,2.09,2.284,0,2.174.361,2.163.352,2.223.228-.081,2.128-.607,2.032.056,2.115-.524,2.031-.275,2.074-.263,2.084-.761,1.967-.235,2.1-.929,1.906-.48,2.04-.723,2.029-1.863-.06-1.776-.166-1.783-.24-1.792.279-2.253-.386-.753,2.213-1.127,2.138,2.173-.153,1.96-.145,1.888-.113,1.859.551,1.814-.094-.795,1.688-.716,1.8-.729,1.8-.816,1.76-1.206,1.547-.753,1.8-1.168,1.555-1.078,1.676.71.733-.134.859-.051.175-.479.469-.066.066-.628-.824-.228-.181-.023-.241-.873,2.051-1.394,1.687-1.2,1.832-1.624,1.513.314.539-.2.309-.105.182.3.393-1.455.8-.206-.319-.253.045.119.31-1.475,1.28-1.4,1.352-1.524,1.223-1.095,1.665-1.428,1.327-1.586,1.146-1.643,1.065-1.463,1.276-1.518,1.211-1.468,1.286-1.51,1.238-1.8.8-1.694.953-1.6,1.108.23.027-.129.63-.207.641-.434.247-.294-.15-.018-.082-.576,0,.038-.378-1.792.949-1.849.836-1.649,1.25-1.859.829-1.881.775-1.966.554-1.822.929-2.067.23-1.829.938-1.957.542-1.94.61-2.046.172-1.936.637-1.984.439-2.058-.018-2,.287-1.988.423-1.993.5-2.052-.223-2.021.178-2.029-.025-1.948-.014-1.958.3-1.931-.506-1.973.277-1.914-.5-1.949-.11-1.969,0-1.859-.74-1.988.037-1.824-.809-2-.015-1.928-.346.117-.117-.2-.215-.4.035-1.681-.4-1.6-.559-.811.208-.523.62-.208.223-.215,1.136.276.414-.672-.067-.091.309-.34-.167-.741.325-.212-.412-.568-.338.219-.221-.331-.049-.063-.032-.567.18-.28.136-.132.205-.209-.7-.977-.726-.5-.359.086-.1-.369-.179.029-.534.451-.7-.414-.273-.284-.051.117.078-.04.227-1.159.583-.048.01-.359-.13-.465-.118-.205-.39-.206-.4.011-.156-.041-.143-.175-.68.125-.5.46.044,1.582-.1.472-.193-2.051-.38-1.695-1.132-1.82-.854-1.764-.965-1.748-.992-1.636-1.177-1.908-.731-1.644-1.164-1.693-1.088-1.755-1.01-1.385-1.506-1.6-1.217-1.663-1.145-1.26-1.614-1.546-1.281-1.372-1.467-1.987-1.262-1.574-1.682-1.5-1.713-.152-.207-.74.012-.14.185,0,.1-.36.292-.1-.015-.538-.36-.325-.055.364-.486-.443-.112.077-.305-.042-.069.173-.525-.089-.261.617-.266.077-.283-1.173-1.519-1.033-1.618-1.374-1.365.017.6-1.12-.039-.454.515-.069-.314-.584.066.17-.527-.173-.406-.243-.5.409-.065.1-.143-.057-.219.241-.545.53.175-.73-1.893-1.448-1.461-.636-1.961-1.176-1.638-.884-1.8-1.144-1.672-.71-1.889-.622-1.919-1.217-1.666-.353-2.021-.743-1.863-.628-1.9-.951-1.807-.457-1.963-.474-1.954-.333-1.986-.57-1.932-.407-1.97-.133-2.014-.154-2-.339-1.979-.509-1.972-.2-2,.083-2.02.157-2.014-.274-1.626.109-1.628-.7-1.238-1.2-.789-1.4.563-.433,1.377-.335,1.7.017,1.7.167,2,.176,2-.207,2.025.219,2,.228,2,.459,1.962.6,1.931-.114,2.056.479,1.951.6,1.92.482,1.944.35,1.983.572,1.924.714,1.877.883,1.813.261,2.044,1.042,1.744,1.03,1.735.4,2.017,1.051,1.72.633,1.93,1.432,1.5.8,1.849,1.007,1.732,1.062,1.7,1.087,1.684.943,1.789,1.318,1.524,1.461,1.4,1.3,1.509-.169.2.343.019.873-.931.3.481.329.068.655,1.473.269.569-.59.128.042.049-.477-.181-.109-.125-.047.236.041.061,1.288,1.533,1.108,1.716,1.779,1.081,1.271,1.569,1.236,1.584,1.714,1.068,1.279,1.556,1.65,1.124,1.565,1.221,1.471,1.348,1.591,1.194,1.689,1.053,1.614,1.162,1.934.652,1.437,1.46,1.819,1.051.6-.831.077.186.183-.332,1.783-.053.446.486.745-.947.164.056.4.606.492-.218.386.273.3.58-.026.347-.344,1.05.97.05.19,1.191-.371.459,1.587.294.436.44.85.688.073-.6.536-.411.373-.466,1.161,1.379-.209.324-.218.379,1.906.64,1.807.864,2.066.088,1.778.974,1.943.44,1.927.49,1.91.567,1.986.222,1.95.38,1.954.364,1.938.5,1.988.149,1.975.265,2.016-.311,1.964.446,1.985.216,1.993-.082,1.275.022,2.008.016,1.979-.544,2-.024,2.032.212,1.971-.424,1.95-.515,1.984-.256,2.016-.108,1.881-.793,1.969-.349,1.971-.369,2-.294,1.905-.632,1.916-.6,1.766-1.016,1.907-.611,1.969-.474,1.7-1.121,2-.447,1.664-1.166,1.932-.624,1.774-.942,1.548-1.333,1.926-.684,1.525-1.342,1.655-1.126,1.718-1.036,1.761-.99,1.577-1.244,1.547-1.281,1.418-1.43,1.447-1.386,1.5-1.321,1.557-1.269,1.174-1.658,1.74-1.1,1.083-1.727,1.617-1.246,1.056-1.731,1.1-1.679,1.251-1.558,1.6-1.312,1.059-1.71,1.185-1.623.708-1.925,1.264-1.574,1.084-1.69.609-1.949,1.317-1.574.671-1.9.723-1.87.748-1.855.736-1.857.965-1.773.548-1.93.461-1.953,1.058-1.769.21-2.023.692-1.889.247-2,.4-1.959.731-1.9.327-1.981-.018-2.026.263-1.984Zm13.9-23.426.813-.443.126.066.635.055.268.223.436.778-.458.342h-.271l-.165.4-.156-.011Zm-8.258-3.285,1.432-.067.478.135.246.217.179.141.172.863-.9.039-.464-.13-.416.383-.639-.071.181-.617Zm-146.948,89.323-.67.447-.48.184-.007-.2-.286-.229.022,0-.279-.158-.364-.933-.213-.6.842-.4.443.857.311.11.616.469-.178.063Z" fill="#ece4d5"/>
      </g>
    </g>
    <g id="Groupe_2407" data-name="Groupe 2407">
      <g id="Groupe_2406" data-name="Groupe 2406">
        <path id="Tracé_2490" data-name="Tracé 2490" d="M-3264.125-7342.285l1.908-.476,1.462-1.155,1.693-.931,1.059,1.259.968,1.406,1.778-.844,1.419-1.058-1.61-1.593-1.414-1.879-1.67-1.638-.423.013-.262.235-.572-.579.329-.637-1.384-1.274-1.4-1.219-1.141-1.475-1.328-1.3-1.539-1.087.213-.053-1.754.678-1.894.768.346,2.087.788,1.857-.218,2.014.817,1.852-.2,2.015.657,1.88.279,1.94.233,1.951.282,1.98,1.557-1.026,1.719-.634-.261-1.5Zm-1.61-9.511,1.314,1.882,1.716,1.275,1.57,1.611-1.779.845-1.491.535-.248-1.893-.722-2.008Z" fill="#ece4d5"/>
      </g>
    </g>
    <g id="Groupe_2409" data-name="Groupe 2409">
      <g id="Groupe_2408" data-name="Groupe 2408">
        <path id="Tracé_2491" data-name="Tracé 2491" d="M-3276.335-7340.3l-.595-1.642-.6-1.868-.722-1.819-.861-1.775-.311-1.976-.937-1.691-1.763.337-2.045-.208-.063,2.122-.207,1.949-.43,1.918-.221,1.948-.252,1.946-.224,1.819-.586-1.731-.472-1.913-.652-1.845-1.157-1.667-.515-1.9-.512-2-1.913.2-1.826.3.785,1.786.7,1.8.679,1.806.526,1.868.562,1.857,1.1,1.646.4,1.923.792,1.773.705,1.807.074-.089,1.9-.086,1.9-.229.377-1.88.263-1.88.269-1.877.1-1.9.047-1.915.512-1.6.388,1.609.679,1.774.971,1.665.383,1.884,1.077,1.634.612,1.8-.233-.167,1.925.291,1.764-.524.428-1.814.268-1.914.377-1.893.083-1.943.543-1.871.12-1.936.608-1.863.354-1.906-.023-1.9-1.726.192-1.9.036.023,2.058-.18,1.954-.767,1.873.214,2.008-.244,1.952Zm2.655-4.925-.137,1.328-.345.163-.324.008-.163.266-.152-.359-.041.327-.822-.4.653-.593-.044-.288.192-.838.428-.039Z" fill="#ece4d5"/>
      </g>
    </g>
    <g id="Groupe_2410" data-name="Groupe 2410">
      <path id="Tracé_2492" data-name="Tracé 2492" d="M-3298.286-7353.116l1.36-.292.928-.977-.271-1.432-1.4-.384-1.329.014-.611,1.083-.015,1.374Z" fill="#ece4d5"/>
    </g>
    <g id="Groupe_2411" data-name="Groupe 2411">
      <path id="Tracé_2493" data-name="Tracé 2493" d="M-3446.653-7304.791l.022.618.165-.165.332-.039.149-.439.189.281.036-.232-.246-.319-.863-.069Z" fill="#ece4d5"/>
    </g>
    <g id="Groupe_2412" data-name="Groupe 2412">
      <path id="Tracé_2494" data-name="Tracé 2494" d="M-3486.422-7335.85l-.581-.8.26.147-.065.192Z" fill="#ece4d5"/>
    </g>
    <g id="Groupe_2413" data-name="Groupe 2413">
      <path id="Tracé_2495" data-name="Tracé 2495" d="M-3251.073-7355.625l1.49,1.708,1.919,1.432-.177-.13.992-.124.667.422-.538,1.066.047.02,1.228,1.406,1.311,1.329,1.4,1.108,1.7-.179,1.766-.432-.217-1.955-.6-1.847-.576-1.855-.48-1.879-.344-1.908-.32-1.918-.432-1.9-.358-1.918-.478-.092-.147.079-.164-.006-.377-.308.03-.2-.1-.353.23-.344-1.515.328-1.509.489.776,2.526.154.136.826.711-.553,1.485.22,1.727.533,1.665.393,1.725-1.568-1.274-1.142-1.659-1.427-1.377-1.379-1.432-1.259-1.552-1.493-1.429-1.861.314-1.792.6.632,2.08.551,2.022.063,2.138.466,2.048.686,2,.821,1.966.285,2.094.547,1.85,1.579-.236,1.5-.5-.269-1.828-.663-1.938-.366-2.008-.337-2.018Z" fill="#ece4d5"/>
    </g>
    <g id="Groupe_2414" data-name="Groupe 2414">
      <path id="Tracé_2496" data-name="Tracé 2496" d="M-3294.6-7350.936l-1.522-.628-1.791-.185-.505,2.033-.376,2.061-.182,2.1-.715,2-.193,2.1-.768,1.989-.184,2.109-.377,2.08,1.76.436,1.752.22.6-1.986.055-2.125.662-2.007.414-2.059.172-2.107.755-1.992.342-2.082Z" fill="#ece4d5"/>
    </g>
    <g id="Groupe_2415" data-name="Groupe 2415">
      <path id="Tracé_2497" data-name="Tracé 2497" d="M-3249.672-7377.6l.207-.54.268.165.881-.206-.014.3.337-.126.3-.273,2.146-.592,2.284-.076,1.2-.972.374-1.444-.966-1.063-1.383-.8-1.994.432-1.964.54-1.966.521-1.892.753-1.835.88-2,.469-1.685,1.189-1.74,1.037-1.881.756-1.7.938-1.73.871-1.82.677-1.734.87-1.76.833-1.961.245-1.855.512-1.811.741-1.89.465-1.981-.134-1.9.362-1.906.388-.1-.077.182.73-.372.319-.245,0,0,.221-2.234-.79-.122.188-.789-.392-.936-.292-2.577.073-1.571.792-.044.141-.124.943-.329.056.231.655.2.039.548.111-.057.255.434-.143.613-.028.156.666-.628.108.347.211-.055.1.15-.189,2.705.487,1.983-.329,1.969-.271,1.974-.064,2.007.187,1.926-.553,1.982-.148,1.931-.462,1.956-.356,1.938-.451,1.766-.963,1.92-.53,1.868-.675,1.726-.99,1.781-.857,1.717-.981,1.743-1.065,1.789-.979,1.884-.781,1.844-.886,2.1-.322Z" fill="#ece4d5"/>
    </g>
    <g id="Groupe_2416" data-name="Groupe 2416">
      <path id="Tracé_2498" data-name="Tracé 2498" d="M-3250.1-7403.888l.623-.289,1.713-.677,1.892-.009,1.665-.943,1.435-.528.2-1.584-.888-1.259-1.446-.026-2.072-.1-1.8.993-2,.305-1.241,1.042.208,1.523Z" fill="#ece4d5"/>
    </g>
    <g id="Groupe_2418" data-name="Groupe 2418">
      <g id="Groupe_2417" data-name="Groupe 2417">
        <path id="Tracé_2499" data-name="Tracé 2499" d="M-3307.1-7355.419l-1.226,1.374-1.432,1.34-1.226,1.533-1.5,1.272-1.58,1.2-1.289,1.475-1.4,1.381-1.019,1.745-1.382,1.192,1.523.647,1.572.768.6-.2-.05-1.12.674.147.147-.057.651-.915,1.54,1.109,1.834.407,1.6.971-.256,1.546-.141,1.378,1.37,1.1,1.579.356.5-1.669.392-1.921.053-1.968.066-1.968.658-1.883.188-1.953.276-1.941.1-1.969.668-1.888-.212.033-1.664-.853Zm-5.127,10.714-.584.328-.311-.1-.218.177-1.355-.638.066-.976.078-.269.386-.042-.4-.539.777-.535.777,0,.692.554-.647.9.794.5Zm3.758.529-1.821-.754-1.636-.984,1.328-1.753,1.577-1.409,1.4-1.289-.379,1.854-.4,2.072Z" fill="#ece4d5"/>
      </g>
    </g>
    <g id="Groupe_2420" data-name="Groupe 2420">
      <g id="Groupe_2419" data-name="Groupe 2419">
        <path id="Tracé_2500" data-name="Tracé 2500" d="M-3313.631-7359.1l-1.856-.655-1.821-.719-1.863-.362-1.76-.674-1.752-.706-1.683-.376-.517,1.263-.827,1.589,2.128.36,2.084.685-.877,2.315.024-.086.207.3.662,1.43-.08.513-.478.41-1.428.317-.19.074-.137.283.121-.143.918.713.124,1.466-.448-.183-.213.354-1.005-.61.059-.234-.5,2.088-1.02,1.909-.28,2.007,1.4.905,1.86.51.773-1.913.294-1.961.855-1.768.519-1.882.751-1.806.558-1.876.561-2.03,1.9.923,1.955.753.633-1.624Zm-8.623,11.735-.43.091-.964-.44-.346-.1.323-.842,1.26-.2.787.531Z" fill="#ece4d5"/>
      </g>
    </g>
    <g id="Groupe_2421" data-name="Groupe 2421">
      <path id="Tracé_2501" data-name="Tracé 2501" d="M-3291.969-7352.182l.735-1.253-.284-1.371-1.32-.479-1.408-.055-.657,1.174.055,1.42,1.421.42Z" fill="#ece4d5"/>
    </g>
    <g id="Groupe_2422" data-name="Groupe 2422">
      <path id="Tracé_2502" data-name="Tracé 2502" d="M-3402.454-7460.733l.18-.459-.347.089Z" fill="#ece4d5"/>
    </g>
    <g id="Groupe_2423" data-name="Groupe 2423">
      <path id="Tracé_2503" data-name="Tracé 2503" d="M-3484.3-7439.656l1.366-.769,1.617-1.307,1.192-1.669,1.539-1.355,1.242-1.639,1.4-1.492,1.558-1.328,1.554-1.327,1.759-1.08.375-1.573-.347-1.391-1.278-.857-1.474.534-1.3,1.4-1.623,1.028-1.533,1.144-1.068,1.63-1.35,1.33-1.509,1.184-1.05,1.613-1.576,1.143-.868,1.752-.917,1.351,1.115,1.2Z" fill="#ece4d5"/>
    </g>
    <g id="Groupe_2425" data-name="Groupe 2425">
      <g id="Groupe_2424" data-name="Groupe 2424">
        <path id="Tracé_2504" data-name="Tracé 2504" d="M-3374.365-7343.4l.041.177-.607.389-.386.034-.164.362-.393-.238-.067-.366-1.843.9-1.975.532-1.82,1.032-2.047.263-1.939.721-2.053.132-2.031.233-2.028.28-2.053-.12-2.043.076-2.047.4-1.987-.087-1.974-.259-2,.185-1.937-.551-1.938-.4-2.015.054-1.966-.321-1.809-.921-1.976-.283-1.881-.624-1.773-.9-1.964-.439-1.644-1.161-1.857-.7-1.6-1.2-1.942-.7-1.972-.618-1.728-1.128-1.916-.714-1.87-.826-2-.451-2-.407-1.927-.745-2.073-.009-1.987-.568-1.42-.594-.023-.151-.56.155-.287-.162-.047.242-.435-.28-.386-.141-.451-.829.008-.563-.15-.861.358-.039.063-.026.139-1.147.216-.327.527.3.387.342.233.078.4.356-.792,1,.122.362.147-.046,1.026-1.127,1.374-.544,2,.1,1.9.727,2.047-.039,1.835.877,1.945.428,1.861.7,1.84.754,1.76.925,2.026.36,1.577,1.295,1.8.831,1.728.991,1.9.638,1.833.762,1.781.882,1.882.637,1.943.425,1.808.891,1.966.321,1.955.319,1.944.439,1.978.241,1.984.223,1.994.124,2-.382,1.985-.149,1.99.127,2,.073,1.966-.338,1.985-.182,1.983-.266,1.838-.878,1.932-.432,2.019-.232,1.812-.852,1.839-.757,1.652-1.153,1.78-.867,1.963-.511,1.583-1.23,1.926-.537,1.68-1.044,1.877-.611,1.717-1.015,1.928-.453,1.894-.522,1.9-.5,1.894-.543,1.948-.292,1.985,0,1.914-.6,1.986.048,1.814-.322.848-1.63.622-1.886.558-1.905.691-1.865.4-1.948.707-1.871.549-1.917-.087-2.039.366-1.947.235-1.967.3-1.961.493-2.037-1.749.137-1.636-.159-1.992.026-1.985.14-1.978.176-1.968.256-2.007.014-1.957.4-1.983.284-1.924.541-1.8.9-1.8.858-1.862.678-1.74.955-1.876.674-1.723.984-1.959.685-1.883.833-1.819.966-1.536.342-1.183-1.163.272-1.525.825-1.3,1.769-.908,1.769-.9,1.966-.521,1.76-.9,1.759-.9,1.641-1.163,1.831-.767,1.929-.509,1.942-.426,1.812-.836,1.946-.374,1.866-.765,1.967-.278,2,.006,1.959-.349,1.988.088,1.978-.275,1.99-.021,1.738-.066,1.775.305.223-1.748-.467-1.937.288-1.953-.534-1.911.235-1.969-.281-1.925-.552-1.882.172-2-.8-1.826-.066-1.974-.478-1.887-.948-1.7-.154.017-2-.31-2,.09-1.961.524-2.033-.284-1.911.7-1.5-.487-.681-1.305.137-1.519,1.34-.956,1.992.162,1.883-.711,1.967.141,1.954.035,2.021-.158-.625-2-.731-1.882-.73-1.884-1.165-1.685-.627-1.934-.875-1.821-1.21-1.634-1-1.749-.887-1.822-1.126-1.675-1.093-1.7-1.475-1.417-1.253-1.5-.282-.244-.176.216-.278.5-.135.172-.474-.224-.059.008-.474.017-.291-1.691-.2-.194-.232.1-.354-.2.467-1.85-1.427-1.612-1.475-1.392-1.6-1.254-1.317-1.552-1.436-1.435-1.537-1.323-1.721-1.089-1.725-1.069-1.379-1.553-1.683-1.135-1.789-.966-1.748-1.025-1.76-1-1.962-.612-1.724-1.069-1.748-1.044-1.935-.627-1.961-.532-1.815-.912-1.989-.422-1.858-.827-1.871-.831-2.005-.344-2.017-.14-.049.109-.375.637-.331-.043.149.553-.6-.268-.195-.045.325.3-.75.443-.129-.361-.508.038-.167.469-.3-.339-.807-.27-.423-.528.075-.4.167-.156-.121-.815.159.118.062-.125-1.925-.535-1.984-.489-2.061.294-2.006-.3-2.017-.279-2.029.318-2,.052-2.01-.266-1.988.27-2,.057-1.966.408-1.975.3-2.019.065-1.913.64-2.019.141-1.808,1-2.038.129-1.938.516-1.869.729-1.83.821-1.834.794-1.774.925-1.933.577-1.647,1.173-1.821.821-1.814.847-1.641,1.147-1.836.835-1.534,1.3-1.645,1.13-1.484,1.346-1.831.9-1.33,1.527-1.636,1.162-1.308,1.526-1.606,1.21-1.576,1.258-1.114,1.7-1.273,1.539-1.189,1.6-1.363,1.463-1.143,1.635-1.426,1.437-.988,1.741-.151.3-.134.5-.053.259-.059.305-.193.227-.09-.323-.072.356-1.405,1.41-.671,1.873-1.281,1.535-.624,1.882-.846,1.765-1.094,1.66-.709,1.833-.625,1.863-.231,1.981-.441.178.2.482-1.156,1.761-.386,2.022-.383,2.013-.7,1.94,0,2.088-.822,1.932-.195,2.044.023,2.063-.348,2.021.171,2.058-.141,2.036-.461,2.04.477,1.951.051,1.951-.226,1.975.215,1.948.193,1.95.573,1.9-.017,1.986.609,1.877.152,1.971.927,1.785.325,1.935.789,1.8.484,1.88.227.277.045-.022-.3.258.23-.186-.065.133.587.325-.388.512-.108.1.526,1.954,1.171,1.689.85,1.813.781,1.845.819,1.832.97,1.754.857,1.822,1.015,1.734,1.243,1.588.919,1.8,1.332,1.516,1.126,1.667,1.486,1.378,1.325,1.5,1.337,1.488,1.047,1.77,1.628,1.2.5-.364.924.95.03.3-.453.286,1.56,1.1,1.256,1.407,1.581,1.03,1.244,1.446,1.489,1.146,1.62.962,1.51,1.119.068-.149.159-.41.03-1.161.449-.17,1.251.519.346.192.434.335-.3.827-1.025-.044.013-.3.081.76-.441.131,1.659,1.1,1.86.761,1.649,1.123,1.8.848,1.682,1.09,1.859.723,1.731,1.025,2.027.287,1.888.614,1.765.985,1.912.56,1.981.3,1.911.543,1.912.562,1.911.615,1.977.274,1.977.265,2,.045,1.984.155,1.977.282,1.992.055,1.994.151,2.022-.372,2.03.1,2.037.06,2.01-.316,1.977-.525,2.017-.184,1.977-.429,2.051-.078,1.916-.709,2.041-.254.388-.309.6-.281.8-.233-.023-.046,2.008-.255,1.815-.866,1.906-.6,1.775-.928,1.931-.559,1.819-.825,1.865-.742,1.624-1.2,1.889-.717,1.544-1.311,1.584-1.221,1.766-.941,1.752-.98,1.554-1.258,1.522-1.294,1.378-1.459,1.7-1.079,1.565-1.252,1.358-1.471,1.36-1.473-.383-.248-.49-.245-.61.219.2-.614.282-.511.382-.057.608-.192.653.54.414.353,1.16-1.6,1.213-1.495,1.212-1.494.978-1.671,1.075-1.589,1.436-1.341.819-1.763,1.235-1.5.83-1.744,1.157-1.558.859-1.726.936-1.966-2.215.287-1.979.238-2.006.075-1.909.668-2.033.067-1.86.766-1.884.648-1.808.846-1.927.546-1.743.971-1.891.661-1.592,1.256-1.78.631-1.643.909Zm16.667-19.688.438-.01.371.485.3.359.167.646-1.4.482-.433-.441-.422-.419Zm-12.179,10.384.216.479-.34.45-.182.106-.376.668.07-.1-.559-.057-.04.141-.388-.39-.257-.715.263.066-.226-.563.663-.144.156.013Zm-3.334-1.925,1.36-.6.466.017.3.178.524.127-.158.668-.407-.084.016.259-.9.265-.457.4-.364-.317-.679-.209Zm-4.343,2.556,1.21-.567.329.507.243.524.59.071.134.581-.788.314-.157.113-.179-.089-.116.47-.207-.317-.757-.265-.137-.686.033-.022Zm26.08-66.817.332-.449.494.129.261.112.355-.746.393.106.381.262.379.034.512-.016.658-.072-.265.626.182,1.27-.23,1.031-.489.425-.051.074-.338-.4-.136-.74-.661-.135.009-.215.127-.095-.368.052,0-.127-.451.188-.3.568-.111.081-.272-.812-.163-.335Zm-89.126,57.707-.31.322-.294.156-.375.236-.1.4-.325-.113-.053-.368-.381.146-.042-.775-.41,0,.179-.273.049-.823.807.174.053.017.568-.022.364.394Zm25.251-14.668-.945,1.886-1.07,1.828-1.089,1.818-1.023,2.109-2.127,1.079-2.27-.426-2.177-.641-1.806-1.381-1.777-1.52-.126-2.351.454-2.31,1.149-1.784.989-1.868.883-1.921,1.52-1.709,1.91-.989,2.286-.29,2.172.856,1.819,1.41,1.686,1.614.026,2.334Zm-6.752-15.386.571-.519.722.367.21,1.185.056.61-.383.08-.132-.393Zm18.4,37.234-1.205.646-.248-.176-.284-.563-.214-.488-.016-.2.8-.432.475.183.5.32Zm1.938-2.05-.5.488-.315.113-.24-.074.191.4-.544.226-.107-.38-.817-1.237.176-.065-.2-.561.264.032.515-.672.855.773.133.24.059-.054Zm6.206,2.008-.675.506-.189-.118-.626-.417.026.287-.965.107.381-1.082-.015-.235.343-.043.527-.258.065.29-.174-.217,1.005-.167.178.761Zm7.641,7.869-.28-.019-.382-.475.307-.911-.192-.628.574-.229.516.874.343.057-.033.352Zm-.6-15.234-1.114-1.794-.952-1.826-.939-1.843-.463.358-1.312.04-.141,1.769.335,1.824.075,1.7-1.6.551-1.787-.068-.5-2.032.007-2.108-.173-2.091-.291-2.081.041-2.116-.213-2.09-.591-2.053-.144-2.157,1.753-.034,1.639-.493,1.709.181,2.311.161,2.335.348,1.725,1.674.188,2.374.347.494-.026,1.889-.868,1.644-1.011,1.295.653,1.591,1.147,1.369.7,1.673,1.2,1.322-1.954.515Zm-1.782-24.29.015-.084.3-.379.368.05.28-.218.324-.257.962.452.242.9-.455.1.055.652-.5-.07-.373.144-.568-.083-.389-.216Zm11.674,31.544-.005.218-.661.363-.08-.167-.089.318-.4.046-.615-.516-.321-.4.278-.264-.391.046,0-.334-.391-.414.874-.533.14.063.595-.346.377.685.553.143.585-.18.131.6Zm18.51-71.678,1.5-.524.174.192,1.221-.5.456-.167.2,1.43-.41.72.038.374-.437.013-.415.6-.206-.348-.639.447-1.354-.524-.243-.3Zm-1.25,30.7.245.49-.138.492.035.186.367-.306,1.006.559-.229.89-.174.358-.321-.229-.352.23-.282-.136-1.159.654-.189-.236-.328-.226-.169-.374.766-.482-.212-.416-1.086.261-.4-.338.12-.434.155-.642.587-.219.65.134.567-.319Zm-7.519-48.378.14-.208.339-.3.339.085.815.844-.03.171-.476.313-.18.219-.374.2-.218.5-.353-.34-.586-.437Zm.614,29.258,1.807-.749,1.843-.621.44,1.5.961,1.326-.285.275-.04.04.252-.085.02.705.5.407-.558.354-.25.347-.079-.192-.47-.069-.039.041-.232-.22-.14.02-.118.41-.035-.063-.413-.471-.177-.848.135-.022-2.128.811,1.1,1.866.829,1.766.332,1.974,1.016,1.687.767,1.795.564,1.883,1.1,1.843-1.937.5-1.653.865-.463-1.972-.981-1.7-1.036-1.682-.467-1.915-.825-1.772-.634-1.853-.841-1.664-1.665.87-1.9.461-.888-1.29-.322-1.561,1.67-.865,1.844-.47,1.664-.906Zm-10.617,6.5,2.082,1.145,1.153,2.055.065.548.88,1.7-.182,1.931-1.231,1.686,1.882,1.343,1.661,1.548-.094-.688.524-.373.626-.207.146.293.3.137.314.007-.131,1.138-.4.726.983.521-1.93.784-1.871.625-1.706-1.091-1.308-1.625-1.462-1.466-.424.476-1.167.515.309,1.738,1,1.581.754,1.743-1.77.572-1.711,1.051-.634-2.222-1.023-1.883-.527-2.1-1.081-1.861-1.129-1.821-.089.219-.084.4-.418.055-.138.164-.819-.772.641-1.187.393-.087-.675-2.32-1.125-2.262,1.738-.528,1.463-.85,1.662-.391,2.173-.9Zm-6.094-13.41,1.1-1.222.181.1.235.173.679.56-.192.246-.2.5.251.273.3.281.482.631-.154.506.245-.119-.023.542.237.676.072.565-.51-.012-.261.152-.177.6-.238-.064-.367.016-.073.325-.294-.508-.194-1.575-.321.085-.314.257-.4-.639.261-1.921.148-.085.049-.054Zm-2.782.179.244-.489.374.013.028-.226-.528-.384.236-.42.58-.149.7.025.056,1.544.379.351-.173.651-.726.536-.259-.249-.306.063-.241.016-.036-.53Zm-.63,12.468.133-.093.233-.253.9-.155.521-.124.1.34-.144.54-.045.4-.2.454.259.391-.434.008.118.526-.727.133-.107-.056-.722-.634Zm-3.04,8.407.19-.365.6-.36.386.158.481-.19.236,1.087-.127.613-.267.347-.013-.164-1.543-.666Zm-9.064-30.018,1.084-.318.281.4-.157.341.3.183-.151.863-.626.077-.012.143-.588-.57Zm2.914,25.565,1.938-.091,1.876.073-.149.038,1.016,1.707.628,1.855.319,1.963.793,1.795.505,1.9,1.078,1.693.408,1.938.934,1.752.445,1.947-1.844.028-1.846.129-.254-1.546-.573-1.557-1.929.4-1.826,0-1.88-.1-.11,1.6-.676,1.3-1.744-.1-1.9.4.425-2.009.962-1.764.245-1.96.509-1.89.722-1.833.169-1.985.874-1.791.345-1.941Zm-2.268,27.23-.334,1.974-.486,1.87-.5,1.863.025,1.966-.383,1.894-.706,1.834-.6,2.188-1.692,1.408-2.1.99-2.3-.421-2.313-.412-1.783-1.532-.939-2.079.007-2.31.608-1.845.356-1.894-.016-1.96.412-1.885.53-1.866.125-2.1,1.88.64,1.565.344v1.746l-.258,1.892-.788,1.791-.059,1.93-.327,1.883-.544,1.844.627,1.731,1.462,1.137,1.848-.4,1.244-1.506.1-1.919.039-1.933.643-1.817.265-1.892.469-1.858.224-2,1.893.178Zm-3.534-21.79-.374,1.489-1.018,2.019-1.788,1.217-2.1.772-2.232-.308-1.909-.759-.631,2.973.494.588.313.709-.3-.072.06.417-.287-.061-.122.584-.456.413-.057-.268-.522-.542-.653.119.044-.095-2.37-.761.218-2.035.859-1.944.646-2,.133-2.132.424-2.059.948-1.928.229-2.112.521-2.087,1.777.627,1.861.082,1.683.792,2.123.618,1.474,1.623,1.075,1.86Zm-10.953-38.4.116-.455.609-.273.245-.369.337-.432.426-.194.79.776.231.036.2.251.508.249-.755,1.447-1.437.792-.1-.229-.454-.426-.021-.289Zm6.6-11.959.195-.663.419-.515.434.236.39,2.3-1.024.53-.278-.4-.366-.29Zm-9.486,3.732,1.7-1.167.138.109.355.267,1.175,1.067.874,1.335,1.142,1.242.209-.727-.014-.29-1.257-1.265.5-.4.6-.255,1.4,1.472.647,1.849-.221.538-1.62.188-1.457-.585-1.389-1.1-2.078-1.521-.414-.307Zm1.185,30.845,1.5.96,1.348,1.034-1.6.42-1.428.947-1.673.566-1.658-1.588,1.688-1.068Zm1.044,6.483-.7,1.5-.807,1.333-1.615-.987-1.876-.507-1.565-.869-1.065,1.443-.713,1.792,1.81,1.1,2.16.629-.94,1.492-.619,1.671-1.916-1.151-1.854-.968-.753,1.656-1.045,1.668,1.876,1,1.943.551,1.791.982-.865,1.4-.565,1.668-1.7-1.187-1.646-.974-1.885-.5-1.751-.771-1.393-1.108.656-1.835.914-1.885,1.114-1.788.6-2.047,1.254-1.718.765-1.967,1.249-1.73.7-1.99,1.739.52,1.477,1.073,1.74.772,1.651.96Zm-9.76-38.963.238-.365.237-.429.22-.309.276-.5,1.025,1.644-.366.22-.3.45-.773-.165-.618.1Zm-2,23.836.467-.589.611-.164.394.714.331.063v1.494l-.526.039-.091.157-.154-.211-.122.35-.549-.26-.6-.595.462-.554Zm-3.884-5.062.339-.78.595.127.109.132.534-.315.238.357.326.834.366.082-.079.372-.1.7-.424-.207-.365.577-.142-.216-.2-.1-.042.16-.344-.142-.087-.02-.722-.165.161-1.051.2-.1Zm-9.958,10.663,1.877.419,1.756.57,1.751.591,2.291.446,1.821,1.492.531,2.237-.068,2.263-.642,1.933-.049,2.081-.743,1.911-.622,2.279-1.931,1.366-2.251.394-2.291-.213-1.723-.691-1.787-.443-1.975-.152.545-2.13.674-1.991.189-2.114.847-1.954.633-2.008.119-2.133.411-2.062Zm-.044,26.776,1.863.41,1.741.563,1.737.583,2.2.426,1.756,1.425.589,2.163-.029,2.2-.521,1.454-.471,2.249-1.935,1.223-2.138.708-2.2-.48-1.814-.486-.047.415,0,.278.051.283-.256.712-.441,1.564-.518,1.5-1.757-.122-1.577-.7.639-1.914.113-2.128.406-2.06.93-1.936.21-2.11.473-2.047.69-2Zm-6.607-49.795.358-.148.453.056.415-.009.379-.532.681.752-.2.625-.1.319-.014.4-.433.809-.048-.274-.114.329-.08-.225-.439-.326-.164-.257-.088-.588-.272-.007-.118.362-.47-.686Zm-40.642,76.206-.032.2-1,.972-.126-.166-.659-.257-.017-.33.44-.789.877-.359.226.307Zm.618-34.543-.326.09-.332-.283.188-.819.19-.544-.076.106.525-.013.335-.121.32.057.807.434-.271.04.334.235-.72.478-.029,0Zm2.6,27.649-.2.178-.263-.078-.2-.23-.33.225-.9-1.291.393-.316.618-.411.279.107.832.46-.115.128.569-.029-.052.567Zm.884-43.254-.572.021-.025-.109-.637.182-.159.368-.938-1.116.407-.072-.266-.259.3-.228.819-.65.032.069-.192-1.134.326-1.026.279-.341.124-.11.264-.009.178-.35.138-.532.787.246.328.5-.067.728-.564.155-.174.055.366.137-.014.561-.908,1.208.694.6Zm.393,58.115.053-.406.267-.129.059-.189-.276.217.2-.931,1.162.06.354-.126.284.212.572.191-.6.633.356-.015-.027,1.239-.053.053.137.346-.668.317-.141.01-.156.419-.121-.079-.25-.3-.4.377-.247-.8.005-.411-.4.163-.052-.164.365.223-.141-.215-.142.116Zm2.508,8.941.032.019-.439.385-.328-.091-.229.461-.1-.042-.317-.778-.143-.1-.171-.438-.814-.268.164-.6.3-.688.992.337.095.077.49-.287.317.662-.03.1.372.038-.11-.016.147.477Zm1.961-56.885-.391.141-.083-.144-.4-.533-.78-.259.447-.859.3.205-.1-.143.6-.249.23-.376.265.323.335-.263.509.883-.173.376.081.345-.87.243Zm2.687,38.853-.019.55-1.5.857-.675-.262-.613-.343.355-.469.412-.516.063-.514.431-.3.065-.386.709-.322.454-.306.237.49-.248,1.332Zm3.125-46.1-.241.482-.277.241-.449.163-.083.376-1.3-1.06.162-.431-.123-.42,1.09-.18-.059-.487.965.023.279.874-.188-.14Zm1.932-6.409-.327.808-.468.045-.271-.269-.4.489-.08-.028-.231-.465-.2-.312.308-.332-.6-.28.457-.547.905-.447.194.246.438.109.253.4-.385.319Zm4.814,30.769-1.092.684-.039-.138-.143-.185.155.351-.543.228-.121-.379-.624-1.264.242-.7-.166-.658.678.188.656.225-.231.136.084-.392.286-.3.482.42Zm8.821-2.608-.032.319-.591.314-.041-.161-1.412-1.1.162-.606.535.12.135-.187.654.017.573-.125.047,1Zm6.081.532-.29.312-.647.094-.087-.151-.114.412-.04-.031-.312-.519-.313.126-.264-.573-.276-.433.236.08-.194-.31.213.116-.151-.188-.146-.418.65-.264.16-.025.6-.409.41.357-.067.463.787.555-.425.234Zm3.166,68.76-.06.114-.224.149-.142.33-.346.564-.339.109-.144-.393-.523-.859.232-.266.179-.537.11.169.828-.394.047.267.262.308Zm10.047-22.128.049-.17.416-.32.359.172.387-.239.484.222-.16.477.143,1.164-.26.212-.206.51-.466-.122-.331.217-.151-.413-.118-.205-.058-.333Zm2.613,13.624-.48.606-.353.136-.331-.169-.218.42-.107-.041-.414-.721-.154-.157-.023-.249-.289.389-.238-.8.229-.7.3-.007.448-.037.053-.041.483.1.166-.042.251-.4.777.616-.391.694Zm16.888-5.1-.254.459-.48-.038-.088-.19.064.242-.568.463-.153-.344-.539-.219-.106-.317-.634.14.209-.687-.171-.3.412-.419.43-.068.515.311.8.215Zm4.155,3.6-.244.22-1.187.5-.037-.157-.529.14-.121-.6.409-.161-.106-.187.128-.173-.492-.139.481-.563.742-.149.049.371.5-.093.613.268Zm9.61,19.779-.939.479-.052-.135-.213-.24-.176.261-.541-.041-.05-.423-.3-.913.909-.373-.062-.4.858.03.687.253-.177.205Zm7.19-.95-.18-.066-.541,0-.126-.166-.65-.207.351-.934.361.144.289-.669.821.344.538.446-.321.1.362.4Zm10.8-7.129-.393.056-.767-.5-.05-.232-.613-.385.1-.247.294-.184-.069-.331.773-.081,1.289,1.374Zm3.838-8.779-.715.459-.09-.145-.371-.556-.628.238-.216-.087-.132-.548-.062-.378,1.737-.205.644.079-.3.488.323.015Zm5.715-6.789-1.856,1.613-.093-.13-.263-.3-.341-.531.161-.236,1.818-.882.345.043Zm15.134-2.708.549-.7-.018-.863-.077-.867-.258-.471.484-.253.537.662.209-.056.35.5.665.141-.262.595.295.584-1.031,1.026-.009.32-.14.42-.336-.148-.062-.013-.657-.112-.157-.22Z" fill="#ece4d5"/>
      </g>
    </g>
    <g id="Groupe_2427" data-name="Groupe 2427">
      <g id="Groupe_2426" data-name="Groupe 2426">
        <path id="Tracé_2505" data-name="Tracé 2505" d="M-3488.193-7433.687l.224-.1-.009.38-.364-.527-.816-.519.97-.379.293-.25-.731-.824-1.687-.289-1.387.961-.643,1.538-.956,1.336.1.084-.259.223.249.028.456.462-.368.66-.37.278-.393-.214-1.179,1.653-.9,1.9-1.052,1.812-1.053,1.819-.969,1.865-.476,2.075-1.046,1.839-.82,1.935-.53,2.037-.539,2.017.387.1-.041,1.279-.111.568.4.45-.506.191-.189-.279-.694.15,0-.26-.61,1.93-.551,1.944-.289,2-.07,2.038-.835,1.9.225,2.071.207,1.42,1.27.9.285.208,2.049-2.008.1-2.028.367-1.99.777-1.905.3-2,.558-1.938.3-2.008.559-1.941.737-1.884.377-2.009.826-1.851.971-1.785.634-1.924.871-1.823.851-1.833,1.051-1.729,1.013-1.746.768-1.889,1.2-1.635,1.3-1.56Zm-5.48,9.94-.324-.3-.082.436-.241-.526-.786.039-.169-.539-.12-.171-.106-.4.643-.072.519.1.372-.4.52.724.093,0-.182.308Zm2.576-6.017-.575.077.121.337-.644.063-.12.51-.082-.33-.132-.139-.8-.827.091-.212.239-.053-.051-.23.414-.614.245-.225.736.786.323.2Z" fill="#ece4d5"/>
      </g>
    </g>
    <g id="Groupe_2428" data-name="Groupe 2428">
      <path id="Tracé_2506" data-name="Tracé 2506" d="M-3457.4-7306.627l.028-.4.044.046-.025.02Z" fill="#ece4d5"/>
    </g>
    <g id="Groupe_2429" data-name="Groupe 2429">
      <path id="Tracé_2507" data-name="Tracé 2507" d="M-3458.074-7306.1l.256.6,2.546.76-.332-.421.3-.167-.245-.177-.148-.186-.18.3-.332-.292-.159.095-.431.253-.314-.483-.6-.434-.033.1Z" fill="#ece4d5"/>
    </g>
    <g id="Groupe_2430" data-name="Groupe 2430">
      <path id="Tracé_2508" data-name="Tracé 2508" d="M-3262.309-7402.439l.112.24.5.044-.165.6.432-.026-.03.442-1.1.906-.053-.5-.111.189-.115-.167-.669-.075.117-.373-.252-.6-.126-.251.078-.264-1.661,1.362-2.013.6-1.851,1-1.995.641-1.093.863-.365,1.482,2,1.271.631.081,2-1.054-.245.22-.049-.171-.147-.952.174-.337-.073-.96.546-.188.292.152.521.3.072.1.081-.2.849.3-.261,1.244,1.832-.707,1.843-.787,1.646-1.176,1.843-.778,1.777-1.005,1.873-.816,1.28-.941-.495-1.493-.957-1.02-1.566-.187-1.8,1.075-1.79,1.086-1.483.557Z" fill="#ece4d5"/>
    </g>
  </g>
</svg>
