<svg xmlns="http://www.w3.org/2000/svg" xmlns:xlink="http://www.w3.org/1999/xlink" width="444.894" height="507.552" viewBox="0 0 444.894 507.552">
  <defs>
    <filter id="Tracé_461" x="0" y="0" width="444.894" height="507.552" filterUnits="userSpaceOnUse">
      <feOffset dx="-2" dy="1" input="SourceAlpha"/>
      <feGaussianBlur result="blur"/>
      <feFlood flood-color="#111d30" flood-opacity="0.322"/>
      <feComposite operator="in" in2="blur"/>
      <feComposite in="SourceGraphic"/>
    </filter>
    <clipPath id="clip-path">
      <path id="Tracé_460" data-name="Tracé 460" d="M2790.145-2674.352l-4.1-.063-4.006-.2-4.007.12-4.007.188-4.008-.259-4.01-.166-4.008.75-4.008-.294-4.007.172-4.006-.359-4.006.067-4.006-.27-4.006.158-4.006.413-4.007-.7-4.008.592-4.008-.733-4.01.2-4.009.307-4.008-.175-4.007.241-4.007-.317-4.006.518-4.007-.49-4.007-.119-4.008.211-4.009-.033-4.01-.231-4.009.1-4.008.344-4.008.117-4.007-.217-4.007.02-4.008.416-4.009-.542-4.01-.292-4.01.058-4.008.412-4.008-.278-4.008-.138-4.008.724-4.009-.438-4.01.58-4.01-.436-4.008.179-4.009.015-4.008-.285-4.009-.006-4.01.3-4.01-.02-4.009.132-4.009-.546-4.009.209-4.01-.3-4.01.59-4.009-.6-4.009.065-4.01.625-4.01.021-4.009-.384-4.006.082-4.005.208-4-.18-4.005-.064-4.007-.435-4.01.616-4.01-.126-4.008-.172-4.006-.1-4.007-.2-4.008.212-4.011.281-4.01.321-4.008-.705-4.008.145-4.01.329-4.012-.6-4.01.044-4.009.77-4.011-.405-4.012.062-4.009-.238-4.011-.275-4.013.244-4.01,0-4.013.083-4.011.05-4.012-.3-4.012.459-4.013-.07-4.012.05-4.012-.5-4.008.179-4.012.477-4.01.021-4.014-.269-4.011.355-4.013.067-4.015-.284-4.015.262-4.016-.432-4.014.469-4.014-.57-4.016.349-4.022-.494-3.746-.041-.464-3.709.167-3.987-.366-3.988.2-3.988.351-3.989-.375-3.99.191-3.99.112-3.992-.373-3.991-.095-3.991.65-3.989.016-3.989-.046-3.989.025-3.988-.042-3.988.182-3.988-.814-3.988.58-3.988-.355-3.989-.135-3.989.16-3.991-.335-3.991.906-3.992-.8-3.992.789-3.99-.1-3.99-.259-3.989-.237-3.989.541-3.989-.827-3.989.3-3.989.412-3.99-.578-3.99.741-3.992-.468-3.993.048-3.991-.4-3.991.312-3.99.315-3.99-.08-3.989-.24-3.99-.284-3.99.106-3.991.08-3.992.4-3.993-.185-3.992.324-3.991-.355-3.99.06-3.99.257-3.991-.452-3.99.452-3.992-.264-3.993-.289-3.992.64-3.992-.224-3.991-.459-3.99.2-3.991-.032-3.992-.313-3.993.739-3.993.15-3.992-.206-3.991-.279-3.991.29-3.992-.164-3.993.01-3.993-.556-3.992.036-3.991.736-3.992-.7-3.993.566-3.993-.363-3.992.537-3.992-.13-3.993.219-3.993-.609-3.991.352-3.99-.092-3.988.019-3.987.061-3.988-.213-3.99-.19-3.993.55-3.993-.161-3.991-.512-3.989.4-3.99-.126-3.991.565-3.994-.214-3.993.177-3.991-.279-3.991.329-3.992-.928-4,.812-3.992-.044-3.992-.42-3.994.52-4-.089-3.992-.036-3.994-.133-4-.207-3.994.247-4-.423-3.994.345-4,.343-3.995-.43-4,.16-3.995.154-4-.063-3.991.1-4-.511-3.993-.191-4,.048-3.995-.158-4,.043-4,.728-4-.295-4-.151-4,.337-4,.01-4-.544-4.005.48-3.823,3.824-.015,4.006-.4,4.006.051,4.007.309,4.009-.387,4.009-.029,4.009.485,4.007.2,4.007-.19,4.006-.59,4.006,0,4.006.4,4.006.108,4.007.095,4.007-.27,4.007-.042,4.009.261,4.01.041,4.008-.5,4.008.418,4.007-.136,4.007.047,4.007-.455,4.007.174,4.007.447,4.008-.214,4.009-.3,4.01.793,4.009-.37,4.008.149,4.007-.382,4.007.42,4.008-.079,4.008-.028,4.009-.17,4.01.358,4.009-.185,4.008.272,4.008-.953,4.008-.011,4.008.806,4.009.11,4.01-.486,4.01.117,4.009-.064,4.008.224,4.008-.075,4.009-.093,4.011-.494,4.009.53,4.009-.417,4.009.5,4.009-.421,4.01.642,4.01-.591,4.01.463,4.009-.1,4.009-.477,4.011.417,4.008.154,4.006-.156,4.005.383,4-.693,4.005.207,4.007.048,4.01-.019,4.01-.231,4.008.169,4.007.308,4.006-.589,4.008.151,4.011.479,4.011-.6,4.008.541,4.008.093,4.009-.118,4.013-.535,4.009.2,4.009-.226,4.011.421,4.012-.5,4.01.224,4.011.373,4.012.121,4.01-.307,4.013-.411,4.011.394,4.012.491,4.012-.84,4.013.572,4.013-.547,4.012-.024,4.007.7,4.012-.764,4.01.185,4.014.479,4.011.213,4.014-.708,4.015-.14,4.015.068,4.015.464,4.014-.555,4.015.362,4.015.022,4.022-.324,4,.391-.144,3.969-.307,3.987.276,3.987.407,3.989.249,3.988-.625,3.99.53,3.991-.849,3.991.331,3.992-.164,3.99.109,3.99-.006,3.989.121,3.988-.167,3.988.381,3.988.308,3.988-.01,3.988-.437,3.988.475,3.989-.357,3.99-.538,3.99.074,3.991.044,3.993.3,3.991.284,3.991-.51,3.989.719,3.99-.555,3.988.127,3.989-.088,3.989-.325,3.989.5,3.99.333,3.991-.126,3.991-.364,3.993-.132,3.992.043,3.99.232,3.991-.278,3.989-.26,3.99.1,3.99.35,3.99-.482,3.991.865,3.991-.87,3.993.478,3.992-.289,3.991.234,3.991.077,3.99.169,3.99-.3,3.991.478,3.992-.277,3.993-.36,3.992.551,3.991-.108,3.991-.577,3.991-.074,3.991.62,3.992-.046,3.993-.5,3.992.729,3.992-.674,3.991.2,3.992-.326,3.991.8,3.993-.666,3.993.353,3.992-.113,3.992-.229,3.992.6,3.992-.433,3.994-.107,3.992.282,3.992-.4,3.992.655,3.994,0,3.991-.713,3.989.194,3.988.2,3.988.351,3.988-.582,3.99.4,3.993-.63,3.993.063,3.99.279,3.99.515,3.989-.567,3.991.692,3.994-.463,3.993-.01,3.992-.348,3.99.31,3.993-.292,4,.325,3.993-.363,3.992.611,3.993-.515,4,.469,3.993-.1,3.994-.569,3.995.493,3.993.047,4-.471,3.994.022,3.995.364,4-.209,4-.128,4,.484,3.995-.022,3.99-.435,4,.059,3.993.729,4-.237,3.994-.661,4,.3,4,.319,4-.073,4-.483,4,.761,4-.4,4,.492,4Zm-27.6-475.958-3.731.9-2.9,2.634-.908,3.829,1.175,3.675,2.561,2.915,3.8,1.186,3.512-1.693,2.827-2.424.81-3.659-.649-3.753-2.781-2.69Zm-37,0-3.731.9-2.9,2.634-.908,3.829,1.175,3.675,2.561,2.915,3.8,1.186,3.512-1.693,2.827-2.424.81-3.659-.649-3.753-2.781-2.69Zm-37,0-3.731.9-2.9,2.634-.908,3.829,1.175,3.675,2.561,2.915,3.8,1.186,3.512-1.693,2.827-2.424.81-3.659-.649-3.753-2.781-2.69Zm-37,0-3.731.9-2.9,2.634-.908,3.829,1.175,3.675,2.561,2.915,3.8,1.186,3.512-1.692,2.828-2.425.809-3.659-.649-3.753-2.78-2.69-3.74-1.267Zm-37,0-3.731.9-2.9,2.634-.908,3.829,1.174,3.675,2.562,2.915,3.8,1.186,3.512-1.693,2.827-2.424.81-3.659-.649-3.753-2.782-2.69-3.741-1.267Zm-37,0-3.731.9-2.9,2.634-.908,3.829,1.175,3.675,2.561,2.915,3.8,1.186,3.512-1.693,2.827-2.424.81-3.659-.649-3.753-2.782-2.69-3.741-1.267Zm-37,0-3.731.9-2.9,2.634-.908,3.829,1.175,3.675,2.561,2.915,3.8,1.186,3.512-1.693,2.827-2.424.81-3.659-.649-3.753-2.781-2.69Zm-37,0-3.731.9-2.9,2.634-.908,3.829,1.175,3.675,2.561,2.915,3.8,1.186,3.512-1.693,2.827-2.424.81-3.659-.649-3.753-2.781-2.69Zm-37,0-3.731.9-2.9,2.634-.908,3.829,1.175,3.675,2.561,2.915,3.8,1.186,3.512-1.693,2.827-2.424.81-3.659-.649-3.753-2.781-2.69Zm-37,0-3.731.9-2.9,2.634-.908,3.829,1.175,3.675,2.561,2.915,3.8,1.186,3.512-1.692,2.828-2.425.809-3.659-.648-3.753-2.78-2.69-3.74-1.267Zm-37,0-3.731.9-2.9,2.634-.908,3.829,1.175,3.675,2.561,2.915,3.8,1.186,3.512-1.693,2.827-2.424.81-3.659-.649-3.753-2.782-2.69-3.741-1.267Z" transform="translate(5852.442 3098.943)" fill="#fff"/>
    </clipPath>
  </defs>
  <g id="Groupe_2515" data-name="Groupe 2515" transform="translate(-10713.983 -3264.678) rotate(-2)">
    <g id="Groupe_2497" data-name="Groupe 2497" transform="translate(10613 3072)">
      <g id="Groupe_2482" data-name="Groupe 2482" transform="translate(-8235 646.53)">
        <g transform="matrix(1, 0.03, -0.03, 1, 8215.52, -81.93)" filter="url(#Tracé_461)">
          <path id="Tracé_461-2" data-name="Tracé 461" d="M2790.145-2674.352l-4.1-.063-4.006-.2-4.007.12-4.007.188-4.008-.259-4.01-.166-4.008.75-4.008-.294-4.007.172-4.006-.359-4.006.067-4.006-.27-4.006.158-4.006.413-4.007-.7-4.008.592-4.008-.733-4.01.2-4.009.307-4.008-.175-4.007.241-4.007-.317-4.006.518-4.007-.49-4.007-.119-4.008.211-4.009-.033-4.01-.231-4.009.1-4.008.344-4.008.117-4.007-.217-4.007.02-4.008.416-4.009-.542-4.01-.292-4.01.058-4.008.412-4.008-.278-4.008-.138-4.008.724-4.009-.438-4.01.58-4.01-.436-4.008.179-4.009.015-4.008-.285-4.009-.006-4.01.3-4.01-.02-4.009.132-4.009-.546-4.009.209-4.01-.3-4.01.59-4.009-.6-4.009.065-4.01.625-4.01.021-4.009-.384-4.006.082-4.005.208-4-.18-4.005-.064-4.007-.435-4.01.616-4.01-.126-4.008-.172-4.006-.1-4.007-.2-4.008.212-4.011.281-4.01.321-4.008-.705-4.008.145-4.01.329-4.012-.6-4.01.044-4.009.77-4.011-.405-4.012.062-4.009-.238-4.011-.275-4.013.244-4.01,0-4.013.083-4.011.05-4.012-.3-4.012.459-4.013-.07-4.012.05-4.012-.5-4.008.179-4.012.477-4.01.021-4.014-.269-4.011.355-4.013.067-4.015-.284-4.015.262-4.016-.432-4.014.469-4.014-.57-4.016.349-4.022-.494-3.746-.041-.464-3.709.167-3.987-.366-3.988.2-3.988.351-3.989-.375-3.99.191-3.99.112-3.992-.373-3.991-.095-3.991.65-3.989.016-3.989-.046-3.989.025-3.988-.042-3.988.182-3.988-.814-3.988.58-3.988-.355-3.989-.135-3.989.16-3.991-.335-3.991.906-3.992-.8-3.992.789-3.99-.1-3.99-.259-3.989-.237-3.989.541-3.989-.827-3.989.3-3.989.412-3.99-.578-3.99.741-3.992-.468-3.993.048-3.991-.4-3.991.312-3.99.315-3.99-.08-3.989-.24-3.99-.284-3.99.106-3.991.08-3.992.4-3.993-.185-3.992.324-3.991-.355-3.99.06-3.99.257-3.991-.452-3.99.452-3.992-.264-3.993-.289-3.992.64-3.992-.224-3.991-.459-3.99.2-3.991-.032-3.992-.313-3.993.739-3.993.15-3.992-.206-3.991-.279-3.991.29-3.992-.164-3.993.01-3.993-.556-3.992.036-3.991.736-3.992-.7-3.993.566-3.993-.363-3.992.537-3.992-.13-3.993.219-3.993-.609-3.991.352-3.99-.092-3.988.019-3.987.061-3.988-.213-3.99-.19-3.993.55-3.993-.161-3.991-.512-3.989.4-3.99-.126-3.991.565-3.994-.214-3.993.177-3.991-.279-3.991.329-3.992-.928-4,.812-3.992-.044-3.992-.42-3.994.52-4-.089-3.992-.036-3.994-.133-4-.207-3.994.247-4-.423-3.994.345-4,.343-3.995-.43-4,.16-3.995.154-4-.063-3.991.1-4-.511-3.993-.191-4,.048-3.995-.158-4,.043-4,.728-4-.295-4-.151-4,.337-4,.01-4-.544-4.005.48-3.823,3.824-.015,4.006-.4,4.006.051,4.007.309,4.009-.387,4.009-.029,4.009.485,4.007.2,4.007-.19,4.006-.59,4.006,0,4.006.4,4.006.108,4.007.095,4.007-.27,4.007-.042,4.009.261,4.01.041,4.008-.5,4.008.418,4.007-.136,4.007.047,4.007-.455,4.007.174,4.007.447,4.008-.214,4.009-.3,4.01.793,4.009-.37,4.008.149,4.007-.382,4.007.42,4.008-.079,4.008-.028,4.009-.17,4.01.358,4.009-.185,4.008.272,4.008-.953,4.008-.011,4.008.806,4.009.11,4.01-.486,4.01.117,4.009-.064,4.008.224,4.008-.075,4.009-.093,4.011-.494,4.009.53,4.009-.417,4.009.5,4.009-.421,4.01.642,4.01-.591,4.01.463,4.009-.1,4.009-.477,4.011.417,4.008.154,4.006-.156,4.005.383,4-.693,4.005.207,4.007.048,4.01-.019,4.01-.231,4.008.169,4.007.308,4.006-.589,4.008.151,4.011.479,4.011-.6,4.008.541,4.008.093,4.009-.118,4.013-.535,4.009.2,4.009-.226,4.011.421,4.012-.5,4.01.224,4.011.373,4.012.121,4.01-.307,4.013-.411,4.011.394,4.012.491,4.012-.84,4.013.572,4.013-.547,4.012-.024,4.007.7,4.012-.764,4.01.185,4.014.479,4.011.213,4.014-.708,4.015-.14,4.015.068,4.015.464,4.014-.555,4.015.362,4.015.022,4.022-.324,4,.391-.144,3.969-.307,3.987.276,3.987.407,3.989.249,3.988-.625,3.99.53,3.991-.849,3.991.331,3.992-.164,3.99.109,3.99-.006,3.989.121,3.988-.167,3.988.381,3.988.308,3.988-.01,3.988-.437,3.988.475,3.989-.357,3.99-.538,3.99.074,3.991.044,3.993.3,3.991.284,3.991-.51,3.989.719,3.99-.555,3.988.127,3.989-.088,3.989-.325,3.989.5,3.99.333,3.991-.126,3.991-.364,3.993-.132,3.992.043,3.99.232,3.991-.278,3.989-.26,3.99.1,3.99.35,3.99-.482,3.991.865,3.991-.87,3.993.478,3.992-.289,3.991.234,3.991.077,3.99.169,3.99-.3,3.991.478,3.992-.277,3.993-.36,3.992.551,3.991-.108,3.991-.577,3.991-.074,3.991.62,3.992-.046,3.993-.5,3.992.729,3.992-.674,3.991.2,3.992-.326,3.991.8,3.993-.666,3.993.353,3.992-.113,3.992-.229,3.992.6,3.992-.433,3.994-.107,3.992.282,3.992-.4,3.992.655,3.994,0,3.991-.713,3.989.194,3.988.2,3.988.351,3.988-.582,3.99.4,3.993-.63,3.993.063,3.99.279,3.99.515,3.989-.567,3.991.692,3.994-.463,3.993-.01,3.992-.348,3.99.31,3.993-.292,4,.325,3.993-.363,3.992.611,3.993-.515,4,.469,3.993-.1,3.994-.569,3.995.493,3.993.047,4-.471,3.994.022,3.995.364,4-.209,4-.128,4,.484,3.995-.022,3.99-.435,4,.059,3.993.729,4-.237,3.994-.661,4,.3,4,.319,4-.073,4-.483,4,.761,4-.4,4,.492,4Zm-27.6-475.958-3.731.9-2.9,2.634-.908,3.829,1.175,3.675,2.561,2.915,3.8,1.186,3.512-1.693,2.827-2.424.81-3.659-.649-3.753-2.781-2.69Zm-37,0-3.731.9-2.9,2.634-.908,3.829,1.175,3.675,2.561,2.915,3.8,1.186,3.512-1.693,2.827-2.424.81-3.659-.649-3.753-2.781-2.69Zm-37,0-3.731.9-2.9,2.634-.908,3.829,1.175,3.675,2.561,2.915,3.8,1.186,3.512-1.693,2.827-2.424.81-3.659-.649-3.753-2.781-2.69Zm-37,0-3.731.9-2.9,2.634-.908,3.829,1.175,3.675,2.561,2.915,3.8,1.186,3.512-1.692,2.828-2.425.809-3.659-.649-3.753-2.78-2.69-3.74-1.267Zm-37,0-3.731.9-2.9,2.634-.908,3.829,1.174,3.675,2.562,2.915,3.8,1.186,3.512-1.693,2.827-2.424.81-3.659-.649-3.753-2.782-2.69-3.741-1.267Zm-37,0-3.731.9-2.9,2.634-.908,3.829,1.175,3.675,2.561,2.915,3.8,1.186,3.512-1.693,2.827-2.424.81-3.659-.649-3.753-2.782-2.69-3.741-1.267Zm-37,0-3.731.9-2.9,2.634-.908,3.829,1.175,3.675,2.561,2.915,3.8,1.186,3.512-1.693,2.827-2.424.81-3.659-.649-3.753-2.781-2.69Zm-37,0-3.731.9-2.9,2.634-.908,3.829,1.175,3.675,2.561,2.915,3.8,1.186,3.512-1.693,2.827-2.424.81-3.659-.649-3.753-2.781-2.69Zm-37,0-3.731.9-2.9,2.634-.908,3.829,1.175,3.675,2.561,2.915,3.8,1.186,3.512-1.693,2.827-2.424.81-3.659-.649-3.753-2.781-2.69Zm-37,0-3.731.9-2.9,2.634-.908,3.829,1.175,3.675,2.561,2.915,3.8,1.186,3.512-1.692,2.828-2.425.809-3.659-.648-3.753-2.78-2.69-3.74-1.267Zm-37,0-3.731.9-2.9,2.634-.908,3.829,1.175,3.675,2.561,2.915,3.8,1.186,3.512-1.693,2.827-2.424.81-3.659-.649-3.753-2.782-2.69-3.741-1.267Z" transform="translate(-2250.63 3261.4) rotate(-2)" fill="#fff"/>
        </g>
        <g id="Groupe_de_masques_23" data-name="Groupe de masques 23" clip-path="url(#clip-path)">
          <g id="Groupe_2483" data-name="Groupe 2483" transform="translate(11673.785 -2718.639)">
            <g id="Groupe_202" data-name="Groupe 202" transform="translate(-3590.216 2594.733)">
              <path id="Tracé_376" data-name="Tracé 376" d="M-3590.216,2594.733c19.533,0,19.533,6.406,39.067,6.406s19.533-6.406,39.066-6.406,19.533,6.406,39.066,6.406,19.534-6.406,39.067-6.406,19.533,6.406,39.067,6.406,19.532-6.406,39.064-6.406,19.533,6.406,39.066,6.406,19.534-6.406,39.067-6.406,19.533,6.406,39.066,6.406,19.534-6.406,39.068-6.406,19.534,6.406,39.067,6.406,19.534-6.406,39.067-6.406,19.533,6.406,39.067,6.406,19.534-6.406,39.068-6.406,19.534,6.406,39.07,6.406,19.535-6.406,39.07-6.406" transform="translate(3590.216 -2594.733)" fill="none" stroke="#ece4d5" stroke-miterlimit="10" stroke-width="0.5"/>
            </g>
            <g id="Groupe_203" data-name="Groupe 203" transform="translate(-3590.216 2600.29)">
              <path id="Tracé_377" data-name="Tracé 377" d="M-3590.216,2606.878c19.533,0,19.533,6.406,39.067,6.406s19.533-6.406,39.066-6.406,19.533,6.406,39.066,6.406,19.534-6.406,39.067-6.406,19.533,6.406,39.067,6.406,19.532-6.406,39.064-6.406,19.533,6.406,39.066,6.406,19.534-6.406,39.067-6.406,19.533,6.406,39.066,6.406,19.534-6.406,39.068-6.406,19.534,6.406,39.067,6.406,19.534-6.406,39.067-6.406,19.533,6.406,39.067,6.406,19.534-6.406,39.068-6.406,19.534,6.406,39.07,6.406,19.535-6.406,39.07-6.406" transform="translate(3590.216 -2606.878)" fill="none" stroke="#ece4d5" stroke-miterlimit="10" stroke-width="0.5"/>
            </g>
            <g id="Groupe_204" data-name="Groupe 204" transform="translate(-3590.216 2605.848)">
              <path id="Tracé_378" data-name="Tracé 378" d="M-3590.216,2619.023c19.533,0,19.533,6.406,39.067,6.406s19.533-6.406,39.066-6.406,19.533,6.406,39.066,6.406,19.534-6.406,39.067-6.406,19.533,6.406,39.067,6.406,19.532-6.406,39.064-6.406,19.533,6.406,39.066,6.406,19.534-6.406,39.067-6.406,19.533,6.406,39.066,6.406,19.534-6.406,39.068-6.406,19.534,6.406,39.067,6.406,19.534-6.406,39.067-6.406,19.533,6.406,39.067,6.406,19.534-6.406,39.068-6.406,19.534,6.406,39.07,6.406,19.535-6.406,39.07-6.406" transform="translate(3590.216 -2619.023)" fill="none" stroke="#ece4d5" stroke-miterlimit="10" stroke-width="0.5"/>
            </g>
            <g id="Groupe_205" data-name="Groupe 205" transform="translate(-3590.216 2611.406)">
              <path id="Tracé_379" data-name="Tracé 379" d="M-3590.216,2631.169c19.533,0,19.533,6.406,39.067,6.406s19.533-6.406,39.066-6.406,19.533,6.406,39.066,6.406,19.534-6.406,39.067-6.406,19.533,6.406,39.067,6.406,19.532-6.406,39.064-6.406,19.533,6.406,39.066,6.406,19.534-6.406,39.067-6.406,19.533,6.406,39.066,6.406,19.534-6.406,39.068-6.406,19.534,6.406,39.067,6.406,19.534-6.406,39.067-6.406,19.533,6.406,39.067,6.406,19.534-6.406,39.068-6.406,19.534,6.406,39.07,6.406,19.535-6.406,39.07-6.406" transform="translate(3590.216 -2631.169)" fill="none" stroke="#ece4d5" stroke-miterlimit="10" stroke-width="0.5"/>
            </g>
            <g id="Groupe_206" data-name="Groupe 206" transform="translate(-3590.216 2616.963)">
              <path id="Tracé_380" data-name="Tracé 380" d="M-3590.216,2643.314c19.533,0,19.533,6.406,39.067,6.406s19.533-6.406,39.066-6.406,19.533,6.406,39.066,6.406,19.534-6.406,39.067-6.406,19.533,6.406,39.067,6.406,19.532-6.406,39.064-6.406,19.533,6.406,39.066,6.406,19.534-6.406,39.067-6.406,19.533,6.406,39.066,6.406,19.534-6.406,39.068-6.406,19.534,6.406,39.067,6.406,19.534-6.406,39.067-6.406,19.533,6.406,39.067,6.406,19.534-6.406,39.068-6.406,19.534,6.406,39.07,6.406,19.535-6.406,39.07-6.406" transform="translate(3590.216 -2643.314)" fill="none" stroke="#ece4d5" stroke-miterlimit="10" stroke-width="0.5"/>
            </g>
            <g id="Groupe_207" data-name="Groupe 207" transform="translate(-3590.216 2622.521)">
              <path id="Tracé_381" data-name="Tracé 381" d="M-3590.216,2655.459c19.533,0,19.533,6.406,39.067,6.406s19.533-6.406,39.066-6.406,19.533,6.406,39.066,6.406,19.534-6.406,39.067-6.406,19.533,6.406,39.067,6.406,19.532-6.406,39.064-6.406,19.533,6.406,39.066,6.406,19.534-6.406,39.067-6.406,19.533,6.406,39.066,6.406,19.534-6.406,39.068-6.406,19.534,6.406,39.067,6.406,19.534-6.406,39.067-6.406,19.533,6.406,39.067,6.406,19.534-6.406,39.068-6.406,19.534,6.406,39.07,6.406,19.535-6.406,39.07-6.406" transform="translate(3590.216 -2655.459)" fill="none" stroke="#ece4d5" stroke-miterlimit="10" stroke-width="0.5"/>
            </g>
            <g id="Groupe_208" data-name="Groupe 208" transform="translate(-3590.216 2628.078)">
              <path id="Tracé_382" data-name="Tracé 382" d="M-3590.216,2667.6c19.533,0,19.533,6.406,39.067,6.406s19.533-6.406,39.066-6.406,19.533,6.406,39.066,6.406,19.534-6.406,39.067-6.406,19.533,6.406,39.067,6.406,19.532-6.406,39.064-6.406,19.533,6.406,39.066,6.406,19.534-6.406,39.067-6.406,19.533,6.406,39.066,6.406,19.534-6.406,39.068-6.406,19.534,6.406,39.067,6.406,19.534-6.406,39.067-6.406,19.533,6.406,39.067,6.406,19.534-6.406,39.068-6.406,19.534,6.406,39.07,6.406,19.535-6.406,39.07-6.406" transform="translate(3590.216 -2667.604)" fill="none" stroke="#ece4d5" stroke-miterlimit="10" stroke-width="0.5"/>
            </g>
            <g id="Groupe_209" data-name="Groupe 209" transform="translate(-3590.216 2633.636)">
              <path id="Tracé_383" data-name="Tracé 383" d="M-3590.216,2679.749c19.533,0,19.533,6.406,39.067,6.406s19.533-6.406,39.066-6.406,19.533,6.406,39.066,6.406,19.534-6.406,39.067-6.406,19.533,6.406,39.067,6.406,19.532-6.406,39.064-6.406,19.533,6.406,39.066,6.406,19.534-6.406,39.067-6.406,19.533,6.406,39.066,6.406,19.534-6.406,39.068-6.406,19.534,6.406,39.067,6.406,19.534-6.406,39.067-6.406,19.533,6.406,39.067,6.406,19.534-6.406,39.068-6.406,19.534,6.406,39.07,6.406,19.535-6.406,39.07-6.406" transform="translate(3590.216 -2679.749)" fill="none" stroke="#ece4d5" stroke-miterlimit="10" stroke-width="0.5"/>
            </g>
            <g id="Groupe_210" data-name="Groupe 210" transform="translate(-3590.216 2639.193)">
              <path id="Tracé_384" data-name="Tracé 384" d="M-3590.216,2691.894c19.533,0,19.533,6.406,39.067,6.406s19.533-6.406,39.066-6.406,19.533,6.406,39.066,6.406,19.534-6.406,39.067-6.406,19.533,6.406,39.067,6.406,19.532-6.406,39.064-6.406,19.533,6.406,39.066,6.406,19.534-6.406,39.067-6.406,19.533,6.406,39.066,6.406,19.534-6.406,39.068-6.406,19.534,6.406,39.067,6.406,19.534-6.406,39.067-6.406,19.533,6.406,39.067,6.406,19.534-6.406,39.068-6.406,19.534,6.406,39.07,6.406,19.535-6.406,39.07-6.406" transform="translate(3590.216 -2691.894)" fill="none" stroke="#ece4d5" stroke-miterlimit="10" stroke-width="0.5"/>
            </g>
            <g id="Groupe_211" data-name="Groupe 211" transform="translate(-3590.216 2644.751)">
              <path id="Tracé_385" data-name="Tracé 385" d="M-3590.216,2704.039c19.533,0,19.533,6.406,39.067,6.406s19.533-6.406,39.066-6.406,19.533,6.406,39.066,6.406,19.534-6.406,39.067-6.406,19.533,6.406,39.067,6.406,19.532-6.406,39.064-6.406,19.533,6.406,39.066,6.406,19.534-6.406,39.067-6.406,19.533,6.406,39.066,6.406,19.534-6.406,39.068-6.406,19.534,6.406,39.067,6.406,19.534-6.406,39.067-6.406,19.533,6.406,39.067,6.406,19.534-6.406,39.068-6.406,19.534,6.406,39.07,6.406,19.535-6.406,39.07-6.406" transform="translate(3590.216 -2704.039)" fill="none" stroke="#ece4d5" stroke-miterlimit="10" stroke-width="0.5"/>
            </g>
            <g id="Groupe_212" data-name="Groupe 212" transform="translate(-3590.216 2650.308)">
              <path id="Tracé_386" data-name="Tracé 386" d="M-3590.216,2716.184c19.533,0,19.533,6.406,39.067,6.406s19.533-6.406,39.066-6.406,19.533,6.406,39.066,6.406,19.534-6.406,39.067-6.406,19.533,6.406,39.067,6.406,19.532-6.406,39.064-6.406,19.533,6.406,39.066,6.406,19.534-6.406,39.067-6.406,19.533,6.406,39.066,6.406,19.534-6.406,39.068-6.406,19.534,6.406,39.067,6.406,19.534-6.406,39.067-6.406,19.533,6.406,39.067,6.406,19.534-6.406,39.068-6.406,19.534,6.406,39.07,6.406,19.535-6.406,39.07-6.406" transform="translate(3590.216 -2716.184)" fill="none" stroke="#ece4d5" stroke-miterlimit="10" stroke-width="0.5"/>
            </g>
            <g id="Groupe_213" data-name="Groupe 213" transform="translate(-3590.216 2655.866)">
              <path id="Tracé_387" data-name="Tracé 387" d="M-3590.216,2728.329c19.533,0,19.533,6.406,39.067,6.406s19.533-6.406,39.066-6.406,19.533,6.406,39.066,6.406,19.534-6.406,39.067-6.406,19.533,6.406,39.067,6.406,19.532-6.406,39.064-6.406,19.533,6.406,39.066,6.406,19.534-6.406,39.067-6.406,19.533,6.406,39.066,6.406,19.534-6.406,39.068-6.406,19.534,6.406,39.067,6.406,19.534-6.406,39.067-6.406,19.533,6.406,39.067,6.406,19.534-6.406,39.068-6.406,19.534,6.406,39.07,6.406,19.535-6.406,39.07-6.406" transform="translate(3590.216 -2728.329)" fill="none" stroke="#ece4d5" stroke-miterlimit="10" stroke-width="0.5"/>
            </g>
            <g id="Groupe_214" data-name="Groupe 214" transform="translate(-3590.216 2661.423)">
              <path id="Tracé_388" data-name="Tracé 388" d="M-3590.216,2740.474c19.533,0,19.533,6.406,39.067,6.406s19.533-6.406,39.066-6.406,19.533,6.406,39.066,6.406,19.534-6.406,39.067-6.406,19.533,6.406,39.067,6.406,19.532-6.406,39.064-6.406,19.533,6.406,39.066,6.406,19.534-6.406,39.067-6.406,19.533,6.406,39.066,6.406,19.534-6.406,39.068-6.406,19.534,6.406,39.067,6.406,19.534-6.406,39.067-6.406,19.533,6.406,39.067,6.406,19.534-6.406,39.068-6.406,19.534,6.406,39.07,6.406,19.535-6.406,39.07-6.406" transform="translate(3590.216 -2740.474)" fill="none" stroke="#ece4d5" stroke-miterlimit="10" stroke-width="0.5"/>
            </g>
            <g id="Groupe_215" data-name="Groupe 215" transform="translate(-3590.216 2666.98)">
              <path id="Tracé_389" data-name="Tracé 389" d="M-3590.216,2752.619c19.533,0,19.533,6.406,39.067,6.406s19.533-6.406,39.066-6.406,19.533,6.406,39.066,6.406,19.534-6.406,39.067-6.406,19.533,6.406,39.067,6.406,19.532-6.406,39.064-6.406,19.533,6.406,39.066,6.406,19.534-6.406,39.067-6.406,19.533,6.406,39.066,6.406,19.534-6.406,39.068-6.406,19.534,6.406,39.067,6.406,19.534-6.406,39.067-6.406,19.533,6.406,39.067,6.406,19.534-6.406,39.068-6.406,19.534,6.406,39.07,6.406,19.535-6.406,39.07-6.406" transform="translate(3590.216 -2752.619)" fill="none" stroke="#ece4d5" stroke-miterlimit="10" stroke-width="0.5"/>
            </g>
            <g id="Groupe_216" data-name="Groupe 216" transform="translate(-3590.216 2672.538)">
              <path id="Tracé_390" data-name="Tracé 390" d="M-3590.216,2764.764c19.533,0,19.533,6.406,39.067,6.406s19.533-6.406,39.066-6.406,19.533,6.406,39.066,6.406,19.534-6.406,39.067-6.406,19.533,6.406,39.067,6.406,19.532-6.406,39.064-6.406,19.533,6.406,39.066,6.406,19.534-6.406,39.067-6.406,19.533,6.406,39.066,6.406,19.534-6.406,39.068-6.406,19.534,6.406,39.067,6.406,19.534-6.406,39.067-6.406,19.533,6.406,39.067,6.406,19.534-6.406,39.068-6.406,19.534,6.406,39.07,6.406,19.535-6.406,39.07-6.406" transform="translate(3590.216 -2764.764)" fill="none" stroke="#ece4d5" stroke-miterlimit="10" stroke-width="0.5"/>
            </g>
            <g id="Groupe_217" data-name="Groupe 217" transform="translate(-3590.216 2678.095)">
              <path id="Tracé_391" data-name="Tracé 391" d="M-3590.216,2776.909c19.533,0,19.533,6.406,39.067,6.406s19.533-6.406,39.066-6.406,19.533,6.406,39.066,6.406,19.534-6.406,39.067-6.406,19.533,6.406,39.067,6.406,19.532-6.406,39.064-6.406,19.533,6.406,39.066,6.406,19.534-6.406,39.067-6.406,19.533,6.406,39.066,6.406,19.534-6.406,39.068-6.406,19.534,6.406,39.067,6.406,19.534-6.406,39.067-6.406,19.533,6.406,39.067,6.406,19.534-6.406,39.068-6.406,19.534,6.406,39.07,6.406,19.535-6.406,39.07-6.406" transform="translate(3590.216 -2776.909)" fill="none" stroke="#ece4d5" stroke-miterlimit="10" stroke-width="0.5"/>
            </g>
            <g id="Groupe_218" data-name="Groupe 218" transform="translate(-3590.216 2683.653)">
              <path id="Tracé_392" data-name="Tracé 392" d="M-3590.216,2789.054c19.533,0,19.533,6.406,39.067,6.406s19.533-6.406,39.066-6.406,19.533,6.406,39.066,6.406,19.534-6.406,39.067-6.406,19.533,6.406,39.067,6.406,19.532-6.406,39.064-6.406,19.533,6.406,39.066,6.406,19.534-6.406,39.067-6.406,19.533,6.406,39.066,6.406,19.534-6.406,39.068-6.406,19.534,6.406,39.067,6.406,19.534-6.406,39.067-6.406,19.533,6.406,39.067,6.406,19.534-6.406,39.068-6.406,19.534,6.406,39.07,6.406,19.535-6.406,39.07-6.406" transform="translate(3590.216 -2789.054)" fill="none" stroke="#ece4d5" stroke-miterlimit="10" stroke-width="0.5"/>
            </g>
            <g id="Groupe_219" data-name="Groupe 219" transform="translate(-3590.216 2689.21)">
              <path id="Tracé_393" data-name="Tracé 393" d="M-3590.216,2801.2c19.533,0,19.533,6.406,39.067,6.406s19.533-6.406,39.066-6.406,19.533,6.406,39.066,6.406,19.534-6.406,39.067-6.406,19.533,6.406,39.067,6.406,19.532-6.406,39.064-6.406,19.533,6.406,39.066,6.406,19.534-6.406,39.067-6.406,19.533,6.406,39.066,6.406,19.534-6.406,39.068-6.406,19.534,6.406,39.067,6.406,19.534-6.406,39.067-6.406,19.533,6.406,39.067,6.406,19.534-6.406,39.068-6.406,19.534,6.406,39.07,6.406,19.535-6.406,39.07-6.406" transform="translate(3590.216 -2801.199)" fill="none" stroke="#ece4d5" stroke-miterlimit="10" stroke-width="0.5"/>
            </g>
            <g id="Groupe_220" data-name="Groupe 220" transform="translate(-3590.216 2694.768)">
              <path id="Tracé_394" data-name="Tracé 394" d="M-3590.216,2813.344c19.533,0,19.533,6.406,39.067,6.406s19.533-6.406,39.066-6.406,19.533,6.406,39.066,6.406,19.534-6.406,39.067-6.406,19.533,6.406,39.067,6.406,19.532-6.406,39.064-6.406,19.533,6.406,39.066,6.406,19.534-6.406,39.067-6.406,19.533,6.406,39.066,6.406,19.534-6.406,39.068-6.406,19.534,6.406,39.067,6.406,19.534-6.406,39.067-6.406,19.533,6.406,39.067,6.406,19.534-6.406,39.068-6.406,19.534,6.406,39.07,6.406,19.535-6.406,39.07-6.406" transform="translate(3590.216 -2813.344)" fill="none" stroke="#ece4d5" stroke-miterlimit="10" stroke-width="0.5"/>
            </g>
            <g id="Groupe_221" data-name="Groupe 221" transform="translate(-3590.216 2700.325)">
              <path id="Tracé_395" data-name="Tracé 395" d="M-3590.216,2825.489c19.533,0,19.533,6.406,39.067,6.406s19.533-6.406,39.066-6.406,19.533,6.406,39.066,6.406,19.534-6.406,39.067-6.406,19.533,6.406,39.067,6.406,19.532-6.406,39.064-6.406,19.533,6.406,39.066,6.406,19.534-6.406,39.067-6.406,19.533,6.406,39.066,6.406,19.534-6.406,39.068-6.406,19.534,6.406,39.067,6.406,19.534-6.406,39.067-6.406,19.533,6.406,39.067,6.406,19.534-6.406,39.068-6.406,19.534,6.406,39.07,6.406,19.535-6.406,39.07-6.406" transform="translate(3590.216 -2825.489)" fill="none" stroke="#ece4d5" stroke-miterlimit="10" stroke-width="0.5"/>
            </g>
            <g id="Groupe_222" data-name="Groupe 222" transform="translate(-3590.216 2705.883)">
              <path id="Tracé_396" data-name="Tracé 396" d="M-3590.216,2837.634c19.533,0,19.533,6.406,39.067,6.406s19.533-6.406,39.066-6.406,19.533,6.406,39.066,6.406,19.534-6.406,39.067-6.406,19.533,6.406,39.067,6.406,19.532-6.406,39.064-6.406,19.533,6.406,39.066,6.406,19.534-6.406,39.067-6.406,19.533,6.406,39.066,6.406,19.534-6.406,39.068-6.406,19.534,6.406,39.067,6.406,19.534-6.406,39.067-6.406,19.533,6.406,39.067,6.406,19.534-6.406,39.068-6.406,19.534,6.406,39.07,6.406,19.535-6.406,39.07-6.406" transform="translate(3590.216 -2837.634)" fill="none" stroke="#ece4d5" stroke-miterlimit="10" stroke-width="0.5"/>
            </g>
            <g id="Groupe_223" data-name="Groupe 223" transform="translate(-3590.216 2711.44)">
              <path id="Tracé_397" data-name="Tracé 397" d="M-3590.216,2849.779c19.533,0,19.533,6.406,39.067,6.406s19.533-6.406,39.066-6.406,19.533,6.406,39.066,6.406,19.534-6.406,39.067-6.406,19.533,6.406,39.067,6.406,19.532-6.406,39.064-6.406,19.533,6.406,39.066,6.406,19.534-6.406,39.067-6.406,19.533,6.406,39.066,6.406,19.534-6.406,39.068-6.406,19.534,6.406,39.067,6.406,19.534-6.406,39.067-6.406,19.533,6.406,39.067,6.406,19.534-6.406,39.068-6.406,19.534,6.406,39.07,6.406,19.535-6.406,39.07-6.406" transform="translate(3590.216 -2849.779)" fill="none" stroke="#ece4d5" stroke-miterlimit="10" stroke-width="0.5"/>
            </g>
            <g id="Groupe_224" data-name="Groupe 224" transform="translate(-3590.216 2716.998)">
              <path id="Tracé_398" data-name="Tracé 398" d="M-3590.216,2861.925c19.533,0,19.533,6.406,39.067,6.406s19.533-6.406,39.066-6.406,19.533,6.406,39.066,6.406,19.534-6.406,39.067-6.406,19.533,6.406,39.067,6.406,19.532-6.406,39.064-6.406,19.533,6.406,39.066,6.406,19.534-6.406,39.067-6.406,19.533,6.406,39.066,6.406,19.534-6.406,39.068-6.406,19.534,6.406,39.067,6.406,19.534-6.406,39.067-6.406,19.533,6.406,39.067,6.406,19.534-6.406,39.068-6.406,19.534,6.406,39.07,6.406,19.535-6.406,39.07-6.406" transform="translate(3590.216 -2861.925)" fill="none" stroke="#ece4d5" stroke-miterlimit="10" stroke-width="0.5"/>
            </g>
            <g id="Groupe_225" data-name="Groupe 225" transform="translate(-3590.216 2722.555)">
              <path id="Tracé_399" data-name="Tracé 399" d="M-3590.216,2874.07c19.533,0,19.533,6.406,39.067,6.406s19.533-6.406,39.066-6.406,19.533,6.406,39.066,6.406,19.534-6.406,39.067-6.406,19.533,6.406,39.067,6.406,19.532-6.406,39.064-6.406,19.533,6.406,39.066,6.406,19.534-6.406,39.067-6.406,19.533,6.406,39.066,6.406,19.534-6.406,39.068-6.406,19.534,6.406,39.067,6.406,19.534-6.406,39.067-6.406,19.533,6.406,39.067,6.406,19.534-6.406,39.068-6.406,19.534,6.406,39.07,6.406,19.535-6.406,39.07-6.406" transform="translate(3590.216 -2874.07)" fill="none" stroke="#ece4d5" stroke-miterlimit="10" stroke-width="0.5"/>
            </g>
            <g id="Groupe_226" data-name="Groupe 226" transform="translate(-3590.216 2728.113)">
              <path id="Tracé_400" data-name="Tracé 400" d="M-3590.216,2886.214c19.533,0,19.533,6.406,39.067,6.406s19.533-6.406,39.066-6.406,19.533,6.406,39.066,6.406,19.534-6.406,39.067-6.406,19.533,6.406,39.067,6.406,19.532-6.406,39.064-6.406,19.533,6.406,39.066,6.406,19.534-6.406,39.067-6.406,19.533,6.406,39.066,6.406,19.534-6.406,39.068-6.406,19.534,6.406,39.067,6.406,19.534-6.406,39.067-6.406,19.533,6.406,39.067,6.406,19.534-6.406,39.068-6.406,19.534,6.406,39.07,6.406,19.535-6.406,39.07-6.406" transform="translate(3590.216 -2886.214)" fill="none" stroke="#ece4d5" stroke-miterlimit="10" stroke-width="0.5"/>
            </g>
            <g id="Groupe_227" data-name="Groupe 227" transform="translate(-3590.216 2733.67)">
              <path id="Tracé_401" data-name="Tracé 401" d="M-3590.216,2898.359c19.533,0,19.533,6.406,39.067,6.406s19.533-6.406,39.066-6.406,19.533,6.406,39.066,6.406,19.534-6.406,39.067-6.406,19.533,6.406,39.067,6.406,19.532-6.406,39.064-6.406,19.533,6.406,39.066,6.406,19.534-6.406,39.067-6.406,19.533,6.406,39.066,6.406,19.534-6.406,39.068-6.406,19.534,6.406,39.067,6.406,19.534-6.406,39.067-6.406,19.533,6.406,39.067,6.406,19.534-6.406,39.068-6.406,19.534,6.406,39.07,6.406,19.535-6.406,39.07-6.406" transform="translate(3590.216 -2898.359)" fill="none" stroke="#ece4d5" stroke-miterlimit="10" stroke-width="0.5"/>
            </g>
            <g id="Groupe_228" data-name="Groupe 228" transform="translate(-3590.216 2739.228)">
              <path id="Tracé_402" data-name="Tracé 402" d="M-3590.216,2910.5c19.533,0,19.533,6.406,39.067,6.406s19.533-6.406,39.066-6.406,19.533,6.406,39.066,6.406,19.534-6.406,39.067-6.406,19.533,6.406,39.067,6.406,19.532-6.406,39.064-6.406,19.533,6.406,39.066,6.406,19.534-6.406,39.067-6.406,19.533,6.406,39.066,6.406,19.534-6.406,39.068-6.406,19.534,6.406,39.067,6.406,19.534-6.406,39.067-6.406,19.533,6.406,39.067,6.406,19.534-6.406,39.068-6.406,19.534,6.406,39.07,6.406,19.535-6.406,39.07-6.406" transform="translate(3590.216 -2910.504)" fill="none" stroke="#ece4d5" stroke-miterlimit="10" stroke-width="0.5"/>
            </g>
            <g id="Groupe_229" data-name="Groupe 229" transform="translate(-3590.216 2744.786)">
              <path id="Tracé_403" data-name="Tracé 403" d="M-3590.216,2922.65c19.533,0,19.533,6.407,39.067,6.407s19.533-6.407,39.066-6.407,19.533,6.407,39.066,6.407,19.534-6.407,39.067-6.407,19.533,6.407,39.067,6.407,19.532-6.407,39.064-6.407,19.533,6.407,39.066,6.407,19.534-6.407,39.067-6.407,19.533,6.407,39.066,6.407,19.534-6.407,39.068-6.407,19.534,6.407,39.067,6.407,19.534-6.407,39.067-6.407,19.533,6.407,39.067,6.407,19.534-6.407,39.068-6.407,19.534,6.407,39.07,6.407,19.535-6.407,39.07-6.407" transform="translate(3590.216 -2922.65)" fill="none" stroke="#ece4d5" stroke-miterlimit="10" stroke-width="0.5"/>
            </g>
            <g id="Groupe_230" data-name="Groupe 230" transform="translate(-3590.216 2750.343)">
              <path id="Tracé_404" data-name="Tracé 404" d="M-3590.216,2934.8c19.533,0,19.533,6.406,39.067,6.406s19.533-6.406,39.066-6.406,19.533,6.406,39.066,6.406,19.534-6.406,39.067-6.406,19.533,6.406,39.067,6.406,19.532-6.406,39.064-6.406,19.533,6.406,39.066,6.406,19.534-6.406,39.067-6.406,19.533,6.406,39.066,6.406,19.534-6.406,39.068-6.406,19.534,6.406,39.067,6.406,19.534-6.406,39.067-6.406,19.533,6.406,39.067,6.406,19.534-6.406,39.068-6.406,19.534,6.406,39.07,6.406,19.535-6.406,39.07-6.406" transform="translate(3590.216 -2934.795)" fill="none" stroke="#ece4d5" stroke-miterlimit="10" stroke-width="0.5"/>
            </g>
            <g id="Groupe_231" data-name="Groupe 231" transform="translate(-3590.216 2755.901)">
              <path id="Tracé_405" data-name="Tracé 405" d="M-3590.216,2946.94c19.533,0,19.533,6.406,39.067,6.406s19.533-6.406,39.066-6.406,19.533,6.406,39.066,6.406,19.534-6.406,39.067-6.406,19.533,6.406,39.067,6.406,19.532-6.406,39.064-6.406,19.533,6.406,39.066,6.406,19.534-6.406,39.067-6.406,19.533,6.406,39.066,6.406,19.534-6.406,39.068-6.406,19.534,6.406,39.067,6.406,19.534-6.406,39.067-6.406,19.533,6.406,39.067,6.406,19.534-6.406,39.068-6.406,19.534,6.406,39.07,6.406,19.535-6.406,39.07-6.406" transform="translate(3590.216 -2946.94)" fill="none" stroke="#ece4d5" stroke-miterlimit="10" stroke-width="0.5"/>
            </g>
            <g id="Groupe_232" data-name="Groupe 232" transform="translate(-3590.216 2761.458)">
              <path id="Tracé_406" data-name="Tracé 406" d="M-3590.216,2959.085c19.533,0,19.533,6.406,39.067,6.406s19.533-6.406,39.066-6.406,19.533,6.406,39.066,6.406,19.534-6.406,39.067-6.406,19.533,6.406,39.067,6.406,19.532-6.406,39.064-6.406,19.533,6.406,39.066,6.406,19.534-6.406,39.067-6.406,19.533,6.406,39.066,6.406,19.534-6.406,39.068-6.406,19.534,6.406,39.067,6.406,19.534-6.406,39.067-6.406,19.533,6.406,39.067,6.406,19.534-6.406,39.068-6.406,19.534,6.406,39.07,6.406,19.535-6.406,39.07-6.406" transform="translate(3590.216 -2959.085)" fill="none" stroke="#ece4d5" stroke-miterlimit="10" stroke-width="0.5"/>
            </g>
            <g id="Groupe_233" data-name="Groupe 233" transform="translate(-3590.216 2767.016)">
              <path id="Tracé_407" data-name="Tracé 407" d="M-3590.216,2971.23c19.533,0,19.533,6.406,39.067,6.406s19.533-6.406,39.066-6.406,19.533,6.406,39.066,6.406,19.534-6.406,39.067-6.406,19.533,6.406,39.067,6.406,19.532-6.406,39.064-6.406,19.533,6.406,39.066,6.406,19.534-6.406,39.067-6.406,19.533,6.406,39.066,6.406,19.534-6.406,39.068-6.406,19.534,6.406,39.067,6.406,19.534-6.406,39.067-6.406,19.533,6.406,39.067,6.406,19.534-6.406,39.068-6.406,19.534,6.406,39.07,6.406,19.535-6.406,39.07-6.406" transform="translate(3590.216 -2971.23)" fill="none" stroke="#ece4d5" stroke-miterlimit="10" stroke-width="0.5"/>
            </g>
            <g id="Groupe_234" data-name="Groupe 234" transform="translate(-3590.216 2772.573)">
              <path id="Tracé_408" data-name="Tracé 408" d="M-3590.216,2983.375c19.533,0,19.533,6.407,39.067,6.407s19.533-6.407,39.066-6.407,19.533,6.407,39.066,6.407,19.534-6.407,39.067-6.407,19.533,6.407,39.067,6.407,19.532-6.407,39.064-6.407,19.533,6.407,39.066,6.407,19.534-6.407,39.067-6.407,19.533,6.407,39.066,6.407,19.534-6.407,39.068-6.407,19.534,6.407,39.067,6.407,19.534-6.407,39.067-6.407,19.533,6.407,39.067,6.407,19.534-6.407,39.068-6.407,19.534,6.407,39.07,6.407,19.535-6.407,39.07-6.407" transform="translate(3590.216 -2983.375)" fill="none" stroke="#ece4d5" stroke-miterlimit="10" stroke-width="0.5"/>
            </g>
            <g id="Groupe_235" data-name="Groupe 235" transform="translate(-3590.216 2778.131)">
              <path id="Tracé_409" data-name="Tracé 409" d="M-3590.216,2995.52c19.533,0,19.533,6.406,39.067,6.406s19.533-6.406,39.066-6.406,19.533,6.406,39.066,6.406,19.534-6.406,39.067-6.406,19.533,6.406,39.067,6.406,19.532-6.406,39.064-6.406,19.533,6.406,39.066,6.406,19.534-6.406,39.067-6.406,19.533,6.406,39.066,6.406,19.534-6.406,39.068-6.406,19.534,6.406,39.067,6.406,19.534-6.406,39.067-6.406,19.533,6.406,39.067,6.406,19.534-6.406,39.068-6.406,19.534,6.406,39.07,6.406,19.535-6.406,39.07-6.406" transform="translate(3590.216 -2995.52)" fill="none" stroke="#ece4d5" stroke-miterlimit="10" stroke-width="0.5"/>
            </g>
            <g id="Groupe_236" data-name="Groupe 236" transform="translate(-3590.216 2783.688)">
              <path id="Tracé_410" data-name="Tracé 410" d="M-3590.216,3007.665c19.533,0,19.533,6.406,39.067,6.406s19.533-6.406,39.066-6.406,19.533,6.406,39.066,6.406,19.534-6.406,39.067-6.406,19.533,6.406,39.067,6.406,19.532-6.406,39.064-6.406,19.533,6.406,39.066,6.406,19.534-6.406,39.067-6.406,19.533,6.406,39.066,6.406,19.534-6.406,39.068-6.406,19.534,6.406,39.067,6.406,19.534-6.406,39.067-6.406,19.533,6.406,39.067,6.406,19.534-6.406,39.068-6.406,19.534,6.406,39.07,6.406,19.535-6.406,39.07-6.406" transform="translate(3590.216 -3007.665)" fill="none" stroke="#ece4d5" stroke-miterlimit="10" stroke-width="0.5"/>
            </g>
            <g id="Groupe_237" data-name="Groupe 237" transform="translate(-3590.216 2789.246)">
              <path id="Tracé_411" data-name="Tracé 411" d="M-3590.216,3019.81c19.533,0,19.533,6.406,39.067,6.406s19.533-6.406,39.066-6.406,19.533,6.406,39.066,6.406,19.534-6.406,39.067-6.406,19.533,6.406,39.067,6.406,19.532-6.406,39.064-6.406,19.533,6.406,39.066,6.406,19.534-6.406,39.067-6.406,19.533,6.406,39.066,6.406,19.534-6.406,39.068-6.406,19.534,6.406,39.067,6.406,19.534-6.406,39.067-6.406,19.533,6.406,39.067,6.406,19.534-6.406,39.068-6.406,19.534,6.406,39.07,6.406,19.535-6.406,39.07-6.406" transform="translate(3590.216 -3019.81)" fill="none" stroke="#ece4d5" stroke-miterlimit="10" stroke-width="0.5"/>
            </g>
            <g id="Groupe_238" data-name="Groupe 238" transform="translate(-3590.216 2794.803)">
              <path id="Tracé_412" data-name="Tracé 412" d="M-3590.216,3031.955c19.533,0,19.533,6.406,39.067,6.406s19.533-6.406,39.066-6.406,19.533,6.406,39.066,6.406,19.534-6.406,39.067-6.406,19.533,6.406,39.067,6.406,19.532-6.406,39.064-6.406,19.533,6.406,39.066,6.406,19.534-6.406,39.067-6.406,19.533,6.406,39.066,6.406,19.534-6.406,39.068-6.406,19.534,6.406,39.067,6.406,19.534-6.406,39.067-6.406,19.533,6.406,39.067,6.406,19.534-6.406,39.068-6.406,19.534,6.406,39.07,6.406,19.535-6.406,39.07-6.406" transform="translate(3590.216 -3031.955)" fill="none" stroke="#ece4d5" stroke-miterlimit="10" stroke-width="0.5"/>
            </g>
            <g id="Groupe_239" data-name="Groupe 239" transform="translate(-3590.216 2800.361)">
              <path id="Tracé_413" data-name="Tracé 413" d="M-3590.216,3044.1c19.533,0,19.533,6.406,39.067,6.406s19.533-6.406,39.066-6.406,19.533,6.406,39.066,6.406,19.534-6.406,39.067-6.406,19.533,6.406,39.067,6.406,19.532-6.406,39.064-6.406,19.533,6.406,39.066,6.406,19.534-6.406,39.067-6.406,19.533,6.406,39.066,6.406,19.534-6.406,39.068-6.406,19.534,6.406,39.067,6.406,19.534-6.406,39.067-6.406,19.533,6.406,39.067,6.406,19.534-6.406,39.068-6.406,19.534,6.406,39.07,6.406,19.535-6.406,39.07-6.406" transform="translate(3590.216 -3044.1)" fill="none" stroke="#ece4d5" stroke-miterlimit="10" stroke-width="0.5"/>
            </g>
            <g id="Groupe_240" data-name="Groupe 240" transform="translate(-3590.216 2805.918)">
              <path id="Tracé_414" data-name="Tracé 414" d="M-3590.216,3056.245c19.533,0,19.533,6.406,39.067,6.406s19.533-6.406,39.066-6.406,19.533,6.406,39.066,6.406,19.534-6.406,39.067-6.406,19.533,6.406,39.067,6.406,19.532-6.406,39.064-6.406,19.533,6.406,39.066,6.406,19.534-6.406,39.067-6.406,19.533,6.406,39.066,6.406,19.534-6.406,39.068-6.406,19.534,6.406,39.067,6.406,19.534-6.406,39.067-6.406,19.533,6.406,39.067,6.406,19.534-6.406,39.068-6.406,19.534,6.406,39.07,6.406,19.535-6.406,39.07-6.406" transform="translate(3590.216 -3056.245)" fill="none" stroke="#ece4d5" stroke-miterlimit="10" stroke-width="0.5"/>
            </g>
            <g id="Groupe_241" data-name="Groupe 241" transform="translate(-3590.216 2811.475)">
              <path id="Tracé_415" data-name="Tracé 415" d="M-3590.216,3068.39c19.533,0,19.533,6.406,39.067,6.406s19.533-6.406,39.066-6.406,19.533,6.406,39.066,6.406,19.534-6.406,39.067-6.406,19.533,6.406,39.067,6.406,19.532-6.406,39.064-6.406,19.533,6.406,39.066,6.406,19.534-6.406,39.067-6.406,19.533,6.406,39.066,6.406,19.534-6.406,39.068-6.406,19.534,6.406,39.067,6.406,19.534-6.406,39.067-6.406,19.533,6.406,39.067,6.406,19.534-6.406,39.068-6.406,19.534,6.406,39.07,6.406,19.535-6.406,39.07-6.406" transform="translate(3590.216 -3068.39)" fill="none" stroke="#ece4d5" stroke-miterlimit="10" stroke-width="0.5"/>
            </g>
            <g id="Groupe_242" data-name="Groupe 242" transform="translate(-3590.216 2817.033)">
              <path id="Tracé_416" data-name="Tracé 416" d="M-3590.216,3080.535c19.533,0,19.533,6.406,39.067,6.406s19.533-6.406,39.066-6.406,19.533,6.406,39.066,6.406,19.534-6.406,39.067-6.406,19.533,6.406,39.067,6.406,19.532-6.406,39.064-6.406,19.533,6.406,39.066,6.406,19.534-6.406,39.067-6.406,19.533,6.406,39.066,6.406,19.534-6.406,39.068-6.406,19.534,6.406,39.067,6.406,19.534-6.406,39.067-6.406,19.533,6.406,39.067,6.406,19.534-6.406,39.068-6.406,19.534,6.406,39.07,6.406,19.535-6.406,39.07-6.406" transform="translate(3590.216 -3080.535)" fill="none" stroke="#ece4d5" stroke-miterlimit="10" stroke-width="0.5"/>
            </g>
            <g id="Groupe_243" data-name="Groupe 243" transform="translate(-3590.216 2822.59)">
              <path id="Tracé_417" data-name="Tracé 417" d="M-3590.216,3092.68c19.533,0,19.533,6.406,39.067,6.406s19.533-6.406,39.066-6.406,19.533,6.406,39.066,6.406,19.534-6.406,39.067-6.406,19.533,6.406,39.067,6.406,19.532-6.406,39.064-6.406,19.533,6.406,39.066,6.406,19.534-6.406,39.067-6.406,19.533,6.406,39.066,6.406,19.534-6.406,39.068-6.406,19.534,6.406,39.067,6.406,19.534-6.406,39.067-6.406,19.533,6.406,39.067,6.406,19.534-6.406,39.068-6.406,19.534,6.406,39.07,6.406,19.535-6.406,39.07-6.406" transform="translate(3590.216 -3092.68)" fill="none" stroke="#ece4d5" stroke-miterlimit="10" stroke-width="0.5"/>
            </g>
            <g id="Groupe_244" data-name="Groupe 244" transform="translate(-3590.216 2828.148)">
              <path id="Tracé_418" data-name="Tracé 418" d="M-3590.216,3104.825c19.533,0,19.533,6.406,39.067,6.406s19.533-6.406,39.066-6.406,19.533,6.406,39.066,6.406,19.534-6.406,39.067-6.406,19.533,6.406,39.067,6.406,19.532-6.406,39.064-6.406,19.533,6.406,39.066,6.406,19.534-6.406,39.067-6.406,19.533,6.406,39.066,6.406,19.534-6.406,39.068-6.406,19.534,6.406,39.067,6.406,19.534-6.406,39.067-6.406,19.533,6.406,39.067,6.406,19.534-6.406,39.068-6.406,19.534,6.406,39.07,6.406,19.535-6.406,39.07-6.406" transform="translate(3590.216 -3104.825)" fill="none" stroke="#ece4d5" stroke-miterlimit="10" stroke-width="0.5"/>
            </g>
            <g id="Groupe_245" data-name="Groupe 245" transform="translate(-3590.216 2833.705)">
              <path id="Tracé_419" data-name="Tracé 419" d="M-3590.216,3116.97c19.533,0,19.533,6.406,39.067,6.406s19.533-6.406,39.066-6.406,19.533,6.406,39.066,6.406,19.534-6.406,39.067-6.406,19.533,6.406,39.067,6.406,19.532-6.406,39.064-6.406,19.533,6.406,39.066,6.406,19.534-6.406,39.067-6.406,19.533,6.406,39.066,6.406,19.534-6.406,39.068-6.406,19.534,6.406,39.067,6.406,19.534-6.406,39.067-6.406,19.533,6.406,39.067,6.406,19.534-6.406,39.068-6.406,19.534,6.406,39.07,6.406,19.535-6.406,39.07-6.406" transform="translate(3590.216 -3116.97)" fill="none" stroke="#ece4d5" stroke-miterlimit="10" stroke-width="0.5"/>
            </g>
            <g id="Groupe_246" data-name="Groupe 246" transform="translate(-3590.216 2839.263)">
              <path id="Tracé_420" data-name="Tracé 420" d="M-3590.216,3129.115c19.533,0,19.533,6.406,39.067,6.406s19.533-6.406,39.066-6.406,19.533,6.406,39.066,6.406,19.534-6.406,39.067-6.406,19.533,6.406,39.067,6.406,19.532-6.406,39.064-6.406,19.533,6.406,39.066,6.406,19.534-6.406,39.067-6.406,19.533,6.406,39.066,6.406,19.534-6.406,39.068-6.406,19.534,6.406,39.067,6.406,19.534-6.406,39.067-6.406,19.533,6.406,39.067,6.406,19.534-6.406,39.068-6.406,19.534,6.406,39.07,6.406,19.535-6.406,39.07-6.406" transform="translate(3590.216 -3129.115)" fill="none" stroke="#ece4d5" stroke-miterlimit="10" stroke-width="0.5"/>
            </g>
            <g id="Groupe_247" data-name="Groupe 247" transform="translate(-3590.216 2844.82)">
              <path id="Tracé_421" data-name="Tracé 421" d="M-3590.216,3141.26c19.533,0,19.533,6.406,39.067,6.406s19.533-6.406,39.066-6.406,19.533,6.406,39.066,6.406,19.534-6.406,39.067-6.406,19.533,6.406,39.067,6.406,19.532-6.406,39.064-6.406,19.533,6.406,39.066,6.406,19.534-6.406,39.067-6.406,19.533,6.406,39.066,6.406,19.534-6.406,39.068-6.406,19.534,6.406,39.067,6.406,19.534-6.406,39.067-6.406,19.533,6.406,39.067,6.406,19.534-6.406,39.068-6.406,19.534,6.406,39.07,6.406,19.535-6.406,39.07-6.406" transform="translate(3590.216 -3141.26)" fill="none" stroke="#ece4d5" stroke-miterlimit="10" stroke-width="0.5"/>
            </g>
            <g id="Groupe_248" data-name="Groupe 248" transform="translate(-3590.216 2850.378)">
              <path id="Tracé_422" data-name="Tracé 422" d="M-3590.216,3153.405c19.533,0,19.533,6.406,39.067,6.406s19.533-6.406,39.066-6.406,19.533,6.406,39.066,6.406,19.534-6.406,39.067-6.406,19.533,6.406,39.067,6.406,19.532-6.406,39.064-6.406,19.533,6.406,39.066,6.406,19.534-6.406,39.067-6.406,19.533,6.406,39.066,6.406,19.534-6.406,39.068-6.406,19.534,6.406,39.067,6.406,19.534-6.406,39.067-6.406,19.533,6.406,39.067,6.406,19.534-6.406,39.068-6.406,19.534,6.406,39.07,6.406,19.535-6.406,39.07-6.406" transform="translate(3590.216 -3153.405)" fill="none" stroke="#ece4d5" stroke-miterlimit="10" stroke-width="0.5"/>
            </g>
            <g id="Groupe_249" data-name="Groupe 249" transform="translate(-3590.216 2855.935)">
              <path id="Tracé_423" data-name="Tracé 423" d="M-3590.216,3165.55c19.533,0,19.533,6.406,39.067,6.406s19.533-6.406,39.066-6.406,19.533,6.406,39.066,6.406,19.534-6.406,39.067-6.406,19.533,6.406,39.067,6.406,19.532-6.406,39.064-6.406,19.533,6.406,39.066,6.406,19.534-6.406,39.067-6.406,19.533,6.406,39.066,6.406,19.534-6.406,39.068-6.406,19.534,6.406,39.067,6.406,19.534-6.406,39.067-6.406,19.533,6.406,39.067,6.406,19.534-6.406,39.068-6.406,19.534,6.406,39.07,6.406,19.535-6.406,39.07-6.406" transform="translate(3590.216 -3165.55)" fill="none" stroke="#ece4d5" stroke-miterlimit="10" stroke-width="0.5"/>
            </g>
            <g id="Groupe_250" data-name="Groupe 250" transform="translate(-3590.216 2861.493)">
              <path id="Tracé_424" data-name="Tracé 424" d="M-3590.216,3177.7c19.533,0,19.533,6.406,39.067,6.406s19.533-6.406,39.066-6.406,19.533,6.406,39.066,6.406,19.534-6.406,39.067-6.406,19.533,6.406,39.067,6.406,19.532-6.406,39.064-6.406,19.533,6.406,39.066,6.406,19.534-6.406,39.067-6.406,19.533,6.406,39.066,6.406,19.534-6.406,39.068-6.406,19.534,6.406,39.067,6.406,19.534-6.406,39.067-6.406,19.533,6.406,39.067,6.406,19.534-6.406,39.068-6.406,19.534,6.406,39.07,6.406,19.535-6.406,39.07-6.406" transform="translate(3590.216 -3177.695)" fill="none" stroke="#ece4d5" stroke-miterlimit="10" stroke-width="0.5"/>
            </g>
            <g id="Groupe_251" data-name="Groupe 251" transform="translate(-3590.216 2867.05)">
              <path id="Tracé_425" data-name="Tracé 425" d="M-3590.216,3189.84c19.533,0,19.533,6.406,39.067,6.406s19.533-6.406,39.066-6.406,19.533,6.406,39.066,6.406,19.534-6.406,39.067-6.406,19.533,6.406,39.067,6.406,19.532-6.406,39.064-6.406,19.533,6.406,39.066,6.406,19.534-6.406,39.067-6.406,19.533,6.406,39.066,6.406,19.534-6.406,39.068-6.406,19.534,6.406,39.067,6.406,19.534-6.406,39.067-6.406,19.533,6.406,39.067,6.406,19.534-6.406,39.068-6.406,19.534,6.406,39.07,6.406,19.535-6.406,39.07-6.406" transform="translate(3590.216 -3189.84)" fill="none" stroke="#ece4d5" stroke-miterlimit="10" stroke-width="0.5"/>
            </g>
            <g id="Groupe_252" data-name="Groupe 252" transform="translate(-3590.216 2872.608)">
              <path id="Tracé_426" data-name="Tracé 426" d="M-3590.216,3201.985c19.533,0,19.533,6.406,39.067,6.406s19.533-6.406,39.066-6.406,19.533,6.406,39.066,6.406,19.534-6.406,39.067-6.406,19.533,6.406,39.067,6.406,19.532-6.406,39.064-6.406,19.533,6.406,39.066,6.406,19.534-6.406,39.067-6.406,19.533,6.406,39.066,6.406,19.534-6.406,39.068-6.406,19.534,6.406,39.067,6.406,19.534-6.406,39.067-6.406,19.533,6.406,39.067,6.406,19.534-6.406,39.068-6.406,19.534,6.406,39.07,6.406,19.535-6.406,39.07-6.406" transform="translate(3590.216 -3201.985)" fill="none" stroke="#ece4d5" stroke-miterlimit="10" stroke-width="0.5"/>
            </g>
            <g id="Groupe_253" data-name="Groupe 253" transform="translate(-3590.216 2878.166)">
              <path id="Tracé_427" data-name="Tracé 427" d="M-3590.216,3214.131c19.533,0,19.533,6.406,39.067,6.406s19.533-6.406,39.066-6.406,19.533,6.406,39.066,6.406,19.534-6.406,39.067-6.406,19.533,6.406,39.067,6.406,19.532-6.406,39.064-6.406,19.533,6.406,39.066,6.406,19.534-6.406,39.067-6.406,19.533,6.406,39.066,6.406,19.534-6.406,39.068-6.406,19.534,6.406,39.067,6.406,19.534-6.406,39.067-6.406,19.533,6.406,39.067,6.406,19.534-6.406,39.068-6.406,19.534,6.406,39.07,6.406,19.535-6.406,39.07-6.406" transform="translate(3590.216 -3214.131)" fill="none" stroke="#ece4d5" stroke-miterlimit="10" stroke-width="0.5"/>
            </g>
            <g id="Groupe_254" data-name="Groupe 254" transform="translate(-3590.216 2883.723)">
              <path id="Tracé_428" data-name="Tracé 428" d="M-3590.216,3226.276c19.533,0,19.533,6.406,39.067,6.406s19.533-6.406,39.066-6.406,19.533,6.406,39.066,6.406,19.534-6.406,39.067-6.406,19.533,6.406,39.067,6.406,19.532-6.406,39.064-6.406,19.533,6.406,39.066,6.406,19.534-6.406,39.067-6.406,19.533,6.406,39.066,6.406,19.534-6.406,39.068-6.406,19.534,6.406,39.067,6.406,19.534-6.406,39.067-6.406,19.533,6.406,39.067,6.406,19.534-6.406,39.068-6.406,19.534,6.406,39.07,6.406,19.535-6.406,39.07-6.406" transform="translate(3590.216 -3226.276)" fill="none" stroke="#ece4d5" stroke-miterlimit="10" stroke-width="0.5"/>
            </g>
            <g id="Groupe_255" data-name="Groupe 255" transform="translate(-3590.216 2889.281)">
              <path id="Tracé_429" data-name="Tracé 429" d="M-3590.216,3238.421c19.533,0,19.533,6.407,39.067,6.407s19.533-6.407,39.066-6.407,19.533,6.407,39.066,6.407,19.534-6.407,39.067-6.407,19.533,6.407,39.067,6.407,19.532-6.407,39.064-6.407,19.533,6.407,39.066,6.407,19.534-6.407,39.067-6.407,19.533,6.407,39.066,6.407,19.534-6.407,39.068-6.407,19.534,6.407,39.067,6.407,19.534-6.407,39.067-6.407,19.533,6.407,39.067,6.407,19.534-6.407,39.068-6.407,19.534,6.407,39.07,6.407,19.535-6.407,39.07-6.407" transform="translate(3590.216 -3238.421)" fill="none" stroke="#ece4d5" stroke-miterlimit="10" stroke-width="0.5"/>
            </g>
            <g id="Groupe_256" data-name="Groupe 256" transform="translate(-3590.216 2894.838)">
              <path id="Tracé_430" data-name="Tracé 430" d="M-3590.216,3250.566c19.533,0,19.533,6.406,39.067,6.406s19.533-6.406,39.066-6.406,19.533,6.406,39.066,6.406,19.534-6.406,39.067-6.406,19.533,6.406,39.067,6.406,19.532-6.406,39.064-6.406,19.533,6.406,39.066,6.406,19.534-6.406,39.067-6.406,19.533,6.406,39.066,6.406,19.534-6.406,39.068-6.406,19.534,6.406,39.067,6.406,19.534-6.406,39.067-6.406,19.533,6.406,39.067,6.406,19.534-6.406,39.068-6.406,19.534,6.406,39.07,6.406,19.535-6.406,39.07-6.406" transform="translate(3590.216 -3250.566)" fill="none" stroke="#ece4d5" stroke-miterlimit="10" stroke-width="0.5"/>
            </g>
            <g id="Groupe_257" data-name="Groupe 257" transform="translate(-3590.216 2900.396)">
              <path id="Tracé_431" data-name="Tracé 431" d="M-3590.216,3262.711c19.533,0,19.533,6.406,39.067,6.406s19.533-6.406,39.066-6.406,19.533,6.406,39.066,6.406,19.534-6.406,39.067-6.406,19.533,6.406,39.067,6.406,19.532-6.406,39.064-6.406,19.533,6.406,39.066,6.406,19.534-6.406,39.067-6.406,19.533,6.406,39.066,6.406,19.534-6.406,39.068-6.406,19.534,6.406,39.067,6.406,19.534-6.406,39.067-6.406,19.533,6.406,39.067,6.406,19.534-6.406,39.068-6.406,19.534,6.406,39.07,6.406,19.535-6.406,39.07-6.406" transform="translate(3590.216 -3262.711)" fill="none" stroke="#ece4d5" stroke-miterlimit="10" stroke-width="0.5"/>
            </g>
            <g id="Groupe_258" data-name="Groupe 258" transform="translate(-3590.216 2905.953)">
              <path id="Tracé_432" data-name="Tracé 432" d="M-3590.216,3274.856c19.533,0,19.533,6.406,39.067,6.406s19.533-6.406,39.066-6.406,19.533,6.406,39.066,6.406,19.534-6.406,39.067-6.406,19.533,6.406,39.067,6.406,19.532-6.406,39.064-6.406,19.533,6.406,39.066,6.406,19.534-6.406,39.067-6.406,19.533,6.406,39.066,6.406,19.534-6.406,39.068-6.406,19.534,6.406,39.067,6.406,19.534-6.406,39.067-6.406,19.533,6.406,39.067,6.406,19.534-6.406,39.068-6.406,19.534,6.406,39.07,6.406,19.535-6.406,39.07-6.406" transform="translate(3590.216 -3274.856)" fill="none" stroke="#ece4d5" stroke-miterlimit="10" stroke-width="0.5"/>
            </g>
            <g id="Groupe_259" data-name="Groupe 259" transform="translate(-3590.216 2911.511)">
              <path id="Tracé_433" data-name="Tracé 433" d="M-3590.216,3287c19.533,0,19.533,6.406,39.067,6.406s19.533-6.406,39.066-6.406,19.533,6.406,39.066,6.406,19.534-6.406,39.067-6.406,19.533,6.406,39.067,6.406,19.532-6.406,39.064-6.406,19.533,6.406,39.066,6.406,19.534-6.406,39.067-6.406,19.533,6.406,39.066,6.406,19.534-6.406,39.068-6.406,19.534,6.406,39.067,6.406,19.534-6.406,39.067-6.406,19.533,6.406,39.067,6.406,19.534-6.406,39.068-6.406,19.534,6.406,39.07,6.406,19.535-6.406,39.07-6.406" transform="translate(3590.216 -3287.001)" fill="none" stroke="#ece4d5" stroke-miterlimit="10" stroke-width="0.5"/>
            </g>
            <g id="Groupe_260" data-name="Groupe 260" transform="translate(-3590.216 2917.068)">
              <path id="Tracé_434" data-name="Tracé 434" d="M-3590.216,3299.146c19.533,0,19.533,6.407,39.067,6.407s19.533-6.407,39.066-6.407,19.533,6.407,39.066,6.407,19.534-6.407,39.067-6.407,19.533,6.407,39.067,6.407,19.532-6.407,39.064-6.407,19.533,6.407,39.066,6.407,19.534-6.407,39.067-6.407,19.533,6.407,39.066,6.407,19.534-6.407,39.068-6.407,19.534,6.407,39.067,6.407,19.534-6.407,39.067-6.407,19.533,6.407,39.067,6.407,19.534-6.407,39.068-6.407,19.534,6.407,39.07,6.407,19.535-6.407,39.07-6.407" transform="translate(3590.216 -3299.146)" fill="none" stroke="#ece4d5" stroke-miterlimit="10" stroke-width="0.5"/>
            </g>
            <g id="Groupe_261" data-name="Groupe 261" transform="translate(-3590.216 2922.626)">
              <path id="Tracé_435" data-name="Tracé 435" d="M-3590.216,3311.291c19.533,0,19.533,6.406,39.067,6.406s19.533-6.406,39.066-6.406,19.533,6.406,39.066,6.406,19.534-6.406,39.067-6.406,19.533,6.406,39.067,6.406,19.532-6.406,39.064-6.406,19.533,6.406,39.066,6.406,19.534-6.406,39.067-6.406,19.533,6.406,39.066,6.406,19.534-6.406,39.068-6.406,19.534,6.406,39.067,6.406,19.534-6.406,39.067-6.406,19.533,6.406,39.067,6.406,19.534-6.406,39.068-6.406,19.534,6.406,39.07,6.406,19.535-6.406,39.07-6.406" transform="translate(3590.216 -3311.291)" fill="none" stroke="#ece4d5" stroke-miterlimit="10" stroke-width="0.5"/>
            </g>
            <g id="Groupe_262" data-name="Groupe 262" transform="translate(-3590.216 2928.183)">
              <path id="Tracé_436" data-name="Tracé 436" d="M-3590.216,3323.436c19.533,0,19.533,6.407,39.067,6.407s19.533-6.407,39.066-6.407,19.533,6.407,39.066,6.407,19.534-6.407,39.067-6.407,19.533,6.407,39.067,6.407,19.532-6.407,39.064-6.407,19.533,6.407,39.066,6.407,19.534-6.407,39.067-6.407,19.533,6.407,39.066,6.407,19.534-6.407,39.068-6.407,19.534,6.407,39.067,6.407,19.534-6.407,39.067-6.407,19.533,6.407,39.067,6.407,19.534-6.407,39.068-6.407,19.534,6.407,39.07,6.407,19.535-6.407,39.07-6.407" transform="translate(3590.216 -3323.436)" fill="none" stroke="#ece4d5" stroke-miterlimit="10" stroke-width="0.5"/>
            </g>
            <g id="Groupe_263" data-name="Groupe 263" transform="translate(-3590.216 2933.741)">
              <path id="Tracé_437" data-name="Tracé 437" d="M-3590.216,3335.581c19.533,0,19.533,6.406,39.067,6.406s19.533-6.406,39.066-6.406,19.533,6.406,39.066,6.406,19.534-6.406,39.067-6.406,19.533,6.406,39.067,6.406,19.532-6.406,39.064-6.406,19.533,6.406,39.066,6.406,19.534-6.406,39.067-6.406,19.533,6.406,39.066,6.406,19.534-6.406,39.068-6.406,19.534,6.406,39.067,6.406,19.534-6.406,39.067-6.406,19.533,6.406,39.067,6.406,19.534-6.406,39.068-6.406,19.534,6.406,39.07,6.406,19.535-6.406,39.07-6.406" transform="translate(3590.216 -3335.581)" fill="none" stroke="#ece4d5" stroke-miterlimit="10" stroke-width="0.5"/>
            </g>
            <g id="Groupe_264" data-name="Groupe 264" transform="translate(-3590.216 2939.298)">
              <path id="Tracé_438" data-name="Tracé 438" d="M-3590.216,3347.726c19.533,0,19.533,6.406,39.067,6.406s19.533-6.406,39.066-6.406,19.533,6.406,39.066,6.406,19.534-6.406,39.067-6.406,19.533,6.406,39.067,6.406,19.532-6.406,39.064-6.406,19.533,6.406,39.066,6.406,19.534-6.406,39.067-6.406,19.533,6.406,39.066,6.406,19.534-6.406,39.068-6.406,19.534,6.406,39.067,6.406,19.534-6.406,39.067-6.406,19.533,6.406,39.067,6.406,19.534-6.406,39.068-6.406,19.534,6.406,39.07,6.406,19.535-6.406,39.07-6.406" transform="translate(3590.216 -3347.726)" fill="none" stroke="#ece4d5" stroke-miterlimit="10" stroke-width="0.5"/>
            </g>
            <g id="Groupe_265" data-name="Groupe 265" transform="translate(-3590.216 2944.856)">
              <path id="Tracé_439" data-name="Tracé 439" d="M-3590.216,3359.871c19.533,0,19.533,6.407,39.067,6.407s19.533-6.407,39.066-6.407,19.533,6.407,39.066,6.407,19.534-6.407,39.067-6.407,19.533,6.407,39.067,6.407,19.532-6.407,39.064-6.407,19.533,6.407,39.066,6.407,19.534-6.407,39.067-6.407,19.533,6.407,39.066,6.407,19.534-6.407,39.068-6.407,19.534,6.407,39.067,6.407,19.534-6.407,39.067-6.407,19.533,6.407,39.067,6.407,19.534-6.407,39.068-6.407,19.534,6.407,39.07,6.407,19.535-6.407,39.07-6.407" transform="translate(3590.216 -3359.871)" fill="none" stroke="#ece4d5" stroke-miterlimit="10" stroke-width="0.5"/>
            </g>
            <g id="Groupe_266" data-name="Groupe 266" transform="translate(-3590.216 2950.413)">
              <path id="Tracé_440" data-name="Tracé 440" d="M-3590.216,3372.016c19.533,0,19.533,6.406,39.067,6.406s19.533-6.406,39.066-6.406,19.533,6.406,39.066,6.406,19.534-6.406,39.067-6.406,19.533,6.406,39.067,6.406,19.532-6.406,39.064-6.406,19.533,6.406,39.066,6.406,19.534-6.406,39.067-6.406,19.533,6.406,39.066,6.406,19.534-6.406,39.068-6.406,19.534,6.406,39.067,6.406,19.534-6.406,39.067-6.406,19.533,6.406,39.067,6.406,19.534-6.406,39.068-6.406,19.534,6.406,39.07,6.406,19.535-6.406,39.07-6.406" transform="translate(3590.216 -3372.016)" fill="none" stroke="#ece4d5" stroke-miterlimit="10" stroke-width="0.5"/>
            </g>
            <g id="Groupe_267" data-name="Groupe 267" transform="translate(-3590.216 2955.97)">
              <path id="Tracé_441" data-name="Tracé 441" d="M-3590.216,3384.161c19.533,0,19.533,6.406,39.067,6.406s19.533-6.406,39.066-6.406,19.533,6.406,39.066,6.406,19.534-6.406,39.067-6.406,19.533,6.406,39.067,6.406,19.532-6.406,39.064-6.406,19.533,6.406,39.066,6.406,19.534-6.406,39.067-6.406,19.533,6.406,39.066,6.406,19.534-6.406,39.068-6.406,19.534,6.406,39.067,6.406,19.534-6.406,39.067-6.406,19.533,6.406,39.067,6.406,19.534-6.406,39.068-6.406,19.534,6.406,39.07,6.406,19.535-6.406,39.07-6.406" transform="translate(3590.216 -3384.161)" fill="none" stroke="#ece4d5" stroke-miterlimit="10" stroke-width="0.5"/>
            </g>
            <g id="Groupe_268" data-name="Groupe 268" transform="translate(-3590.216 2961.528)">
              <path id="Tracé_442" data-name="Tracé 442" d="M-3590.216,3396.306c19.533,0,19.533,6.406,39.067,6.406s19.533-6.406,39.066-6.406,19.533,6.406,39.066,6.406,19.534-6.406,39.067-6.406,19.533,6.406,39.067,6.406,19.532-6.406,39.064-6.406,19.533,6.406,39.066,6.406,19.534-6.406,39.067-6.406,19.533,6.406,39.066,6.406,19.534-6.406,39.068-6.406,19.534,6.406,39.067,6.406,19.534-6.406,39.067-6.406,19.533,6.406,39.067,6.406,19.534-6.406,39.068-6.406,19.534,6.406,39.07,6.406,19.535-6.406,39.07-6.406" transform="translate(3590.216 -3396.306)" fill="none" stroke="#ece4d5" stroke-miterlimit="10" stroke-width="0.5"/>
            </g>
            <g id="Groupe_269" data-name="Groupe 269" transform="translate(-3590.216 2967.085)">
              <path id="Tracé_443" data-name="Tracé 443" d="M-3590.216,3408.451c19.533,0,19.533,6.406,39.067,6.406s19.533-6.406,39.066-6.406,19.533,6.406,39.066,6.406,19.534-6.406,39.067-6.406,19.533,6.406,39.067,6.406,19.532-6.406,39.064-6.406,19.533,6.406,39.066,6.406,19.534-6.406,39.067-6.406,19.533,6.406,39.066,6.406,19.534-6.406,39.068-6.406,19.534,6.406,39.067,6.406,19.534-6.406,39.067-6.406,19.533,6.406,39.067,6.406,19.534-6.406,39.068-6.406,19.534,6.406,39.07,6.406,19.535-6.406,39.07-6.406" transform="translate(3590.216 -3408.451)" fill="none" stroke="#ece4d5" stroke-miterlimit="10" stroke-width="0.5"/>
            </g>
            <g id="Groupe_270" data-name="Groupe 270" transform="translate(-3590.216 2972.643)">
              <path id="Tracé_444" data-name="Tracé 444" d="M-3590.216,3420.6c19.533,0,19.533,6.406,39.067,6.406s19.533-6.406,39.066-6.406,19.533,6.406,39.066,6.406,19.534-6.406,39.067-6.406,19.533,6.406,39.067,6.406,19.532-6.406,39.064-6.406,19.533,6.406,39.066,6.406,19.534-6.406,39.067-6.406,19.533,6.406,39.066,6.406,19.534-6.406,39.068-6.406,19.534,6.406,39.067,6.406,19.534-6.406,39.067-6.406,19.533,6.406,39.067,6.406,19.534-6.406,39.068-6.406,19.534,6.406,39.07,6.406,19.535-6.406,39.07-6.406" transform="translate(3590.216 -3420.596)" fill="none" stroke="#ece4d5" stroke-miterlimit="10" stroke-width="0.5"/>
            </g>
            <g id="Groupe_271" data-name="Groupe 271" transform="translate(-3590.216 2978.2)">
              <path id="Tracé_445" data-name="Tracé 445" d="M-3590.216,3432.741c19.533,0,19.533,6.406,39.067,6.406s19.533-6.406,39.066-6.406,19.533,6.406,39.066,6.406,19.534-6.406,39.067-6.406,19.533,6.406,39.067,6.406,19.532-6.406,39.064-6.406,19.533,6.406,39.066,6.406,19.534-6.406,39.067-6.406,19.533,6.406,39.066,6.406,19.534-6.406,39.068-6.406,19.534,6.406,39.067,6.406,19.534-6.406,39.067-6.406,19.533,6.406,39.067,6.406,19.534-6.406,39.068-6.406,19.534,6.406,39.07,6.406,19.535-6.406,39.07-6.406" transform="translate(3590.216 -3432.741)" fill="none" stroke="#ece4d5" stroke-miterlimit="10" stroke-width="0.5"/>
            </g>
            <g id="Groupe_2444" data-name="Groupe 2444" transform="translate(-3590.216 2984.378)">
              <path id="Tracé_422-2" data-name="Tracé 422" d="M-3590.216,3153.405c19.533,0,19.533,6.406,39.067,6.406s19.533-6.406,39.066-6.406,19.533,6.406,39.066,6.406,19.534-6.406,39.067-6.406,19.533,6.406,39.067,6.406,19.532-6.406,39.064-6.406,19.533,6.406,39.066,6.406,19.534-6.406,39.067-6.406,19.533,6.406,39.066,6.406,19.534-6.406,39.068-6.406,19.534,6.406,39.067,6.406,19.534-6.406,39.067-6.406,19.533,6.406,39.067,6.406,19.534-6.406,39.068-6.406,19.534,6.406,39.07,6.406,19.535-6.406,39.07-6.406" transform="translate(3590.216 -3153.405)" fill="none" stroke="#ece4d5" stroke-miterlimit="10" stroke-width="0.5"/>
            </g>
            <g id="Groupe_2445" data-name="Groupe 2445" transform="translate(-3590.216 2989.935)">
              <path id="Tracé_423-2" data-name="Tracé 423" d="M-3590.216,3165.55c19.533,0,19.533,6.406,39.067,6.406s19.533-6.406,39.066-6.406,19.533,6.406,39.066,6.406,19.534-6.406,39.067-6.406,19.533,6.406,39.067,6.406,19.532-6.406,39.064-6.406,19.533,6.406,39.066,6.406,19.534-6.406,39.067-6.406,19.533,6.406,39.066,6.406,19.534-6.406,39.068-6.406,19.534,6.406,39.067,6.406,19.534-6.406,39.067-6.406,19.533,6.406,39.067,6.406,19.534-6.406,39.068-6.406,19.534,6.406,39.07,6.406,19.535-6.406,39.07-6.406" transform="translate(3590.216 -3165.55)" fill="none" stroke="#ece4d5" stroke-miterlimit="10" stroke-width="0.5"/>
            </g>
            <g id="Groupe_2446" data-name="Groupe 2446" transform="translate(-3590.216 2995.493)">
              <path id="Tracé_424-2" data-name="Tracé 424" d="M-3590.216,3177.7c19.533,0,19.533,6.406,39.067,6.406s19.533-6.406,39.066-6.406,19.533,6.406,39.066,6.406,19.534-6.406,39.067-6.406,19.533,6.406,39.067,6.406,19.532-6.406,39.064-6.406,19.533,6.406,39.066,6.406,19.534-6.406,39.067-6.406,19.533,6.406,39.066,6.406,19.534-6.406,39.068-6.406,19.534,6.406,39.067,6.406,19.534-6.406,39.067-6.406,19.533,6.406,39.067,6.406,19.534-6.406,39.068-6.406,19.534,6.406,39.07,6.406,19.535-6.406,39.07-6.406" transform="translate(3590.216 -3177.695)" fill="none" stroke="#ece4d5" stroke-miterlimit="10" stroke-width="0.5"/>
            </g>
            <g id="Groupe_2447" data-name="Groupe 2447" transform="translate(-3590.216 3001.05)">
              <path id="Tracé_425-2" data-name="Tracé 425" d="M-3590.216,3189.84c19.533,0,19.533,6.406,39.067,6.406s19.533-6.406,39.066-6.406,19.533,6.406,39.066,6.406,19.534-6.406,39.067-6.406,19.533,6.406,39.067,6.406,19.532-6.406,39.064-6.406,19.533,6.406,39.066,6.406,19.534-6.406,39.067-6.406,19.533,6.406,39.066,6.406,19.534-6.406,39.068-6.406,19.534,6.406,39.067,6.406,19.534-6.406,39.067-6.406,19.533,6.406,39.067,6.406,19.534-6.406,39.068-6.406,19.534,6.406,39.07,6.406,19.535-6.406,39.07-6.406" transform="translate(3590.216 -3189.84)" fill="none" stroke="#ece4d5" stroke-miterlimit="10" stroke-width="0.5"/>
            </g>
            <g id="Groupe_2448" data-name="Groupe 2448" transform="translate(-3590.216 3006.608)">
              <path id="Tracé_426-2" data-name="Tracé 426" d="M-3590.216,3201.985c19.533,0,19.533,6.406,39.067,6.406s19.533-6.406,39.066-6.406,19.533,6.406,39.066,6.406,19.534-6.406,39.067-6.406,19.533,6.406,39.067,6.406,19.532-6.406,39.064-6.406,19.533,6.406,39.066,6.406,19.534-6.406,39.067-6.406,19.533,6.406,39.066,6.406,19.534-6.406,39.068-6.406,19.534,6.406,39.067,6.406,19.534-6.406,39.067-6.406,19.533,6.406,39.067,6.406,19.534-6.406,39.068-6.406,19.534,6.406,39.07,6.406,19.535-6.406,39.07-6.406" transform="translate(3590.216 -3201.985)" fill="none" stroke="#ece4d5" stroke-miterlimit="10" stroke-width="0.5"/>
            </g>
            <g id="Groupe_2449" data-name="Groupe 2449" transform="translate(-3590.216 3012.166)">
              <path id="Tracé_427-2" data-name="Tracé 427" d="M-3590.216,3214.131c19.533,0,19.533,6.406,39.067,6.406s19.533-6.406,39.066-6.406,19.533,6.406,39.066,6.406,19.534-6.406,39.067-6.406,19.533,6.406,39.067,6.406,19.532-6.406,39.064-6.406,19.533,6.406,39.066,6.406,19.534-6.406,39.067-6.406,19.533,6.406,39.066,6.406,19.534-6.406,39.068-6.406,19.534,6.406,39.067,6.406,19.534-6.406,39.067-6.406,19.533,6.406,39.067,6.406,19.534-6.406,39.068-6.406,19.534,6.406,39.07,6.406,19.535-6.406,39.07-6.406" transform="translate(3590.216 -3214.131)" fill="none" stroke="#ece4d5" stroke-miterlimit="10" stroke-width="0.5"/>
            </g>
            <g id="Groupe_2450" data-name="Groupe 2450" transform="translate(-3590.216 3017.723)">
              <path id="Tracé_428-2" data-name="Tracé 428" d="M-3590.216,3226.276c19.533,0,19.533,6.406,39.067,6.406s19.533-6.406,39.066-6.406,19.533,6.406,39.066,6.406,19.534-6.406,39.067-6.406,19.533,6.406,39.067,6.406,19.532-6.406,39.064-6.406,19.533,6.406,39.066,6.406,19.534-6.406,39.067-6.406,19.533,6.406,39.066,6.406,19.534-6.406,39.068-6.406,19.534,6.406,39.067,6.406,19.534-6.406,39.067-6.406,19.533,6.406,39.067,6.406,19.534-6.406,39.068-6.406,19.534,6.406,39.07,6.406,19.535-6.406,39.07-6.406" transform="translate(3590.216 -3226.276)" fill="none" stroke="#ece4d5" stroke-miterlimit="10" stroke-width="0.5"/>
            </g>
            <g id="Groupe_2451" data-name="Groupe 2451" transform="translate(-3590.216 3023.281)">
              <path id="Tracé_429-2" data-name="Tracé 429" d="M-3590.216,3238.421c19.533,0,19.533,6.407,39.067,6.407s19.533-6.407,39.066-6.407,19.533,6.407,39.066,6.407,19.534-6.407,39.067-6.407,19.533,6.407,39.067,6.407,19.532-6.407,39.064-6.407,19.533,6.407,39.066,6.407,19.534-6.407,39.067-6.407,19.533,6.407,39.066,6.407,19.534-6.407,39.068-6.407,19.534,6.407,39.067,6.407,19.534-6.407,39.067-6.407,19.533,6.407,39.067,6.407,19.534-6.407,39.068-6.407,19.534,6.407,39.07,6.407,19.535-6.407,39.07-6.407" transform="translate(3590.216 -3238.421)" fill="none" stroke="#ece4d5" stroke-miterlimit="10" stroke-width="0.5"/>
            </g>
            <g id="Groupe_2452" data-name="Groupe 2452" transform="translate(-3590.216 3028.838)">
              <path id="Tracé_430-2" data-name="Tracé 430" d="M-3590.216,3250.566c19.533,0,19.533,6.406,39.067,6.406s19.533-6.406,39.066-6.406,19.533,6.406,39.066,6.406,19.534-6.406,39.067-6.406,19.533,6.406,39.067,6.406,19.532-6.406,39.064-6.406,19.533,6.406,39.066,6.406,19.534-6.406,39.067-6.406,19.533,6.406,39.066,6.406,19.534-6.406,39.068-6.406,19.534,6.406,39.067,6.406,19.534-6.406,39.067-6.406,19.533,6.406,39.067,6.406,19.534-6.406,39.068-6.406,19.534,6.406,39.07,6.406,19.535-6.406,39.07-6.406" transform="translate(3590.216 -3250.566)" fill="none" stroke="#ece4d5" stroke-miterlimit="10" stroke-width="0.5"/>
            </g>
            <g id="Groupe_2453" data-name="Groupe 2453" transform="translate(-3590.216 3034.396)">
              <path id="Tracé_431-2" data-name="Tracé 431" d="M-3590.216,3262.711c19.533,0,19.533,6.406,39.067,6.406s19.533-6.406,39.066-6.406,19.533,6.406,39.066,6.406,19.534-6.406,39.067-6.406,19.533,6.406,39.067,6.406,19.532-6.406,39.064-6.406,19.533,6.406,39.066,6.406,19.534-6.406,39.067-6.406,19.533,6.406,39.066,6.406,19.534-6.406,39.068-6.406,19.534,6.406,39.067,6.406,19.534-6.406,39.067-6.406,19.533,6.406,39.067,6.406,19.534-6.406,39.068-6.406,19.534,6.406,39.07,6.406,19.535-6.406,39.07-6.406" transform="translate(3590.216 -3262.711)" fill="none" stroke="#ece4d5" stroke-miterlimit="10" stroke-width="0.5"/>
            </g>
            <g id="Groupe_2454" data-name="Groupe 2454" transform="translate(-3590.216 3039.953)">
              <path id="Tracé_432-2" data-name="Tracé 432" d="M-3590.216,3274.856c19.533,0,19.533,6.406,39.067,6.406s19.533-6.406,39.066-6.406,19.533,6.406,39.066,6.406,19.534-6.406,39.067-6.406,19.533,6.406,39.067,6.406,19.532-6.406,39.064-6.406,19.533,6.406,39.066,6.406,19.534-6.406,39.067-6.406,19.533,6.406,39.066,6.406,19.534-6.406,39.068-6.406,19.534,6.406,39.067,6.406,19.534-6.406,39.067-6.406,19.533,6.406,39.067,6.406,19.534-6.406,39.068-6.406,19.534,6.406,39.07,6.406,19.535-6.406,39.07-6.406" transform="translate(3590.216 -3274.856)" fill="none" stroke="#ece4d5" stroke-miterlimit="10" stroke-width="0.5"/>
            </g>
            <g id="Groupe_2455" data-name="Groupe 2455" transform="translate(-3590.216 3045.511)">
              <path id="Tracé_433-2" data-name="Tracé 433" d="M-3590.216,3287c19.533,0,19.533,6.406,39.067,6.406s19.533-6.406,39.066-6.406,19.533,6.406,39.066,6.406,19.534-6.406,39.067-6.406,19.533,6.406,39.067,6.406,19.532-6.406,39.064-6.406,19.533,6.406,39.066,6.406,19.534-6.406,39.067-6.406,19.533,6.406,39.066,6.406,19.534-6.406,39.068-6.406,19.534,6.406,39.067,6.406,19.534-6.406,39.067-6.406,19.533,6.406,39.067,6.406,19.534-6.406,39.068-6.406,19.534,6.406,39.07,6.406,19.535-6.406,39.07-6.406" transform="translate(3590.216 -3287.001)" fill="none" stroke="#ece4d5" stroke-miterlimit="10" stroke-width="0.5"/>
            </g>
            <g id="Groupe_2456" data-name="Groupe 2456" transform="translate(-3590.216 3051.068)">
              <path id="Tracé_434-2" data-name="Tracé 434" d="M-3590.216,3299.146c19.533,0,19.533,6.407,39.067,6.407s19.533-6.407,39.066-6.407,19.533,6.407,39.066,6.407,19.534-6.407,39.067-6.407,19.533,6.407,39.067,6.407,19.532-6.407,39.064-6.407,19.533,6.407,39.066,6.407,19.534-6.407,39.067-6.407,19.533,6.407,39.066,6.407,19.534-6.407,39.068-6.407,19.534,6.407,39.067,6.407,19.534-6.407,39.067-6.407,19.533,6.407,39.067,6.407,19.534-6.407,39.068-6.407,19.534,6.407,39.07,6.407,19.535-6.407,39.07-6.407" transform="translate(3590.216 -3299.146)" fill="none" stroke="#ece4d5" stroke-miterlimit="10" stroke-width="0.5"/>
            </g>
            <g id="Groupe_2457" data-name="Groupe 2457" transform="translate(-3590.216 3056.626)">
              <path id="Tracé_435-2" data-name="Tracé 435" d="M-3590.216,3311.291c19.533,0,19.533,6.406,39.067,6.406s19.533-6.406,39.066-6.406,19.533,6.406,39.066,6.406,19.534-6.406,39.067-6.406,19.533,6.406,39.067,6.406,19.532-6.406,39.064-6.406,19.533,6.406,39.066,6.406,19.534-6.406,39.067-6.406,19.533,6.406,39.066,6.406,19.534-6.406,39.068-6.406,19.534,6.406,39.067,6.406,19.534-6.406,39.067-6.406,19.533,6.406,39.067,6.406,19.534-6.406,39.068-6.406,19.534,6.406,39.07,6.406,19.535-6.406,39.07-6.406" transform="translate(3590.216 -3311.291)" fill="none" stroke="#ece4d5" stroke-miterlimit="10" stroke-width="0.5"/>
            </g>
            <g id="Groupe_2458" data-name="Groupe 2458" transform="translate(-3590.216 3062.183)">
              <path id="Tracé_436-2" data-name="Tracé 436" d="M-3590.216,3323.436c19.533,0,19.533,6.407,39.067,6.407s19.533-6.407,39.066-6.407,19.533,6.407,39.066,6.407,19.534-6.407,39.067-6.407,19.533,6.407,39.067,6.407,19.532-6.407,39.064-6.407,19.533,6.407,39.066,6.407,19.534-6.407,39.067-6.407,19.533,6.407,39.066,6.407,19.534-6.407,39.068-6.407,19.534,6.407,39.067,6.407,19.534-6.407,39.067-6.407,19.533,6.407,39.067,6.407,19.534-6.407,39.068-6.407,19.534,6.407,39.07,6.407,19.535-6.407,39.07-6.407" transform="translate(3590.216 -3323.436)" fill="none" stroke="#ece4d5" stroke-miterlimit="10" stroke-width="0.5"/>
            </g>
            <g id="Groupe_2459" data-name="Groupe 2459" transform="translate(-3590.216 3067.741)">
              <path id="Tracé_437-2" data-name="Tracé 437" d="M-3590.216,3335.581c19.533,0,19.533,6.406,39.067,6.406s19.533-6.406,39.066-6.406,19.533,6.406,39.066,6.406,19.534-6.406,39.067-6.406,19.533,6.406,39.067,6.406,19.532-6.406,39.064-6.406,19.533,6.406,39.066,6.406,19.534-6.406,39.067-6.406,19.533,6.406,39.066,6.406,19.534-6.406,39.068-6.406,19.534,6.406,39.067,6.406,19.534-6.406,39.067-6.406,19.533,6.406,39.067,6.406,19.534-6.406,39.068-6.406,19.534,6.406,39.07,6.406,19.535-6.406,39.07-6.406" transform="translate(3590.216 -3335.581)" fill="none" stroke="#ece4d5" stroke-miterlimit="10" stroke-width="0.5"/>
            </g>
            <g id="Groupe_2460" data-name="Groupe 2460" transform="translate(-3590.216 3073.298)">
              <path id="Tracé_438-2" data-name="Tracé 438" d="M-3590.216,3347.726c19.533,0,19.533,6.406,39.067,6.406s19.533-6.406,39.066-6.406,19.533,6.406,39.066,6.406,19.534-6.406,39.067-6.406,19.533,6.406,39.067,6.406,19.532-6.406,39.064-6.406,19.533,6.406,39.066,6.406,19.534-6.406,39.067-6.406,19.533,6.406,39.066,6.406,19.534-6.406,39.068-6.406,19.534,6.406,39.067,6.406,19.534-6.406,39.067-6.406,19.533,6.406,39.067,6.406,19.534-6.406,39.068-6.406,19.534,6.406,39.07,6.406,19.535-6.406,39.07-6.406" transform="translate(3590.216 -3347.726)" fill="none" stroke="#ece4d5" stroke-miterlimit="10" stroke-width="0.5"/>
            </g>
            <g id="Groupe_2461" data-name="Groupe 2461" transform="translate(-3590.216 3078.856)">
              <path id="Tracé_439-2" data-name="Tracé 439" d="M-3590.216,3359.871c19.533,0,19.533,6.407,39.067,6.407s19.533-6.407,39.066-6.407,19.533,6.407,39.066,6.407,19.534-6.407,39.067-6.407,19.533,6.407,39.067,6.407,19.532-6.407,39.064-6.407,19.533,6.407,39.066,6.407,19.534-6.407,39.067-6.407,19.533,6.407,39.066,6.407,19.534-6.407,39.068-6.407,19.534,6.407,39.067,6.407,19.534-6.407,39.067-6.407,19.533,6.407,39.067,6.407,19.534-6.407,39.068-6.407,19.534,6.407,39.07,6.407,19.535-6.407,39.07-6.407" transform="translate(3590.216 -3359.871)" fill="none" stroke="#ece4d5" stroke-miterlimit="10" stroke-width="0.5"/>
            </g>
            <g id="Groupe_2462" data-name="Groupe 2462" transform="translate(-3590.216 3084.413)">
              <path id="Tracé_440-2" data-name="Tracé 440" d="M-3590.216,3372.016c19.533,0,19.533,6.406,39.067,6.406s19.533-6.406,39.066-6.406,19.533,6.406,39.066,6.406,19.534-6.406,39.067-6.406,19.533,6.406,39.067,6.406,19.532-6.406,39.064-6.406,19.533,6.406,39.066,6.406,19.534-6.406,39.067-6.406,19.533,6.406,39.066,6.406,19.534-6.406,39.068-6.406,19.534,6.406,39.067,6.406,19.534-6.406,39.067-6.406,19.533,6.406,39.067,6.406,19.534-6.406,39.068-6.406,19.534,6.406,39.07,6.406,19.535-6.406,39.07-6.406" transform="translate(3590.216 -3372.016)" fill="none" stroke="#ece4d5" stroke-miterlimit="10" stroke-width="0.5"/>
            </g>
            <g id="Groupe_2463" data-name="Groupe 2463" transform="translate(-3590.216 3089.97)">
              <path id="Tracé_441-2" data-name="Tracé 441" d="M-3590.216,3384.161c19.533,0,19.533,6.406,39.067,6.406s19.533-6.406,39.066-6.406,19.533,6.406,39.066,6.406,19.534-6.406,39.067-6.406,19.533,6.406,39.067,6.406,19.532-6.406,39.064-6.406,19.533,6.406,39.066,6.406,19.534-6.406,39.067-6.406,19.533,6.406,39.066,6.406,19.534-6.406,39.068-6.406,19.534,6.406,39.067,6.406,19.534-6.406,39.067-6.406,19.533,6.406,39.067,6.406,19.534-6.406,39.068-6.406,19.534,6.406,39.07,6.406,19.535-6.406,39.07-6.406" transform="translate(3590.216 -3384.161)" fill="none" stroke="#ece4d5" stroke-miterlimit="10" stroke-width="0.5"/>
            </g>
            <g id="Groupe_2464" data-name="Groupe 2464" transform="translate(-3590.216 3095.528)">
              <path id="Tracé_442-2" data-name="Tracé 442" d="M-3590.216,3396.306c19.533,0,19.533,6.406,39.067,6.406s19.533-6.406,39.066-6.406,19.533,6.406,39.066,6.406,19.534-6.406,39.067-6.406,19.533,6.406,39.067,6.406,19.532-6.406,39.064-6.406,19.533,6.406,39.066,6.406,19.534-6.406,39.067-6.406,19.533,6.406,39.066,6.406,19.534-6.406,39.068-6.406,19.534,6.406,39.067,6.406,19.534-6.406,39.067-6.406,19.533,6.406,39.067,6.406,19.534-6.406,39.068-6.406,19.534,6.406,39.07,6.406,19.535-6.406,39.07-6.406" transform="translate(3590.216 -3396.306)" fill="none" stroke="#ece4d5" stroke-miterlimit="10" stroke-width="0.5"/>
            </g>
            <g id="Groupe_2465" data-name="Groupe 2465" transform="translate(-3590.216 3101.085)">
              <path id="Tracé_443-2" data-name="Tracé 443" d="M-3590.216,3408.451c19.533,0,19.533,6.406,39.067,6.406s19.533-6.406,39.066-6.406,19.533,6.406,39.066,6.406,19.534-6.406,39.067-6.406,19.533,6.406,39.067,6.406,19.532-6.406,39.064-6.406,19.533,6.406,39.066,6.406,19.534-6.406,39.067-6.406,19.533,6.406,39.066,6.406,19.534-6.406,39.068-6.406,19.534,6.406,39.067,6.406,19.534-6.406,39.067-6.406,19.533,6.406,39.067,6.406,19.534-6.406,39.068-6.406,19.534,6.406,39.07,6.406,19.535-6.406,39.07-6.406" transform="translate(3590.216 -3408.451)" fill="none" stroke="#ece4d5" stroke-miterlimit="10" stroke-width="0.5"/>
            </g>
            <g id="Groupe_2466" data-name="Groupe 2466" transform="translate(-3590.216 3106.643)">
              <path id="Tracé_444-2" data-name="Tracé 444" d="M-3590.216,3420.6c19.533,0,19.533,6.406,39.067,6.406s19.533-6.406,39.066-6.406,19.533,6.406,39.066,6.406,19.534-6.406,39.067-6.406,19.533,6.406,39.067,6.406,19.532-6.406,39.064-6.406,19.533,6.406,39.066,6.406,19.534-6.406,39.067-6.406,19.533,6.406,39.066,6.406,19.534-6.406,39.068-6.406,19.534,6.406,39.067,6.406,19.534-6.406,39.067-6.406,19.533,6.406,39.067,6.406,19.534-6.406,39.068-6.406,19.534,6.406,39.07,6.406,19.535-6.406,39.07-6.406" transform="translate(3590.216 -3420.596)" fill="none" stroke="#ece4d5" stroke-miterlimit="10" stroke-width="0.5"/>
            </g>
            <g id="Groupe_2467" data-name="Groupe 2467" transform="translate(-3590.216 3112.378)">
              <path id="Tracé_422-3" data-name="Tracé 422" d="M-3590.216,3153.405c19.533,0,19.533,6.406,39.067,6.406s19.533-6.406,39.066-6.406,19.533,6.406,39.066,6.406,19.534-6.406,39.067-6.406,19.533,6.406,39.067,6.406,19.532-6.406,39.064-6.406,19.533,6.406,39.066,6.406,19.534-6.406,39.067-6.406,19.533,6.406,39.066,6.406,19.534-6.406,39.068-6.406,19.534,6.406,39.067,6.406,19.534-6.406,39.067-6.406,19.533,6.406,39.067,6.406,19.534-6.406,39.068-6.406,19.534,6.406,39.07,6.406,19.535-6.406,39.07-6.406" transform="translate(3590.216 -3153.405)" fill="none" stroke="#ece4d5" stroke-miterlimit="10" stroke-width="0.5"/>
            </g>
            <g id="Groupe_2468" data-name="Groupe 2468" transform="translate(-3590.216 3117.935)">
              <path id="Tracé_423-3" data-name="Tracé 423" d="M-3590.216,3165.55c19.533,0,19.533,6.406,39.067,6.406s19.533-6.406,39.066-6.406,19.533,6.406,39.066,6.406,19.534-6.406,39.067-6.406,19.533,6.406,39.067,6.406,19.532-6.406,39.064-6.406,19.533,6.406,39.066,6.406,19.534-6.406,39.067-6.406,19.533,6.406,39.066,6.406,19.534-6.406,39.068-6.406,19.534,6.406,39.067,6.406,19.534-6.406,39.067-6.406,19.533,6.406,39.067,6.406,19.534-6.406,39.068-6.406,19.534,6.406,39.07,6.406,19.535-6.406,39.07-6.406" transform="translate(3590.216 -3165.55)" fill="none" stroke="#ece4d5" stroke-miterlimit="10" stroke-width="0.5"/>
            </g>
            <g id="Groupe_2469" data-name="Groupe 2469" transform="translate(-3590.216 3123.493)">
              <path id="Tracé_424-3" data-name="Tracé 424" d="M-3590.216,3177.7c19.533,0,19.533,6.406,39.067,6.406s19.533-6.406,39.066-6.406,19.533,6.406,39.066,6.406,19.534-6.406,39.067-6.406,19.533,6.406,39.067,6.406,19.532-6.406,39.064-6.406,19.533,6.406,39.066,6.406,19.534-6.406,39.067-6.406,19.533,6.406,39.066,6.406,19.534-6.406,39.068-6.406,19.534,6.406,39.067,6.406,19.534-6.406,39.067-6.406,19.533,6.406,39.067,6.406,19.534-6.406,39.068-6.406,19.534,6.406,39.07,6.406,19.535-6.406,39.07-6.406" transform="translate(3590.216 -3177.695)" fill="none" stroke="#ece4d5" stroke-miterlimit="10" stroke-width="0.5"/>
            </g>
            <g id="Groupe_2470" data-name="Groupe 2470" transform="translate(-3590.216 3129.05)">
              <path id="Tracé_425-3" data-name="Tracé 425" d="M-3590.216,3189.84c19.533,0,19.533,6.406,39.067,6.406s19.533-6.406,39.066-6.406,19.533,6.406,39.066,6.406,19.534-6.406,39.067-6.406,19.533,6.406,39.067,6.406,19.532-6.406,39.064-6.406,19.533,6.406,39.066,6.406,19.534-6.406,39.067-6.406,19.533,6.406,39.066,6.406,19.534-6.406,39.068-6.406,19.534,6.406,39.067,6.406,19.534-6.406,39.067-6.406,19.533,6.406,39.067,6.406,19.534-6.406,39.068-6.406,19.534,6.406,39.07,6.406,19.535-6.406,39.07-6.406" transform="translate(3590.216 -3189.84)" fill="none" stroke="#ece4d5" stroke-miterlimit="10" stroke-width="0.5"/>
            </g>
            <g id="Groupe_2471" data-name="Groupe 2471" transform="translate(-3590.216 3134.608)">
              <path id="Tracé_426-3" data-name="Tracé 426" d="M-3590.216,3201.985c19.533,0,19.533,6.406,39.067,6.406s19.533-6.406,39.066-6.406,19.533,6.406,39.066,6.406,19.534-6.406,39.067-6.406,19.533,6.406,39.067,6.406,19.532-6.406,39.064-6.406,19.533,6.406,39.066,6.406,19.534-6.406,39.067-6.406,19.533,6.406,39.066,6.406,19.534-6.406,39.068-6.406,19.534,6.406,39.067,6.406,19.534-6.406,39.067-6.406,19.533,6.406,39.067,6.406,19.534-6.406,39.068-6.406,19.534,6.406,39.07,6.406,19.535-6.406,39.07-6.406" transform="translate(3590.216 -3201.985)" fill="none" stroke="#ece4d5" stroke-miterlimit="10" stroke-width="0.5"/>
            </g>
            <g id="Groupe_2472" data-name="Groupe 2472" transform="translate(-3590.216 3140.166)">
              <path id="Tracé_427-3" data-name="Tracé 427" d="M-3590.216,3214.131c19.533,0,19.533,6.406,39.067,6.406s19.533-6.406,39.066-6.406,19.533,6.406,39.066,6.406,19.534-6.406,39.067-6.406,19.533,6.406,39.067,6.406,19.532-6.406,39.064-6.406,19.533,6.406,39.066,6.406,19.534-6.406,39.067-6.406,19.533,6.406,39.066,6.406,19.534-6.406,39.068-6.406,19.534,6.406,39.067,6.406,19.534-6.406,39.067-6.406,19.533,6.406,39.067,6.406,19.534-6.406,39.068-6.406,19.534,6.406,39.07,6.406,19.535-6.406,39.07-6.406" transform="translate(3590.216 -3214.131)" fill="none" stroke="#ece4d5" stroke-miterlimit="10" stroke-width="0.5"/>
            </g>
            <g id="Groupe_2473" data-name="Groupe 2473" transform="translate(-3590.216 3145.723)">
              <path id="Tracé_428-3" data-name="Tracé 428" d="M-3590.216,3226.276c19.533,0,19.533,6.406,39.067,6.406s19.533-6.406,39.066-6.406,19.533,6.406,39.066,6.406,19.534-6.406,39.067-6.406,19.533,6.406,39.067,6.406,19.532-6.406,39.064-6.406,19.533,6.406,39.066,6.406,19.534-6.406,39.067-6.406,19.533,6.406,39.066,6.406,19.534-6.406,39.068-6.406,19.534,6.406,39.067,6.406,19.534-6.406,39.067-6.406,19.533,6.406,39.067,6.406,19.534-6.406,39.068-6.406,19.534,6.406,39.07,6.406,19.535-6.406,39.07-6.406" transform="translate(3590.216 -3226.276)" fill="none" stroke="#ece4d5" stroke-miterlimit="10" stroke-width="0.5"/>
            </g>
            <g id="Groupe_2474" data-name="Groupe 2474" transform="translate(-3590.216 3151.281)">
              <path id="Tracé_429-3" data-name="Tracé 429" d="M-3590.216,3238.421c19.533,0,19.533,6.407,39.067,6.407s19.533-6.407,39.066-6.407,19.533,6.407,39.066,6.407,19.534-6.407,39.067-6.407,19.533,6.407,39.067,6.407,19.532-6.407,39.064-6.407,19.533,6.407,39.066,6.407,19.534-6.407,39.067-6.407,19.533,6.407,39.066,6.407,19.534-6.407,39.068-6.407,19.534,6.407,39.067,6.407,19.534-6.407,39.067-6.407,19.533,6.407,39.067,6.407,19.534-6.407,39.068-6.407,19.534,6.407,39.07,6.407,19.535-6.407,39.07-6.407" transform="translate(3590.216 -3238.421)" fill="none" stroke="#ece4d5" stroke-miterlimit="10" stroke-width="0.5"/>
            </g>
            <g id="Groupe_2475" data-name="Groupe 2475" transform="translate(-3590.216 3156.838)">
              <path id="Tracé_430-3" data-name="Tracé 430" d="M-3590.216,3250.566c19.533,0,19.533,6.406,39.067,6.406s19.533-6.406,39.066-6.406,19.533,6.406,39.066,6.406,19.534-6.406,39.067-6.406,19.533,6.406,39.067,6.406,19.532-6.406,39.064-6.406,19.533,6.406,39.066,6.406,19.534-6.406,39.067-6.406,19.533,6.406,39.066,6.406,19.534-6.406,39.068-6.406,19.534,6.406,39.067,6.406,19.534-6.406,39.067-6.406,19.533,6.406,39.067,6.406,19.534-6.406,39.068-6.406,19.534,6.406,39.07,6.406,19.535-6.406,39.07-6.406" transform="translate(3590.216 -3250.566)" fill="none" stroke="#ece4d5" stroke-miterlimit="10" stroke-width="0.5"/>
            </g>
            <g id="Groupe_2476" data-name="Groupe 2476" transform="translate(-3590.216 3162.396)">
              <path id="Tracé_431-3" data-name="Tracé 431" d="M-3590.216,3262.711c19.533,0,19.533,6.406,39.067,6.406s19.533-6.406,39.066-6.406,19.533,6.406,39.066,6.406,19.534-6.406,39.067-6.406,19.533,6.406,39.067,6.406,19.532-6.406,39.064-6.406,19.533,6.406,39.066,6.406,19.534-6.406,39.067-6.406,19.533,6.406,39.066,6.406,19.534-6.406,39.068-6.406,19.534,6.406,39.067,6.406,19.534-6.406,39.067-6.406,19.533,6.406,39.067,6.406,19.534-6.406,39.068-6.406,19.534,6.406,39.07,6.406,19.535-6.406,39.07-6.406" transform="translate(3590.216 -3262.711)" fill="none" stroke="#ece4d5" stroke-miterlimit="10" stroke-width="0.5"/>
            </g>
            <g id="Groupe_2477" data-name="Groupe 2477" transform="translate(-3590.216 3167.953)">
              <path id="Tracé_432-3" data-name="Tracé 432" d="M-3590.216,3274.856c19.533,0,19.533,6.406,39.067,6.406s19.533-6.406,39.066-6.406,19.533,6.406,39.066,6.406,19.534-6.406,39.067-6.406,19.533,6.406,39.067,6.406,19.532-6.406,39.064-6.406,19.533,6.406,39.066,6.406,19.534-6.406,39.067-6.406,19.533,6.406,39.066,6.406,19.534-6.406,39.068-6.406,19.534,6.406,39.067,6.406,19.534-6.406,39.067-6.406,19.533,6.406,39.067,6.406,19.534-6.406,39.068-6.406,19.534,6.406,39.07,6.406,19.535-6.406,39.07-6.406" transform="translate(3590.216 -3274.856)" fill="none" stroke="#ece4d5" stroke-miterlimit="10" stroke-width="0.5"/>
            </g>
            <g id="Groupe_2478" data-name="Groupe 2478" transform="translate(-3590.216 3173.511)">
              <path id="Tracé_433-3" data-name="Tracé 433" d="M-3590.216,3287c19.533,0,19.533,6.406,39.067,6.406s19.533-6.406,39.066-6.406,19.533,6.406,39.066,6.406,19.534-6.406,39.067-6.406,19.533,6.406,39.067,6.406,19.532-6.406,39.064-6.406,19.533,6.406,39.066,6.406,19.534-6.406,39.067-6.406,19.533,6.406,39.066,6.406,19.534-6.406,39.068-6.406,19.534,6.406,39.067,6.406,19.534-6.406,39.067-6.406,19.533,6.406,39.067,6.406,19.534-6.406,39.068-6.406,19.534,6.406,39.07,6.406,19.535-6.406,39.07-6.406" transform="translate(3590.216 -3287.001)" fill="none" stroke="#ece4d5" stroke-miterlimit="10" stroke-width="0.5"/>
            </g>
            <g id="Groupe_2479" data-name="Groupe 2479" transform="translate(-3590.216 3179.068)">
              <path id="Tracé_434-3" data-name="Tracé 434" d="M-3590.216,3299.146c19.533,0,19.533,6.407,39.067,6.407s19.533-6.407,39.066-6.407,19.533,6.407,39.066,6.407,19.534-6.407,39.067-6.407,19.533,6.407,39.067,6.407,19.532-6.407,39.064-6.407,19.533,6.407,39.066,6.407,19.534-6.407,39.067-6.407,19.533,6.407,39.066,6.407,19.534-6.407,39.068-6.407,19.534,6.407,39.067,6.407,19.534-6.407,39.067-6.407,19.533,6.407,39.067,6.407,19.534-6.407,39.068-6.407,19.534,6.407,39.07,6.407,19.535-6.407,39.07-6.407" transform="translate(3590.216 -3299.146)" fill="none" stroke="#ece4d5" stroke-miterlimit="10" stroke-width="0.5"/>
            </g>
          </g>
        </g>
        <line id="Ligne_117" data-name="Ligne 117" x2="426" transform="translate(8217 -21)" fill="none" stroke="#111d30" stroke-width="1" stroke-dasharray="1 2"/>
      </g>
    </g>
  </g>
</svg>
