<svg xmlns="http://www.w3.org/2000/svg" viewBox="0 0 107.53 163.82">
  <g id="Calque_2" data-name="Calque 2">
    <g id="Calque_1-2" data-name="Calque 1">
      <g id="Groupe_2770" data-name="Groupe 2770">
        <g id="Rectangle_1121" data-name="Rectangle 1121">
          <path d="M92.58,159.27l-2.52.42-2.53.27L85,160.3l-2.53.22-2.55.08-2.55-.14-2.53.25-2.56-.17-2.51.59-2.51.6-2.56-.16-2.54.05-2.53.33-2.54.13-2.53.26L52,162.16,49.5,163H46.94l-2.53.31L41.84,163l-2.48,1-2.57-.19-2.56-.07-2.53.39-2.58-.37-2.54.36L24.13,164,21.62,164l-2.45-.63L17,162l-2-1.55-2.21-1.39-.84-2.5-1.77-1.93,0-2.63-.89-2.39.19-2.56,0-2.56L9.34,142l-.29-2.54-.19-2.54-.81-2.49.11-2.57-.62-2.5.53-2.6-.6-2.51-.42-2.53.09-2.56L7,116.57,6.82,114l-.07-2.55L6.18,109l-.34-2.53.26-2.58-.34-2.53L5.34,98.8l.37-2.59-.32-2.53-.14-2.55-.52-2.52V86.06l.21-2.58L4,81l0-2.55L3.7,75.9l-.11-2.54-.25-2.54.56-2.6-.82-2.49-.31-2.54.11-2.56L2.44,58.1l-.22-2.54L2.09,53l-.26-2.54-.15-2.55.45-2.59-.24-2.54L1.8,40.23l-.49-2.52L.88,35.19,1,32.61,1,30.06.2,27.55.64,25,0,22.43l.56-2.49.33-2.42L1.28,15,2.63,12.9l1.3-2.14,1.59-2L8,7.84,9.88,6,12.5,6l2.4-.82,2.58.4L20,5l2.54-.16h2.55l2.52-.37,2.5-.67,2.59.63,2.52-.49,2.52-.36,2.51-.45L42.78,3l2.54-.21,2.59.58,2.51-.68,2.51-.47L55.47,2l2.6.67,2.54-.21,2.53-.31,2.49-.81,2.54-.09,2.56.1L73.26.94l2.56,0L78.35.48l2.58.35,2.5-.57,2.46.6L88.12,2l2.37.82L92.79,4,94.6,5.81l.8,2.52,1.72,1.93.44,2.5,0,2.5,1.08,2.47-.11,2.56-.17,2.57.51,2.52L98.57,28l.56,2.51,0,2.56.21,2.53.3,2.54.44,2.52.18,2.54-.25,2.58,0,2.55.26,2.54.2,2.54.07,2.55.75,2.5L101.12,61l.46,2.52-.23,2.57.33,2.53.59,2.52.46,2.52-.65,2.6.4,2.53.55,2.52-.36,2.58.2,2.55.9,2.49-.62,2.6.4,2.52.33,2.53v2.56l.63,2.51-.1,2.56.44,2.53.57,2.51.11,2.56-.08,2.56.47,2.53-.19,2.57-.09,2.57.18,2.54.35,2.53.09,2.56.85,2.5-.47,2.59.82,2.51-.25,2.58.28,2.55,0,2.53-.26,2.54-1,2.34-1.43,2.08-1.52,1.94L102,156l-2.15,1.38-2.41.78L95,159ZM15.33,11l-2.55.76L10.5,13,8.67,14.85,7.3,17l-.91,2.4L5.92,22l.25,2.54L6,27.1l.59,2.51.6,2.51L7,34.69l0,2.55.33,2.53.13,2.54.26,2.54-.18,2.57.81,2.5v2.55L8.76,55l-.33,2.58,1,2.48-.18,2.58L9.15,65.2l.39,2.53-.37,2.58.36,2.53.13,2.55.55,2.51.35,2.53V83l.1,2.55.78,2.5-.6,2.6.9,2.49-.57,2.6.7,2.5-.18,2.57v2.56l.15,2.54.28,2.54.19,2.54.81,2.5L13,116l.62,2.52-.52,2.59.6,2.52.42,2.53-.1,2.57.18,2.54.15,2.55.07,2.55.57,2.52.34,2.54-.27,2.58.35,2.55.41,2.53v2.64l1.3,2.3,1.72,2,2.34,1.14,2.38,1,2.61.54,2.48-.94,2.55,0,2.53-.27,2.54-.1,2.53-.26,2.59.57,2.49-.82,2.52-.31,2.56.11,2.52-.44L54,156l2.54-.13,2.53-.26,2.55-.15,2.58.45,2.53-.24,2.55-.08,2.52-.5,2.52-.42,2.56.16,2.55-.06L82,154l2.58.44,2.51-.64,2.59.36,2.54-.25,2.51-.94,2.44-1,1.81-1.91,1.14-2.31,1.49-2.25-.6-2.63.52-2.59-.63-2.51.41-2.59-.57-2.51-.16-2.55v-2.55l-.37-2.53-.67-2.5.63-2.6-.49-2.52-.36-2.54-.45-2.52-.12-2.54-.21-2.54.58-2.6-.68-2.51-.47-2.52-.26-2.54.66-2.6L98.13,92l-.3-2.54L97,86.94l-.09-2.55.1-2.56-.36-2.53,0-2.56-.42-2.52.34-2.59-.76-2.5V66.58L96,64l-.54-2.51L94.83,59l-.19-2.54.63-2.6-.84-2.5.15-2.57.15-2.57-1.08-2.47.11-2.57.17-2.57-.51-2.53.33-2.58L93.19,31l0-2.55-.22-2.55-.3-2.54-.44-2.53L92,18.23l.26-2.58L91.87,13l-1.28-2.38-1.8-2L86.6,7l-2.68-.3-2.6-.59-2.51.45-2.57-.22-2.53.33-2.5.59-2.52.46L66.1,7.11l-2.52.39-2.51.56L58.49,7.7,56,7.9l-2.48.89-2.6-.61-2.52.39-2.53.33H43.28l-2.51.63-2.56-.1-2.52.44-2.51.57-2.54.11-2.56-.09-2.52.48L23,10.74l-2.56-.1-2.54.19Z" transform="translate(0 -0.26)" style="fill: #d8493d"/>
        </g>
      </g>
      <g id="如_意" data-name="如 意" style="isolation: isolate">
        <g>
          <g style="isolation: isolate">
            <path d="M49.3,37.13l.06,2.55-.6,2.46-.09,2.54L47.33,47l-.42,2.47-.45,2.47-.24,2.55L45.63,57l-1.07,2.31-1,2.33,2.69,1.59,2.35,2.12.89.67.65,1.1-.58,1.17-.52,1L47.08,70l-2.83-.12-1.82-1.06L41,67.08l-1.26,2.57-1.55,2.12L37,74.12l-2.05,2.09-2.34.42-1.88-1.69.45-2.67,1.48-1.88,1.11-2.1L34.47,66l1.29-2.07-2.53-1.25L30.87,61.2l-2.25-1.65-1.43-1.38L27,56.43l-.69-1.87.15-2,.72-2.25L27.65,48l.79-2.23.55-2.3L30,41.24l-2.41-.05-2.25-.11L24.69,39,25,36.94l1.74-1.37,2.55-.51L32.13,35l.4-2.81.81-2.44.14-2.64,1.38-2.3.9-2.54,2.36-.61,1.27.45.53,1.34.71.93.15,1.53L40,28.5,39,31l-.79,2.77,2.35-.64h2.23L45,33.06l1.77-.65.85,1.25L48.71,35ZM36.69,40.42,36.32,43l-1,2.48-.45,2.64-1.62,2.31L32.59,53l1,2.45,2.52,1.09,2.27,1.27L39,55.93l.9-2.17.57-2.27,1.1-2.14.36-2.51,0-2.54.76-2.43.19-2.68-3.24.2Zm24,31.48-2.1,1.21-2.4-1L54.64,70l.73-2.6-.26-2.53-.32-2.52-.62-2.51-.35-2.52,0-2.55,0-2.55-.29-2.53.34-2.58-.37-2.52-.63-2.5.17-2.56L52.84,37l.1-2.56-1-2.48-.29-2.54.51-2.6.53-2.13,2.09-.62,2.22.23,1.18,2.08.32,2.52.08,2.54L58.53,34l-.1,2.55.29,2.53.64,2.51,0,2.55.52,2.51.23,2.54,0,2.55.19,2.53-.36,2.57.73,2.5L61,61.85l.11,2.55.4,2.53,0,2.55Zm19.81-5-.09,2.48-2.23,1.24-2.34.62-2.51-.58L70.93,71l-2.37.47-2.32.76-2.12-.61-.79-2.29L63.76,67l1.85-1.41,4.06-.1,0-3-.38-2.64.41-2.63,0-2.63L70.12,52l-.73-2.65,0-2.64.75-2.61-.2-2.64.33-2.63L70,36.21l0-2.64-.07-2.64.22-2.52-2.61.18-2.75.12-2.69.5L60.26,29l-.77-2-.13-2.57,2.11-1.66L64,22.58l2.56-.39,2.64.16,2.47-.93,3.68.51,1,1.46.53,2.13-.2,2.58,0,2.58-.5,2.57-.45,2.58.45,2.6L75.78,41l-.13,2.58.2,2.59.08,2.59-.47,2.57.39,2.6-.2,2.58.52,2.6-.78,2.58L76,64l1.39-.43,2.4.89Z" transform="translate(0 -0.26)" style="fill: #d8493d"/>
          </g>
          <g style="isolation: isolate">
            <path d="M42.24,132.92l-.57,2.68-.94,2.25L39.1,139.7,38.19,142l-1,2.2L35,145.69l-2.48-.53-1.33-2,.6-2.21.6-2.44,1.65-1.82,1.22-2.08.93-2.25,1.54-.87,1.59.1,1.48.42Zm40.21-31-1,1.5L80,104.63l-2.64-.07-2.51.75-2.53.61-2.56.41-2.58.34-2.62,0H61.94l-2.46,1.1-2.64-.1-2.57.4-2.51.75-2.63,0-2.59.21-2.54.59-2.55.52-2.52.69-2.62.09-2.54.66-2.71-.54-1.31-.32-.8-1.41-.07-1.76,1.78-1.27,2.63-.14,2.63-.22,2.59-.48,3-.07-1.71-1.86-.94-1.66,1.23-1.9-2.63.4-2.65.09-2.48,1.16-2-.57-.18-2,.07-1.67,1.72-.75L34.57,96l2.71-.49L40,95l2.74-.29,2.76-.14,2.76-.12L51,93.9,50,91.73l1.2-1.85,1.92-1.34,2.4.84L56.81,91l1.35,1.47,2.74.14,2.64-.94,2.69-.55L69,90.79l2.69-.62,2.75-.25,2.71-.49,1.8,1,.38,1.83.09,1.54-1.73.49-2.42.29-2.42.63L73.49,97l-.91,1.74-.66,2,2.52-.23,2.42-.94,2.61.35,2,0ZM68.08,117.82l-.92,1.34-1.3,1.13-2.71-.06-2.59.76-2.6.61-2.63.42-2.65.35-2.7,0-2.69,0-2.54,1.11L42,123.47l.16,2.16.52,2.07-.7,1.43-1.13.78-2.75.52-1.41-.65-1-1.57.11-2.49-.46-2.44.73-2.54-.26-2.47-.31-2.46.48-2.06,2.24-.94,2.22.7,1,1.87.25,1.94-.15,2.35,2.89-.51,2.56-.82,2.66,0,2.62-.4,2.66-.11,2.51-1.16,2.61-.48,2.73.3,2.59-.64,1.43.67Zm18.33,15.47.45,2.06-.45,2.15-1.81,1.3-1.19,1.86L80.8,142l-2.72-1.45-1.33-2.15-1.06-2.33-1.06-2.33-1.83-1.59-1.48.19,1.55,1.56.36,2.36-1.69,2.32-2.07,1.86-2.57,1.69-3,.88-2.49.59-2.87-.08-2.91.44-2.77-.87-2.93-.24-2.67-1.16-1.73-1.34-1-2-.11-2.23,0-2.63.79-2.34,2.26-.35,2,.34L50.91,133l-.21,1.86,1.07,2.61,2.44,1,2-.75,2.21-.17,2.29.56,2.05-.47,2.94-.94,1.63-2.6-2.36,1-2.36,1.07-1.49.37-1.37-.15-.94-.57-1-.7-2.1-1.84L54.15,131l-.78-1.21L54,128.7l-2.42.21-2.46.37-2.54-.18H44.93l-1-1.65.37-1.9,1.8-1.36,2.59-.23,2.56-.46,2.62.06,2.63,0L59,122.7l2.63,0,2.58-.31,2.54-.63,2.57-.52,1.22-2.57.4-2.83.93-2.77-2.61.9-2.66-.33-2.46,1.09-2.56.38-2.57.35-2.68-.37-2.53.6-2.54.59-2.57.37-2.61.12-1.42-.54-1.11-1.48.64-1.67,1.61-.73,2.36-1,2.57.42,2.43-.58,2.46-.34,2.43-.59,2.44-.45,2.44-.51,2.45-.39,2.48-.26,2.51,0,2.46-.42h2.52l2.62.47,1,3.11-1.19,2.76-1,2.82-.74,2.9.63,0,1.78.5.41,1.78.17,1.71-1.82.89-2.5.49-2.59-.14-2.41,1.16H67.13l-2.56.11-2.5.57-3,.09,1.67,2.2,1.65,2,2.65-1.37,2.5-1.17,2.64-.85,2.61-.93,3.39-1L78,128.49l1.8,1.48.55,2.29,1.59,1.54.74-.38,1.62-.33ZM44.2,99.77l1.19,1.42,1.82,1.18,2.28-.38,2.11-1.17,2.17-1L56,98.92l2.26-.79,2.37-.48,2.59-.89-2.66.83-2.45-.13-2.39.37-2.33.71H50.94l-2.41.18-2.36.56Zm10.68,3.32L57,103l2.51-.71,2.62.07,2.44-.71L66,98.92l-1.87,1.16-2.41.85-2.52.55-2.52.54Z" transform="translate(0 -0.26)" style="fill: #d8493d"/>
          </g>
        </g>
      </g>
    </g>
  </g>
</svg>
