<svg xmlns="http://www.w3.org/2000/svg" viewBox="0 0 92.99 164.3">
  <g id="Calque_2" data-name="Calque 2">
    <g id="Calque_1-2" data-name="Calque 1">
      <g id="Groupe_2771" data-name="Groupe 2771">
        <g id="Rectangle_1121" data-name="Rectangle 1121">
          <path d="M62.77,163.61l-2.53-.19-2.59.47-2.49-.57-2.56.21-2.45-1-2.58.34-2.51-.34-2.52-.27L40,161.84l-2.54-.07L35,161l-2.56.11-2.55,0-2.49-.58-2.51-.39-2.48-.61-2.61.48-2.51-.42-2.54-.14-2.52-.43-2.38-.89L8,156.4l-2.07-1.34-2-1.58-1-2.32-1.31-2.11-.79-2.37-.52-2.47,0-2.53.63-2.5-.34-2.59.74-2.49.31-2.53L2,129l-.45-2.6.54-2.51.1-2.55L3,118.9l.17-2.54.47-2.52.08-2.55-.29-2.59.25-2.54L4,103.63l.58-2.51.21-2.54L4.69,96l.24-2.54L5.78,91l-.21-2.59.68-2.49.51-2.51.06-2.56-.31-2.6.66-2.49.23-2.54.11-2.56.39-2.52-.08-2.57.57-2.5.68-2.49L8.79,58l.29-2.54.51-2.51.31-2.53.26-2.54-.34-2.6,1-2.46-.08-2.57.66-2.5-.07-2.57.3-2.54.66-2.49-.44-2.61L12.5,25l.31-2.54L13.32,20l-.51-2.62.56-2.52.11-2.56.92-2.39,1.69-1.94,1.59-1.88,1.38-2.18,2-1.66,2.57-.49L26,1,28.41.35l2.52.1,2.5.45L36,.71l2.47.73L41,1.3l2.52.24L46,2.18l2.52.27L51,3l2.59-.4,2.45,1,2.56-.14,2.58-.23,2.51.37,2.52.27,2.53.2,2.47.76,2.59-.35,2.5.47,2.52.41,2.58.07,2.29,1.21,2.33,1L88,9.28l1.28,2.23,1.42,2,1.91,1.87L92.65,18l.46,2.45.18,2.51-.56,2.51L92.45,28,92,30.49l.49,2.61-.54,2.51.18,2.58-.45,2.51-.74,2.49-.52,2.51.36,2.6-.38,2.52L90,53.34l-.66,2.5-.2,2.54L89,60.93l.41,2.6-1,2.46-.17,2.54-.12,2.55.33,2.6-.51,2.51-.71,2.49.1,2.58-.53,2.5-.3,2.54-.19,2.54-.47,2.52L85.5,93.9l.16,2.58-.5,2.5-.41,2.52,0,2.57-.53,2.51-.05,2.55v2.57l-.54,2.51.14,2.58-.75,2.48-.28,2.54-.4,2.53.16,2.58.16,2.58L82.23,132l-.2,2.54,0,2.56-.86,2.48.38,2.61-.67,2.5-.2,2.56-.85,2.48.19,2.57-1.38,2.15L78,157l-2,1.58-1.6,1.89-1.73,1.95-2.68.24-2.12,1.64-2.56.36ZM30.37,6l-2.73.14L25.34,7.6,23,8.69l-1.41,2.17L19.7,12.79l0,2.67L19.34,18l-.28,2.53L18.63,23l-.07,2.56-.79,2.48.12,2.57,0,2.56-.58,2.5L17,38.23l-.61,2.51.49,2.61-.43,2.52-.14,2.54L16,51l-.31,2.53L14.81,56l-.07,2.56.08,2.57-.75,2.48v2.57l-.19,2.54-.07,2.56-.23,2.54L13,76.27l.33,2.6-.73,2.48-.32,2.54-.35,2.52L12.34,89l-.54,2.51-.11,2.55-.78,2.48-.18,2.55-.46,2.51-.09,2.55.3,2.6-.26,2.54-.28,2.53-.58,2.51-.21,2.54.08,2.58L9,122l-.85,2.48.21,2.58-.68,2.5-.51,2.52,0,2.56.3,2.6-.65,2.51-.24,2.55.22,2.57.61,2.5,1.63,2,1.64,2L12.75,153l2.67.08,2.52.29,2.49.5,2.52.32,2.51.25,2.59-.34,2.44,1L33,155l2.48.66,2.56-.08,2.52.3,2.48.66,2.59-.44,2.48.61,2.52.31,2.5.5,2.6-.51,2.5.56,2.56-.09,2.52.34,2.63.48,2.62-.66,1.91-1.92,1.56-2,1.81-1.95.59-2.6,0-2.56.3-2.53.45-2.52L75,139l.73-2.49L75.58,134l.24-2.54.64-2.49.27-2.54.52-2.51-.4-2.6,1-2.46-.13-2.58-.23-2.58.36-2.53.28-2.53.19-2.55.77-2.48-.35-2.6.47-2.51.42-2.53-.14-2.57.64-2.5.07-2.56.42-2.52.87-2.47.21-2.54L81,78.14l1-2.47.13-2.55,0-2.55.56-2.51L83,65.53l.5-2.52L83,60.4l.54-2.51-.18-2.58.45-2.52.75-2.49.52-2.51-.37-2.6.38-2.53.37-2.53.67-2.5.2-2.54.14-2.56L86,29.92l1-2.46.16-2.56.13-2.56-.66-2.56-.5-2.51-1-2.48-2.16-1.56-2.19-1.49-2.6-.65-2.53-.19-2.5-.46-2.51-.28-2.56.16-2.5-.49-2.5-.41-2.56,0-2.49-.53-2.54,0H53l-2.49-.53L48,8.5,45.5,7.75,43,7.47l-2.51-.39-2.56.16-2.57.16-2.53-.48Z" transform="translate(-0.31 -0.35)" style="fill: #d8493d"/>
        </g>
      </g>
      <g id="牛_肉_麵" data-name="牛 肉 麵" style="isolation: isolate">
        <g>
          <g style="isolation: isolate">
            <path d="M70.31,40.86l-.45,1.63-1.67.15-2.47.45L63.26,43l-2.46-.21H58.34l-2.47.12-2.47-.52-.63,2.47L53,47.41v2.53l-.56,2.48-1,1.26-1.34.42-1.45-.61-.4-1.5-.1-2.45.13-2.44-.06-2.45.35-2.23-2.25-.54-2.46.64L41.4,42l-2.46.39-2.44-.55-2.45-.25-1.24-.42-.41-1.53.18-1.82,1.82,0,2.48-.62,2.44.7,2.48-.51,2.46.28,2.46.2,2.47-.06.46-2.37.21-2.4.31-2.65-2.74,0L45,30.12l-2.5.38-2.5,0L37.47,30l-1.77.34L34.93,29l0-1.56L35.81,26l1.67-2.31,2.12-2L41,19.17l1.82-.67,1.69.59.66,1.34v1.69L43.43,24l-1.32,1.79,2.57-.05,2.83.8,2.59-.7.53-2.18.08-2.55.81-2.48.38-1.55,1.65-.67,1.51,1.16,1,1.51-.35,2.41-.82,2.37L55,26.32l2.56-.2,2.55,0,2.54.09,2.52.58,2.55.06,1.72.44-.36,1.8-.63,1.15-1,.84-2.57-.38-2.6.5-2.57-.57-2.59.16-2.46.1L54,33.13l.17,2.44L53.77,38l2.51,0,2.42.35,2.43-.07,2.42.36L66,38.46l2.44-.13,1.51.75Z" transform="translate(-0.31 -0.35)" style="fill: #d8493d"/>
          </g>
          <g style="isolation: isolate">
            <path d="M31.5,100.56l-1.61.75L28.7,99.93,28,98.69l.52-2.43,0-2.49.11-2.47.12-2.48.5-2.44-.18-2.5.39-2.46L30.3,79l-.5-2.54L30.12,74l.21-2.47,1.29-1.07,1.44-1,1.45,1.06.92,1.53-.49,2.44.17,2.5-.36,2.46-.52,2.43,0,2.48-.41,2.45-.68,2.42-.31,2.46.39,2.53-1.05,2.39L32,99.1ZM57,92.75l.74,1.4L56.25,95l-2,1.42-2,.06-1.64-.67-1.86-1.88L46.89,92,45.21,90.8l-2.68,1-2.22,2-2.5,1.78-1.22,1.24L35,96.09l-1-1.62L35.09,93l1.4-2.43,2.21-1.62,1.67-2.16L42.45,85l1.61-2.23,2.17-.54,1.48,1.28.76,1.37-.71,1.47-1.69,1.09,2.4.76L50.7,89l1,2.27,1.79,1.68.89-1,1.76-.44Zm5.11,9.35-.73,1.36-1.49-.32-1.42.11-2.19-.79-2.3-.32-2.3-.39-2.29-.39-.89-1-.57-1.51,1-1.46,2,.13,2.58-.22,2.41.58,2.17.53.78-2.34-.45-2.71.7-2.58-.07-2.66.5-2.61-.15-2.68.38-2.62.53-2.61.15-2.42L58,75l-2.65-.51-2.66-.14L50.05,75l-2.87-.84L45.46,76.6l3.34-.48,1.91.36,1.09,1.61,2,1.3L55.21,81l.62-.36,1.78-.27,1.34,1-.21,1.51-1.05.77-2.31,1.9-1.8.5-1.71-1.4-1.5-2.16L48.6,80.54l-1.08-.91-1.47-.35L42.4,80.86l-1.26,1.83L40,84.62l-1.7.88-1.35-1-1.58-.91.69-1.74,1.06-2.14L39,78.15l1.58-1.75,1.21-1.89-3.38,0-1.64-.65L37.26,72l-.13-1.59,1.52-.08,2.17-.53,2.16.27,2.23.16,1.68-2.4,1.93-2.16L50.17,65l1.37.67,1,1.06-.47,1.2-1.3,2.36,2.77-.06,2.82.59,2.85-.71,2.83.32,2.81,1.12L65.33,74l-.12,2.68-.69,2.62L64.74,82l-.54,2.64-.31,2.66-.47,2.64.2,2.72-.46,2.64,0,2.71-.3,2.67Z" transform="translate(-0.31 -0.35)" style="fill: #d8493d"/>
          </g>
          <g style="isolation: isolate">
            <path d="M60.13,147.35l-.84,1.32-2.11.59-3.16.26-3.17.19-2.24-.25-2.24-.22-2.25.45-3.8-.27-3.25-1-2.92-.73-2.54-2.45-2.42,2.52-2.3.48-2.51.13-1.56-.45-.64-1.47-.36-1.93,0-2.2L23,140.42l1.1-1.66,2.23-.67,2.76.32.67,1.32,1.16.29,1.16-1.47,1.24-1.17-2.37-.17-2.37,0-2.36.13L24.94,137l-.73-1v-1.27l1.06-1.18,2.57-1,2-1.9,1.62-.49,1.1,1,.24,1.27-.29.92,2.07.18,2.15.56,1.37.19.76.71-.53,2.85-2.1,2-2.12,2.91,2.32,1.06,1.84.78,1.8,1.25,2.48-.44,3.84.3,3.83.31,3.61-.56,3.22-.3,2.3.57Zm-18.8-30.59-.89,1.2-1.31.42H35.27l-.21,3.15-.57,3.18,2.25,2.3,2.65,1.73.64,1.53-.88,1.2-.94,1-1-1-3.24-2-.71.82-1.39.29L30.63,130l-.39-1.58-2.31,1.36-2.06,1.67-1.31,0L23.21,131l-.32-1.32,1-1.72,2.62-.8,1.8-1.82-.87-.74-.53.5-1.13.49-1.29-.29-.81-.76.18-1.17L25.2,121l1.32-2.35,1.06,0L26.09,118l-1.51-.39L24,116l1-1.34,1.34-.22,2.74-.67,2.6.23.49-1.22.53-1.26L34,111l1.48.55v1.56l.19,1.43,3.66-.41,1,.22.06,1.08.92.45Zm-13.44,26-.76-.66-.93-.62-1.37.25L24.17,143l-.47,1.32.59,1.1,1-.56,1.42-.88Zm3.21-24.3-2-.3.92,1-.09,1.31-.3.63L31,122.75l.54-2.3Zm11.69,24.4H41.21l-1-.75-.41-1.44.13-2.43.5-2.4.46-2.4L40.67,131l.28-2.42.47-2.43-1.18.86-.89-1-1.78-1-1,0-1.21-.45-.6-.91.8-1,1.91-3,.76-.82,1,.45,1.07.49-.06,1.38-.1.32,1.09,2.34,0-1,.72-1.55,1.41,0,1.15.64.5,1.34L45,125.75l-.26,2.55-.08,2.57-.09,2.57L44.34,136l-.8,2.5.22,2.61Zm19.78-26.58-.84,1.27-1.33.46H57.52l-2.84,0-1.79,3.35,2.8.42,2.64-.39,1.38.31.64.8.87,1-.73,1.41.16,2.53-.72,2.36-.29,2.45-.33,2.44L58.25,137l-.61,2.48,1.42.77.06,1.22v1.33l-1.4.67-2.37.22L53,142.86l-2.38.5H48.25l-2.36-.44-1-.6-.45-1.13,0-1.11.73-.78,0-2.41.08-2.41.25-2.39.79-2.34-.24-2.45.11-2.34-.32-1,.31-1.26-.07-1.33L47.6,121l1.32.43,1.47-3.56-2.45,0H45.58l-2.34-.63-1-.36-.9-1.22.46-1.61h1.67l2.45-.64,2.43.23,2.42.45,2.45-.27,2.43.09,2.44.07,2.44.22,1.69.43Zm-11.19,9.09L50,125.14l-.35,2.46h1.84Zm-.59,5.76L49.38,131,49,133.37l1.83,0Zm-.59,5.76-1.41-.22-.35,2.55h1.84Zm5-11.4-.56,2.58-.4,2.79-.19,2.81-.17,2.81-.54,2.83,1.33.2,0-2.54.48-2.32.66-2.29L55.76,130l1.08-2.21-.12-2.2Z" transform="translate(-0.31 -0.35)" style="fill: #d8493d"/>
          </g>
        </g>
      </g>
    </g>
  </g>
</svg>
