<svg xmlns="http://www.w3.org/2000/svg" viewBox="0 0 85.27 161.37">
  <g id="Calque_2" data-name="Calque 2">
    <g id="Calque_1-2" data-name="Calque 1">
      <g>
        <g id="Groupe_2735" data-name="Groupe 2735">
          <g id="Rectangle_1121" data-name="Rectangle 1121">
            <path d="M70.13,159.53c-1.15.05-1.17-.46-2.31-.41s-1.13.47-2.27.52-1.15-.09-2.3,0-1.14,0-2.29.05-1.14,0-2.29,0-1.14.16-2.28.21-1.14.32-2.28.36-1.14.18-2.29.23-1.16-.27-2.3-.22-1.16-.31-2.31-.26-1.14.23-2.28.28-1.14.14-2.29.18-1.14.19-2.29.23-1.15-.14-2.3-.1-1.14,0-2.29.06-1.15-.15-2.3-.1-1.13.37-2.28.42-1.13.38-2.28.43l-2.3.1c-1.15.05-1.17-.47-2.32-.43s-1.14.31-2.29.35a15.74,15.74,0,0,1-2.28-.24,16.81,16.81,0,0,1-2.26-.27,15.71,15.71,0,0,1-2.06-1,15.92,15.92,0,0,1-2.23-.63c-.66-.39-1-1.18-1.62-1.66a14.15,14.15,0,0,1-1.74-1.44,15.13,15.13,0,0,1-1.4-1.77c-.44-.62-1.24-1-1.59-1.72a16.44,16.44,0,0,1-.49-2.28,14.5,14.5,0,0,1-.78-2.15A15.58,15.58,0,0,1,5.33,146c0-1.12-.08-1.12-.12-2.23s-.23-1.11-.28-2.23.55-1.14.51-2.25-.28-1.11-.32-2.23-.19-1.11-.24-2.22-.36-1.11-.41-2.22.26-1.13.21-2.24-.08-1.12-.13-2.24.38-1.13.34-2.25-.23-1.11-.27-2.23-.22-1.11-.27-2.22-.13-1.12-.17-2.23S4,118.08,3.91,117s.08-1.12,0-2.24,0-1.12,0-2.23.4-1.14.36-2.25-.58-1.1-.62-2.22.18-1.12.13-2.24-.25-1.11-.29-2.23.29-1.13.25-2.25-.26-1.1-.3-2.22.3-1.13.26-2.25-.08-1.12-.13-2.23-.46-1.1-.5-2.22,0-1.12,0-2.24.4-1.13.36-2.25-.5-1.1-.55-2.22.25-1.13.21-2.25-.29-1.11-.33-2.22L2.64,79c0-1.12.33-1.13.29-2.25s-.64-1.09-.68-2.21.13-1.13.08-2.24.29-1.14.25-2.25-.38-1.11-.43-2.23,0-1.11,0-2.23-.22-1.11-.27-2.23-.22-1.1-.26-2.22.5-1.14.46-2.26-.29-1.11-.34-2.22-.22-1.11-.26-2.23.48-1.14.43-2.26S1.21,51,1.16,49.92s.56-1.14.51-2.26.12-1.13.08-2.24-.12-1.12-.16-2.24S1.43,42.07,1.38,41,1.07,39.84,1,38.72.65,37.61.61,36.5s0-1.12-.08-2.24S1,33.12.9,32,.49,30.9.45,29.78s.63-1.15.58-2.27S.87,26.4.83,25.28s-.4-1.11-.44-2.23.36-1.14.31-2.26,0-1.13-.06-2.25a17.75,17.75,0,0,1-.25-2.26,18.21,18.21,0,0,1,0-2.34,16.83,16.83,0,0,1,.85-2.17,17.25,17.25,0,0,1,1.15-2A17.47,17.47,0,0,1,3.81,8,17.46,17.46,0,0,1,5.55,6.5,16.1,16.1,0,0,1,7.18,4.93c.62-.44,1-1.29,1.7-1.63s1.67,0,2.39-.21S12.58,2.16,13.34,2a17.21,17.21,0,0,1,2.28-.38c1.15,0,1.14-.13,2.29-.17s1.16.41,2.3.37,1.15-.1,2.29-.15,1.13-.38,2.28-.43,1.15.27,2.3.22,1.15.15,2.29.1S30.5,1,31.64.91s1.15,0,2.29-.05,1.18.62,2.32.57,1.15-.13,2.29-.18S39.68,1,40.82.93,42,.49,43.1.44s1.17.64,2.32.6S46.55.65,47.7.61s1.15.14,2.3.1S51.13.28,52.27.24s1.17.36,2.31.32l2.3-.1c1.15,0,1.15,0,2.3-.05S60.32.2,61.47.15s1.15.06,2.3,0A16.65,16.65,0,0,1,66,.36,18.44,18.44,0,0,1,68.35.27a18.68,18.68,0,0,1,2.26.57,15.6,15.6,0,0,1,2,1.17c.66.38,1,1.27,1.56,1.75A14.89,14.89,0,0,1,76,5.17c.52.55,1.44.8,1.88,1.43a18.85,18.85,0,0,1,.9,2.16A17.46,17.46,0,0,1,79.31,11,16.17,16.17,0,0,1,80,13.12c.14.74.77,1.46.8,2.23,0,1.11-.18,1.12-.14,2.24s.18,1.11.22,2.23-.39,1.13-.34,2.25.23,1.11.28,2.22.28,1.11.33,2.22-.2,1.13-.15,2.25-.19,1.12-.15,2.24,0,1.11.06,2.23.4,1.1.45,2.22,0,1.12,0,2.24-.07,1.12,0,2.24.36,1.1.41,2.22-.6,1.14-.55,2.26.52,1.09.56,2.21-.43,1.13-.39,2.25.46,1.1.5,2.22-.29,1.13-.24,2.25,0,1.11.09,2.23.11,1.12.15,2.23.6,1.1.65,2.22-.18,1.12-.14,2.24-.21,1.13-.17,2.24.5,1.1.54,2.22-.21,1.13-.17,2.25,0,1.12,0,2.24.12,1.11.16,2.23-.23,1.13-.19,2.24.64,1.1.69,2.22-.49,1.14-.45,2.25.36,1.11.4,2.23,0,1.12,0,2.23-.31,1.14-.26,2.25-.08,1.13,0,2.24,0,1.12.09,2.24.77,1.09.81,2.21,0,1.11.09,2.23-.12,1.12-.08,2.24-.14,1.12-.1,2.24.25,1.11.29,2.23-.39,1.13-.34,2.25.56,1.1.6,2.21,0,1.12.06,2.24-.53,1.14-.49,2.26.73,1.09.78,2.21-.09,1.12-.05,2.24-.41,1.14-.37,2.26.33,1.11.38,2.22-.11,1.13-.06,2.25-.22,1.13-.18,2.25.37,1.1.41,2.22.19,1.11.23,2.23.35,1.11.39,2.23-.39,1.14-.35,2.26.2,1.11.25,2.23-.11,1.13-.06,2.25-.29,1.13-.24,2.26.39,1.1.43,2.23a16.37,16.37,0,0,1,.16,2.3c-.08.76-.72,1.41-.91,2.15a15,15,0,0,1-.4,2.24A16,16,0,0,1,83,151.36a13.09,13.09,0,0,1-2.73,3.55,14.62,14.62,0,0,1-3.55,2.83,15.22,15.22,0,0,1-2.15.77,16.2,16.2,0,0,1-2.23.36A17,17,0,0,1,70.13,159.53ZM15.88,8.05c-.76,0-1.61-.35-2.32-.16s-1.31.89-2,1.24a10.32,10.32,0,0,0-1.92,1.16,10.16,10.16,0,0,0-1.57,1.64,10.31,10.31,0,0,0-1.17,1.94,10.15,10.15,0,0,0-.56,2.2,10.68,10.68,0,0,0,.11,2.24c0,1.12.18,1.11.23,2.23s-.27,1.13-.23,2.24-.3,1.13-.26,2.25.24,1.11.28,2.22.14,1.12.18,2.23.19,1.11.23,2.23-.14,1.12-.1,2.24,0,1.11,0,2.23-.14,1.12-.1,2.24.37,1.11.42,2.22.38,1.11.43,2.23,0,1.11.09,2.23-.47,1.14-.43,2.25.31,1.11.35,2.22-.12,1.13-.08,2.24.17,1.12.21,2.23-.27,1.13-.22,2.25.47,1.1.52,2.22-.4,1.13-.36,2.25.17,1.11.21,2.23,0,1.12.06,2.23.52,1.1.56,2.22-.38,1.14-.33,2.25.26,1.11.3,2.23,0,1.12,0,2.24.08,1.11.12,2.23.24,1.11.28,2.23-.55,1.14-.5,2.26.27,1.11.32,2.22S9,84.22,9,85.33s.36,1.11.41,2.23-.26,1.13-.21,2.25.09,1.11.13,2.23S8.94,93.17,9,94.29s.22,1.11.27,2.23.22,1.11.26,2.23.13,1.11.18,2.22.21,1.11.26,2.23-.07,1.12,0,2.24,0,1.12,0,2.24-.4,1.13-.35,2.25.57,1.1.62,2.21-.18,1.13-.14,2.25.25,1.11.3,2.23-.3,1.13-.25,2.25.25,1.11.3,2.23-.31,1.13-.26,2.25.08,1.12.12,2.24.46,1.1.51,2.22,0,1.12,0,2.24-.41,1.14-.36,2.25.5,1.1.54,2.22-.25,1.14-.2,2.26.28,1.11.33,2.23,0,1.12.09,2.24-.33,1.14-.28,2.26.63,1.1.68,2.22a10,10,0,0,0,.16,2.2,10.58,10.58,0,0,0,.52,2.22,10.66,10.66,0,0,0,1.56,1.67,10.6,10.6,0,0,0,1.59,1.55,9.54,9.54,0,0,0,4.13,1.41c.72.14,1.4.74,2.17.71,1.14-.05,1.13-.29,2.27-.34s1.14-.22,2.28-.26,1.17.47,2.31.43,1.12-.68,2.27-.72,1.17.55,2.31.5,1.15.12,2.3.08,1.14-.12,2.29-.17,1.14-.16,2.28-.2,1.14-.31,2.28-.36,1.13-.38,2.28-.42l2.29-.09c1.15,0,1.17.42,2.31.38s1.14-.41,2.28-.46,1.18.63,2.32.58,1.14-.16,2.29-.2,1.13-.4,2.27-.44,1.17.36,2.32.31,1.14,0,2.29-.07,1.14-.36,2.28-.41,1.14-.43,2.29-.47,1.15.07,2.3,0a9.85,9.85,0,0,0,2.2-.19,10.06,10.06,0,0,0,2.13-.71,11.26,11.26,0,0,0,2-1.06,10.84,10.84,0,0,0,1.41-1.81c.44-.6.36-1.49.66-2.17s1.22-1.18,1.35-1.93-.32-1.52-.35-2.29c0-1.12-.18-1.11-.22-2.23s-.12-1.11-.17-2.23.42-1.13.38-2.25-.1-1.11-.15-2.23-.38-1.1-.42-2.22.26-1.12.22-2.24.14-1.12.1-2.24-.63-1.09-.67-2.21,0-1.12,0-2.23.62-1.15.58-2.27-.13-1.11-.18-2.23-.27-1.11-.32-2.22-.44-1.1-.48-2.22.64-1.14.59-2.26-.38-1.1-.43-2.22.15-1.12.11-2.24-.43-1.1-.47-2.22.36-1.13.32-2.25,0-1.12-.09-2.24,0-1.11,0-2.23-.21-1.11-.25-2.23,0-1.12,0-2.24.09-1.12,0-2.24-.54-1.1-.58-2.21-.21-1.11-.26-2.23.1-1.12,0-2.24.51-1.14.47-2.26-.2-1.11-.25-2.23-.59-1.1-.64-2.21.3-1.13.25-2.25.28-1.13.24-2.25-.15-1.11-.2-2.23-.59-1.1-.64-2.22.19-1.12.15-2.24-.18-1.11-.22-2.23.39-1.14.34-2.25-.23-1.11-.28-2.23-.28-1.1-.33-2.22S76,57,76,55.9s.19-1.13.15-2.25,0-1.12-.06-2.23-.41-1.11-.45-2.23,0-1.12,0-2.24.06-1.12,0-2.24-.37-1.1-.41-2.22.59-1.14.55-2.26-.52-1.1-.56-2.22.43-1.14.39-2.26-.46-1.1-.5-2.22.28-1.13.24-2.25-.05-1.12-.1-2.24-.1-1.11-.15-2.23-.6-1.1-.64-2.22.18-1.13.13-2.25.22-1.13.18-2.25-.5-1.11-.55-2.23.22-1.13.17-2.26a10.14,10.14,0,0,0-.24-2.22,10.42,10.42,0,0,0-.89-2.05,10.47,10.47,0,0,0-1.06-2c-.49-.57-1.43-.63-2-1.08s-1-1.26-1.66-1.56a10.18,10.18,0,0,0-2.24-.36A9.44,9.44,0,0,0,64,6.1c-1.14.05-1.16-.31-2.3-.26s-1.15-.08-2.29,0l-2.29.09c-1.15.05-1.12.77-2.26.82l-2.29.09c-1.15,0-1.15-.13-2.3-.08s-1.15-.14-2.3-.1-1.13.25-2.28.29-1.16-.38-2.31-.34-1.12.57-2.27.61-1.15,0-2.29.06-1.17-.53-2.32-.48-1.12.73-2.26.77-1.15-.09-2.3,0-1.16-.41-2.31-.37-1.13.33-2.28.38-1.15-.1-2.3-.06-1.16-.22-2.31-.17-1.13.37-2.28.41-1.14.15-2.29.24S17,8,15.88,8.05Z" transform="translate(-0.34 -0.14)" style="fill: #d8493d"/>
          </g>
        </g>
        <g id="垃_圾_車" data-name="垃 圾 車" style="isolation: isolate">
          <g>
            <g style="isolation: isolate">
              <path d="M37.5,38.38A3,3,0,0,1,37.66,40c0,.58.08,1.39-.46,1.83-.88.73-1,.63-1.85,1.37s-.94.66-1.82,1.4-1.07.51-2,1.25-1,.59-1.88,1.33-.46,1.25-1.34,2-1.11.48-2,1.22a1.24,1.24,0,0,1-1.32.18,2.26,2.26,0,0,1-1.25-.65,2.75,2.75,0,0,1-.72-1.49,2.49,2.49,0,0,1,.86-1.8c1-.83,1.36-.37,2.32-1.2a4,4,0,0,0,1.45-2.06,3.2,3.2,0,0,0,.5-2.17c-.05-1.13-.68-1.11-.73-2.24s.47-1.16.42-2.3-.27-1.12-.31-2.26.26-1.15.22-2.29.54-1.64-.39-2.29c-1.14-.8-1.43-.1-2.81,0a1,1,0,0,1-1.15-.42c-.32-.43-.73-.74-.78-1.3a2.8,2.8,0,0,1,.25-1.51c.23-.47.65-.47,1.15-.55,1.59-.2,1.85.32,3-.77.91-.85.1-1.11,0-2.36s.05-1.25,0-2.49,0-1.25,0-2.5c0-.72,0-1.27.48-1.64a3,3,0,0,1,1.51-.83c.53,0,1,.48,1.5.81a2,2,0,0,1,1.13,1.48c.05,1.19-.27,1.2-.22,2.39s.07,1.19.12,2.38S31,24,31.88,24.78s1.05.37,2.21.24c.72-.09,1.36-.37,1.71.07a2.82,2.82,0,0,1,.45,1.6,2.4,2.4,0,0,1-.51,1.4,1.08,1.08,0,0,1-1,.68c-1.44.17-1.67-.27-2.77.67-.79.68-.33,1-.29,2s.24,1,.28,2.08.34,1,.38,2.08-.25,1.06-.21,2.1-.89,2.18.15,2.27c1.45.12,1.1-1.15,2.19-2.09a1.71,1.71,0,0,1,1.59-.49A2.91,2.91,0,0,1,37.5,38.38ZM61,47.21c.05.54-.35,1-.6,1.45s-.52,1.16-1.11,1.24c-1.17.14-1.19,0-2.37.12s-1.19,0-2.37.16-1.21-.17-2.38,0-1.2-.07-2.38.06-1.11.78-2.28.91-1.22-.22-2.4-.09-1.2,0-2.38.1-1.16.29-2.34.42-1.16.36-2.34.5a1.58,1.58,0,0,1-1.45-.53c-.31-.41,0-1.06,0-1.59s-.61-1.15-.36-1.65.94-.32,1.52-.4c1.13-.13,1.06-.76,2.19-.88s1.18.38,2.31.26,1.11-.35,2.24-.48,1.16.19,2.29.07,1.4.21,2.25-.54.49-1.06.74-2.16.28-1.09.53-2.18,0-1.16.22-2.25.23-1.1.48-2.2,1.67-2.23.57-2.44-.56,1.37-1.21,2.39-.84.91-1.5,1.92-.73,1-1.39,2-.7,1-1.37,2a3.18,3.18,0,0,1-1,1.08,3.42,3.42,0,0,1-1.35.59c-.42,0-.74-.49-1.12-.76s-1-.51-1.13-1.06c-.3-1.08,0-1.16-.29-2.24s-.32-1.07-.62-2.15-.52-1-.82-2.09.24-1.22-.06-2.3-.81-.94-1.11-2-.09-1.14-.4-2.21c-.16-.5.11-.76.46-1.15a2.33,2.33,0,0,1,1.14-.77c.56-.16,1.08-.54,1.65-.39s.62.71.78,1.29c.28,1,.46,1,.74,2s.55.93.82,1.93,0,1.09.26,2.09.18,1,.46,2-.33,1.87.71,2,.47-1,1.08-1.94.62-.93,1.23-1.87,1-.66,1.63-1.6.24-1.18.85-2.12.71-.87,1.31-1.82S52,28.91,52.61,28A2.83,2.83,0,0,1,54.2,26.6,2.23,2.23,0,0,1,56,26.55a2.49,2.49,0,0,1,1.43,1,3,3,0,0,1,.4,2c-.26,1.17-.57,1.1-.83,2.26s-.6,1.09-.86,2.25-.07,1.21-.33,2.38-.17,1.18-.43,2.35-.12,1.2-.38,2.36-.45,1.13-.71,2.3-1.36,1.58-.53,2.44,1.38.08,2.64-.07,1.22-.46,2.47-.61c.31,0,.74-.3,1-.19a3.06,3.06,0,0,1,.71.53c.18.19-.09.72,0,1S61,46.93,61,47.21ZM59,22.67c.05.53-.35,1-.6,1.44s-.52,1.17-1.11,1.25c-1.13.13-1.15,0-2.29.1s-1.15,0-2.28.14-1.17-.18-2.31-.05-1.16-.08-2.29.05-1.07.77-2.21.9-1.18-.23-2.31-.11-1.16,0-2.3.08-1.13.28-2.27.42a1.4,1.4,0,0,1-1.38-.33A3.43,3.43,0,0,1,37,25.08c-.08-.55.56-.93.8-1.42s.3-1.2.88-1.28c1.23-.15,1.31.47,2.54.33s1.16-.77,2.4-.91,2.12,1.2,2.7.11-.8-1.17-1.4-2.23-.32-1.21-.92-2.27c-.27-.47-.55-.75-.34-1.19s.64-.59,1.08-.86a2.36,2.36,0,0,1,1.49-.42c.6,0,1.06,0,1.39.54.58,1,.6,1,1.18,2s.33,1.14.91,2.13c.21.33.67.58.59.92a2.75,2.75,0,0,1-.67.92,12.07,12.07,0,0,0,2.4-.17c1.19-.13,1.2-.06,2.39-.2s1.18-.32,2.37-.45c.31,0,.69-.22.92-.1s.23.57.41.76.65.23.76.49A2.82,2.82,0,0,1,59,22.67Z" transform="translate(-0.34 -0.14)" style="fill: #d8493d"/>
            </g>
            <g style="isolation: isolate">
              <path d="M59.31,98.83c-.43.52-1.14.34-1.87.37-.36,0-.81.64-1.14.51s-.6-.58-.84-.87c-.58-.82-.61-.8-1.18-1.62s-.24-1.06-.81-1.88S52.53,94.77,52,94s0-2.14-1-2S50.33,93,49.8,94s-.41,1-.95,2-.51,1-1.05,1.9-.87.75-1.41,1.69a1,1,0,0,1-1,.69c-.55.06-1.16.64-1.62.4a3,3,0,0,1-1.22-1.25c-.24-.5.43-1,.77-1.55.53-.92,0-1.25.49-2.18s.49-.95,1-1.87,1-.65,1.56-1.58S46.43,91,47,90s1-.61,1-1.68-.43-.81-1.07-1.71-.45-1-1.09-2-.61-.92-1.25-1.83A2,2,0,0,1,44,81.1a3.11,3.11,0,0,1,1-1.46,2.75,2.75,0,0,1,1.47-.3,1.87,1.87,0,0,1,1.37.82c.71,1,.87.93,1.58,2s-.16,2.54,1.09,2.58.53-1.31,1.1-2.3.58-1,1.15-2,2.12-1.36,1.29-2.15c-1-1-1.62.13-3.06.31-.45.07-.93.48-1.24.32s-.25-.75-.45-1c-.33-.52-.22-1-.08-1.7.19-1.06,0-1.1.18-2.16s-.13-1.12.06-2.18.42-1,.61-2.09,1.35-1.73.52-2.42c-1-.83-1.54.22-2.83.37S46,67.1,45,68s.43,1.4.29,2.52-.85,1-1,2.14.25,1.16.1,2.28-.21,1.11-.35,2.22-.24,1.11-.39,2.22.34,1.18.19,2.3-.27,1.1-.42,2.21-.08,1.12-.22,2.24S43.1,87.2,43,88.31s-.77,1-.92,2.16.25,1.16.11,2.28-.26,1.11-.4,2.22.14,1.16,0,2.28-.19,1.11-.34,2.23a2.23,2.23,0,0,1-.92,1.58,2.94,2.94,0,0,1-1.74.29c-.51-.06-.93-.54-1.31-.9a2,2,0,0,1-.75-1.59c.14-1.07.26-1.06.4-2.13s.11-1.08.25-2.16.4-1,.54-2.12,1.33-1.83.38-2.36-.77,1.08-1.6,1.77-1,.47-1.84,1.17-.75.78-1.57,1.48-1,.54-1.78,1.23-.72.83-1.55,1.53-.89.61-1.72,1.31a1.46,1.46,0,0,1-1.36.46,2.08,2.08,0,0,1-1.11-1,2.19,2.19,0,0,1-.41-1.44c0-.59.26-.89.83-1.39.94-.82.91-.86,1.85-1.67s1.5-.56,2-1.7,0-1.3-.06-2.46-.53-1.14-.58-2.3.47-1.18.42-2.35-.28-1.15-.33-2.31-.49-1.14-.54-2.31,1.32-1.86.34-2.48c-1.32-.82-1.68-.05-3.23.13-.61.08-1.15.34-1.47-.08s-.2-1-.25-1.56a3.08,3.08,0,0,1,.13-1.52,1.5,1.5,0,0,1,1.06-1c.87-.1.88.06,1.75,0s.95.34,1.41-.4a2.79,2.79,0,0,0,.61-2.32c-.05-1.25-.81-1.22-.86-2.47s.56-1.28.51-2.53a1.57,1.57,0,0,1,.55-1.44c.42-.38.7-.75,1.23-.74s.83.35,1.28.69.56.62.58,1.34c.05,1.2.63,1.18.68,2.38s.11,1.2.15,2.41-.95,1.4,0,2.13,1.11.21,2.43.06a1.38,1.38,0,0,1,1.43.59A2.49,2.49,0,0,1,38,74.66a3,3,0,0,1-.08,1.63,1.73,1.73,0,0,1-1.36.67c-1.61.18-1.88-.56-3.14.46-.86.69-.38,1-.34,2.11s.08,1.09.12,2.18,0,1.1,0,2.19.39,1.09.44,2.18-.88,1.7.14,2.12,1.05-.39,1.9-1.11c.27-.24.32-.7.61-.74a2.05,2.05,0,0,1,.92,0c.27.1.43.47.67.7s.69.52.82.79c.22-1-.44-1.16-.31-2.22s.41-1,.55-2.08.53-1,.67-2.07-.58-1.15-.44-2.21.17-1.06.31-2.12.74-1,.88-2,.24-1,.38-2.11-.2-1.11-.06-2.17.93-1.32.14-2.05-1.09-.16-2.24,0c-.55.08-.7-.12-1-.53s-.83-.64-.91-1.17a2.53,2.53,0,0,1,.26-1.58c.26-.49.75-.5,1.36-.58,1.06-.12,1.07-.07,2.13-.19s1-.52,2.08-.64,1-.37,2.1-.49,1.08,0,2.14-.14,1.07,0,2.14-.15,1.06-.2,2.12-.32,1.13.42,2.19.3c.78-.09,1.3-.08,1.71.49.24.28.16.63.26,1a2.1,2.1,0,0,1,0,1c-.19,1,.17,1.09,0,2.12s0,1.06-.17,2.08-.65,1-.84,2-.89,1.33-.06,2c1.09.83,1.27.07,2.63-.08a2.06,2.06,0,0,1,1.49.26c.4.26.38.74.59,1.18s1,.81,1,1.36a3.58,3.58,0,0,1-.54,1.67c-.59,1-.74.92-1.33,1.93S57,81,56.4,82s.06,1.38-.52,2.4-1.05.74-1.64,1.76-1.42,1-1.35,2.14.84,1.11,1.54,2.11.71,1,1.41,2,.5,1.23,1.66,1.61c.75.25.51-.26,1-.86a1.52,1.52,0,0,1,1.42-.59,1.81,1.81,0,0,1,1.34.48,2.16,2.16,0,0,1,.89,1.15c.11.52-.17,1-.62,1.49-.62.74-.59.77-1.16,1.55S59.92,98.08,59.31,98.83Z" transform="translate(-0.34 -0.14)" style="fill: #d8493d"/>
            </g>
            <g style="isolation: isolate">
              <path d="M64.43,139.13a2,2,0,0,1-.37,1.44,1.69,1.69,0,0,1-1.27.92c-1.09.13-1.11-.05-2.2.07s-1.09.19-2.18.31-1.1,0-2.2.13-1.05.51-2.14.63-1.11,0-2.21.11-1.13-.21-2.22-.09-1.3-.21-2.09.56.08.81.12,1.71-.42.92-.38,1.83c0,.7.39,1.51,0,1.85a3.27,3.27,0,0,1-1.71.63,3.35,3.35,0,0,1-1.83-.57,2.22,2.22,0,0,1-.7-1.74c-.07-1.66.94-2-.11-3.24-.76-.92-1.12-.21-2.3-.08s-1.14.61-2.33.74-1.25-.46-2.44-.33-1.15.49-2.34.62-1.22-.17-2.41,0-1.15.51-2.34.65c-.28,0-.72.28-.95.16s-.28-.58-.45-.77a2.28,2.28,0,0,1-.46-.67c-.09-.26.35-.59.34-.87,0-.47-.44-1-.2-1.35s.81-.35,1.4-.43c1.2-.14,1.22.07,2.42-.06s1.17-.46,2.37-.6,1.18-.35,2.38-.49,1.24.15,2.44,0,1.18-.4,2.38-.53,1.49.65,2.36-.2c.71-.68.68-1.15-.15-1.68-1.09-.69-1.14,0-2.43.1s-1.32-.14-2.61,0c-.56.08-.87.1-1.19-.32s-.83-.81-.9-1.34a2.71,2.71,0,0,1,.27-1.51c.24-.39.92-.38,1.54-.46,1.32-.16,1.29-.46,2.62-.62s1.86,1,2.79,0,.65-1.65-.18-2.48-1.08-.24-2.1-.13-1,.5-2,.61-1,0-2.06.06-1.4-.46-2,.35-.21,1.16-.17,2.3.14,1.14.19,2.29c0,.7.23,1.51-.2,1.85a3.07,3.07,0,0,1-1.72.31,2.78,2.78,0,0,1-1.65-.49,1.72,1.72,0,0,1-.62-1.51c0-1,.18-1,.13-2.1s-.18-1-.22-2.09-.34-1-.38-2.09-.15-1-.2-2.09-.2-1-.24-2.09.34-1.07.29-2.12a1.91,1.91,0,0,1,.46-1.59c.4-.32,1,0,1.59,0a2.07,2.07,0,0,1,1.48.25,1.29,1.29,0,0,1,.78,1.21c0,1,.31,1,.35,2s-.81,1.4,0,2.06,1-.09,2.06-.2,1.05.17,2.07,0,.94-.83,2-1,1.34.89,2,.08.79-1.31-.1-2-1.06.39-2.28.53-1.28-.31-2.51-.16c-.69.08-1.36.16-1.75-.19a2.35,2.35,0,0,1-.57-1.47,2.43,2.43,0,0,1,.14-1.58c.27-.42.86-.32,1.48-.4,1.37-.17,1.38-.09,2.75-.25s1.43,0,2.47-.92c.75-.66.74-.87-.06-1.49s-.84.23-1.93.36-1.17-.55-2.26-.42-1,.78-2.11.91-1.12-.19-2.21-.06-1.14-.23-2.23-.11-1.1.1-2.19.23c-.56.08-1.16.39-1.47,0s0-1.07,0-1.57a1.74,1.74,0,0,1,.06-1.28c.24-.41.47-1.14,1.11-1.22,1.11-.13,1.15.19,2.25.06s1.14.16,2.24,0,1-.64,2.15-.77,1.12,0,2.23-.12,1.12,0,2.23-.12,1.81.85,2.47,0c.77-1.05.07-1.51,0-2.81,0-.64-.44-1.41,0-1.73s1.14,0,1.67,0a2.22,2.22,0,0,1,1.53.32c.52.31,1,.62,1,1.27,0,1.13-.79,1.46.06,2.21s1-.12,2.12-.24,1.07-.36,2.16-.49,1.15.4,2.24.27,1-.65,2.12-.78,1.09-.21,2.18-.34,1.11,0,2.2-.13a2.61,2.61,0,0,1,1.91.39c.38.34.36,1,.43,1.56s-.3.89-.6,1.36S60.66,117,60,117.07c-1.12.13-1.12.17-2.24.3s-1.18-.35-2.31-.22-1.06.69-2.19.82-1.14,0-2.27.11-1.17-.26-2.3-.14-1.17-.06-2,.76-1,1.12-.18,1.76,1-.2,2.07-.32,1-.27,2.06-.39,1.08.18,2.12.07,1-.06,2.09-.17,1.06,0,2.1-.12a2.37,2.37,0,0,1,2.46.84,2.61,2.61,0,0,1,.45,2.47c-.23,1.1-.22,1.1-.44,2.2s.05,1.15-.17,2.25-.29,1.09-.51,2.19a5.11,5.11,0,0,0,0,2.2c0,.32-.08-.31.23-.37a1.85,1.85,0,0,1,1.63.72c.38.38,1,.72,1.05,1.25s-.38,1.1-.67,1.57a1.9,1.9,0,0,1-1.35,1c-1,.11-1.08-.2-2.11-.09s-1,.37-2,.48-1.08-.19-2.12-.08-1,.59-2,.71-1.11-.52-2.15-.4-1.14,0-1.85.79-1.12,1.48-.35,2.09,1.29-.51,2.35-.63,1.09.12,2.15,0,1.07-.09,2.13-.21,1.08,0,2.14-.15,1-.3,2.11-.42,1.07-.1,2.13-.22,1.09,0,2.15-.1c.73-.09,1.23-.17,1.6.19A2,2,0,0,1,64.43,139.13ZM46.67,124.45a1.5,1.5,0,0,0,0,2.33c.65.67,1-.24,2-.34s.95.08,1.88,0a1.82,1.82,0,0,1,1.51.27,1.66,1.66,0,0,1,.55,1.17c.08.56.35,1.17.08,1.67a2.08,2.08,0,0,1-1.6.86c-1,.11-1.06-.22-2.09-.12s-1.3-.3-1.93.51-.78,1.37.08,2.15,1.05.29,2.14.16,1-.84,2.11-1,1.16.59,2-.16.14-.87.36-2,.44-1,.66-2.13.21-1.09.43-2.19,1.5-1.49.76-2.33-1.25.51-2.33.64-1.15-.48-2.23-.35-1,.71-2.13.6S47.38,123.62,46.67,124.45Z" transform="translate(-0.34 -0.14)" style="fill: #d8493d"/>
            </g>
          </g>
        </g>
      </g>
    </g>
  </g>
</svg>
