<svg xmlns="http://www.w3.org/2000/svg" viewBox="0 0 80.95 160.23">
  <g id="Calque_2" data-name="Calque 2">
    <g id="Calque_1-2" data-name="Calque 1">
      <g>
        <g id="Groupe_2735" data-name="Groupe 2735">
          <g id="Rectangle_1121" data-name="Rectangle 1121">
            <path d="M64.56,159.92c-1.14,0-1.14-.34-2.28-.34s-1.15-.06-2.29-.06-1.15.13-2.3.13-1.14,0-2.29,0-1.14.15-2.29.15-1.14.22-2.29.22-1.15-.17-2.29-.17-1.15.06-2.29.06-1.15-.37-2.3-.37-1.14.59-2.29.59-1.15-.12-2.3-.12-1.14-.48-2.29-.48-1.15.62-2.29.62-1.15.06-2.3.06-1.14-.09-2.29-.09-1.15-.27-2.29-.27-1.15.09-2.3.09-1.15-.07-2.3-.07-1.15-.36-2.29-.36-1.15.66-2.31.66-1.15-.57-2.3-.57a15.52,15.52,0,0,1-2.26,0,15.32,15.32,0,0,1-2.27-.32,15.84,15.84,0,0,1-2.15-.81,16.1,16.1,0,0,1-2-1.17,17.31,17.31,0,0,1-2-1.15c-.58-.5-.68-1.47-1.18-2.05s-1.32-.89-1.74-1.53a16,16,0,0,1-.75-2.18,16.18,16.18,0,0,1-1-2,17.32,17.32,0,0,1-.1-2.29c-.1-.74-.86-1.45-.86-2.22,0-1.12.64-1.12.64-2.24s-.13-1.11-.13-2.23-.25-1.12-.25-2.23.3-1.12.3-2.24-.41-1.11-.41-2.23.16-1.12.16-2.23-.14-1.12-.14-2.24.27-1.11.27-2.23.13-1.12.13-2.24S.3,122.67.3,121.56s.12-1.12.12-2.24S0,118.2,0,117.08s.05-1.11.05-2.23.06-1.12.06-2.24-.06-1.11-.06-2.23.2-1.12.2-2.24.48-1.11.48-2.23,0-1.12,0-2.24-.08-1.12-.08-2.24.09-1.11.09-2.23S.57,98.08.57,97s.09-1.11.09-2.23.08-1.12.08-2.24S0,91.37,0,90.25.09,89.13.09,88s.44-1.12.44-2.24.25-1.12.25-2.24-.2-1.12-.2-2.24.18-1.11.18-2.23S.2,78,.2,76.83s0-1.12,0-2.24.12-1.12.12-2.24S.19,71.24.19,70.12.55,69,.55,67.88.46,66.76.46,65.64s.33-1.12.33-2.23S.52,62.29.52,61.17.13,60.06.13,58.94s0-1.12,0-2.24.4-1.12.4-2.24S.41,53.35.41,52.23.07,51.11.07,50s0-1.12,0-2.24.66-1.12.66-2.24S.63,44.39.63,43.27.45,42.15.45,41V38.8c0-1.12.33-1.12.33-2.24V34.32c0-1.12,0-1.12,0-2.25S.37,31,.37,29.84s0-1.12,0-2.24-.1-1.12-.1-2.24-.1-1.12-.1-2.25S.33,22,.33,20.87s.15-1.12.15-2.25.14-1.12.14-2.24A17.58,17.58,0,0,1,.55,14.1,16.13,16.13,0,0,1,1.31,12c.22-.74,0-1.62.34-2.31a15.53,15.53,0,0,1,1-2.11C3,6.89,3.9,6.55,4.39,6a15.45,15.45,0,0,1,1.53-1.7,16.61,16.61,0,0,1,2-1.1C8.55,2.77,9,2,9.68,1.68A17,17,0,0,1,12,1.29c.73-.21,1.34-1,2.1-1.15a18,18,0,0,1,2.33,0c1.15,0,1.15.45,2.29.45S19.83.18,21,.18s1.15.58,2.29.58S24.41.61,25.55.61,26.7.17,27.84.17,29,.64,30.13.64s1.15,0,2.3,0S33.57.43,34.72.43,35.87.11,37,.11s1.15,0,2.3,0S40.45.3,41.6.3,42.75,0,43.89,0s1.15.3,2.3.3h2.29c1.15,0,1.15.1,2.3.1S51.92.27,53.07.27s1.15-.22,2.3-.22,1.14.19,2.29.19,1.15,0,2.3,0,1.15.4,2.3.4,1.15-.07,2.3-.07a15.77,15.77,0,0,1,2.28,0A16.64,16.64,0,0,1,69,1.17,15.75,15.75,0,0,1,71.11,2,16.75,16.75,0,0,1,73.18,3,18.72,18.72,0,0,1,75,4.33,17.4,17.4,0,0,1,76.55,6c.49.58,1.27,1,1.68,1.6a17.45,17.45,0,0,1,.93,2.12,16.2,16.2,0,0,1,.5,2.24c.21.72.9,1.35,1,2.11a16.6,16.6,0,0,1-.11,2.32c0,1.12.32,1.12.32,2.23s-.56,1.12-.56,2.24.14,1.12.14,2.23-.28,1.12-.28,2.24.61,1.11.61,2.23-.42,1.12-.42,2.23.32,1.12.32,2.24-.51,1.11-.51,2.23.41,1.12.41,2.24-.42,1.11-.42,2.23.38,1.12.38,2.24-.37,1.12-.37,2.23.68,1.12.68,2.24-.53,1.12-.53,2.23.32,1.12.32,2.24,0,1.12,0,2.23-.24,1.12-.24,2.24,0,1.12,0,2.24.46,1.12.46,2.23.06,1.12.06,2.24,0,1.12,0,2.24v2.23c0,1.12-.23,1.12-.23,2.24s-.3,1.12-.3,2.24.08,1.11.08,2.23.5,1.12.5,2.24-.63,1.12-.63,2.24.18,1.12.18,2.23-.3,1.12-.3,2.24.06,1.12.06,2.24.52,1.12.52,2.24-.26,1.12-.26,2.23-.18,1.12-.18,2.24-.14,1.12-.14,2.24.42,1.12.42,2.24.17,1.11.17,2.23-.32,1.12-.32,2.24,0,1.11,0,2.23-.09,1.12-.09,2.24,0,1.12,0,2.24.17,1.11.17,2.23-.38,1.12-.38,2.24.71,1.12.71,2.24-.72,1.12-.72,2.23.09,1.12.09,2.24.65,1.12.65,2.24,0,1.12,0,2.24-.59,1.12-.59,2.24.27,1.12.27,2.24.32,1.12.32,2.24-.64,1.12-.64,2.24,0,1.12,0,2.24.5,1.12.5,2.24-.17,1.12-.17,2.24-.13,1.13-.13,2.25-.2,1.12-.2,2.24v2.25c0,.77.45,1.58.35,2.32a16.87,16.87,0,0,1-.58,2.25,16,16,0,0,1-.85,2.15,16.68,16.68,0,0,1-1,2.07c-.41.64-1.3.93-1.8,1.51s-.65,1.5-1.23,2a15.66,15.66,0,0,1-1.87,1.36,16,16,0,0,1-2.07,1c-.69.31-1.57.08-2.31.3a15.58,15.58,0,0,1-2.16.57A16.46,16.46,0,0,1,64.56,159.92ZM16.39,6.39a10.42,10.42,0,0,0-2.29-.07,10.75,10.75,0,0,0-2.21.7A10.85,10.85,0,0,0,10,8.37,10.74,10.74,0,0,0,8.42,10a10.67,10.67,0,0,0-1.08,2,9.7,9.7,0,0,0-.53,2.17,9.33,9.33,0,0,0-.42,2.19c0,1.12.06,1.12.06,2.23s-.37,1.12-.37,2.24.59,1.12.59,2.23-.12,1.12-.12,2.24-.48,1.11-.48,2.23.62,1.12.62,2.23.06,1.12.06,2.24-.08,1.11-.08,2.23-.28,1.12-.28,2.24.09,1.11.09,2.23S6.41,39.84,6.41,41s-.36,1.12-.36,2.23.67,1.12.67,2.24-.58,1.12-.58,2.23.18,1.12.18,2.24.17,1.12.17,2.23,0,1.12,0,2.24-.08,1.12-.08,2.24.29,1.12.29,2.23S6.07,60,6.07,61.08s.47,1.12.47,2.24-.38,1.11-.38,2.23.23,1.12.23,2.24S6,68.91,6,70s.71,1.11.71,2.23-.64,1.12-.64,2.24.12,1.12.12,2.24.25,1.12.25,2.23-.29,1.12-.29,2.24.41,1.12.41,2.24-.17,1.12-.17,2.24.14,1.12.14,2.23S6.26,89,6.26,90.16s-.12,1.12-.12,2.24.34,1.12.34,2.24-.12,1.11-.12,2.23.43,1.12.43,2.24,0,1.11,0,2.23-.06,1.12-.06,2.24.06,1.12.06,2.24-.2,1.11-.2,2.23-.48,1.12-.48,2.24,0,1.12,0,2.24.09,1.12.09,2.23-.1,1.12-.1,2.24.15,1.12.15,2.24-.08,1.12-.08,2.24-.08,1.12-.08,2.24.72,1.12.72,2.24-.08,1.12-.08,2.24-.43,1.12-.43,2.24S6,131.56,6,132.68s.2,1.12.2,2.24S6,136,6,137.16s.57,1.13.57,2.25,0,1.12,0,2.24-.11,1.13-.11,2.25a9.72,9.72,0,0,0,.33,2.18,10.72,10.72,0,0,0,.4,2.23,10.74,10.74,0,0,0,1.29,1.87A10.1,10.1,0,0,0,9.92,152,10.51,10.51,0,0,0,12,153a10.71,10.71,0,0,0,2.23.38,9.6,9.6,0,0,0,2.16.27c1.15,0,1.15.4,2.29.4s1.15-.15,2.29-.15,1.15-.35,2.29-.35,1.15,0,2.29,0,1.15.66,2.29.66,1.15-.13,2.29-.13,1.15-.18,2.3-.18h2.29c1.15,0,1.15.33,2.29.33h2.3c1.14,0,1.14,0,2.29,0s1.15-.38,2.29-.38,1.15,0,2.3,0,1.15-.1,2.29-.1,1.15-.11,2.3-.11,1.14.15,2.29.15,1.15.15,2.3.15,1.14.13,2.29.13,1.15-.22,2.3-.22,1.15.29,2.3.29,1.15-.5,2.3-.5a9.42,9.42,0,0,0,2.14-.4c.74-.17,1.58.05,2.25-.28a9.42,9.42,0,0,0,1.84-1.3,11.39,11.39,0,0,0,1.83-1.38,10.93,10.93,0,0,0,.81-2.16c.33-.66,1-1.24,1.15-2s-.42-1.52-.42-2.29c0-1.12.13-1.12.13-2.24s.46-1.11.46-2.23-.38-1.12-.38-2.23.57-1.12.57-2.24-.15-1.11-.15-2.23-.43-1.12-.43-2.23.46-1.12.46-2.24.05-1.11.05-2.23-.26-1.12-.26-2.24-.32-1.12-.32-2.23,0-1.12,0-2.24.15-1.12.15-2.24-.27-1.11-.27-2.23.3-1.12.3-2.24,0-1.11,0-2.23.11-1.12.11-2.24-.16-1.11-.16-2.23-.22-1.12-.22-2.24.19-1.12.19-2.24,0-1.11,0-2.23.4-1.12.4-2.24-.06-1.11-.06-2.23-.17-1.12-.17-2.24.17-1.12.17-2.24.08-1.12.08-2.23-.17-1.12-.17-2.24,0-1.12,0-2.24.08-1.12.08-2.24-.39-1.11-.39-2.23.2-1.12.2-2.24.32-1.12.32-2.24-.54-1.12-.54-2.24.28-1.11.28-2.23-.33-1.12-.33-2.24.57-1.12.57-2.24-.14-1.12-.14-2.23.28-1.12.28-2.24-.61-1.11-.61-2.23.42-1.12.42-2.24-.33-1.12-.33-2.24.52-1.11.52-2.23-.42-1.12-.42-2.24.42-1.12.42-2.24-.38-1.12-.38-2.24.37-1.12.37-2.24-.67-1.12-.67-2.23.52-1.12.52-2.24-.32-1.12-.32-2.24V34.32c0-1.12.23-1.12.23-2.25s0-1.11,0-2.23-.46-1.12-.46-2.24-.06-1.12-.06-2.24,0-1.12,0-2.25V20.87c0-1.12.23-1.12.23-2.25s.3-1.12.3-2.24a10.35,10.35,0,0,0-.33-2.25c-.17-.74-.87-1.26-1.2-1.93S73,10.57,72.58,10a11.19,11.19,0,0,0-1.74-1.47A10.44,10.44,0,0,0,69.06,7a10.88,10.88,0,0,0-2.2-.71c-.72-.17-1.53.26-2.3.26-1.14,0-1.14-.25-2.28-.25S61.13,6.14,60,6.14,58.84,6,57.69,6s-1.14.43-2.29.43-1.14.17-2.29.17S52,6.27,50.82,6.27s-1.15,0-2.29,0-1.15-.09-2.29-.09h-2.3c-1.14,0-1.14.17-2.29.17S40.5,6,39.35,6s-1.14.7-2.29.7S35.91,6,34.77,6s-1.15.08-2.3.08-1.14.65-2.29.65-1.15,0-2.29,0-1.15-.6-2.3-.6-1.15.28-2.3.28-1.15.31-2.29.31-1.16-.64-2.31-.63S17.54,6.39,16.39,6.39Z" transform="translate(0 -0.03)" style="fill: #d8493d"/>
          </g>
        </g>
        <g id="垃_圾_車" data-name="垃 圾 車" style="isolation: isolate">
          <g>
            <g style="isolation: isolate">
              <path d="M36.29,38c.28.45.93.77.9,1.34a2.25,2.25,0,0,1-1,1.58c-.91.7-.88.75-1.78,1.46s-.83.8-1.73,1.51-1.23.3-2.13,1-.73.94-1.64,1.65-.81.82-1.72,1.53-.86.77-1.77,1.48a1.77,1.77,0,0,1-1.63,0,2.38,2.38,0,0,1-1.17-.88,2.77,2.77,0,0,1-.68-1.54,2.44,2.44,0,0,1,1.11-1.58c1-.79.79-1.06,1.79-1.85s1.63-.17,2.21-1.3-.25-1.15-.25-2.28.46-1.14.46-2.28S27,36.72,27,35.58s.2-1.14.2-2.27.1-1.14.1-2.28.88-1.87,0-2.56c-1.11-.84-1.61.21-3,.3-.62.06-1.18.09-1.49-.34s-.12-1-.15-1.58a2.4,2.4,0,0,1,.22-1.41c.25-.46.48-1.07,1-1.13,1.6-.13,2.05,1.13,3.27.09.94-.81-.08-1.31-.08-2.55s0-1.25,0-2.49-.06-1.25-.06-2.5A2.26,2.26,0,0,1,27.62,15a2.81,2.81,0,0,1,1.69-.24,2.46,2.46,0,0,1,1.5.48,1.93,1.93,0,0,1,.91,1.58c0,1.19-.39,1.19-.39,2.38s.26,1.19.26,2.38-.84,1.52,0,2.35,1.15.33,2.3.24c.73-.05,1-.06,1.33.39A2.23,2.23,0,0,1,35.8,26c0,.56.39,1.2.12,1.65s-.92.49-1.45.54c-1.45.11-2-.88-3.09,0-.82.65.08,1.3.08,2.34v2.09c0,1,.37,1,.37,2.09s-.13,1-.13,2.1-1.16,1.9-.12,2c1.44.18,1.16-.79,2.3-1.69.51-.4,1.06-.77,1.58-.57S36,37.51,36.29,38Zm23.09,9.47c0,.54.46,1.12.19,1.56a1.89,1.89,0,0,1-1.44.78c-1.19.09-1.18.14-2.36.22s-1.18.21-2.36.3S52.19,49.87,51,50s-1.16.37-2.34.46-1.17.23-2.36.31-1.17.16-2.36.25-1.2-.25-2.39-.16-1.18.06-2.37.15-1.17.32-2.35.41a1.47,1.47,0,0,1-1.25-.76c-.29-.41-.81-.85-.86-1.38s.39-1.11.66-1.6a1.75,1.75,0,0,1,1.25-1.06c1.13-.09,1.16.37,2.3.29s1.11-.36,2.24-.44,1.15.12,2.28,0,1.15,0,2.28-.06,1.59.59,2.48-.13.21-1.31.5-2.4,0-1.15.32-2.24.67-1,1-2.06.19-1.11.49-2.2,1.48-1.68.38-1.93-.7.67-1.39,1.66-.61,1.06-1.31,2-.67,1-1.37,2-.64,1-1.35,2a3.56,3.56,0,0,1-1.17,1.08c-.47.23-1,0-1.45,0a1.87,1.87,0,0,1-1.15-.42,2.21,2.21,0,0,1-.92-1.19c-.26-1.08.12-1.17-.13-2.26s-.51-1-.77-2.12-.29-1.08-.55-2.16.17-1.19-.09-2.28-.33-1.07-.59-2.16-.32-1.08-.58-2.17C37.91,29,37.59,28.4,38,28s1-.37,1.53-.51a2.94,2.94,0,0,1,1.57.28c.56.17.89.27,1,.86l.46,2c.23,1,.59.93.82,2s.11,1,.34,2.06.17,1,.4,2.05-.64,2,.39,2.11.45-1.12,1.09-2,.83-.79,1.47-1.71.91-.72,1.55-1.63.69-.88,1.33-1.8.54-1,1.18-1.91.61-.95,1.24-1.87a3,3,0,0,1,1.55-1.46,2.64,2.64,0,0,1,1.89-.07,2.68,2.68,0,0,1,1.1,1.33,2.6,2.6,0,0,1,.23,1.82c-.31,1.15-.67,1.06-1,2.21s.27,1.3,0,2.46-.42,1.12-.73,2.28-.76,1-1.07,2.18.3,1.32,0,2.47-.25,1.17-.56,2.33-1.55,1.15-.75,2,1,.09,2.31,0,1.26-.19,2.52-.28a1.39,1.39,0,0,1,.81.22c.22.13.15.52.32.72s.86.09,1,.36S59.38,47.17,59.38,47.45Zm-1.1-24.61c0,.53.47,1.11.2,1.56a1.91,1.91,0,0,1-1.45.78c-1.14.08-1.13.13-2.27.21s-1.13.2-2.27.28-1.18-.44-2.32-.36-1.12.37-2.26.45-1.14.23-2.28.31-1.14.15-2.28.23-1.16-.25-2.31-.17-1.14.06-2.29.14a1.44,1.44,0,0,1-1.4-.39A3.39,3.39,0,0,1,37,24.34c0-.56-.25-1.24,0-1.72s1-.56,1.57-.61c1.24-.1,1.22-.35,2.46-.44s1.27.36,2.51.27,1.78.64,2.41-.43-.38-1.11-.94-2.2-.46-1.13-1-2.21a.93.93,0,0,1,.05-1.09c.23-.43.33-.81.77-1.06a3,3,0,0,1,1.6-.69c.6,0,.83.58,1.13,1.14.54,1,.63,1,1.17,2s.9.82,1.44,1.84c.2.33-.07.78-.17,1.11a2.2,2.2,0,0,1-.45.92,13.77,13.77,0,0,0,2.39-.2c1.19-.09,1.19-.15,2.39-.23s1.19-.21,2.38-.3c.31,0,.56.35.78.47a2.17,2.17,0,0,1,.59.44c.17.2.47.35.57.62S58.28,22.56,58.28,22.84Z" transform="translate(0 -0.03)" style="fill: #d8493d"/>
            </g>
            <g style="isolation: isolate">
              <path d="M56.29,99a2.89,2.89,0,0,1-2,.92c-.36,0-.74-.34-1.06-.48a2.62,2.62,0,0,1-1.06-.58c-.55-.84-.45-.91-1-1.75s-.23-1.05-.77-1.89-.39-1-.93-1.8-.36-1.46-1.36-1.4-.38.94-1,1.85-.64.88-1.21,1.8-.7.84-1.28,1.76-.49,1-1.06,1.89c-.31.5-.84.54-1.38.58s-1.1.24-1.55,0a2.43,2.43,0,0,1-.9-1.29,1.57,1.57,0,0,1,.09-1.59c.57-.9.87-.72,1.43-1.62s.29-1.09.85-2,.88-.71,1.45-1.62,0-1.27.55-2.18,1.67-.57,1.65-1.64-.58-1.08-1.19-2-.93-.72-1.53-1.65-.41-1-1-2a1.64,1.64,0,0,1-.28-1.64c.22-.55.32-1.31.8-1.62s1,.13,1.51.17.55.38.86.89c.67,1.06,1.2.72,1.88,1.78S46.77,83.72,48,83.8s.65-.54,1.25-1.51.85-.83,1.45-1.8,2-1.59,1.16-2.41c-1-1-1.69.75-3.14.86-.45.06-.66-.72-1-.89s-.54-.18-.73-.46a2.38,2.38,0,0,1-.56-1.8c.23-1.05.54-1,.77-2s.24-1,.47-2.11.43-1,.66-2.06.69-1.24-.11-2c-1-.87-1.08-.11-2.37,0s-1.44-.49-2.44.33-.39.92-.58,2,.25,1.18.06,2.29-.88,1-1.07,2.1.32,1.2.13,2.31,0,1.14-.2,2.25-.63,1-.82,2.14-.44,1.07-.63,2.18.1,1.15-.09,2.26-.33,1.09-.52,2.2-.37,1.07-.56,2.19.48,1.22.29,2.33-.26,1.1-.45,2.21-.77,1-1,2.13.09,1.16-.11,2.27c-.11.62-.48.79-1,1s-.88.57-1.41.46a2.52,2.52,0,0,1-1.45-.54,2,2,0,0,1-.35-1.69c.19-1.07,0-1.1.18-2.17s.81-1,1-2,.2-1.07.38-2.14,1-1.77.12-2.34-1.08.62-1.93,1.28-.76.78-1.61,1.45-.79.74-1.64,1.4-1.06.39-1.91,1.06-.49,1.13-1.34,1.8-.79.74-1.65,1.41c-.47.36-1.06-.17-1.55-.32s-.88-.18-1.19-.63a2.6,2.6,0,0,1-.68-1.48,2.3,2.3,0,0,1,1-1.61c1-.78.77-1,1.75-1.82s1.58-.17,2.14-1.29,0-1.14,0-2.3,0-1.16,0-2.32.09-1.16.09-2.32-.36-1.16-.36-2.33.1-1.16.1-2.32,1.05-1.44.09-2.09c-1.29-.88-1.38,0-2.94.11a1.62,1.62,0,0,1-1.47-.65c-.31-.44-.17-1-.19-1.55s-.19-1.1.05-1.57a1.39,1.39,0,0,1,1.23-.63c.87-.07.88,0,1.75-.08s1.55.65,2-.08c.69-1.05-.51-1.45-.51-2.7s0-1.26,0-2.51.1-1.25.1-2.51a2.22,2.22,0,0,1,.7-1.73c.43-.37,1-.18,1.52-.15s1-.11,1.48.24a2.28,2.28,0,0,1,1,1.64c0,1.2-.6,1.2-.6,2.41s0,1.2,0,2.41-.6,1.56.32,2.33,1.25-.19,2.57-.29c.73-.06,1.08.44,1.42.89s1.05.79,1.08,1.35a3.37,3.37,0,0,1-.39,1.71c-.27.45-1,.52-1.51.58-1.61.11-1.75-.51-3,.45-.88.65,0,.85,0,1.94s-.3,1.1-.3,2.19-.19,1.1-.19,2.2.18,1.09.18,2.19-.86,1.74.14,2.2,1-.61,1.83-1.3c.28-.23.5-.48.79-.5s.46.32.73.44.9-.25,1.12,0-.17.68-.06,1a16.22,16.22,0,0,0,.56-2c.18-1.06.3-1,.47-2.09s.2-1,.38-2.1-.08-1.1.1-2.15.28-1,.46-2.1,0-1.09.14-2.14.21-1,.39-2.11.31-1,.49-2.09,1.36-1.39.6-2.15-1.24-.13-2.39,0c-.56.06-.8,0-1.12-.41a2.61,2.61,0,0,1-.71-1.3,2.35,2.35,0,0,1,.3-1.54c.27-.48.73-.57,1.35-.62,1.07-.08,1.06-.14,2.13-.21s1.07,0,2.13-.08,1.08,0,2.15,0S43.93,63,45,63s1.11.51,2.18.43,1-.34,2.12-.41,1.09.22,2.16.15c.78-.06,1.55-.21,1.94.37a2.65,2.65,0,0,1,.49,1.06,2.81,2.81,0,0,1-.1,1.21c-.22,1-.34,1-.56,2s0,1.06-.26,2.08-.82.89-1,1.91-1,1.57-.16,2.23c1.06.87,1.46-.1,2.82-.19a1.74,1.74,0,0,1,1.32.51,1.88,1.88,0,0,1,.72,1c.2.48.66.84.64,1.39a3.15,3.15,0,0,1-.52,1.54c-.62,1-.8.88-1.42,1.87s-.25,1.22-.87,2.22-1,.74-1.64,1.73-.59,1-1.21,2-1,.91-1,2.08.29,1.2.94,2.23l1.32,2.06c.66,1,.32,1.76,1.47,2.19.74.27.72-.82,1.25-1.41s.92-1,1.48-1,.85.67,1.24,1.06,1,.6,1,1.11-.4,1-.87,1.45a12.69,12.69,0,0,0-1.22,1.52C56.71,98.15,56.93,98.32,56.29,99Z" transform="translate(0 -0.03)" style="fill: #d8493d"/>
            </g>
            <g style="isolation: isolate">
              <path d="M59.46,139.43a1.76,1.76,0,0,1-.26,1.37,1.57,1.57,0,0,1-1.25.84c-1.1.08-1.11-.07-2.2,0s-1.1,0-2.2.1-1.1,0-2.2.12-1.07.48-2.17.56-1.11-.21-2.21-.14-1.11,0-2.21.06-1.26-.25-2.09.49c-.67.6.21.79.21,1.69s-.59.9-.59,1.81a1.24,1.24,0,0,1-.57,1.27c-.45.32-.77.73-1.33.73a2.78,2.78,0,0,1-1.67-.41,1.93,1.93,0,0,1-.72-1.59c0-1.66,1.08-2,.08-3.32-.72-1-1.17.3-2.36.38s-1.23-.39-2.42-.31-1.18.39-2.37.47-1.18.28-2.37.37-1.22-.28-2.42-.2-1.17.34-2.37.43c-.28,0-.38-.44-.6-.57s-.78.16-.94,0a2.88,2.88,0,0,1-.23-.83,2.63,2.63,0,0,1,0-.84c0-.48.4-.7.66-1.07s.39-.67,1-.72c1.21-.1,1.21-.06,2.41-.15s1.18-.5,2.39-.59,1.25.49,2.45.4,1.21,0,2.42-.11,1.17-.65,2.38-.74,1.66,1,2.57.19a1.56,1.56,0,0,0,.06-2.42c-1.06-.73-1.47.59-2.76.69s-1.34-.42-2.63-.32c-.56.06-1.26.37-1.56-.06a3.91,3.91,0,0,1-.36-1.65,2.14,2.14,0,0,1,.56-1.27c.25-.38.63-.29,1.25-.34,1.33-.11,1.3-.56,2.63-.67s1.92,1,2.88.1.39-1.53-.4-2.39-.81.14-1.84.21-1.06-.51-2.08-.45-1,.63-2,.7-1.56-1-2.22-.23.05,1.28.05,2.42.3,1.15.3,2.29a2,2,0,0,1-.8,1.63c-.45.32-1,.14-1.58.14a2.36,2.36,0,0,1-1.55-.34,1.56,1.56,0,0,1-.64-1.43c0-1.05.05-1.05.05-2.1s-.5-1-.5-2.09,0-1.05,0-2.1.18-1,.18-2.1.12-1,.12-2.11,0-1,0-2.1a1.51,1.51,0,0,1,.7-1.32c.42-.31.81-.93,1.37-1s1.15.48,1.66.81a1.77,1.77,0,0,1,.86,1.47c0,1,.29,1,.29,2s-1.09,1.29-.35,2,1-.3,2-.37S33,127,34,127s1,0,2-.07,1.13.28,1.8-.5,1.29-1.53.43-2.24-1.42.26-2.65.35-1.2.43-2.43.53c-.7.06-1.1-.54-1.47-.9a1.64,1.64,0,0,1-.54-1.2c-.06-.59-.16-1,.12-1.42s.69-.38,1.3-.44c1.38-.11,1.35-.47,2.73-.57s1.8.86,2.87,0c.78-.63.65-1.5-.12-2.16s-1.09.08-2.18.16-1.12-.16-2.21-.08-1.1,0-2.2.11-1.06.52-2.15.61-1.11-.06-2.21,0-1.09.11-2.19.2a1.36,1.36,0,0,1-1.31-.58,2.88,2.88,0,0,1-.4-1.41,2.27,2.27,0,0,1,.09-1.47,1.89,1.89,0,0,1,1.44-.76c1.11-.09,1.15.44,2.25.36s1.09-.35,2.2-.44,1.11-.15,2.21-.23,1.12-.06,2.23-.14,1.11,0,2.22-.11,1.53.57,2.22-.3c.82-1,.21-1.31.21-2.61a1.18,1.18,0,0,1,.62-1.17c.43-.31.72-1,1.25-1.06a3.11,3.11,0,0,1,1.74.63c.5.33.38,1,.38,1.6,0,1.13-.36,1.3.46,2.09s.94.38,2,.29,1.07-.35,2.17-.44,1.11.19,2.21.11,1-.68,2.14-.76,1.15.61,2.25.52,1.07-.41,2.17-.49a2.16,2.16,0,0,1,1.71.31,2.33,2.33,0,0,1,.64,1.42c.06.56-.37.94-.69,1.4a1.41,1.41,0,0,1-1.27.68l-2.25.19c-1.13.08-1.11.37-2.24.45s-1.13.1-2.26.18-1.14-.13-2.27,0-1.15-.1-2.28,0-1.56-.43-2.38.36-.38,1.22.37,1.89.83.44,1.88.37,1-.17,2.08-.24,1-.43,2.06-.5,1.08.28,2.12.2,1-.38,2.08-.45a2.85,2.85,0,0,1,2.67,1.14,3.36,3.36,0,0,1,.78,2.81c-.27,1.09-.29,1.08-.56,2.17s-.28,1.09-.54,2.18-.72,1-1,2.08-.57,1.11-.52,2.23c0,.32.53.29.84.24.73-.11,1-.13,1.41.26a1.66,1.66,0,0,1,.39,1.25c0,.56.2,1-.11,1.42a1.63,1.63,0,0,1-1.32.83c-1,.07-1,0-2.09.07s-1,.18-2.07.26-1,.29-2.07.36-1.08-.35-2.12-.27-1,.42-2.06.49-1.25-.63-2,.11-1.08,1.46-.33,2.1,1.24-.71,2.31-.79,1.07,0,2.14-.1,1.11.56,2.18.48,1-.69,2.09-.77,1.09.29,2.16.21,1.08,0,2.15,0,1.06-.29,2.13-.37a2.45,2.45,0,0,1,1.82.35C59.72,138.24,59.44,138.9,59.46,139.43Zm-17.1-15.55a1.72,1.72,0,0,0,.06,2.52c.63.7,1.09-.16,2-.23s.94.08,1.88,0a1.6,1.6,0,0,1,1.39.4,1.53,1.53,0,0,1,.52,1.09c.06.56.33,1.13,0,1.62s-.92.55-1.6.61c-1,.07-1,0-2.06,0s-1.27-.34-1.93.45-.73,1.19.1,2,.91.42,2,.34,1.11-.05,2.21-.13,1.34.23,2.18-.48.13-1.12.39-2.2.31-1.07.57-2.15.34-1.07.61-2.15,1.06-1.16.36-2-.94-.32-2-.24-1.06.38-2.15.46-1.15.54-2.22.35C43.46,123.93,43.11,123.08,42.36,123.88Z" transform="translate(0 -0.03)" style="fill: #d8493d"/>
            </g>
          </g>
        </g>
      </g>
    </g>
  </g>
</svg>
