<svg xmlns="http://www.w3.org/2000/svg" viewBox="0 0 91.86 163.88">
  <g id="Calque_2" data-name="Calque 2">
    <g id="Calque_1-2" data-name="Calque 1">
      <g id="Groupe_2774" data-name="Groupe 2774">
        <g id="Rectangle_1121" data-name="Rectangle 1121">
          <path d="M77.56,158.93l-2.5.43-2.54.12-2.53.09-2.51.3H64.93l-2.47.76H59.91l-2.5.42L54.86,161l-2.51.44-2.53.21-2.57-.26-2.48.65-2.54,0H39.68l-2.52.34-2.5.53-2.55.05-2.47.89L27.13,163l-2.6.46-2.27-1.2L20.15,161l-2.28-1.08-2-1.58-1.55-2-.76-2.46-1.4-2.2-.32-2.56,0-2.56,0-2.55-.23-2.54v-2.56l-.23-2.54-.19-2.54-.9-2.48.09-2.56-.7-2.5-.1-2.55.12-2.57-.59-2.5L9.32,116l-.27-2.54L8.35,111l.06-2.57-.6-2.51.53-2.6-1-2.47L7.16,98.3l.35-2.6-.1-2.55-.24-2.54-.88-2.48,0-2.57V83L6,80.47,5.5,78l-.34-2.53.35-2.59-.9-2.47.2-2.59-.28-2.53-.62-2.5-.43-2.52-.16-2.55.6-2.62L2.78,52.61,3.1,50l.13-2.57L2.9,44.9l-.57-2.51-.64-2.5,0-2.56-.17-2.55.11-2.58L.84,29.71l.34-2.6L.51,24.6.66,22,.42,19.53l.43-2.47.84-2.34.71-2.46,1.65-1.93,2-1.5L7.8,7,9.94,5.61l2.38-1,2.59.18,2.48-.74L20,4.44l2.53-.06L25,4.05l2.54-.11L30,3l2.59.41L35,2.32l2.58.37,2.5-.48,2.54-.07,2.53-.24,2.52-.21,2.5-.55,2.59.45,2.5-.48L57.8.66,60.3.08,62.84,0l2.52.3,2.45.43L70.36,1l2,1.67,2.51.82,1.83,1.81,1.47,2.11,1.2,2.27.3,2.56L80,14.67l.45,2.51,0,2.57L81,22.26v2.56l.12,2.54.54,2.51.25,2.54L82,35l.55,2.5L82.42,40l.73,2.49.33,2.53-.38,2.59L84,50.13l.25,2.53-.71,2.63,1,2.46-.13,2.58.29,2.53-.09,2.57.7,2.5-.07,2.56.6,2.51.35,2.53-.35,2.59.89,2.48L87,83.14l0,2.57-.22,2.58,1,2.47.13,2.54L88,95.85l-.08,2.57.42,2.52,0,2.56,0,2.56.42,2.52,0,2.57.94,2.47.17,2.55-.16,2.58.8,2.49v2.56l.26,2.54-.19,2.58.39,2.53L91,134l.84,2.49-.07,2.58.2,2.55.31,2.52-.47,2.5-.51,2.5-1.21,2.27-2,1.67-1.27,2.26-2.22,1.26-2.33.91-2.14,1.53ZM15.44,10.5l-2.5.77-2.36,1.11-2,1.69L7.2,16.34l-1,2.48.42,2.65V24L7,26.54l0,2.57.44,2.52.21,2.54-.26,2.58L8,39.25l0,2.55v2.56l.34,2.53.53,2.51L9,52l.9,2.47-.66,2.62,1.06,2.46-.23,2.59v2.56l.67,2.5.49,2.51.25,2.54-.24,2.58.85,2.48.12,2.55,0,2.57,0,2.55.23,2.54v2.57l.23,2.54.19,2.54.9,2.47-.1,2.57.71,2.5.1,2.55-.12,2.57.59,2.5-.22,2.59.26,2.53.71,2.5-.06,2.57.6,2.51-.53,2.61,1,2.47.19,2.55-.35,2.59.1,2.56.25,2.54.87,2.49,0,2.57v2.57l.32,2.54.86,2.49,1.29,2.22,1.36,2.32,2.57.84,2.34,1.18,2.64.06,2.49-.62,2.5-.43,2.53-.16,2.59.6,2.44-1.13,2.58.32,2.56.13,2.51-.33,2.49-.57,2.49-.63h2.55l2.53-.16,2.55.11,2.47-.81,2.58.34,2.49-.67,2.56.16,2.52-.44,2.53-.16,2.61-.49,2.09-1.61,2-1.58,1.77-2,.37-2.66-.12-2.58-.4-2.52.38-2.59L85,134.6l.37-2.6-.06-2.55L85,126.92l-.12-2.54-.94-2.47.4-2.6-1.08-2.46.37-2.6-.48-2.51-.07-2.55-.24-2.54-.22-2.54-.54-2.51.45-2.6L82,96.48,81.59,94,81,91.46l-.08-2.56.1-2.57-.16-2.54-.75-2.5.38-2.59-1-2.47-.21-2.54-.14-2.55-.24-2.54L79.2,66,79,63.48,78.56,61l0-2.57L78,55.88V53.32l-.12-2.55-.54-2.51-.25-2.54L77,43.17l-.55-2.52.12-2.57-.73-2.5-.33-2.53.38-2.6L75,28l-.26-2.54.72-2.63-1-2.47.14-2.59-.3-2.54L74,12.54l-1.63-2.11L70.82,8.31,68.43,7.22,66,6.58,63.39,5.9l-2.46.89L58.4,7,55.86,7l-2.57-.23-2.45,1-2.53.13L45.78,8l-2.56-.08-2.5.42-2.55,0-2.54,0-2.51.42-2.54,0-2.46.94-2.54.16L23,9.68l-2.47.81H15.44Z" transform="translate(-0.42)" style="fill: #d8493d"/>
        </g>
      </g>
      <g id="氣_候_師" data-name="氣 候 師" style="isolation: isolate">
        <g>
          <g style="isolation: isolate">
            <path d="M61.83,43.93l-.38,3.36L61,50.38l-1.18,1.53L58.6,53l-1.55-.49L56,50.91l-.81-2.4L53.75,46.4l-1-2.65-.39-2.83-1.1-2.3-.13-2.56-1.08-2.5-.37-2.87-2.39.45L45,31.35,42.78,32.5l-2.33.3-2.27.34.92,1.16.1.8L41.38,35l2.15-.71L45,34l1.13.57,1.24.6-.09,1.7-1.45,2,2.29-.35,1.13.54.81,1,0,1.41-1.36.72-3,.12L42.9,43.37l-3.2.06.1,2.06,1.41-.66,1.17-.12L43.7,44l1.45.82,2,1.39,2,1.51.22-1.17,1.85-.23,1.54.13.51,1.46-.24,1.47-1.67,2.32-.57.89-1,.2-2.19-.58-1.83-1.68L44,48.73h-.64l-.56.16-1.24.18-.83.84-.17,2-.63,1.34-1.15,1L37,54.12,36,52.39V49.74l-.26-2.64-.29-2.37-1.91.46-2.29,0-2.15.8-2.21.44-1.52-.62-.22-1.42-.15-1.42,1.37-.35,2.11-1.25,2.27-.38,2.37.24,2.25-.59L35,39.49l-1.66.35-1.78.94-1.11.12-1.13.39-.84-.39-1-.45L26,38.74l-.46-1.69L26.67,36l1.45-1.09,2,.75L31,37.94l.9-.41.64.47,2.71-.82-.43-2.49.33-1.44-2.55.63-2.6.31-2.6.29-2.56.5-1.09-.54-1.1-1,.41-1.39,1.24-1,2.62-.15,2.54-.63,2.58-.41,2.65.06,2.5-.85,2.61-.22,2.62-.21L45,28.1l2.53-.73,2.61-.25,2.94-.19.37,2.69,1.24,2.46,0,2.66L55,37l1,2.11,1.38,3.58,1.24,3.09.18-1.19-.42-1.38,1-1.41,1.4.06.87.79ZM33.51,46.71l.75,1.22L34,49.53l-1.91,1.6-1.36,2.11L29,55l-1.8.55-1.15-1L25,53.48l.56-1.66,2-1.46,1.35-2.12,2-1.49,1.27-1ZM58.2,17.11l-.05,1.42-1.24,1.19-2.69.15-2.56.88L49,21.11l-2.68.17H43.61L41,22.15l-2.64.44-2.72,0-2.57.89H30.4l-2.56,1-2.71.08-1.3-.1-.54-.88-.85-1.2.86-1.38L25,19.21l1.84-1.57,1.55-1,1.19,1.11.58,1,.22,1.49L33,19.93l2.46-1.17L38,18.17l2.68.18,2.58-.47,2.62-.18,2.55-.65L51,16.32l2.62-.26,2.65,0,1.49-.24Zm-2.72,5.68-.1,1.31-1.17,1.06-2.68.15L49,26.19l-2.64.36-2.67.17H41l-2.56.86L35.78,28l-2.71,0-2.56.9-2.71,0-1.47.05-.22-1.46.21-1.05,1.1-.41,2.49-1.19,2.63-.35,2.62-.4,2.65-.2,2.57-.72,2.72.21L45.74,23l2.6-.52L51,22.15,53.48,21l1.84.26ZM39.24,37.39l.32,2.43,1.37-.45,1.69-3.09Z" transform="translate(-0.42)" style="fill: #d8493d"/>
          </g>
          <g style="isolation: isolate">
            <path d="M33.91,80l1-.59.78,1,1.35,0-.09,1.38.51,2.67L38,87.2,37.35,90l1,2.64-.25,2.74,0,2.73.4,2.69-.22,1.54-1.36,1-1.44-1-1.05-1.14.25-2.61L34.16,96l-.78-2.52-.3-2.56,0-2.59-.14-2.58-.07-2.61-.59,1.16-1.29,1.5-1.86-.15-.59-1.19L28.62,83l.66-2.36.53-2.41L30.88,76l.37-2.47.86-2.3,1-2.24,1.21-2.19.84-1.37,1.77,0,.79,1.19.48,1.36L37,70.2l-.36,2.6-1.2,2.3-.81,2.45Zm10,14.15-1.45,1-1.28-1.14-1.48-1L40,90.32l-.5-2.64L38.94,85l.6-2.75-1-2.61L38.82,77l0-2.69.36-1.52,1.36-.85,1.62.21.14,1.83.65,2.63-.24,2.71.54,2.64L44,84.55l.31,2.66.06,2.69.15,2.69Zm20-21.75.18,1.74-1.7.31L60,75.81l-2.57-.12L55,76.37l-2.2.59-2.12,3,2.78-.9L56,79.1l2.51-.21L61,78.31l1.67.06,1.14,1.17L62.86,81l-1.29,1.17-2.71-.05-2.61.73.88.88L57.07,85l-.76.92,2.15-.29,2.3-.19,2.28-.3,1.41.19.86,1.23-.44,1.54-1.2.82-2.27.52-2.25.65-2.34.09-2,.73L54,93l-1.12,2.2-1.28,2.14-.46,2.45-1.42,1.5-1.6-.44-1.17-.53.48-1.55.41-2.61,1.25-2.29.84-2.61-2.65.15-1.54.25L45,90.17l.22-1.69,1.52-.83,2.3-.67,2.63.17,1.42-3.61-2.48.13-2,.21-2.89,0-.54-1.21.91-1.22.9-2,1.16-2.19L46,77.6l-1.4-.14-.54-1.4.52-1.36.87-1.22,2.65.08,2.55-.49,2.52-.72L56,72.23l-.21-2.42.33-2.29-2.8.53-2.65.46-2.54,1.08-1.67-1-1-1.07.64-1.41,1-.9,2.5-.51,2.47-.75,2.53-.41,2.49-.6,2.75.69.35,2.21,0,2.68-.14,2.59h1.66l1.51,0Zm2.95,22.79.85,1.46-1.6,1.15-.38,1.33H64.47l-.8.56-1,.36-.95-1.51L60,97.51l-.78-1.77-.67-.6-.72.34-.59.62-.62.63L55.51,96l-1.15-.66.24-1.26.39-1,1.25-1.22,1.57-.63h1.74l1.51.77,1.26,1.52,1,1.41h.74l1.55-.6Z" transform="translate(-0.42)" style="fill: #d8493d"/>
          </g>
          <g style="isolation: isolate">
            <path d="M48,145.53l0,1.36-1.11.61-2.34.7-2.39.4L41,148.39l-.68-.7-.89-.94.94-1.16.71-2.45.69-2.47.95-2.46-2.48,0-2.19.82.29,2.81-.26,2.92.41,2.86.14,2-1.75.33-1.51-.31L34.62,148l-.11-2.66-.85-2.59.09-2.68.35-2.7-.47-2.63v-2.67l-.7-2.61.16-2.69-.2-2.66L32.76,122l.16-2.22.66-2.79,1.66-2.42.86-.89,1.42.1,1.41.65,0,2.23-1,1.69,2.5-1,2.45-.14,1.69-.21,1.2,1-.53,2.82-.65,3-1.24,2.83,1.18,0,.85-.16.35.8.41.58.91.71-.61,1.42-1.38.22-2,.8-2,.66-2.36-1-.63-1.15L38.8,128l.6-2.07.41-2.14,1.46-2.18-2.35,1.09-1.18-.79-.61-.87.06.76-1,.63.68.9-.23,2.9,0,2.89.42,2.85.53,2.81,2.25-.7,2.46.37,2.28-.79,1.26.55,1,.43.64,3-.72,2.16-1,2.07-.88,2,1.43-.17,1.27.43Zm19.85-33.47.07,1.48-1.13.65-2.49.73-2.55.43-2.68.34.07,2.24.63,1.81L62,120l2.3-.58,2.69.38.74,2.15,0,2.58.72,2.51.25,2.57-.28,2.61.38,2.55,1,2.49-.29,2.62-.52,2.17-1.34.57-1.7-.32L63,142l-1.17-1.6.74-1.4.6-1,1.15.16.85-.22.19-2.41-.18-2.38-.28-2.36-.59-2.34-.58-2.34.36-2.69-2.25.32-2.18.44.72,2.6.29,2.42-.33,2.48.89,2.36,0,2.45.57,2.4L62,141.3l-.61,2.52.64,2.39-.65,1.52-1.3.6-1.48-.17-.36-1.59-.31-2.7-1-2.62,0-2.72.38-2.75-.69-2.66-.56-2.67.07-2.73-.54-2.5-1.38,0-1.3-.29-1-1.32,1-1.47.7-1.54,1.94.16-.44-2.13-.26-1.72-2.35-.36-2.4,1.14-2.6-.08-1-.56-.69-1.28-.06-1.46L47,113.09l2.52.36,2.32-.8,2.47.09,2.35-.69,2.3-.93,2.39-.46,2.43-.21,2.41-.3,1.35.56ZM53,145l-1.14.7-1.21-.51L49.68,144l-.24-2.57-.1-2.57-.16-2.57-.81-2.51.51-2.64-.44-2.55L48,126.07l-.16-2.58.73-1.24,1.29-.93,1.36.46.18,1.38.38,2.55,1,2.49-.3,2.61.35,2.56.14,2.57.11,2.58L54,141l-.1,2.6Z" transform="translate(-0.42)" style="fill: #d8493d"/>
          </g>
        </g>
      </g>
    </g>
  </g>
</svg>
