<svg xmlns="http://www.w3.org/2000/svg" viewBox="0 0 113.99 167.35">
  <g id="Calque_2" data-name="Calque 2">
    <g id="Calque_1-2" data-name="Calque 1">
      <g id="Groupe_2773" data-name="Groupe 2773">
        <g id="Rectangle_1121" data-name="Rectangle 1121">
          <path d="M80,167l-2.57.07L75,166l-2.57,0L70,165.23l-2.63.53-2.49-.5-2.47-.76-2.61.42-2.52-.36-2.48-.7-2.57.11-2.52-.38-2.41-1.2-2.57,0-2.54-.12-2.58.11-2.47-.8L34.65,161l-2.59.18-2.52-.39-2.47-.7-2.59.14L22,160l-2.46-.88-2.61.28-2.5-.58L12,158.13l-2.23-1.06-2.15-1.16-2.37-1L4,152.58l-1.46-2L1,148.53.84,146l-.46-2.45L0,141l.59-2.5.52-2.5,0-2.56.09-2.56.55-2.5.77-2.47-.15-2.58,1-2.45-.27-2.6.48-2.51,0-2.57.2-2.55L4,108.08l1-2.45.07-2.56.35-2.52L5.58,98,6,95.48,6.42,93,7,90.46l-.44-2.63.38-2.52.71-2.48V80.26l.54-2.51.64-2.49,0-2.57,0-2.57.36-2.52.74-2.48-.08-2.57.71-2.49.26-2.53.6-2.5-.19-2.59L11.87,50l.49-2.51.16-2.55.09-2.56L13,39.81l-.16-2.59.58-2.5.27-2.54.16-2.55.6-2.5L15,24.62,14.57,22l.58-2.5L15.56,17l.51-2.52.75-2.38.3-2.56,1.61-2,1.34-2.15,2.22-1.26,2-1.42,2.27-.92L28.76.32,31.31,0l2.5.68,2.53.3,2.51.39,2.55.13,2.54.14,2.45.92L49,2.29l2.54.22L54,3.16l2.6-.33,2.49.55,2.52.39,2.5.46,2.53.3,2.57-.06,2.47.82,2.58-.14,2.43,1.09,2.55.09,2.54.22,2.5.52,2.61-.41L89.42,7l2.44,1,2.52.38,2.54.29,2.63-.48,2.37,1,2.42.69,2.26,1.14,2.07,1.49,1.38,2.15,1.1,2.23L113,18.85l.08,2.6.92,2.44-.14,2.58-1.15,2.42.46,2.63L112.58,34l-.73,2.48.34,2.61-.3,2.53-.71,2.48,0,2.57-1,2.45.15,2.58L110,54.23l0,2.57-.1,2.55-1.08,2.43.06,2.58-.2,2.55-.81,2.47.08,2.57-.17,2.55L107.5,77l-.39,2.53-.49,2.5-.54,2.51L106,87.14l-.27,2.54-.3,2.53-.22,2.54-.81,2.47.3,2.61-.15,2.54-.59,2.5-.17,2.55-.68,2.48-.25,2.54-.34,2.52-.39,2.53L102,120l-.33,2.54-.14,2.55-.13,2.56-.84,2.46-.22,2.55,0,2.57,0,2.56-1.13,2.44.36,2.61-.85,2.47-.31,2.54L98,150.42l.23,2.61-.64,2.47-1,2.33L95.3,160l-1.5,2L92,163.84l-2.06,1.54-2.65.23-2.29.9-2.44.84ZM33.09,6.58,30.56,7,27.87,7l-2.1,1.63-2.23,1.53L23,12.79l-.82,2.41-.76,2.47.41,2.62-.35,2.52-.71,2.49.12,2.58-.38,2.52-1.21,2.41,0,2.57-.12,2.55.11,2.58L18.45,43l-.57,2.5.18,2.59-.39,2.52L17,53.07l.14,2.59-.27,2.53L16,60.65l.28,2.61-.58,2.49-.46,2.52-.52,2.5-.25,2.54.33,2.61-.94,2.46-.19,2.54.2,2.6L13,86l-.13,2.55.18,2.59-.58,2.49L12,96.12l0,2.57-.08,2.55-.55,2.51-.77,2.47.14,2.59-1,2.45.28,2.6-.49,2.52L9.48,119l-.2,2.55L9,124l-1,2.45L8,129.05l-.35,2.53-.13,2.56L7,136.66l-.4,2.53-.53,2.52.78,2.58.6,2.42,1,2.41,2.05,1.58,2.12,1.46,2.46,1,2.57-.06,2.56,0,2.52.36,2.47.74,2.57-.08,2.47.71,2.53.26,2.49.59,2.58-.18,2.48.7,2.5.49,2.54.16,2.55.09,2.52.35,2.59-.16,2.49.58L58,158l2.55.16,2.49.6,2.49.56,2.62-.41,2.49.59,2.52.4,2.51.51,2.5.57,2.61-.3,2.59.39,2.44-1,2.56-.86,1.84-2,1.44-2.3-.13-2.74.28-2.53.88-2.46.3-2.53.4-2.52.12-2.55.14-2.55.92-2.46L94.32,132l.22-2.54.65-2.49-.32-2.61.55-2.5.39-2.52.46-2.51.3-2.53-.06-2.58.82-2.47-.14-2.58,1.09-2.44.1-2.56.21-2.54.52-2.5L98.71,94l.35-2.53,1-2.44.37-2.52.29-2.54-.48-2.63.81-2.47.11-2.55.19-2.54.19-2.55.74-2.48.62-2.49-.56-2.63.93-2.46L103,58.59l.34-2.53,1.15-2.43L104,51l.59-2.5.72-2.48L105,43.4l.3-2.53.71-2.48,0-2.58,1-2.46-.15-2.59.42-2.53,0-2.57L107,23.14l0-2.71-1.66-2.09-1.92-1.74-2-1.73-2.66-.29-2.54-.17-2.54-.2-2.51-.4-2.51-.48-2.49-.55-2.55,0-2.53-.27-2.53-.3L76,11.94l-2.46-.81-2.6.3-2.55-.15-2.49-.59-2.54-.17-2.48-.67L58.38,9.6l-2.52-.35-2.52-.38L50.8,8.68l-2.52-.33-2.55-.14-2.55-.13-2.46-.84L38.18,7,35.61,7Z" style="fill: #d8493d"/>
        </g>
      </g>
      <g id="網_吧" data-name="網 吧" style="isolation: isolate">
        <g>
          <g style="isolation: isolate">
            <path d="M55.45,56.19l-1.76,1.53-2-1.06-1.58-.84-2.48-.55-2.53-.33-2.54-.1L40,55.05l-2.57.34-2.17-1.33-.71-1.25-.26-1.9,1.28-1.53,2.18-1.65,1.55-2.24,1.76-2.05,2.28-2L40.62,41l-2.38.51L36.17,41l-.59-1.83-.48-2,1.18-2.13,1.84-1.7,1.81-1.72,1.18-2.27,2-1.59,1.29-2.18,1.81-1.74L48,22.13,50,20.72l2.3.74,1,2.47L52,26.49,50.43,29l-2.12,2-1.83,2.24-2.41,2.36,4-.34,1.67-1.47,1.25-2,2.42-.87,2.37.75L56.69,34,56,36.51l-1.58,1.87-2,1.53-1.51,1.94-1.44,2-2.22,1.3-1.34,2.1L44.3,49.09l2.33-.15,2.54.79-.88-1.55.39-2.76,1.76-1.49,2.53.16,1.37,2.32.44,2.45.6,2.42.17,2.5ZM52.33,73.38l-2,1.16L48.8,73l-1.36-1.47.11-3.11-2.08,2.37-1.61,2.4-1,1-1.72.33-.77-1.37L40,72l-.43-2.08.29-2-1.85,1.7L36.9,71.75l-2.14,1.77L32.9,73l-1-1.11-.66-2,.48-2.75L33,64.61l.2-2.82.65-2.71,1.74-1.9,2.06-.07,2.13.77-.1,2.75-.5,3.59L40,62.14l1.4-2,.89-2.28,1.16-1.13,1.5.08.94,1L46.72,59l-.48,2.23-.09,2.28-.48,2.72.84-2.62,1.14-2,.5-2.25,1.39-1.5,1.67-.54,1.35,1.12.77,1.76.08,2.67L53,65.6l.19,2.67L53.44,71Zm32,4-1,1.73-3.74-.76-2.41-.27-2-1.29L73.11,75.7l-1.32-1.43L71.91,72l1.33-1.77,2.08.68,1.86.75,2,.16.42-2.57.79-2.62-.07-2.72.22-2.69.79-2.62.31-2.71-1.2,1L79,57.42l-2.77-.82L73.34,57l-2.59-.15-.48,2.29-.57,2.51.84,1.29,1.36.78,2.11-.6,2.34,0,1.67.85,1.2,1.81-.36,2.52-2.62,1.14-3.84-.32-3.63.45-2.34-.86-1.94-1.52-.16-2.71-.58-2.73.6-2.7-.09-2.7-1.08-.07-.45-1.11L62,57.66l-.16,2.68L61.63,63l-.75,2.61-.14,2.69L60.69,71l-1.1,2.58-.86,2.21-2.27.36-1.91-.91L54.71,73l-.61-2.68.33-2.56.24-2.58L55,62.6l.64-2.52L56,57.52l.2-2.58.66-2.53,0-2.61-.06-2.61L58,44.71l0-2.61.84-2.5-.52-2.68.5-2.55.77-2.51-.41-2.67.36-2.57L61,24.41l2.11-1,2.26,1.12-.19,2.81v2.45l-.11,2.44.13,2.47-.79,2.37-.56,2.39.2,2.45L65.94,41l2.46.52,2.51-.33,2.39.1L75,39.15l.83-2.47-2.35,1.59L71,40l-.88.13-1,.09-1.24.27-.13-1.12-.86-2.48-1.22-2.38.61-1.65,1-1.23,2.21-.86,1.67,1.71,1.11,3.64,2.07-1.67,2-1.64,2.3-1.26,1.69,0,1.71.3.34,1.82.28,1.9-1.18,2-.71,2.23-.89,2,.55-.42,1.3,1.22,1,1.11.36-2.59.13-2.63.45-2.58.4-2.6.48-2.79L81.89,31l-2.39-.19-2.37-.53-2.41.21-2.38-.35L70,29.69l-2.15-.64-.91-2,.91-2.36,2.31-.57,2.67-.27,2.64.54,2.65.08,2.65.42,2.68-.37,2.64.53,3.08,1.42L90,28.07l.23,2.39-.35,2.48L90,35.49,89.43,38l-.27,2.5L89,43l-.6,2.46-.56,2.47.41,2.58-.57,2.46-.41,2.49-.5,2.47-.57,2.46.31,2.57-.72,2.45,0,2.53-.87,2.43-.23,2.51-.42,2.49ZM69.47,47.16l-2,.28-2-1.09-1.37.16-.89-1.2-.56,2.91-.35,3,2.33-.59,2.92-.32,3.24.66Zm12.68-.65-.45,1.25-1.55-.65L78,47.67l-2.32-.37.73,4.07,2.78.27,1.43.22.58,1.06,1-2,.32-2.18Z" style="fill: #d8493d"/>
          </g>
          <g style="isolation: isolate">
            <path d="M29,133.74l-1.94.3-2.08-.5-.74-2.33.63-2.47-.33-2.58,1.16-2.4-.18-2.56.25-2.51.5-2.49-.22-2.56,1.13-2.4.06-2.54-.11-2.56.17-2.52.45-2.5L28,98.6l1.8-1.72,1.78-1.08,2.44.69.92,3-.46,2.49-.21,2.51-.6,2.47-.38,2.49.12,2.56-.45,2.49-1.11,2.4.09,2.55L32.1,122l-.62,2.47L31.3,127l-.82,2.45L30.36,132Zm9.25-5.26,1.92.48,2,.31.89,2-.81,2.39-1.9,1.7-2.59-1-2.65.38-2.38-.62-.9-1.58-.63-1.61,1.22-1.72.5-2.47.34-2.53.6-2.45.87-2.36.62-2.44L37,114.81l.25-2.56.39-2.51.67-2.43.88-2.37.71-2.07-2.28-.31-1.86-1.15-1-2.18,1.09-2.55,2.92-.29,2.13-.27L43,95.76l2.21.94,1.5,1.41,0,2.14-.09,2-.49,2.44-.44,2.46L44,109.26l-.1,2.57-1.16,2.23-.93,2.3-.72,2.38-.43,2.46-.29,2.51L39,125.85Zm40.4,8.15-1,1.7-.78,1.91-1.33,1.46-1.73,1-1.77,1.8-2.57.14-2.21,1.07-2.42.34-3.44-.15-2.07.35L57.49,145l-2.06-.28-2.12-.28-1.93-.78-1.62-1.32-1.68-1.58-.39-2.35-1.1-2.25-.31-2.59.23-2.51.46-2.47.21-2.5.59-2.46.38-2.49L48,118.64l.45-2.48,1.11-2.39-.09-2.54-.19-2.56.62-2.45.17-2.52.82-2.43L51,98.75l.05-2.54,1.16-2.61,2.41.35,2.26.39L57.19,97l-.52,2.52L56.38,102v2.58l.14,2.61-1,2.45-.37,2.54.27,2.62L55,117.36l-.78,2.49.09,2.59L54.05,125l-.77,2.49L53,130.06l.3,2.62.23,1.86,0,2,3,1.91,3.33.95,3.53.43,2.68-.12,2.27-1.44,2.39-1.18L72,134.77l2.74-2,2.38.28,2,1.41Zm.89-15.86-.79,1.94L77.32,124l-2.44-.06-2.4-.43L70,124l-2.39-1-2.45.37-2.43-.06-2.43-.3-2.45.41-1.38-1.66-.64-2,.45-2.3,2.36-1.08,1,.3.17-2.62,1.2-2.62-.17-2.79,0-2.76.26-2.74.5-2.56-1,.28-2-1.49L58.25,97l.47-2.54,2.46-1,2.53.89,2.57-.31,2.58-.41,2.55.4L74,94l2.54.61,1.87.19,1.67,1L81.22,98l-1.13,2.44,0,2.59-1,2.32-.8,2.39-.58,2.44-.29,2.52-.15,2.55L76,117.66l1.52.46,2,.51ZM68,100.46l-.57,2.93.15,2.79-.28,2.74-.65,2.7.29,2.81-1,3,4.06-.22.44-2.32.71-2.29v-2.46L72.44,108l.29-2.4.11-2.43.49-2-2.44-.09Z" style="fill: #d8493d"/>
          </g>
        </g>
      </g>
    </g>
  </g>
</svg>
