<svg xmlns="http://www.w3.org/2000/svg" viewBox="0 0 112.04 166.5">
  <g id="Calque_2" data-name="Calque 2">
    <g id="Calque_1-2" data-name="Calque 1">
      <g id="Groupe_2766" data-name="Groupe 2766">
        <g id="Rectangle_1121" data-name="Rectangle 1121">
          <path d="M82.22,166.23l-1.85.27-2.47-.85-2.56,0-2.57.1L70.3,165l-2.57.08-2.46-.87H62.72l-2.55-.17-2.49-.57-2.57.07-2.47-.7-2.59.22L47.5,163,45,162.28l-2.54-.21-2.56,0-2.51-.47-2.54-.17-2.44-1.09-2.62.52-2.49-.61-2.53-.33-2.57.1-2.54-.26-2.44-1.11-2.63.48-2.41-.9-2.44-.66-2.3-1.09-1.7-1.93-1.83-1.71L2.77,150.6l-1.43-2.1-.6-2.45-.4-2.5.43-2.49-.21-2.59.57-2.5.28-2.53.05-2.56.34-2.53.5-2.5.1-2.55.67-2.49-.17-2.59.81-2.47-.43-2.61,1-2.45.13-2.55-.14-2.58.55-2.5.53-2.51L5,97.94l.36-2.52.52-2.51.67-2.49L7,87.9l.37-2.53.18-2.54-.08-2.58L8,77.74l-.31-2.6.44-2.51.84-2.48-.46-2.62.91-2.45.63-2.5L10.2,60,10,57.44l.22-2.53.13-2.56.56-2.5.84-2.47-.06-2.58.62-2.49.07-2.57.2-2.54.18-2.55.08-2.56,1-2.45L14,27.09l-.5-2.63.44-2.52.77-2.49-.42-2.62.86-2.48.54-2.44.5-2.5,1.34-2.16,2-1.59L21,3.71l1.82-1.83,2.57-.47L27.65,0l2.59.14L32.72.5l2.52.37,2.6-.36,2.44,1.05,2.55.07,2.56,0,2.47.73L50.46,2,53,2.19l2.53.2L58,3.59l2.57-.09L63,4.17l2.62-.5,2.44,1,2.54.15L73.16,5l2.54.22,2.57,0,2.54.16,2.44,1.06,2.6-.31,2.5.52,2.56.08,2.47.79,2.53.38,2.59-.2L101,8l2.22,1.27,2.49.7,1.93,1.7,1.2,2.29,1.41,2,1.24,2.14.75,2.37.13,2.49-.22,2.45.2,2.58-.64,2.49,0,2.57-.2,2.54-.6,2.5.1,2.57-.69,2.49.13,2.58,0,2.56L110,50.83l-.29,2.53-.15,2.55-1,2.45.23,2.59-.25,2.53-.93,2.46-.34,2.53.3,2.6-.48,2.51.19,2.59-.54,2.51-.58,2.5-.23,2.54-.4,2.52-.16,2.55-.1,2.55-.19,2.55-1,2.45.56,2.63-1,2.45.08,2.57-.09,2.56-.66,2.49-.06,2.55-.68,2.49-.26,2.54-.38,2.52-.27,2.54.13,2.59-.6,2.5-.32,2.53.27,2.6-.15,2.56L100,137l-.43,2.52,0,2.57-.39,2.53-.51,2.51-.06,2.58-.31,2.54-.72,2.51-.65,2.53-1.33,2.27L94,161.58l-2.11,1.56-2.1,1.56-2.6.45-2.38,1ZM30.93,6l-2.35.66L26.11,7,24.27,8.69l-1.28,2-1.52,1.9-.19,2.42-.87,2.46v2.57l-.17,2.55-.57,2.5.07,2.57L19,30.18l.22,2.59-.11,2.55-.69,2.49-.2,2.54,0,2.57-.47,2.51L17.58,48l-1.09,2.44L17,53l-.61,2.49-.33,2.53.1,2.58-.26,2.53-1.1,2.44.48,2.63-.72,2.48-.08,2.56-.13,2.55-.75,2.48-.11,2.56-.58,2.5L13,86l-.39,2.52L12.46,91l-.62,2.49.2,2.59-.56,2.51-.29,2.53,0,2.56-.34,2.53-.5,2.51-.1,2.56-.67,2.49.17,2.59-.81,2.47.43,2.62-1,2.45-.13,2.56.14,2.58-.55,2.51-.53,2.51.35,2.61-.37,2.54-.51,2.52-.35,2.62L7,147l1.33,2.35,2,1.8,2.48,1,2.49.86,2.59-.31,2.51.44,2.46.84,2.62-.46,2.45.91,2.49.62,2.53.2,2.59-.25,2.53.23,2.55.12,2.49.56,2.47.84,2.56-.06,2.49.62,2.56.07,2.54.2,2.54.18,2.55.08,2.45,1,2.54.17,2.62-.5,2.52.43,2.47.77,2.62-.42,2.47.86,2.53.35,2.59-.42,2.49-.6,2.57-.87,1.61-2.17.82-2.49,1.27-2.36L92,148.91l.74-2.48.56-2.5.37-2.53-.37-2.6,1.06-2.45.07-2.55,0-2.57.73-2.48-.37-2.61L95,123.6l.2-2.54,1.19-2.43-.09-2.57.67-2.49-.5-2.63,1-2.44.16-2.55.1-2.55.23-2.54,0-2.58.16-2.54,1.06-2.45-.31-2.6.52-2.51.08-2.56.79-2.47.37-2.53L100.41,78l.18-2.54.72-2.48-.3-2.6.43-2.52,1-2.45.24-2.54.08-2.56L103,57.8l.46-2.52.42-2.52-.19-2.59.63-2.5,0-2.57.2-2.54.6-2.5L105,37.48l.69-2.49-.14-2.59,0-2.57L106,27.3l.29-2.54-.18-2.51,0-2.68-1.79-2-1.84-1.74-2-1.83-2.62-.7-2.59.3-2.51-.48-2.58.19-2.5-.54-2.49-.58L82.65,12l-2.51-.4-2.54-.16-2.55-.1-2.53-.19-2.45-1-2.62.56L65,9.68l-2.57.08-2.55-.09L57.39,9,54.84,9l-2.49-.68L49.82,8,47.3,7.63l-2.53-.27-2.58.13L39.7,6.9l-2.53-.32-2.61.27L32,6.69Z" transform="translate(-0.34)" style="fill: #d8493d"/>
        </g>
      </g>
      <g id="民_主" data-name="民 主" style="isolation: isolate">
        <g>
          <g style="isolation: isolate">
            <path d="M85.64,68.37l-.75,2-.82,2-1.39,1.72-1.41,1.66-1.41,1.36L78,77.39l-2.43.29-2.06-1.45L71.89,74.9l-1.71-1.25-1.39-1.6-1.93-2.38-1.72-2.52-1.5-1.63L63,63.46l-.76-2L61,59.56l-.15-2.25-.91-1.89-2.47-.64-2.57.72-2.54-.13-2.53-.48-2.53-.36-2.56.38L42,54.38l.06,3-.78,2.8.26,2.92-.48,2.58,2.3-1,2.8-.25,2.49-1.3,2.72.32,1.42,1.59-.41,2.48-1.24,2.34-2.38.23-2.36.3-2,1.42L42,72.16l-2.32.45-2.63,1L35.5,72.26l-.79-2.05-.2-2.31V65.38L35.3,63l-.55-2.58.82-2.43,0-2.53.27-2.49.66-2.45,0-2.52.14-2.51.14-2.51.43-2.47.1-2.51L38,35.5l.3-2.49.6-2.46L39.09,28l.13-2.52,1.48-2,2-1.06,1.85,1.25,1.15,2.52-.55,2.43L45,31.17l-.68,2.41.34,2.53-.27,2.47-.26,2.47-.87,2.4L43,45.92v2.37l2.52.4,2.68-.47,2.66.08,2.63.63,2.67-.09,2.78.61-.86-3.09.08-2.6-2.88-.59-3-.11-3,.47-1.76-1.29L46.71,40l.86-2.26,2.23-.51,2.56-.44,2.51.94,2.55-.36,2.54,0,2.54.16,2.55-.1,2.52.47,2.56-.18,2.44.08L73.82,36l1.7-1.67,1-2.11,1-1.88-2.4-.75-2.67.52-2.65.2-2.6-.89-2.64,0-2.63-.33-2.68.75-2.6-.94L54,29.26l-2.64-.11-1.81-1.06-.25-2.28.36-2.15,2.15-.83,2.58.14H57l2.56.44,2.58-.13,2.56.53,2.58.06,2.58-.19,2.59-.12,2.57.21,2.59-.17,2.56.82,2.58,0,1.87.12,1.2,1.23.43,2.05-1,1.78-1.65,2-.65,2.62-1.66,2-1.52,2.12,2.91-.13L84,39.68l.59,1.75.07,2.42L82.34,45l-2.55-.3-2.56-.26-2.58.29L72.11,44l-2.57-.07L67,43.47l-2.63.22.78,2.8.08,2.73,2.69.23,2.76-.31,2.74.14,2.7,1,2.77-.59,2.72.83,2.75.09,1.06.06,1.25.41-.25,1.36.48,1.14-.82,1.95-2,1.12-2.48-.42-2.51.31-2.47-.74-2.5-.06-2.51.2L69.1,56l-2.5-.55.5,2.15,1.3,1.75.91,1.85.47,2.07,1.19,2,1.31,2,1.2,2,1.9,1.27,1.23.49.83-1.2,2-1.54L80,65.5l2.09-1.15,2.27-.41,1.85,1.79Z" transform="translate(-0.34)" style="fill: #d8493d"/>
          </g>
          <g style="isolation: isolate">
            <path d="M77.88,140.71l-.74,2.07-1.93,1-2.53-.19-2.54.11-2.53-.38-2.53,0-2.55.19L60,143.16,57.46,143l-2.54,0-2.53-.24-2.55.08-2.53-.32-2.55.26-2.54-.26-2.52-.41-2.54,0-2.53-.37-2.56.33-2.51-.8-2.57.43-2.53-.57-1.91-.62-.19-2.37.34-2.4,2.36-.69,2.43.25,2.43.38,2.44.13,2.47-.63,2.44.27,2.43.44,2.45-.08,2.43.62,2.18-.7.39-2.31.09-2.62,1-2.52v-2.65l-.05-2.35-2.2,0-2.47-.85L41,123l-2.48-.72-2.5-.2-2.54.44H31l-2.18-1.17,0-2.5.9-2,1.82-1.07,2.55-.34,2.49,1,2.56-.68,2.52.42,2.55-.19,2.52.46,2.27-.09.46-2.14.07-2.46.3-2.43.56-2.41.23-2.41-2.54-.37-2.57.08-2.56-.4-2.6.65-2.56-.64-2.58.06-2.59.1-2.56-.45-1.49-1.15L28,100.2,28.53,98l2.07-.54,2.61-.11,2.59.34,2.62-.16L41,98l2.63-.49,2.61.12,2.62-.08,2.49.37-.5-2.13-.76-2.17-.25-2.21,2-1.14,2.4-.22,2,1.23.55,2.45.68,2.41L59.1,98l2.24.55,2.49.16,2.48.36,2.52-.39,2.48.51,2.49.28h5l2.21.73.44,2.5-1.41,1.83-1.65.68-2.63.36-2.62-.12-2.6-.33-2.62-.25-2.64.36-2.6-.44H60.07l-2.68-.09v2.52l0,2.46L56.56,112l-.66,2.39-.09,2.71,2.79.26,2.6-.53,2.56.52,2.58-.13,2.57.29,2.58.22,2.58.06L75.62,119l.48,2.12-.43,2.16-2,1L71,124.5l-2.6-.44L65.79,124l-2.63.16-2.61-.25L58,123.05l-2.44.52L55.19,126l-.68,2.56-.41,2.59.3,2.68-.77,2.75,2.9-.28,2.67.26,2.68.22,2.7-.24,2.68.48,2.7-.2,2.69.09,2.69.22,2.42,1.14Z" transform="translate(-0.34)" style="fill: #d8493d"/>
          </g>
        </g>
      </g>
    </g>
  </g>
</svg>
