<svg xmlns="http://www.w3.org/2000/svg" viewBox="0 0 106.58 164.27">
  <g id="Calque_2" data-name="Calque 2">
    <g id="Calque_1-2" data-name="Calque 1">
      <g id="Groupe_2772" data-name="Groupe 2772">
        <g id="Rectangle_1121" data-name="Rectangle 1121">
          <path d="M81.16,164.12l-2.52-.5-2.51-.55-2.58.48L71,162.82l-2.57.44L66,162.45l-2.54-.08-2.59.64-2.5-.86-2.57.5-2.5-.82-2.54-.12-2.55,0-2.53-.26-2.57.27-2.52-.54-2.52-.39-2.57.19-2.56.26-2.48-1.07-2.56.12-2.56.08-2.51-.71-2.57.32-2.55-.21-2.57.25-2.53-.48-2.47-.66-2.31-1.14L5.91,156l-1.67-1.87-1.88-1.76L1.29,150,1,147.49l-1-2.37.54-2.51.08-2.55.4-2.53L.91,135,.72,132.4l.63-2.51-.3-2.57.14-2.55.1-2.54.22-2.54.73-2.51,0-2.55L2,112.05l.63-2.51L3,107l-.47-2.58.11-2.55L3,99.35l.37-2.53-.26-2.57.6-2.52L4.1,89.2l-.43-2.58.56-2.52-.15-2.57L4.17,79,5,76.48l-.14-2.56-.38-2.58.09-2.55.28-2.54V63.7L5,61.16l1.08-2.49-.53-2.59-.07-2.56L6.14,51l.26-2.54.18-2.55L6.4,43.36l.8-2.51-.07-2.56.29-2.54-.28-2.58.7-2.51.24-2.54-.33-2.58L7.58,23l1-2.49-.24-2.58.22-2.55.34-2.47.43-2.5,1.21-2.23L12.2,6.2l1.58-2,1.85-1.8,2.45-.82L20.38.47,23,.62,25.49,0,28,1.05l2.54.13L33.08.94l2.52.48,2.54.12,2.56-.36,2.51.63,2.56-.23,2.56-.1,2.51.59h2.54l2.51.71,2.54.14L61,2.78l2.55-.1,2.56,0,2.53.27,2.54.1,2.5,1,2.58-.62,2.54.28,2.51.68L83.87,4l2.53.32L89,4.12l2.54.34,2.37,1,2.55.18L98.57,7l2.15,1.31,1.62,1.92,1.59,1.91,1.28,2.17.7,2.41L106,19.2,106,21.65l.63,2.59-.71,2.51-.05,2.55-.15,2.55-.3,2.53.29,2.57-.42,2.53L104.77,42l.58,2.59-.51,2.52-.29,2.54,0,2.55-.37,2.53-.24,2.54.21,2.57-.82,2.5,0,2.56-.08,2.54L103.6,70l-.13,2.55-.64,2.51.16,2.57-.37,2.53.2,2.57-.94,2.49L102,87.8l.13,2.57-.59,2.52.44,2.58-.85,2.5.66,2.59-.31,2.54-.63,2.51.44,2.58-.87,2.5.08,2.56.18,2.57-.45,2.53-.49,2.52.15,2.57,0,2.56-.4,2.54-.24,2.54-.49,2.52.18,2.57.21,2.58-.92,2.5-.15,2.55.59,2.6-.88,2.51-.32,2.43,0,2.62-1.75,1.94-.8,2.53L93,160.23l-2.14,1.43-2.28,1.14-2.45.66-2.45.81ZM25.06,6.64l-2.6-.16L19.79,7,18,9,15.79,10.6l-.63,2.62L14,15.69l-.08,2.55.64,2.59-.86,2.5.5,2.59-.82,2.5L13.28,31l0,2.55L13,36.05l.27,2.57-.54,2.52-.39,2.53.19,2.56.25,2.57L11.7,51.29l.13,2.56.07,2.56-.71,2.51.33,2.57L11.31,64l.25,2.57-.28,2.54-.07,2.55-.16,2.54-.48,2.52-.34,2.54.28,2.57-.31,2.54-.7,2.51.41,2.58L9.17,92l-.08,2.55L8.7,97.08l.1,2.56.2,2.57-.63,2.51.3,2.58-.15,2.55-.1,2.55-.21,2.54-.73,2.51,0,2.56.31,2.58-.63,2.52-.38,2.53.47,2.58-.11,2.56-.41,2.53-.37,2.54.25,2.58L6,143l0,2.7L7.37,148l1.13,2.39,2.18,1.5L13,152.94l2.48,1.15,2.56-.13,2.57-.38,2.54.09,2.54.27h2.54l2.54.16,2.47,1.08,2.59-.54,2.55-.07,2.5.65,2.53.27,2.54.17,2.56-.17,2.5.79,2.55-.07,2.54.29,2.57-.28,2.5.7,2.54.24,2.57-.33,2.56-.17,2.49,1,2.57-.23,2.54.22,2.55.15,2.57-.17,2.56-.07,2.54-.65,2-1.65,1.42-2.12,1.5-2.09.17-2.57.75-2.5-.42-2.58,1-2.49.13-2.54-.23-2.57.47-2.52.12-2.55-.35-2.57.63-2.52-.24-2.57-.09-2.56.58-2.51v-2.56l.7-2.5.14-2.55-.13-2.56-.09-2.57,0-2.55.27-2.54.1-2.55.94-2.49-.61-2.6L95.75,90l.68-2.52L96.09,85l.33-2.54-.17-2.57.34-2.53.84-2.5L97,72.23l.4-2.53V67.15l.41-2.53,0-2.55,0-2.55L98.19,57l.46-2.53.28-2.54-.63-2.59L99,46.8l0-2.55.15-2.55.29-2.54-.29-2.57.42-2.53.48-2.53-.59-2.6.52-2.53.29-2.55,0-2.56,0-2.63-.79-2.53-1.76-2-1.56-2.23-2.52-1-2.64-.44-2.57.34L86,10.68,83.5,10l-2.56.16-2.52-.37-2.56.2-2.48-.94-2.56.08-2.55.13-2.51-.59-2.58.44L60.69,8.3,58.1,9l-2.54-.3L53.06,8l-2.58.43L48,7.59l-2.56.08-2.56.19L40.34,7.4l-2.52-.49-2.56.15-2.56,0L30.18,6.7l-2.55-.24Z" style="fill: #d8493d"/>
        </g>
      </g>
      <g id="地_鐵" data-name="地 鐵" style="isolation: isolate">
        <g>
          <g style="isolation: isolate">
            <path d="M47.71,36l-.53,1.93-1.46,1.45-4-.61.25,3L42,44.47l-.82,2.6.14,2.67-.55,2.63.33,2.43,1.53-1.34,2.19.25,1.6,1.06,1.13,2.34-1.89,2.12-2,1.4-1.85,1.62-2,1.45-2.41.79-1.76,1.75-2.18,1.15-1.78,1.72-2.21.14-1.41-1.52-.61-2.13,1.58-1.88,1.71-1.49,1.65-1.58,1.7-1.28,0-2.43.45-2.52-.21-2.56.6-2.51.17-2.54.68-2.51-.41-2.59.42-2.65-2.24.06L31.53,39l-2.34-.46.22-2.44.49-2,1.42-1.65,2.4.78,2.61-.17-.28-2.83.81-2.56L36.38,25l.39-2.59,1-2.6,2.37.1,2.42.14.66,2.78L42.4,25.3l.72,2.55-1,2.45.32,2.43,2.86.19L47.2,34ZM81.53,65.61,82,67.35l-.84,2.33-2.8,1.06-2.3,1.89-2.69,1.28L70.45,74l-2.76.75-2.88-.22-2.9.52-2.85-.33-2.58-1.35-2.2-.74L52,71.74,50.9,69.8,49.82,68l-.91-2.35-.16-2.54.88-2.7-.27-2.78.44-2.73-.25-2.78.37-2.74.4-2.9-1.8.53-2.15-.21-1.4-1-.53-2.27,1.87-2,2-.82,2.08-.41-.24-2.4.59-2.39.17-2.42.67-2.39-.42-2.46,1.37-1.93,2.18-.52,1.78,1,1.38,1.85-1,2.3-.08,2.36.64,2.41-.75,2.66,3.25-1.09,2.74-1.5.74-2.27L62.88,31l.39-2.43-.19-2.47.91-2.4.53-2.55,2.57-.2,1.62,1.44,1.49,1.71-1,2.33.37,2.43-.43,2.37L68.88,34l2.45-1.37,2.41-.49,2.42-.44,2.65-1,1.83,1.48,1.71,2-.59,2.61-.27,2.48.45,2.58-1,2.37.31,2.56-1,2.38-.3,2.47-.21,2.49-.45,2.46.08,2.54-.91,1.37-1.1.73-1.43.67-2-.21-1.81-2-2.39-.95-1-1.33,1-1.8.8-1.75,1.58-.14,1.28.51.3-2.16.22-2.45.32-2.44.64-2.4.5-2.42-.12-2.51.54-2.24-2.38.37L71.2,39.3l-2.75.41-.14,2.72L67.91,45,68,47.52l.19,2.56-.63,2.51.3,2.58-.14,2.54-.1,2.55-.22,2.55L66,64.66l-1.88.69-2.32-.43-.44-2.51.38-2.51-.47-2.56.11-2.53.41-2.51.37-2.51-.25-2.55.59-2.51.14-2.91-3.14,1.59-3.23.75.1,2.75-.1,2.6-.83,2.55.13,2.62.37,2.64-.08,2.61-.29,2.6.27,2.16.8,1.87,2.63,2.51,2.91-.39L65,68.51l2.39.3,2.36-.33,2-.62,1.8-1.14,2.31-.55,1.77-1.48,2.34-.43Z" style="fill: #d8493d"/>
          </g>
          <g style="isolation: isolate">
            <path d="M78.56,129.12l-.25,3.19.07,3.26-.48,3.07-1,2.94-1.76,2.71-2.4,1.26L70,145l-2.13-2.84-.57-2.35L66.51,138l-1.57,2.27-.69,2.46-1.48,1.19-2-.25-1.62-.46-.46-1.56-2.75.27H50.27l-2.8.42-2.81.39-1.77-1.21-.59-1.91.49-1.85,2-.47,2.33-.77,2.18-.19.39-2-3.3.28-1.72-1.12-.92-1.89.92-1.61,1.82-.68,3.44-.29.21-1.67L46.83,127l-2-.28-.94-2.1.83-2.12,2.28-.66,2.66.16,2.65,0,2.65-.7,2.67.86,2.66-.1,1.89.68.67,1.83-.72,1.72-1.79.61-2.11-.09-2,.63-.46,1.93,3.06-.58,1.73,1.24,1.3,1.55-1.19,1.69-1.76.66-3.2.45v1.37l2.58.54,2.6-.92.67-1.67,1.28-1.61.69-2.12,1.23-1.91-.38-2.9-.23-2.89-.21-2.89L63.52,117l0-2.49L64,112l.39-2.67-.16-2.5-2.3-.5-2.51.6-2.52-.35-2.51.51L51.88,107l-2.53-.62-2.51.85L45,106l.15,2.24-1.65,1.4-2.12-.16-1.61-2.06-2.11.65-.77,1.9,0,2.53,3.76-.21,2.37.83L44.59,115l-1.05,2.45-2.78,1-2-.32-2.35.14.43,3.89,1-1.34,2.71-1.11,1.88,1,.81,1.78-.31,2.6-.6,2.66.2,2.83-1.67,1.56-2,.54-1.18-1.31,0-2v-2.23l.56-1.89-2,1.32v2.35l-.13,2.36-.15,2,2.73-.26,2.45.76.82,1.88-.28,2.15-2,1L37.31,140l-2.65-.44-2.52.48-2.41,1.15-2.56.2-2.53.38-2.18-1.07-1.09-2,.54-2.32,2.82-1,2.41-1,2.24-.16.81-3.29-2.41,1.72-2,.54-1.49-1.65-.18-2.84L23,126.05l-.24-2.84.4-1.94,1.57-.88,1.77-.11,1.35,1.46.69,3.12.63,2.89,1.27-.62.1-2.94-.05-2.88v-2.7l-1.73-.31-2-.11-2.5-.79L24,115.22l.07-2.31,2.5-.82,2.27.26L31,112l.17-2,.62-2.48-2.65.23-.78,1-1.52,2.63-2.32-1.14-1.12-1.4.25-2.4,1.11-2.5.37-2.81,1.45-2.36,1-2.56,1-2.54,1-2.54,1.58-1.52,1.89-.45,1,1.08L35,92l2.23-1,2.05.36,2.45.56.52,2.72.73,2.81,1.12,2.72.64,2.8.81-.91,1.45-.36,2.38-.55,2-.3.52-2.06-3.64,0-1.56-1L45.29,96l.84-2.12,2.26-.57L52.17,93l.17-1.55,1.09-2,2-.91,2.12,1,.68,2.22-.21,1.65h2.87l1.91.64L63.73,96,63.06,98,61,99l-3.36-.56.3,2.48,2.14.12,2.36-.45,2.38.45,0-2.93.71-2.89,0-2.93,1-1.75,1.84-.89,1.88,1,.88,2-.67,2.74.13,2.81.09,2.7,2.12-.26,2.25,0,2.24.27,2.17.84.13,2L79,105.38l-1.62.94-2.38.35-2.39.25-2.55-.5.13,2.65.13,2.49L69.67,114l-.4,2.17.37,2.47,1.12-2.84.93-2.11,2.6-1.63,1.85-1.14,1.73,1.61.79,2.87-.1,2.22.3,2.19.61,2.2L79,124.39l.37,2.41ZM37.87,98.17l-1.75-2-1.9,1.42-.35.52-.68.29-1.56,3.3,2.25-.21,2.18-.33,1.91.32Zm11.5,21.28-1.6.72-2.34-.33-1.11-2.65.51-3.08.39-3.09.86-2.14,2.14-.85,2.07,1,.47,2.33.31,3.14-.81,3.07ZM63,118.18l-.66,1.46-1.61,1.19-2.28.11-2.28-.31-2.29-.2-1.22-.15-.93-.92.65-2.26,1.92-1.58,1.12-1.83-1.7-.33-1.62-.58-.43-2,.86-1.49,1.28-1,2.22,0,2.22-.07,2.22.21L62,109l1,1,.14,1.66L62,113l-2.14,2.37h.7l1.83,1ZM79.41,98,78.32,99.2l-1.95.82-2.16-1.63-.74-2-.83-2-.26-1.7,1.05-1.61,2.19-.29,1.62,1.8,1.6,1.74.62,2.31Zm-3.56,23.54-.62-.84-.45.75-.84,2-1.23,1.8-1.28,2.13-.91,2.28.68,2,.28,2.15.7,3.73.84.26,1-.31.44-2.46.55-2.4.64-2.43-.26-2.89v-2.87Z" style="fill: #d8493d"/>
          </g>
        </g>
      </g>
    </g>
  </g>
</svg>
