<svg xmlns="http://www.w3.org/2000/svg" viewBox="0 0 88.71 162.32">
  <g id="Calque_2" data-name="Calque 2">
    <g id="Calque_1-2" data-name="Calque 1">
      <g id="Groupe_2765" data-name="Groupe 2765">
        <g id="Rectangle_1121" data-name="Rectangle 1121">
          <path d="M64.38,162.16l-1,.28-2.55.2-2.51-.39-2.55.12-2.48-.84-2.54,0-2.51-.38-2.57.45-2.52-.23-2.54-.05-2.5-.68-2.57.46L33,160.54l-2.51-.31L28,160l-2.52-.32-2.54-.09-2.57.36-2.52-.31H15.25l-2.49-.58-2.2-1.29-2.27-.92-2.14-1.27L4,154.17l-1.62-2-1.21-2.27-.62-2.49,0-2.55L0,142.36l.6-2.51.25-2.54-.08-2.56.29-2.54.33-2.53L1,127.11l.78-2.51L1.59,122l-.21-2.57L1.93,117l-.25-2.57.87-2.5-.3-2.57.6-2.51-.15-2.57.4-2.53,0-2.55.22-2.54,0-2.55.51-2.53L3.77,89l-.1-2.56L3.6,83.85l.31-2.54.73-2.5-.41-2.59.18-2.54.12-2.55.82-2.5V66.08l.34-2.53L5.28,61l.08-2.55.44-2.53.61-2.52-.56-2.59.7-2.51-.08-2.56.34-2.54.4-2.53.21-2.54-.1-2.57L7,33,7,30.4l.57-2.52.53-2.53.15-2.55.2-2.55,0-2.56-.06-2.57.07-2.54.67-2.47,1.25-2.22,1.46-2.07L14,4.39l1.69-1.9,2.4-.83L20.5,1,22.9.5,25.37.36,27.9.48,30.45.32,32.94,1l2.54,0L38,1.38l2.54.05L43.1,1l2.49.73,2.57-.4,2.53,0,2.53.24,2.5.64,2.5.53L60.81,2,63.28,3l2.55,0,2.53.18L70.92,3l2.54.18L76,3.25l2.35,1,2.42.83,2,1.57,1.49,2.08,1.41,2,1,2.24,1.49,2.13.2,2.53.31,2.54-.17,2.54L88,25.28l0,2.55-.56,2.52.36,2.57-.38,2.53.3,2.57-.43,2.53-.73,2.5.64,2.6-.27,2.54-.28,2.53-.78,2.51.66,2.59-1,2.5.22,2.56v2.56L85.55,66l.25,2.57-.59,2.52L85,73.61l.18,2.57-.33,2.53-.49,2.53.12,2.56,0,2.55,0,2.56-.54,2.52L83.32,94l-.12,2.54.21,2.57-.32,2.53.26,2.57,0,2.56-.9,2.5.29,2.57-.71,2.51.54,2.59-.44,2.53.09,2.57-.76,2.51,0,2.56.26,2.57-.16,2.55-.67,2.51.38,2.59L81,139.81l-.08,2.56,0,2.57-.49,2.53L80.33,150l-1.46,2.18-.6,2.48-1.42,2.11-1.64,2-2.62,1.35-2.4,1.74h-3ZM24.35,5.84,22,6.43,19.91,7.61,17.86,8.74,16.4,10.83l-1.75,2-.38,2.64L13.9,18l.45,2.58-.24,2.54,0,2.55-.68,2.51.46,2.58-.53,2.52L13,35.83l-.18,2.54-.33,2.54-.09,2.55L12.75,46l-.31,2.53v2.56l-.38,2.53-.75,2.51,0,2.55,0,2.56.28,2.57-.07,2.55-.15,2.55L11,71.47,10.41,74l.41,2.58-.59,2.52L10,81.62l.08,2.56-.28,2.54-.34,2.53.38,2.58L9,94.33l.21,2.57.2,2.57L8.89,102l.26,2.57-.87,2.5.29,2.57L8,112.15l.15,2.57-.41,2.53,0,2.56-.21,2.54,0,2.56-.51,2.52L7.05,130l.1,2.56.07,2.57-.31,2.54-.73,2.52.41,2.59.15,2.53.86,2.39.92,2.53,2.13,1.64L13,153.21l2.69,0,2.53.08,2.51.44,2.5.61,2.57-.56,2.5.69,2.54-.08,2.52.34,2.51.4,2.53.21,2.55-.11,2.56-.35,2.54.07,2.5.57L51,156l2.54.14,2.53.2,2.54.05,2.55-.06,2.55-.12,2.54-.26,2.46-.69,2.13-1.43L73,152.19l.71-2.59.89-2.5.32-2.53L75,142l.05-2.55.13-2.55L75,134.36l.66-2.51,0-2.56.45-2.52,0-2.55-.48-2.59.74-2.5-.4-2.58L76,114l.23-2.54.65-2.52.53-2.52-.72-2.6,1-2.49,0-2.55.19-2.54-.27-2.57.17-2.55-.11-2.56L78.17,86,78,83.47l.28-2.54.61-2.52.26-2.54.31-2.53-.55-2.59.4-2.53-.11-2.56.16-2.54.56-2.52,0-2.55.55-2.52L80.17,53l.38-2.54-.3-2.57.43-2.53.72-2.51-.63-2.6L81,37.65l.29-2.53.78-2.51L81.44,30l1-2.5-.22-2.58V22.37l.21-2.56-.58-2.51-.42-2.54L80,12.57,77.8,11.13,75.58,9.86,73.09,9l-2.55.12H68l-2.53-.06L63,8.55,60.46,8l-2.53-.12-2.55.22-2.52-.33L50.3,8l-2.54,0-2.48-.9-2.56.29-2.49-.71-2.58.54-2.51-.44-2.55.09L30.1,6.18l-2.55,0L25,6.46Z" transform="translate(0 -0.32)" style="fill: #d8493d"/>
        </g>
      </g>
      <g id="微_芯_片" data-name="微 芯 片" style="isolation: isolate">
        <g>
          <g style="isolation: isolate">
            <path d="M33.52,33.88l1.93.56.88,1.62,0,2.43-.52,2.39-.2,2.41-.42,2.4.37,2.46-.48,2.4-.7,1.27-1.42.5L31.4,52l-.25-1.69.25-2.65L31.7,45l-.36-2.7,0-2.68L32,37l-.26.45-1.28.71-1.73-.23-1-1.36,1.12-1.69,1.3-2.44,1.54-2.27,1.21-2.29-1.71.64L30,27.72,29,27.25l.18-1.36L29,24.43l1.59-2.12,1.73-2,.95-2.55,1.77-2,1.3-1.16,1.77.4.63,1.57-.59,1.65L37,20.35l-1.23,2.18-1.27,1.84,1.71-.13,1,.16,1,.35.65,1.19-1,1.15L37,29.67l-1.64,2.12ZM39.9,51.23l-.69,1.24-1.59.2-1.45-.84.09-1.76.88-2.58L38.22,45l.34-2.76,1.14-2.5.84-2.6,1-1.1,1.63-.22,1,1.23.09,1.39-.94,2.53-.32,2.74-.64,2.63L41,48.72ZM52.4,33.48l-.26,1-1,.54-2.5.2-2.5-.35-2.5,0-2.51-.24-2.5.54-1.12-.88-.41-1.35.3-1.41,1.32-1,2.48.37,2.47.06,2.48.11,2.47-.55,2.48-.2.91.77.75.58ZM52.18,29l-1,.7-1.31-.23-.59-.94-2.57-.33-2.64,0L41.41,28l-2.06-.22L39.1,25.8l.16-2.25V21.29L39.14,19l1-1.22,1.27-.27,1,.57.89,1.18,0,2.45-.66,2.45,1.4-.1.1-2.35-.15-2.43.11-2.4,1.33-1.09,1.2-.57,1.3.53.84,1.42-.11,2.31-.84,2.26.31,2.31,1.68.25-.4-2.54.32-2.3.84-1,1.07-1,1.26.84.85,1.42,0,2.77-.54,2.75L52.85,28ZM48.83,50.82l-1,.79-1.42,0-1.22-.79-.06-1.51.23-2.81.44-2.8-.34-2.86.5-2.8.68-1.3,1.4-.52,1.61.37.26,1.7-.22,2.38-.28,2.39.36,2.33.32-.9,1.59.08,1.29.63.62,1.36-.45,1.64-1.88,1.66Zm14.08,2.75-.63.69-1.06.17-1.87-1.35-.54-2.56L58,48.05l-1.19,2.18-.44,2.45L55,53.52l-1.42-.1-1.21-.87L52,50.85l1.25-2,.95-2.15,1-2.12.38-2.3-1-2.22-.36-2.54-1-2.31-.13-1.07.17-1,1.93-1,1.09.94.85.61,1,3,.68-2.31.84-2.17,1.46-2.29-2.94.33-2.64-.43-2-.47.29-2.2,1.53-2.37.68-2.79,1.56-2.36.92-2.68L60,15.61l1.7.69.76,1.21.07,1.5-1,2.42-1,2.38L59,26.14l3.21.18L65.26,26l1.59.57-.15,1.68.15,1.43-1.56.45-1.06-.27.5,1.1.16,1.23-1.27,2.49-.8,2.69-1.69,2.33-.94,2.67.6,2.35,1.37,2,.68,2.18.41-.76,1.44,0,1.52.17L66.62,50l-.77,1.4Z" transform="translate(0 -0.32)" style="fill: #d8493d"/>
          </g>
          <g style="isolation: isolate">
            <path d="M29,97.2l-1.1.91-1.45.58-1-1.32-.32-1.46.66-2.47.45-2.53.58-2.5,1.39-2.26-.09-2.69,1.08-2.36,1-1.66,1.66.35,1.27.79-.29,1.83-.7,2.44-.68,2.45-.23,2.59-.95,2.37-.08,2.63Zm35.3-27.64-.63,1.23-1.12,1-2.69-.59-2.68.19-2.79.13L54.43,74l-.81,1.72-1.69-.37-1.76.12-.3-1.76,0-1.84-2.29-.41-2.44.2-2.45-.36-2.73.13-.27,2.68-.38,1.65-1.67.09-1.8-.11.13-1.86-.23-2.07-2.52.22-2.52.2-2.54-.34-1.28-.71-.13-1.52V68.11l1.52-.45,2.58,0,2.59-.16,2.4-.24.41-1.86.69-1.21,1.32-.29,1.81,0,1,1.77-.59,1.86,2.5-.21,2.44-.07L47.8,67l2.14,0,.72-1.7L51.1,64l1.38-.4,1.84.24.84,1.78-.63,2.08,2.81-.4,2.59.43,2.58-.62.8.39.29.76.89.49ZM52.43,93.84l-1.17,1.68-.8,1.94-2,1-1.73,1.19-2,.73-2.16.55-2.32,0-2-1.28-2.09-.29-1.08-1.73-1.1-2,.35-2.31V90.47l.55-2.78.17-2.81.16-2.81-.32-2.84L35.76,78l1.29-1.08,1.5,1.31.92,1.27,0,2.77v2.76L39,87.79l-.22,2.75-.44,2.75L39.11,95l.86,1.2,1.7.4,1.81-.24,2.76-1.63,1.54-1.21,1.08-1.66,1-.57,1.52-.21,1.35,1Zm6.71,5-.79.24-.8.61-.83-.82-.61-.5-.76-2.26-1-2.2-.84-2.24,0-2.5-1.51-2-.36-2.41-1.74,2-2.23,1.45L45.9,90.11l-1.22.32h-1L43,90l-.86-.85-.07-2.68-1-2.57.53-2.75L41,78.52l.23-1.68,1.32-1,1.67.61.88,1.5.05,2.43.83,2.34,0,2.52,1.86-1.69,1.68-1.78,1.57-1.88,1.17-.22,1,.06.8.53,1,.64.9,2.32.23,2.52.92,2.32.77,2.37.92,2.13,0-.8,1.69.06,1.38.3.86,1.39-.22,1.81L61,97.22Z" transform="translate(0 -0.32)" style="fill: #d8493d"/>
          </g>
          <g style="isolation: isolate">
            <path d="M60.12,124.43l.12,1.66-1.7.56L56,127l-2.55-.06H50.88l-2.55-.27-2.55,0-2.55-.22-2.55.46-2.56-.24-2.55.17L33,126.41l-2.71.07-.51,2.24-.4,2.23,2.85-.46,2.73.58,2.73-.41,2.73.36,2.74,0,2.73-.15,2.73-.69L52,131.62l.61,1.87.24,2,.06,2.48-.06,2.48-.31,2.46-.42,2.46.26,2.5-.69,1.67-1.67.33-1.83-.42-.2-1.86L47.44,145l.6-2.47.53-2.48-.15-2.52.49-2.82-2.86.14-2.5.08L41,135l-2.51-.19H36l-2.52.07-2.51.35H28.45l-.75,2.67L27,140.55l-.11,2.8-1.11,2.56-1,1.56-1.62.64-1.42-1-.48-1.9,1.36-2.33.41-2.55.35-2.56.36-2.56.9-2.44.47-2.54.91-2.43.49-2.53.71-2.48,0-2.64.88-2.45.62-2.51,0-2.65L30.2,111l1.74-.52,1.22,1.32.23,1.88-.83,2.81-.6,2.86-.61,3,3,0,2.81-.44,2.81.25,2.82.26,3.07-.11-.15-3.19.53-2.9V113.4l.39-1.8,1.71.45,1.62.13.26,1.47.61,2.86-.06,2.81-.91,3,3.09-.6,2.84,0,2.83-.12,1.53,1.15Z" transform="translate(0 -0.32)" style="fill: #d8493d"/>
          </g>
        </g>
      </g>
    </g>
  </g>
</svg>
