<svg xmlns="http://www.w3.org/2000/svg" viewBox="0 0 98.95 160.28">
  <g id="Calque_2" data-name="Calque 2">
    <g id="Calque_1-2" data-name="Calque 1">
      <g>
        <g id="Groupe_2734" data-name="Groupe 2734">
          <g id="Rectangle_1121" data-name="Rectangle 1121">
            <path d="M82.57,160.24c-1.14,0-1.14-.18-2.28-.18s-1.14-.39-2.28-.39-1.14.19-2.28.19-1.14.1-2.29.1-1.14-.35-2.28-.35H68.88c-1.14,0-1.14.17-2.28.17s-1.14.23-2.27.23-1.14-.4-2.28-.4-1.14.33-2.28.33-1.14-.2-2.28-.2-1.14.27-2.28.27-1.14-.07-2.28-.07-1.14-.15-2.28-.15-1.14-.08-2.28-.08-1.14.45-2.28.45-1.14-.63-2.28-.63-1.14.09-2.28.09-1.15.57-2.29.57-1.14-.59-2.28-.59-1.14,0-2.28,0-1.14.48-2.29.48-1.14.23-2.28.23-1.14-.7-2.28-.7-1.14.33-2.28.33-1.15.32-2.29.32-1.14-.09-2.28-.09-1.15-.49-2.29-.49-1.15.64-2.29.64c-.78,0-1.5-.7-2.25-.8a15.11,15.11,0,0,1-2.24-.32,17,17,0,0,1-2.28-.46c-.69-.32-1.05-1.24-1.69-1.65a17,17,0,0,1-2-1,15.69,15.69,0,0,1-1.37-1.84,14.83,14.83,0,0,1-1.45-1.72,16,16,0,0,1-.9-2.07c-.32-.69-1.07-1.2-1.29-1.94a16.65,16.65,0,0,1-.55-2.24c-.11-.74.41-1.54.41-2.31,0-1.12,0-1.12,0-2.23s-.39-1.12-.39-2.24S.2,138.32.2,137.21s.44-1.12.44-2.24.12-1.11.12-2.23-.17-1.12-.17-2.23-.18-1.12-.18-2.24,0-1.11,0-2.23.2-1.12.2-2.24.09-1.12.09-2.23-.13-1.12-.13-2.24.15-1.12.15-2.24-.6-1.11-.6-2.23.17-1.12.17-2.24.23-1.11.23-2.23-.29-1.12-.29-2.24.45-1.11.45-2.23,0-1.12,0-2.24-.56-1.12-.56-2.24,0-1.11,0-2.23S0,98.09,0,97s0-1.11,0-2.23.33-1.12.33-2.24S.3,91.38.3,90.26.77,89.14.77,88,.31,86.91.31,85.79s.23-1.12.23-2.24,0-1.12,0-2.24.19-1.11.19-2.23S.4,78,.4,76.84s.24-1.12.24-2.24S.19,73.48.19,72.36s0-1.11,0-2.23S.11,69,.11,67.89s.56-1.12.56-2.24S0,64.53,0,63.42s.34-1.12.34-2.24S.24,60.07.24,59s0-1.12,0-2.24S.1,55.59.1,54.47s.22-1.11.22-2.23S.78,51.12.78,50,0,48.88,0,47.76s.33-1.12.33-2.24,0-1.12,0-2.24.39-1.11.39-2.23-.3-1.12-.3-2.24S.28,37.69.28,36.57s.09-1.12.09-2.24S.24,33.21.24,32.09s0-1.12,0-2.24,0-1.12,0-2.24V25.37c0-1.12.23-1.12.23-2.25S.66,22,.66,20.88.39,19.76.39,18.63s.16-1.12.16-2.24A16.14,16.14,0,0,1,.47,14.1a16.88,16.88,0,0,1,.78-2.16,16.54,16.54,0,0,1,.5-2.24C2.07,9,2.83,8.57,3.24,7.94s.32-1.67.81-2.25,1.4-.78,2-1.28A17.42,17.42,0,0,1,7.71,2.88a17.13,17.13,0,0,1,2.2-.71,15.57,15.57,0,0,1,2-1.15A15.79,15.79,0,0,1,14.17.94C14.92.83,15.62.17,16.4.17c1.14,0,1.14,0,2.28,0S19.82.72,21,.72,22.1.4,23.24.4,24.38.22,25.52.22s1.14.23,2.28.23,1.14.24,2.28.24S31.22.05,32.36.05s1.14.52,2.28.52S35.77.08,36.91.08s1.14.19,2.28.19S40.33.06,41.47.06s1.14.17,2.28.17S44.89.3,46,.3s1.14.33,2.28.33S49.45,0,50.59,0s1.14.32,2.28.32S54,0,55.15,0,56.29.3,57.44.3s1.14.2,2.28.2S60.86.3,62,.3,63.14.21,64.28.21,65.43.13,66.57.13,67.71.4,68.85.4,70,.28,71.13.28s1.14.09,2.28.09S74.56.06,75.7.06,76.84.21,78,.21s1.14.42,2.29.42S81.42.07,82.57.07a16.1,16.1,0,0,1,2.3.31A16.63,16.63,0,0,1,87,1.29a14.74,14.74,0,0,1,2.23.5c.7.32,1.14,1,1.78,1.46A16.24,16.24,0,0,1,93,4.4,15.13,15.13,0,0,1,94.5,6.05,15.08,15.08,0,0,1,96,7.75a17,17,0,0,1,.84,2.12c.31.69,1,1.23,1.23,2a16.7,16.7,0,0,1,.3,2.28,15.83,15.83,0,0,1-.07,2.27c0,1.12,0,1.12,0,2.23s.29,1.12.29,2.24-.22,1.12-.22,2.23.08,1.12.08,2.24,0,1.11,0,2.23-.13,1.12-.13,2.23.35,1.12.35,2.24,0,1.11,0,2.23-.17,1.12-.17,2.24-.09,1.11-.09,2.23.44,1.12.44,2.24-.15,1.12-.15,2.24-.4,1.11-.4,2.23.2,1.12.2,2.23-.3,1.12-.3,2.24.61,1.12.61,2.23-.2,1.12-.2,2.24.2,1.12.2,2.24,0,1.12,0,2.23-.72,1.12-.72,2.24.39,1.12.39,2.24.08,1.11.08,2.23.23,1.12.23,2.24-.18,1.12-.18,2.24-.38,1.12-.38,2.23.58,1.12.58,2.24-.46,1.12-.46,2.24,0,1.12,0,2.24-.12,1.11-.12,2.23-.16,1.12-.16,2.24.22,1.12.22,2.24.15,1.12.15,2.23,0,1.12,0,2.24,0,1.12,0,2.24-.38,1.12-.38,2.24v2.23c0,1.12.21,1.12.21,2.24s.28,1.11.28,2.23-.15,1.12-.15,2.24.08,1.12.08,2.24,0,1.11,0,2.23.25,1.12.25,2.24-.12,1.12-.12,2.24-.13,1.12-.13,2.23-.43,1.12-.43,2.24,0,1.12,0,2.24.5,1.12.5,2.24-.25,1.12-.25,2.24-.06,1.12-.06,2.24.49,1.12.49,2.24-.45,1.12-.45,2.24,0,1.12,0,2.24-.07,1.12-.07,2.24.17,1.12.17,2.24.37,1.13.37,2.25-.14,1.12-.14,2.24.21,1.13.21,2.25a17.91,17.91,0,0,1-.27,2.32c-.11.76-.88,1.37-1.09,2.09a17.91,17.91,0,0,1-.44,2.25,15.53,15.53,0,0,1-1.07,2,16.59,16.59,0,0,1-1.4,1.82,17.52,17.52,0,0,1-3.32,3.19,16,16,0,0,1-2.13.9,16.85,16.85,0,0,1-2.06,1.08,17.58,17.58,0,0,1-2.31.31A15.81,15.81,0,0,1,82.57,160.24ZM16.4,6.71a10,10,0,0,0-2.2.07A11,11,0,0,0,12,7.16a11,11,0,0,0-1.82,1.37,10.38,10.38,0,0,0-1.51,1.66,10.3,10.3,0,0,0-1.51,1.73,10,10,0,0,0-.74,2.18,10.19,10.19,0,0,0-.09,2.29c0,1.12.22,1.12.22,2.23s-.39,1.12-.39,2.24.32,1.12.32,2.23-.2,1.12-.2,2.24.27,1.11.27,2.23-.06,1.12-.06,2.23S6.28,30.91,6.28,32s-.08,1.11-.08,2.23.45,1.12.45,2.24S6,37.61,6,38.73s.1,1.12.1,2.24.57,1.12.57,2.24-.6,1.11-.6,2.23,0,1.12,0,2.23.47,1.12.47,2.24.24,1.12.24,2.23-.7,1.12-.7,2.24.33,1.12.33,2.24.31,1.12.31,2.23S6.63,60,6.63,61.09s-.49,1.12-.49,2.24.64,1.11.64,2.23-.64,1.12-.64,2.24.17,1.12.17,2.24.37,1.12.37,2.23S6,73.39,6,74.51s.4,1.12.4,2.24S6.1,77.87,6.1,79s.13,1.11.13,2.23S6,82.34,6,83.46s.53,1.12.53,2.24.06,1.12.06,2.23S6,89.05,6,90.17s0,1.12,0,2.24.39,1.12.39,2.24.14,1.11.14,2.23S6.15,98,6.15,99.12,6,100.23,6,101.35s.17,1.12.17,2.24.19,1.12.19,2.24,0,1.11,0,2.23-.2,1.12-.2,2.24-.08,1.12-.08,2.24.12,1.12.12,2.23-.14,1.12-.14,2.24.6,1.12.6,2.24-.18,1.12-.18,2.24-.22,1.12-.22,2.24.28,1.12.28,2.24-.45,1.12-.45,2.24,0,1.12,0,2.24.56,1.12.56,2.24,0,1.12,0,2.24.13,1.12.13,2.24,0,1.13,0,2.25-.33,1.12-.33,2.24.08,1.13.08,2.25a11.61,11.61,0,0,0-.21,2.31c.17.74.87,1.32,1.19,2a10,10,0,0,0,1,2,10.66,10.66,0,0,0,1.59,1.63,11.19,11.19,0,0,0,1.84,1.38,11.12,11.12,0,0,0,2.27.43,10.44,10.44,0,0,0,2.23.49c1.14,0,1.14-.45,2.28-.45H21c1.14,0,1.14-.07,2.28-.07s1.14.55,2.28.55,1.14-.66,2.28-.66,1.14.33,2.28.33,1.14-.1,2.28-.1h2.28c1.13,0,1.13-.12,2.27-.12s1.14.21,2.28.21,1.14.47,2.28.47,1.14-.77,2.28-.77,1.14.32,2.28.32,1.14,0,2.28,0,1.14.38,2.28.38,1.14-.29,2.28-.29,1.14-.17,2.28-.17,1.14.09,2.29.09,1.14-.13,2.28-.13H62c1.14,0,1.14,0,2.28,0h2.29c1.14,0,1.14.24,2.28.24s1.14.14,2.28.14,1.14-.27,2.28-.27,1.15.17,2.29.17,1.14-.25,2.29-.25,1.14.31,2.29.31,1.14-.32,2.29-.32a10.79,10.79,0,0,0,2.3.2c.74-.16,1.22-1.07,1.89-1.39s1.55-.31,2.13-.78a9.73,9.73,0,0,0,1.44-1.74c.47-.58,1.25-1,1.58-1.69a11.2,11.2,0,0,0,.39-2.28,10.52,10.52,0,0,0,.66-2.22c0-1.12-.61-1.12-.61-2.23s0-1.12,0-2.24.57-1.12.57-2.23-.32-1.12-.32-2.24-.18-1.11-.18-2.23.23-1.12.23-2.23.24-1.12.24-2.24-.65-1.11-.65-2.23.52-1.12.52-2.24-.48-1.12-.48-2.23.18-1.12.18-2.24-.2-1.12-.2-2.24.16-1.11.16-2.23.08-1.12.08-2.24.33-1.11.33-2.23-.61-1.12-.61-2.24.31-1.11.31-2.23-.3-1.12-.3-2.24.26-1.12.26-2.24.21-1.11.21-2.23-.2-1.12-.2-2.24-.09-1.11-.09-2.23-.08-1.12-.08-2.24.27-1.12.27-2.24-.12-1.12-.12-2.23.09-1.12.09-2.24-.31-1.12-.31-2.24.15-1.12.15-2.24.42-1.11.42-2.23-.56-1.12-.56-2.24.15-1.12.15-2.24.43-1.12.43-2.24-.31-1.11-.31-2.23S93,69,93,67.89s-.25-1.12-.25-2.24.07-1.12.07-2.23-.18-1.12-.18-2.24.28-1.11.28-2.23-.46-1.12-.46-2.24.19-1.12.19-2.24.23-1.11.23-2.23,0-1.12,0-2.24-.28-1.12-.28-2.24.21-1.12.21-2.24-.08-1.12-.08-2.24,0-1.11,0-2.23.14-1.12.14-2.24-.36-1.12-.36-2.24,0-1.12,0-2.24.18-1.12.18-2.24.08-1.12.08-2.24-.44-1.12-.44-2.24.15-1.12.15-2.24.41-1.12.41-2.25-.21-1.12-.21-2.24.3-1.12.3-2.25-.61-1.12-.61-2.24a10.06,10.06,0,0,0,0-2.2,9.75,9.75,0,0,0-.91-2,9.41,9.41,0,0,0-1.17-1.82c-.47-.58-.49-1.62-1.08-2.09a10.87,10.87,0,0,0-2.13-.89,7.41,7.41,0,0,0-4.33-.68c-1.14,0-1.14-.18-2.28-.18S79.15,6.15,78,6.15s-1.14.58-2.28.58-1.14-.46-2.29-.46-1.14,0-2.28,0S70,6.19,68.88,6.19,67.74,6,66.6,6s-1.14.22-2.27.22-1.14.15-2.28.15-1.14,0-2.28,0l-2.28,0c-1.14,0-1.14-.38-2.28-.38H52.93c-1.14,0-1.14.21-2.28.21s-1.14.28-2.28.28-1.14-.15-2.28-.15S45,6.5,43.81,6.5l-2.28,0c-1.15,0-1.15.25-2.29.25S38.1,6.65,37,6.65s-1.14-.13-2.28-.13-1.14-.43-2.29-.43-1.14,0-2.28,0-1.14.51-2.28.51-1.14-.25-2.28-.25-1.15-.07-2.29-.07-1.14.49-2.28.49-1.17-.56-2.31-.45S17.54,6.71,16.4,6.71Z" transform="translate(0 -0.02)" style="fill: #d8493d"/>
          </g>
        </g>
        <g id="夜_市" data-name="夜 市" style="isolation: isolate">
          <g>
            <g style="isolation: isolate">
              <path d="M31.71,47.82a4.34,4.34,0,0,1,1.93,1c.51.45,1.23,1,1.23,1.75,0,1.09-.54,1.09-.54,2.17s.08,1.09.08,2.18.34,1.08.34,2.17-.16,1.09-.16,2.17-.49,1.09-.49,2.18.29,1.09.29,2.17,0,1.09,0,2.18,0,1.09,0,2.18.29,1.09.29,2.18a2.47,2.47,0,0,1-1.26,2,3.55,3.55,0,0,1-2,.75,3.39,3.39,0,0,1-2.26-.58,2.44,2.44,0,0,1-1-2.22c0-1.14,0-1.14,0-2.28s0-1.15,0-2.29.19-1.15.19-2.3-.69-1.14-.69-2.29.65-1.14.65-2.29-.18-1.15-.18-2.3.7-1.44.08-2.41c-.37-.57-.4.79-.77,1.37A3.45,3.45,0,0,1,25.12,57a4.2,4.2,0,0,1-2.48-.35c-.73-.4-.84-1.34-1.17-2.1a2,2,0,0,1,.33-2.18c.61-.95.43-1.07,1-2s.86-.8,1.46-1.75,0-1.35.6-2.3.6-1,1.21-1.91,1.08-.66,1.68-1.61.59-1,1.2-1.92.59-1,1.2-1.92.72-.89,1.33-1.85.26-1.18.87-2.13a3.52,3.52,0,0,1,2.2-1.72,4.13,4.13,0,0,1,2.61.53,3.47,3.47,0,0,1,1.19,2.09,2.77,2.77,0,0,1-.6,2.46c-.6.94-.68.89-1.28,1.83s-.48,1-1.09,2-.5,1-1.1,2-.32,1.17-1.07,2S32,46.73,31.71,47.82ZM76.84,26a2.88,2.88,0,0,1-.48,2,3.07,3.07,0,0,1-2.26,1.51C73,29.55,73,29,71.85,29.1s-1.1.16-2.21.24-1.08.41-2.19.49-1.12-.07-2.23,0-1.14-.41-2.25-.33-1.09.37-2.19.45-1.11.05-2.22.13-1.11.06-2.22.14-1.09.38-2.2.46-1.13-.25-2.24-.17l-2.22.15c-1.11.08-1.1.19-2.21.27s-1.11,0-2.22.13-1.11.1-2.22.18-1.11,0-2.22.12-1.12-.11-2.23,0-1.06.77-2.17.85-1.16-.57-2.27-.49-1.09.27-2.2.35-1.12,0-2.24,0-1.08.46-2.19.54-1.11.12-2.22.21A2.51,2.51,0,0,1,23.1,32c-.48-.63-.24-1.55-.32-2.36a2.55,2.55,0,0,1,.43-1.91A2.09,2.09,0,0,1,25,26.56c1.1-.09,1.13.22,2.23.14s1.05-.81,2.15-.89l2.21-.16c1.1-.08,1.14.48,2.24.4s1.1-.1,2.21-.18l2.21-.17c1.1-.08,1.11.05,2.21,0s1.08-.48,2.18-.56,1.09-.3,2.2-.38,1.32.85,2,0c.52-.68-.22-.54-.75-1.21s-.46-.73-1-1.4a1.66,1.66,0,0,1-.16-2,3.45,3.45,0,0,1,1.37-1.77,3.59,3.59,0,0,1,2.3-.64,3,3,0,0,1,2.27,1.22c.61.84.74.74,1.35,1.58s.46.95,1.08,1.78a2.73,2.73,0,0,1,.31,2.33c1.07.26,1.16-.26,2.25-.34S56.92,24.1,58,24s1.12.27,2.22.19,1.09-.1,2.19-.18,1.08-.25,2.18-.33,1.08-.31,2.18-.39,1.13.31,2.23.23,1.08-.4,2.18-.49,1.11.12,2.21,0a3.19,3.19,0,0,1,2.69.62A3.56,3.56,0,0,1,76.84,26Zm1,40.49a16.64,16.64,0,0,1-1.76,2.21c-.41.43-.5,1.2-.93,1.57s-1.25.3-1.73.61a4.51,4.51,0,0,1-2.42.91c-.4,0-.86.35-1.26.27a3.36,3.36,0,0,1-1.1-.6c-.65-.38-1.06-1.19-1.74-1.6s-1.46-.53-2.13-.95-1.29-.82-2-1.24l-2.19-1.37c-.72-.44-1.61-.64-2.36-1.09s-1.4-1.19-2.15-1.64c-.46.53-1,1.1-1.52,1.61s-.86,1.11-1.33,1.62-1,1-1.41,1.46-.93,1-1.4,1.46a12.27,12.27,0,0,1-1.89,1.51,11.78,11.78,0,0,1-2.2,1c-.71.3-1.23,1.15-1.9,1.23s-1.43-.58-2.11-.75a4.35,4.35,0,0,1-2.2-1.08,6.92,6.92,0,0,1-1.45-2.75c-.23-.6-.78-1.12-.93-1.77a16.83,16.83,0,0,1-.37-2,20.58,20.58,0,0,1-.17-2.08c0-.68.6-1.34.66-2s.13-1.16.23-1.74,0-1.2.16-1.77a11.68,11.68,0,0,1,.8-1.53c.21-.54-.19-1.37.1-1.86A7.34,7.34,0,0,1,41,51.91c.65-.51,1.63-.38,2.4-.59a6.2,6.2,0,0,1,2.78-.11,8.25,8.25,0,0,1,2.8,1.1c.51.28.95.68,1.46,1s1.2.22,1.7.51c1,.57,1.76,1,2.69,1.52,1.16-.73,1.55-.55,1.51-1.92,0-1-.52-.61-1.4-1.13s-.82-.61-1.69-1.12-.83-.6-1.7-1.12-1.34-.93-1.44-1.66a2.47,2.47,0,0,1,.39-2,4.26,4.26,0,0,1,1.75-1.64,2.81,2.81,0,0,1,2.42,0c1,.56.86.71,1.8,1.27s.75.89,1.7,1.45.91.83,2,1c.52-.82,1-1.7,1.42-2.49s1.19-1.41,1.6-2.18a1.17,1.17,0,0,0-.12-1.19,1.88,1.88,0,0,0-1.14-.11c-1.14.09-1.12.31-2.26.39s-1.17-.31-2.31-.23-1.12.41-2.26.49-1.15-.11-2.29,0-1.13.35-2.27.44-1.15,0-2.29.09-1.16-.08-2.3,0a4.56,4.56,0,0,1-1.89-.22c-.61-.18-1.35-.15-1.71-.6s0-1.16-.08-1.75a2.49,2.49,0,0,1,.39-1.74c.57-.95.09-1.24.67-2.19s1.09-.63,1.67-1.58.59-.93,1.18-1.88S47.11,32,48,31.87a4.19,4.19,0,0,1,2.66.31c.94.57.91,1.61,1,2.44a4,4,0,0,1-.41,2.51c1.11.42,1.15-.4,2.34-.48s1.19,0,2.37-.07,1.22.4,2.4.32,1.14-.73,2.33-.81,1.23.56,2.42.48,1.17-.26,2.36-.34,1.16-.44,2.35-.53,2,.67,2.8,1,1.56.54,1.89,1.24a3.24,3.24,0,0,1,0,2.25,5.86,5.86,0,0,1-.8,2.13c-.45.68-1.07,1.25-1.53,1.94s-.47,1.66-.93,2.34-.87,1.39-1.34,2.07-1.4,1-1.87,1.71-.93,1.37-1.42,2S63.86,54,63.37,54.7s-.89,1.41-1.4,2.07S60.56,58,60,58.63c.61.35,1.26,1,1.85,1.32s1.28.55,1.86.89,1.29.54,1.87.89c.82.5,1.6,1,2.37,1.49s1.48,1.18,2.24,1.68a1.47,1.47,0,0,0,.77.24c.18,0,.37-.26.5-.34a15.69,15.69,0,0,0,2.34-2c.65-.77,1.19-1.52,2-1.3a4.22,4.22,0,0,1,2,1.58,4.27,4.27,0,0,1,.49,1.79A2.12,2.12,0,0,1,77.85,66.48ZM51,60.44c-.81-.49-1.78-1-2.62-1.5s-1.93-.54-2.78-1c-.33-.2-.57-.71-1-.57a1.4,1.4,0,0,0-.9.82,13,13,0,0,0-.26,2.09,13.48,13.48,0,0,0-.4,2.18c0,.75-.47,1.52-.39,2.23a7.83,7.83,0,0,0,.66,1.79,1.12,1.12,0,0,0,.66.7,1.43,1.43,0,0,0,1.17-.45c.47-.47.75-1.16,1.23-1.66S47.49,64.3,48,63.8l1.49-1.57C49.94,61.71,50.49,61,51,60.44Z" transform="translate(0 -0.02)" style="fill: #d8493d"/>
            </g>
            <g style="isolation: isolate">
              <path d="M76.57,96A3.84,3.84,0,0,1,76,98c-.38.61-1.08.72-1.89.8-1.12.09-1.1.38-2.22.46s-1.1.33-2.21.41-1.17-.54-2.28-.46-1.08.72-2.2.8-1.13-.12-2.25,0l-2.24.16c-1.12.08-1.13-.06-2.24,0s-1.1.41-2.22.49-1.14-.12-2.25,0-1.15-.31-2.27-.23-1.08.67-2.2.75-1.13-.07-2.25,0-1.11.21-2.23.29-1.15-.22-2.27-.14-1.13-.06-2.25,0-1.12,0-2.24.07-1.14-.09-2.26,0-1.08.55-2.21.63-1.11.23-2.23.31-1.13,0-2.25,0-1.15-.33-2.28-.25-1.12.15-2.24.23c-.81,0-1.73.12-2.2-.53s-.15-1.58-.19-2.35a3.38,3.38,0,0,1,.21-2.13,2.47,2.47,0,0,1,2-1c1.1-.08,1.11.17,2.21.09S27.9,96.12,29,96s1.1-.14,2.2-.22,1.11.1,2.21,0,1.1-.06,2.2-.14,1.07-.45,2.18-.53,1.09-.11,2.2-.19,1.09-.25,2.19-.33,1.14.49,2.25.41,1.39.48,2-.47-.13-.84-.67-1.68-1-.56-1.52-1.4a2.66,2.66,0,0,1-.35-2.38,4.16,4.16,0,0,1,1.63-1.65A3.72,3.72,0,0,1,48,87.23a2.94,2.94,0,0,1,2.45,1.43c.6.92.87.75,1.47,1.68s.23,1.16.83,2.09.53.91,1.52,1.4.89,0,2-.07,1.08-.2,2.16-.28,1.12.31,2.2.23,1.08-.16,2.17-.24,1.1.12,2.19,0,1.09,0,2.18,0,1.1,0,2.18-.09,1-.7,2.14-.78,1.09-.08,2.18-.16c.89-.08,1.43.68,1.89,1.37A4.34,4.34,0,0,1,76.57,96Zm-44,41a3.8,3.8,0,0,1-2.42.62,3.84,3.84,0,0,1-1.92-1.07,2.35,2.35,0,0,1-1.12-1.89c0-1.07-.24-1.07-.24-2.14s.62-1.07.62-2.14-.64-1.07-.64-2.14.2-1.07.2-2.14v-2.14c0-1.07.14-1.07.14-2.14s-.34-1.07-.34-2.14.21-1.07.21-2.14.39-1.08.39-2.15-.59-1.07-.59-2.14A3,3,0,0,1,28,110.87a4.1,4.1,0,0,1,2.24-.87,4.67,4.67,0,0,1,2.31,1,2.35,2.35,0,0,1,1,2.15c0,1.07-.09,1.07-.09,2.13s-.16,1.07-.16,2.14.47,1.07.47,2.14.15,1.07.15,2.14-.12,1.07-.12,2.14-.4,1.07-.4,2.14.06,1.07.06,2.14.54,1.07.54,2.14-.63,1.08-.63,2.15.34,1.07.34,2.15A2.62,2.62,0,0,1,32.56,136.91Zm37.52-1.13a3.94,3.94,0,0,1-1.81.55,5.37,5.37,0,0,1-1.76-.59c-1.22-.47-1.33-.19-2.55-.65s-1.3-.24-2.52-.71-1-1-2.22-1.52c-.94-.36-2-.52-2.22-1.22a3.77,3.77,0,0,1,.12-2.25,4.1,4.1,0,0,1,1.63-2,2.53,2.53,0,0,1,2.46-.07c1,.46,1.18.15,2.21.61s.86,1.69,1.84,1.11.31-.92.31-2-.59-1.07-.59-2.13.14-1.07.14-2.14-.13-1.07-.13-2.13.31-1.07.31-2.14.14-1.07.14-2.14.81-1.54,0-2.27-1.21-.15-2.27-.08-1,.55-2.09.62-1,.22-2.11.29-1.07,0-2.14,0-1.09-.33-2.15-.26-1.56-.55-2.25.27.49,1.29.49,2.47-.63,1.18-.63,2.35.34,1.18.34,2.35,0,1.18,0,2.35-.24,1.18-.24,2.36.19,1.17.19,2.35.07,1.18.07,2.36-.19,1.17-.19,2.35,0,1.18,0,2.36.38,1.18.38,2.36a3,3,0,0,1-1.17,2.5,4.12,4.12,0,0,1-2.48.82c-.77-.08-1.31-.89-1.92-1.38a2.6,2.6,0,0,1-1.29-1.94c0-1.15.51-1.15.51-2.3s-.5-1.15-.5-2.3,0-1.16,0-2.31.23-1.15.23-2.3.35-1.15.35-2.3-.25-1.16-.25-2.31-.32-1.15-.32-2.31.45-1.15.45-2.3-.57-1.16-.57-2.31,1-1.28.2-2.13-.78.28-1.78.34-1-.31-2-.24-1,.15-2,.22-1-.14-2-.06a1.58,1.58,0,0,1-1.66-.87,3.84,3.84,0,0,1-.6-2.09c0-.77-.44-1.63-.06-2.27a2.92,2.92,0,0,1,2.06-1.23c1-.08,1.07.47,2.1.4l2.06-.15c1-.07,1-.18,2-.25s1.07.23,1.77-.53.44-.79.44-1.84-.09-1.06-.09-2.11a2.79,2.79,0,0,1,.72-2.32,4,4,0,0,1,2.32-.59c.82,0,1.35.66,2.05,1.13A2,2,0,0,1,52.51,105c0,.95,0,.95,0,1.89s-.71,1.42,0,2,1.17-.34,2.26-.41,1.11.25,2.21.17l2.18-.15c1.1-.08,1.09-.18,2.18-.26s1.1,0,2.19-.13,1.1-.1,2.19-.18,1.1,0,2.2-.11a3.71,3.71,0,0,1,2.48.79,3.59,3.59,0,0,1,1.72,2.74c0,1.16-.65,1.16-.65,2.33s.19,1.17.19,2.34-.12,1.17-.12,2.33.38,1.17.38,2.34,0,1.17,0,2.34,0,1.17,0,2.34-.58,1.17-.58,2.34,0,1.17,0,2.34.21,1.17.21,2.34a3.64,3.64,0,0,1-.65,1.73C70.73,134.75,70.67,135.44,70.08,135.78Z" transform="translate(0 -0.02)" style="fill: #d8493d"/>
            </g>
          </g>
        </g>
      </g>
    </g>
  </g>
</svg>
