<svg xmlns="http://www.w3.org/2000/svg" viewBox="0 0 110.07 165.28">
  <g id="Calque_2" data-name="Calque 2">
    <g id="Calque_1-2" data-name="Calque 1">
      <g>
        <g id="Groupe_2734" data-name="Groupe 2734">
          <g id="Rectangle_1121" data-name="Rectangle 1121">
            <path d="M80.63,165.26c-1.13-.11-1.11-.35-2.25-.45s-1.11-.35-2.24-.46-1.19.43-2.32.33-1.12-.29-2.26-.4-1.12-.27-2.25-.38-1.18.37-2.32.26-1.11-.32-2.25-.43-1.1-.43-2.23-.54-1.13-.23-2.26-.33-1.19.51-2.32.4-1.09-.67-2.22-.77-1.14-.13-2.27-.23-1.17.31-2.31.21-1.1-.46-2.24-.57-1.14-.05-2.27-.16-1.16.1-2.29,0-1.16.12-2.3,0-1.15,0-2.28-.07-1.09-.63-2.23-.73-1.12-.22-2.26-.32-1.15,0-2.28-.11-1.19.42-2.33.31-1.07-.81-2.2-.91-1.17.27-2.31.17-1.16.11-2.29,0-1.13-.22-2.27-.32-1.16.1-2.29,0-1.1-.62-2.24-.72-1.13-.2-2.27-.31a15.77,15.77,0,0,1-2.19-.47,16.1,16.1,0,0,1-2.24-.37,15.33,15.33,0,0,1-2.2-.73c-.66-.38-1-1.28-1.57-1.75a16.09,16.09,0,0,1-1.82-1.34,16.29,16.29,0,0,1-1.27-1.88c-.44-.62-1.45-.89-1.81-1.57s-.07-1.64-.32-2.36S.45,147,.3,146.21a17.42,17.42,0,0,1-.3-2.3c0-.75.59-1.49.66-2.26.1-1.11,0-1.12.1-2.24s-.07-1.12,0-2.24.36-1.09.47-2.2S.9,133.82,1,132.71s.51-1.08.61-2.19-.11-1.13,0-2.24-.23-1.15-.13-2.26.62-1.06.72-2.18-.46-1.16-.36-2.28.15-1.1.25-2.22.2-1.1.31-2.22.3-1.09.4-2.2.37-1.09.47-2.21-.08-1.12,0-2.24.35-1.09.45-2.2-.22-1.14-.12-2.26,0-1.12.13-2.23.09-1.12.19-2.23.1-1.11.21-2.23,0-1.12.13-2.23.14-1.11.25-2.22-.11-1.13,0-2.25.55-1.07.65-2.18-.1-1.14,0-2.25-.15-1.14,0-2.25.55-1.07.65-2.19,0-1.12.12-2.23-.12-1.14,0-2.25.61-1.07.71-2.18-.36-1.16-.26-2.27.14-1.11.24-2.23-.2-1.14-.1-2.26.57-1.07.68-2.18S6.86,67,7,65.89s.31-1.1.42-2.21.06-1.12.16-2.23.36-1.09.46-2.2S7.89,58.12,8,57s0-1.12.09-2.23.33-1.1.43-2.21,0-1.13.07-2.24.24-1.1.35-2.22S8.71,47,8.81,45.84s.23-1.1.33-2.21.29-1.1.39-2.22-.16-1.13-.06-2.25S9.8,38.07,9.9,37s.14-1.11.24-2.23-.14-1.13,0-2.25.6-1.07.7-2.19-.51-1.17-.41-2.28.21-1.1.31-2.22.44-1.08.55-2.2,0-1.13.11-2.24.05-1.12.16-2.24.49-1.08.59-2.2,0-1.13.14-2.25a17.68,17.68,0,0,1,0-2.3,15.94,15.94,0,0,1,.69-2.19,15.76,15.76,0,0,1,1.16-2A16.4,16.4,0,0,1,15,6.05c.47-.6,1.37-.83,1.92-1.36s.89-1.31,1.51-1.75a16.55,16.55,0,0,1,2.06-1,15.9,15.9,0,0,1,2.21-.57c.71-.26,1.31-.9,2.06-1A15.78,15.78,0,0,1,27.08,0a18,18,0,0,1,2.28.3c1.14.1,1.16-.21,2.3-.1s1.1.43,2.24.53S35,.81,36.17.91l2.27.2c1.14.11,1.15,0,2.29.08s1.1.44,2.24.54,1.19-.53,2.33-.42,1.12.18,2.26.28,1.12.22,2.25.33S51,1.86,52.1,2s1.12.25,2.25.35,1.12.27,2.26.38,1.13.14,2.27.24,1.17-.27,2.3-.17,1.12.31,2.25.42,1.13.16,2.27.27,1.16-.12,2.29,0,1.13.19,2.27.3,1.12.29,2.25.4,1.12.31,2.26.41,1.15-.1,2.29,0,1.11.41,2.24.52,1.13.15,2.27.26,1.14,0,2.28.14,1.15-.07,2.29,0,1.18-.38,2.32-.28,1.13.17,2.27.28,1.14.16,2.28.26,1.12.24,2.26.35a15.25,15.25,0,0,1,2.18.77,16,16,0,0,1,2.23.43,16.76,16.76,0,0,1,1.93,1.2,16.52,16.52,0,0,1,2,1.06A15.79,15.79,0,0,1,105.38,11,16.92,16.92,0,0,1,107,12.68a15.91,15.91,0,0,1,1.07,2.05,17.75,17.75,0,0,1,.57,2.23,14.2,14.2,0,0,1,.48,2.19,14.86,14.86,0,0,1,.48,2.2,16.37,16.37,0,0,1,.44,2.3c-.1,1.12-.35,1.09-.46,2.21s-.12,1.11-.22,2.22-.08,1.11-.19,2.23-.56,1.07-.66,2.18.31,1.15.21,2.26-.4,1.08-.5,2.2.29,1.15.19,2.26-.59,1.06-.7,2.18.64,1.18.53,2.29-.18,1.11-.28,2.22-.57,1.07-.67,2.19.24,1.14.14,2.25-.19,1.11-.3,2.22-.16,1.11-.26,2.22-.25,1.1-.35,2.21-.25,1.1-.35,2.22.26,1.14.16,2.26-.18,1.1-.28,2.22-.12,1.11-.23,2.22.19,1.14.09,2.25-.2,1.11-.3,2.22-.13,1.11-.24,2.23-.11,1.11-.21,2.22,0,1.13-.11,2.24-.51,1.08-.61,2.19.44,1.16.34,2.28-.59,1.07-.7,2.18.3,1.15.2,2.27-.49,1.07-.59,2.19.05,1.13,0,2.24.19,1.14.09,2.25-.49,1.08-.6,2.2.23,1.14.12,2.26-.38,1.08-.48,2.2-.33,1.09-.43,2.21.09,1.13,0,2.24-.26,1.1-.36,2.21,0,1.12-.14,2.23-.13,1.11-.23,2.23.12,1.13,0,2.24-.31,1.1-.41,2.21.21,1.14.11,2.26-.71,1.06-.81,2.17.67,1.19.57,2.3-.6,1.07-.7,2.19.18,1.14.08,2.25-.17,1.11-.27,2.23-.52,1.07-.63,2.19.34,1.15.24,2.27-.36,1.09-.47,2.21-.3,1.09-.4,2.21.21,1.14.11,2.25-.34,1.1-.45,2.22.44,1.16.34,2.28-.42,1.09-.53,2.2-.14,1.12-.24,2.24.18,1.14.08,2.26a15.35,15.35,0,0,1-.47,2.26,15.45,15.45,0,0,1-.44,2.29c-.29.71-1,1.22-1.42,1.88a15,15,0,0,1-1.45,1.74,28.39,28.39,0,0,1-3.19,3.14,14.43,14.43,0,0,1-1.91,1.18c-.67.35-1.19,1.06-1.91,1.32a17.23,17.23,0,0,1-2.22.68,17.91,17.91,0,0,1-2.32,0A16,16,0,0,1,80.63,165.26ZM28.81,6.32a9.94,9.94,0,0,0-4.51.12c-.7.26-1.14,1.08-1.76,1.49A9.64,9.64,0,0,0,20.73,9.2a10.43,10.43,0,0,0-1.51,1.68c-.38.64-.26,1.49-.5,2.21a9.47,9.47,0,0,0-.65,2.1c-.11,1.11-.44,1.08-.54,2.2s-.23,1.1-.33,2.21.51,1.17.41,2.28-.67,1.06-.77,2.17-.13,1.11-.23,2.22.32,1.15.22,2.27-.46,1.08-.56,2.19-.06,1.11-.16,2.23.1,1.13,0,2.24.12,1.14,0,2.25,0,1.13-.06,2.24-.63,1.07-.73,2.18S15.13,43,15,44.08s0,1.13-.1,2.24.42,1.16.32,2.27-.81,1-.91,2.16.27,1.15.17,2.27.12,1.13,0,2.24-.22,1.11-.32,2.22.11,1.13,0,2.25-.62,1.06-.72,2.17-.19,1.11-.3,2.22-.21,1.11-.32,2.22.23,1.14.12,2.26.2,1.14.1,2.25S12.4,71.91,12.3,73s.12,1.13,0,2.24-.33,1.1-.43,2.21.61,1.18.51,2.3-.75,1-.85,2.16.37,1.16.27,2.28-.08,1.11-.19,2.23-.71,1-.81,2.17,0,1.12-.1,2.24.07,1.13,0,2.24-.37,1.09-.47,2.2.37,1.16.26,2.27-.5,1.07-.6,2.19.11,1.13,0,2.24.23,1.15.12,2.26-.61,1.07-.71,2.18.46,1.17.35,2.28-.14,1.11-.25,2.23-.2,1.1-.3,2.22-.3,1.09-.4,2.21-.37,1.09-.47,2.2.08,1.14,0,2.25-.34,1.09-.44,2.21.22,1.14.12,2.26,0,1.12-.13,2.24l-.2,2.23L7.34,131c-.11,1.11,0,1.12-.13,2.24s-.15,1.11-.25,2.22.11,1.14,0,2.26-.55,1.08-.65,2.19.1,1.14,0,2.26a9.55,9.55,0,0,0,.29,2.2,10.51,10.51,0,0,0,.11,2.26,9.81,9.81,0,0,0,1.1,2,9.91,9.91,0,0,0,1.6,1.57c.54.52.84,1.39,1.49,1.78a10.71,10.71,0,0,0,2.25.52,9.68,9.68,0,0,0,2.16.48c1.14.11,1.17-.2,2.3-.1s1.09.58,2.23.68,1.17-.27,2.3-.16,1.12.32,2.26.42,1.14.06,2.27.17,1.11.36,2.25.46,1.15-.11,2.29,0,1.14,0,2.28.1,1.11.33,2.24.43,1.15,0,2.28.08,1.13.24,2.26.35,1.17-.23,2.3-.12,1.13.23,2.26.34,1.12.28,2.25.39,1.16-.16,2.3-.06,1.11.33,2.25.44,1.13.13,2.27.23,1.16-.13,2.29,0,1.1.6,2.23.7,1.2-.5,2.33-.4,1.13.21,2.27.32,1.1.44,2.24.54,1.14,0,2.28.11,1.14.06,2.27.17,1.11.5,2.24.6,1.15,0,2.29.14,1.17-.28,2.31-.17l2.28.21c1.14.1,1.12.29,2.26.39a9.66,9.66,0,0,0,2.2-.45c.75-.1,1.59.22,2.28,0a10.47,10.47,0,0,0,1.83-1.36,10.05,10.05,0,0,0,1.82-1.27c.52-.53,1.28-.94,1.67-1.59a11.37,11.37,0,0,0,.52-2.25,9.73,9.73,0,0,0,.45-2.17c.1-1.11.35-1.09.45-2.2s-.2-1.14-.1-2.26.43-1.08.53-2.19.08-1.12.18-2.23.09-1.11.19-2.22,0-1.13.08-2.24.43-1.08.53-2.19-.53-1.17-.43-2.29.18-1.1.28-2.22.22-1.1.33-2.21-.07-1.13,0-2.24.24-1.1.35-2.22.26-1.09.36-2.21.14-1.11.24-2.22-.27-1.15-.17-2.26.31-1.09.41-2.21.17-1.1.27-2.22-.12-1.13,0-2.25.19-1.1.3-2.22.29-1.09.39-2.2.32-1.1.42-2.21-.11-1.13,0-2.25.41-1.08.51-2.2.16-1.11.26-2.22,0-1.12.14-2.23-.07-1.13,0-2.25-.38-1.15-.28-2.27.17-1.11.27-2.22.16-1.11.26-2.22.24-1.1.34-2.22.51-1.07.61-2.19-.15-1.14,0-2.25.35-1.09.45-2.21-.14-1.13,0-2.25,0-1.12.1-2.24-.11-1.13,0-2.24.27-1.1.37-2.21.47-1.08.57-2.19.21-1.11.31-2.22-.1-1.13,0-2.25-.39-1.15-.29-2.27.36-1.09.46-2.2.12-1.12.22-2.23.09-1.12.19-2.23.56-1.07.67-2.19-.31-1.15-.21-2.26.4-1.09.5-2.21-.29-1.15-.19-2.26.59-1.08.69-2.19-.63-1.18-.53-2.3.18-1.11.28-2.22.58-1.07.68-2.19-.24-1.15-.14-2.26.19-1.11.29-2.23.16-1.11.27-2.22.25-1.11.35-2.23.25-1.1.35-2.22a10.13,10.13,0,0,0-.41-2.25,9.83,9.83,0,0,0-.46-2.18,10.38,10.38,0,0,0-1-2,9.83,9.83,0,0,0-1.64-1.51,9.38,9.38,0,0,0-1.67-1.41,9.45,9.45,0,0,0-4.14-1.4c-1.13-.1-1.14,0-2.28-.1s-1.1-.52-2.23-.62-1.19.44-2.32.33-1.09-.59-2.23-.69-1.17.29-2.31.19-1.1-.49-2.23-.6-1.15.05-2.29,0-1.16.19-2.29.09-1.1-.5-2.23-.6-1.17.22-2.3.11-1.11-.38-2.25-.48-1.11-.34-2.25-.44-1.15.09-2.28,0S64.09,9.21,63,9.11s-1.14,0-2.28-.14-1.13-.13-2.27-.23-1.15.12-2.29,0S55,8.44,53.86,8.34s-1.17.21-2.31.1-1.08-.71-2.21-.81-1.21.67-2.35.56-1.09-.6-2.23-.7-1.16.18-2.29.08-1.13-.17-2.27-.28S39.1,6.77,38,6.66s-1.17.34-2.31.24-1.12-.37-2.25-.48S32.26,6.06,31.12,6,30,6.42,28.81,6.32Z" style="fill: #d8493d"/>
          </g>
        </g>
        <g id="夜_市" data-name="夜 市" style="isolation: isolate">
          <g>
            <g style="isolation: isolate">
              <path d="M40.53,48.89a3.41,3.41,0,0,1,1.63,1,2.24,2.24,0,0,1,.61,1.86c-.1,1.08.27,1.12.17,2.2s-.45,1.05-.55,2.13.12,1.1,0,2.18-.6,1-.7,2.12.44,1.13.34,2.22-.14,1.08-.23,2.16-.67,1-.77,2.12.2,1.11.1,2.19-.2,1.08-.3,2.17a2.37,2.37,0,0,1-1.11,2c-.71.42-1.4,1.08-2.14,1a4.25,4.25,0,0,1-2.29-1.21,3,3,0,0,1-1.09-2.48c.11-1.14.76-1.08.86-2.22s-.62-1.21-.51-2.35.66-1.09.77-2.23-.39-1.18-.29-2.32.52-1.11.63-2.25S35.3,58.1,35.41,57s.76-1.07.23-2.08c-.32-.61.17.58-.25,1.12a3.18,3.18,0,0,1-2.53,1,3.33,3.33,0,0,1-2.13-.72,3,3,0,0,1-1.2-1.78c-.25-.78-.73-1.7-.08-2.54s.91-.72,1.6-1.61.94-.71,1.63-1.6.82-.8,1.51-1.7.28-1.21,1-2.1,1.11-.58,1.8-1.47.54-1,1.23-1.91.61-1,1.3-1.86.54-1,1.24-1.91.87-.76,1.57-1.66a3.32,3.32,0,0,1,2.19-1.53,4.07,4.07,0,0,1,2.54.66c.65.47.67,1.41.86,2.22a3,3,0,0,1-.26,2.7c-.69.88-1.16.51-1.84,1.4s-.52,1-1.2,1.9-.5,1-1.19,1.92a17.19,17.19,0,0,1-1.47,1.71C41.16,48,40.91,47.84,40.53,48.89Zm47-17.69a3.12,3.12,0,0,1-.88,1.95,2.93,2.93,0,0,1-2.44.86c-1.1,0-1.11.35-2.22.33S80.85,34,79.74,34s-1.12.2-2.23.18-1.1-.53-2.21-.56-1.12.53-2.23.51S72,34,70.85,34s-1.1-.59-2.21-.61-1.12.27-2.23.25-1.11-.12-2.22-.15-1.11,0-2.22,0-1.13.46-2.24.44-1.1-.31-2.22-.33-1.11.15-2.22.13-1.1-.68-2.22-.7-1.12.71-2.23.69-1.1-.59-2.21-.61-1.13.47-2.24.45-1.1-.44-2.22-.46-1.12.47-2.23.44-1.12,0-2.23,0-1.12-.05-2.23-.07S36.37,33,35.26,33a1.78,1.78,0,0,1-1.65-1.06,3.58,3.58,0,0,1-.49-2.1c0-.78-.47-1.69,0-2.28a3.12,3.12,0,0,1,2.41-.75c1.1,0,1.1.34,2.2.36s1.11.18,2.21.2,1.12-.5,2.22-.48,1.1.56,2.2.58,1.11-.17,2.22-.15,1.11-.09,2.21-.07,1.11-.16,2.22-.14,1.1.26,2.21.29,1.12-.3,2.23-.28,1.23.85,2,0c.58-.63-.06-.64-.53-1.35s-1-.4-1.42-1.12,0-1.54.44-2.28a3.56,3.56,0,0,1,1.5-1.71,4,4,0,0,1,2.45-.56,3.19,3.19,0,0,1,2,1.68c.53.9.61.85,1.14,1.74s.32,1,.85,1.91a2.65,2.65,0,0,1,.25,2.31c1,.36,1.21-.5,2.31-.48s1.1.2,2.2.22,1.09.2,2.19.22,1.11-.45,2.21-.43,1.09.23,2.2.25,1.09.35,2.19.37,1.1.15,2.2.17,1.12-.59,2.22-.57,1.09.58,2.2.6a2.52,2.52,0,0,1,2.28,1C86.9,29.82,87.49,30.39,87.49,31.2ZM84.73,71.78a24.51,24.51,0,0,1-2.12,1.92,16.53,16.53,0,0,1-1.35,1.09c-.48.34-.8,1-1.3,1.23a5.12,5.12,0,0,1-2.74.31,4.24,4.24,0,0,1-1.28,0c-.39-.11-.51-.74-.82-1-.61-.44-1.56-.45-2.19-.91s-1.21-.94-1.85-1.41-.88-1.37-1.51-1.85-1.54-.79-2.24-1.31-1.31-1.1-2-1.62-1.46-1-2.17-1.51c-.51.48-.76,1.34-1.27,1.81s-1.23.74-1.74,1.2-.9,1-1.41,1.47-1.45.39-2,.82-.89,1.59-1.6,2-1.69.2-2.47.45-1.37.85-2,.87a6.26,6.26,0,0,1-2.09-.72,5,5,0,0,1-2.38-1.13,7.53,7.53,0,0,1-1.41-3,13.86,13.86,0,0,1-.38-2c-.08-.64.28-1.33.27-2a20,20,0,0,1,.27-2c.06-.68.27-1.31.39-2s-.51-1.34-.35-1.91.61-1.07.8-1.64a11.86,11.86,0,0,1,1-1.46,10.28,10.28,0,0,1,1-1.37c.56-.84.81-1.83,1.5-2.27s1.58-.24,2.37-.37a6,6,0,0,1,2.76,0,8.24,8.24,0,0,1,2.75,1.27c.48.34,1.07.51,1.54.84s.81.86,1.28,1.19c.94.65,1.84,1,2.72,1.69,1.22-.62,1.54-.51,1.62-1.88.06-1-.38-.77-1.2-1.37s-1.16-.12-2-.72-.47-1.07-1.29-1.68S58.45,51.75,58.42,51a2.84,2.84,0,0,1,.51-2.09A4.4,4.4,0,0,1,61,47.67a2.6,2.6,0,0,1,2.31.27c.89.64.75.84,1.64,1.48s.75.85,1.64,1.49a3.55,3.55,0,0,0,2,.81c.6-.76,1.07-1.31,1.59-2.06s1.16-1.39,1.64-2.13c.23-.34-.1-.45-.31-.65s-.27-.43-.68-.42c-1.14,0-1.14-.36-2.28-.38s-1.14-.15-2.28-.17-1.16.59-2.3.57-1.13-.59-2.28-.61-1.14,0-2.29-.07-1.15.4-2.3.38-1.14-.39-2.29-.4A4.34,4.34,0,0,1,53,45.51a2.85,2.85,0,0,1-1.45-.89A3.09,3.09,0,0,1,50.8,43a3.78,3.78,0,0,1,.62-2.09c.66-.89,1.09-.58,1.75-1.47s.76-.82,1.42-1.71.58-1,1.25-1.84,1.21-1.68,2.11-1.72,1.51.84,2.2,1.35c.88.66,1.54,1.12,1.5,2a3.6,3.6,0,0,1-.88,2.22c1.07.51,1.08.11,2.26.14s1.19-.19,2.38-.16,1.17.55,2.36.57,1.19.12,2.37.15,1.19.14,2.38.17,1.2-.3,2.39-.28,1.19-.27,2.38-.24A5.6,5.6,0,0,1,80,41.29c.78.44,1.36.77,1.62,1.49A3,3,0,0,1,81.47,45c-.2.66,0,1.68-.52,2.4s-1.53.88-2,1.52-.66,1.58-1.18,2.21-1,1.29-1.56,1.92-1.52.87-2,1.5-1,1.33-1.53,2-1,1.36-1.52,2-1.31,1-1.88,1.66-.76,1.45-1.33,2c.57.4.86,1,1.41,1.43s1.25.62,1.8,1,1.31.54,1.86.94c.77.57,1.21,1.54,1.93,2.09s1.84.72,2.54,1.28c.19.14.16.19.35.16s.29,0,.42,0a14.75,14.75,0,0,0,2.49-1.7A1.68,1.68,0,0,1,82.74,67a3.25,3.25,0,0,1,1.85,1.32,3.77,3.77,0,0,1,.29,1.73C84.92,70.67,85.15,71.25,84.73,71.78ZM58,63.19c-.76-.56-1.45-1.17-2.24-1.73s-1.6-1.11-2.4-1.67c-.31-.23-.64.06-1.12.16s-.86,0-1,.27a12.24,12.24,0,0,0-.54,2c-.21.72-.86,1.35-.95,2.1s.42,1.51.43,2.22a8.88,8.88,0,0,0,.16,1.78c.09.34-.07.93.21,1s.78-.28,1.22-.61,1.11-.79,1.63-1.24,1-.92,1.53-1.38.76-1.29,1.3-1.78S57.5,63.68,58,63.19Z" style="fill: #d8493d"/>
            </g>
            <g style="isolation: isolate">
              <path d="M80.7,100.85c-.07.73-.69,1.25-1.13,1.82a1.84,1.84,0,0,1-1.74.65c-1.12,0-1.12.09-2.24.06s-1.13.45-2.25.43-1.12-.09-2.24-.11-1.11-.32-2.23-.34-1.12-.23-2.24-.25-1.13.25-2.25.23-1.13.1-2.25.08-1.11-.33-2.24-.35-1.13.38-2.25.36-1.12-.34-2.24-.36-1.13.33-2.25.31-1.12-.28-2.24-.3-1.12-.26-2.24-.29-1.14.5-2.26.48-1.12,0-2.25-.06-1.12-.09-2.24-.11-1.13.11-2.25.09-1.11-.45-2.24-.47-1.12-.06-2.25-.09-1.12-.16-2.24-.19-1.14.65-2.27.63-1.11-.71-2.24-.74a1.6,1.6,0,0,1-1.61-.89,3.37,3.37,0,0,1-.45-2c0-.77-.16-1.54.3-2.14s1.22-.57,2.08-.57c1.1,0,1.11-.56,2.21-.53s1.09.67,2.2.69,1.1,0,2.2,0l2.21,0c1.1,0,1.1,0,2.2,0S40.87,97,42,97s1.12-.65,2.22-.63,1.1.17,2.21.19,1.1.24,2.2.26S50.38,97.92,51,97s-.34-1.21-.81-2.1-.88-.67-1.35-1.55a2.58,2.58,0,0,1-.3-2.33,4.26,4.26,0,0,1,1.74-1.59A4.32,4.32,0,0,1,53,88.88c.95.17,1.45,1.27,2,2.39S56,92,56.55,93s.56,1,1.07,1.93-.31,1.69.63,2.27,1.19-.39,2.28-.37,1.08.41,2.17.44,1.1-.37,2.19-.35,1.08.51,2.16.53,1.09.12,2.18.14,1.1-.17,2.19-.15,1.09-.07,2.18,0S74.7,97,75.8,97s1.08.4,2.17.41a2.34,2.34,0,0,1,2.17,1A4.88,4.88,0,0,1,80.7,100.85ZM33,137.73a3.8,3.8,0,0,1-2.49,0,3.5,3.5,0,0,1-1.77-1.07,2,2,0,0,1-.7-1.85c.1-1.07-.37-1.11-.27-2.17s.16-1.06.26-2.13.39-1,.49-2.1.3-1,.4-2.11-.18-1.09-.08-2.16,0-1.07.08-2.14.39-1,.49-2.1-.3-1.11-.2-2.18.41-1,.51-2.1-.26-1.1-.16-2.17a2.59,2.59,0,0,1,1.37-2,3.21,3.21,0,0,1,2.12-.27c.81.08,1.73-.08,2.39.45a2.77,2.77,0,0,1,1,2.41c-.1,1.06-.16,1.06-.26,2.12s0,1.08-.06,2.14-.52,1-.62,2.09-.14,1.06-.24,2.13-.24,1-.34,2.11.57,1.13.47,2.2-.78,1-.88,2.07,0,1.07-.13,2.14-.18,1.06-.27,2.13.36,1.11.26,2.18A2.84,2.84,0,0,1,33,137.73Zm37.45,2.32c-.58.26-1.27,0-1.9-.05a4.74,4.74,0,0,1-1.65-.6c-1.17-.57-1.22-.48-2.39-1.06s-1.38-.15-2.55-.73-1.15-.64-2.32-1.22a2.72,2.72,0,0,1-1.42-1.93,2.91,2.91,0,0,1,.3-1.91A3.46,3.46,0,0,1,60,130.66a2.36,2.36,0,0,1,2.38-.08c1,.56.84.82,1.83,1.37s1,1.22,2,.74.31-.88.41-1.94-.26-1.1-.16-2.16.35-1,.45-2.1.34-1,.43-2.1-.42-1.12-.32-2.18.11-1.06.21-2.13,1-1.19.3-2-.94.16-2,.13-1.06-.45-2.12-.47-1.06-.07-2.13-.1-1.06-.17-2.12-.2-1.08.65-2.15.62-1.59-1.39-2.35-.65-.14,1.38-.25,2.55-.18,1.17-.29,2.34.35,1.21.25,2.39-.47,1.13-.58,2.3.47,1.23.36,2.4-.76,1.11-.86,2.28,0,1.18-.15,2.36L53,136.38c-.1,1.18-.05,1.18-.16,2.36s-.2,1.16-.31,2.34-.07,2.15-.84,2.57a4.11,4.11,0,0,1-2.6.29,4.2,4.2,0,0,1-1.95-1.26c-.57-.54-.53-1.25-.45-2.14.1-1.15.22-1.14.33-2.28s-.36-1.19-.25-2.34-.11-1.17,0-2.31.23-1.14.33-2.28-.08-1.17,0-2.32.69-1.09.79-2.24-.4-1.19-.29-2.34,0-1.16.15-2.3.63-1.11.74-2.26.52-1.24-.18-2.16-.79-.31-1.79-.34-1,.37-2,.34-1-.51-2-.53-1-.12-2-.14c-.82,0-1.29-.07-1.65-.76a5.27,5.27,0,0,1-.2-4.44,2.67,2.67,0,0,1,2.17-.67c1,0,1-.25,2.07-.23s1,.21,2.06.23,1,.12,2.06.13,1.32.71,2.08,0-.27-1.09-.17-2.14.44-1,.54-2.06a2.74,2.74,0,0,1,1-2.21c.67-.4,1.5-.1,2.31,0s1.74-.11,2.38.42a2.8,2.8,0,0,1,.9,2.41c-.09,1-.65.89-.74,1.84s-.54,1.29.14,1.94,1.12.14,2.21.16,1.1,0,2.19,0,1.11-.45,2.2-.43,1.09.3,2.19.33,1.1-.15,2.2-.13,1.08.68,2.18.7,1.12-.72,2.22-.69a4.32,4.32,0,0,1,2.45,1.42,3.6,3.6,0,0,1,1.3,3c-.1,1.16-.52,1.13-.63,2.29s.38,1.21.27,2.37-.09,1.16-.19,2.33-.13,1.16-.24,2.32-.52,1.13-.63,2.29-.3,1.15-.4,2.31-.23,1.16-.34,2.32.66,1.24.56,2.4-.39,1.14-.5,2.31a4.16,4.16,0,0,1-.84,1.74C71.32,139,71.11,139.76,70.49,140.05Z" style="fill: #d8493d"/>
            </g>
          </g>
        </g>
      </g>
    </g>
  </g>
</svg>
