<svg xmlns="http://www.w3.org/2000/svg" viewBox="0 0 98.94 160.3">
  <g id="Calque_2" data-name="Calque 2">
    <g id="Calque_1-2" data-name="Calque 1">
      <g>
        <g id="Groupe_2731" data-name="Groupe 2731">
          <g id="Rectangle_1121" data-name="Rectangle 1121">
            <path d="M82.55,159.86c-1.14,0-1.14.44-2.28.44s-1.14-.64-2.28-.64-1.14-.12-2.28-.12-1.14.32-2.28.32-1.14-.19-2.28-.19-1.14.21-2.28.21-1.14-.08-2.28-.08-1.14.34-2.28.34-1.14-.07-2.27-.07-1.14-.22-2.28-.22-1.14-.17-2.28-.17-1.14-.12-2.28-.12-1.14.24-2.28.24-1.14.36-2.28.36-1.14.09-2.28.09-1.14-.63-2.28-.63-1.14-.05-2.29-.05-1.14.12-2.28.12-1.14.15-2.28.15-1.14,0-2.28,0-1.14.27-2.29.27-1.14-.13-2.28-.13-1.14.18-2.28.18-1.14-.08-2.28-.08-1.14-.06-2.29-.06-1.14-.19-2.28-.19-1.15-.23-2.29-.23-1.14.41-2.29.41-1.14-.46-2.29-.46a17.13,17.13,0,0,1-2.26.05,18.21,18.21,0,0,1-2.34,0,16.28,16.28,0,0,1-2.14-.93,14.53,14.53,0,0,1-1.91-1.29A14.45,14.45,0,0,1,6,155.94a15.74,15.74,0,0,1-1.79-1.45c-.5-.57-.55-1.47-1-2.11A16.66,16.66,0,0,1,2,150.5a16.92,16.92,0,0,1-1-2.07,17.31,17.31,0,0,1-.07-2.29,15,15,0,0,1-.15-2.23c0-1.12-.56-1.12-.56-2.23s.32-1.12.32-2.24S.3,138.32.3,137.21s.24-1.12.24-2.24-.09-1.11-.09-2.23-.32-1.12-.32-2.23,0-1.12,0-2.24,0-1.11,0-2.23,0-1.12,0-2.24.08-1.12.08-2.23S0,120.45,0,119.33s.29-1.12.29-2.24S.18,116,.18,114.86s.39-1.12.39-2.24.19-1.11.19-2.23-.35-1.12-.35-2.24-.2-1.11-.2-2.23.53-1.12.53-2.24-.09-1.12-.09-2.24.08-1.11.08-2.23S.78,98.09.78,97s-.6-1.11-.6-2.23.37-1.12.37-2.24S.14,91.38.14,90.26.57,89.14.57,88,.4,86.91.4,85.79.35,84.67.35,83.55s.06-1.12.06-2.24S0,80.2,0,79.08.25,78,.25,76.84.18,75.72.18,74.6s.51-1.12.51-2.24S.5,71.25.5,70.13.28,69,.28,67.89s.3-1.12.3-2.24S.35,64.53.35,63.42s0-1.12,0-2.24S.49,60.07.49,59s.06-1.12.06-2.24S.47,55.59.47,54.47,0,53.36,0,52.24s.1-1.12.1-2.24.45-1.12.45-2.24.12-1.12.12-2.24S0,44.4,0,43.28s.59-1.12.59-2.23S.7,39.93.7,38.8.14,37.69.14,36.57s.49-1.12.49-2.24S.17,33.21.17,32.08.53,31,.53,29.85.34,28.73.34,27.61.07,26.49.07,25.37s.54-1.13.54-2.25S.48,22,.48,20.88.29,19.76.29,18.63.05,17.51.05,16.39a17.07,17.07,0,0,1,.6-2.26,16,16,0,0,1,.44-2.23,15,15,0,0,1,.84-2.11A14,14,0,0,1,3.25,8a15.53,15.53,0,0,1,1.07-2A17.53,17.53,0,0,1,6.13,4.56c.58-.5.84-1.41,1.48-1.83a16.66,16.66,0,0,1,2-1.18A15,15,0,0,1,11.88,1,14.33,14.33,0,0,1,14.06.22a16.26,16.26,0,0,1,2.32,0c1.14,0,1.14.33,2.28.33S19.8.08,20.94.08s1.14.07,2.28.07,1.14.48,2.28.48S26.64.42,27.78.42,28.92,0,30.06,0s1.14.67,2.28.67S33.48.49,34.62.49,35.76.06,36.9.06s1.14,0,2.27,0h2.29c1.14,0,1.14.36,2.28.36S44.88.59,46,.59,47.15.16,48.29.16,49.44.08,50.58.08s1.14.47,2.28.47S54,.34,55.14.34s1.14,0,2.28,0,1.14,0,2.28,0S60.85.6,62,.6,63.13,0,64.27,0s1.14.64,2.28.64S67.69.58,68.83.58,70,0,71.12,0s1.14.12,2.28.12S74.54.6,75.69.6,76.83.73,78,.73,79.12.24,80.26.24s1.15.23,2.29.23a15.11,15.11,0,0,1,2.24.32A14.87,14.87,0,0,1,87,1.1a13.81,13.81,0,0,1,2.11.83,17.11,17.11,0,0,1,2.18.8A15.74,15.74,0,0,1,93,4.33a16.32,16.32,0,0,1,1.62,1.6,18,18,0,0,1,1.59,1.68A15.82,15.82,0,0,1,97,9.81c.32.68,1.07,1.23,1.29,2a17.54,17.54,0,0,1,.22,2.32,17.7,17.7,0,0,1-.06,2.29c0,1.12.18,1.12.18,2.23s-.1,1.12-.1,2.24.22,1.12.22,2.23.17,1.12.17,2.24,0,1.11,0,2.23-.3,1.12-.3,2.23-.22,1.12-.22,2.24.56,1.11.56,2.23-.67,1.12-.67,2.24.75,1.11.75,2.23S98.6,39.85,98.6,41s0,1.12,0,2.23.1,1.12.1,2.24-.4,1.12-.4,2.23-.16,1.12-.16,2.24.61,1.12.61,2.23v2.24c0,1.12.13,1.12.13,2.24s-.46,1.12-.46,2.23,0,1.12,0,2.24.3,1.12.3,2.24-.42,1.11-.42,2.23.32,1.12.32,2.24-.33,1.12-.33,2.24,0,1.11,0,2.23.57,1.12.57,2.24.06,1.12.06,2.24-.26,1.12-.26,2.23-.36,1.12-.36,2.24.37,1.12.37,2.24V85.7c0,1.12-.29,1.12-.29,2.23s-.17,1.12-.17,2.24.48,1.12.48,2.24-.14,1.12-.14,2.24.24,1.11.24,2.23,0,1.12,0,2.24-.29,1.11-.29,2.23.22,1.12.22,2.24-.19,1.12-.19,2.24.31,1.11.31,2.23,0,1.12,0,2.24.07,1.12.07,2.24-.26,1.12-.26,2.23-.3,1.12-.3,2.24.58,1.12.58,2.24-.18,1.12-.18,2.24.15,1.12.15,2.24-.06,1.12-.06,2.24-.48,1.12-.48,2.24-.07,1.12-.07,2.24,0,1.12,0,2.24.21,1.12.21,2.24-.3,1.12-.3,2.24.17,1.13.17,2.25.08,1.12.08,2.24.36,1.13.36,2.25a15.76,15.76,0,0,1-.47,2.27,14.73,14.73,0,0,1-.59,2.19,16.72,16.72,0,0,1-.38,2.3,15.87,15.87,0,0,1-1.44,1.83,16.49,16.49,0,0,1-1,2.11c-.5.57-1.49.66-2.07,1.16s-.85,1.38-1.49,1.8a16.65,16.65,0,0,1-2,1.1,16.22,16.22,0,0,1-2.14.92,17.58,17.58,0,0,1-2.32.18A17.18,17.18,0,0,1,82.55,159.86ZM16.38,6.33A9.71,9.71,0,0,0,14.24,7c-.74.17-1.64-.19-2.31.13a11.29,11.29,0,0,0-2,1.13,10.65,10.65,0,0,0-1.39,1.85,9.91,9.91,0,0,0-1.37,1.81,10.23,10.23,0,0,0-.56,2.21,10.35,10.35,0,0,0-.33,2.24c0,1.12.34,1.12.34,2.23s-.07,1.12-.07,2.24S6.32,22,6.32,23.09s-.17,1.12-.17,2.24S6,26.44,6,27.56s.24,1.12.24,2.23.36,1.12.36,2.24.09,1.11.09,2.23-.63,1.12-.63,2.24,0,1.11,0,2.23.13,1.12.13,2.24.14,1.12.14,2.23,0,1.12,0,2.24.27,1.12.27,2.23-.13,1.12-.13,2.24.18,1.12.18,2.23-.08,1.12-.08,2.24-.06,1.12-.06,2.24-.19,1.12-.19,2.23S6.09,60,6.09,61.09s.41,1.12.41,2.24-.45,1.11-.45,2.23.2,1.12.2,2.24.48,1.12.48,2.24-.12,1.11-.12,2.23-.21,1.12-.21,2.24-.09,1.12-.09,2.24.24,1.12.24,2.23-.5,1.12-.5,2.24.2,1.12.2,2.24.17,1.12.17,2.24S6,86.82,6,87.93s0,1.12,0,2.24.56,1.12.56,2.24-.31,1.12-.31,2.24.23,1.11.23,2.23S6.23,98,6.23,99.12s.09,1.11.09,2.23.32,1.12.32,2.24,0,1.12,0,2.24,0,1.11,0,2.23,0,1.12,0,2.24-.08,1.12-.08,2.24.18,1.12.18,2.23-.29,1.12-.29,2.24.13,1.12.13,2.24-.39,1.12-.39,2.24-.2,1.12-.2,2.24.35,1.12.35,2.24.21,1.12.21,2.24S6,129.33,6,130.45s.09,1.12.09,2.24S6,133.81,6,134.93s0,1.12,0,2.24.6,1.13.6,2.25-.37,1.12-.37,2.24.41,1.13.41,2.25a10.47,10.47,0,0,0-.18,2.27,9.87,9.87,0,0,0,.91,2.08,10,10,0,0,0,1.23,1.86,10.35,10.35,0,0,0,1.54,1.63,10.84,10.84,0,0,0,2.07.85,9.75,9.75,0,0,0,2,.93,9.87,9.87,0,0,0,2.19.18c1.14,0,1.14.51,2.28.51s1.14-.19,2.28-.19,1.14-.23,2.28-.23,1.14.31,2.28.31,1.14-.23,2.28-.23h2.28c1.14,0,1.14.13,2.28.13s1.14.06,2.28.06,1.14-.08,2.28-.08,1.14-.43,2.27-.43,1.15.1,2.29.1,1.14.45,2.28.45,1.14.12,2.27.12,1.14-.68,2.28-.68,1.15.59,2.29.59,1.14.08,2.28.08,1.14-.56,2.28-.56,1.14.49,2.28.49,1.14-.47,2.28-.47,1.15.37,2.29.37,1.14-.19,2.28-.19,1.14-.28,2.28-.28,1.14.54,2.28.54S70,154,71.12,154s1.14-.19,2.28-.19,1.14-.25,2.29-.25,1.14.45,2.28.45,1.15,0,2.29,0,1.15,0,2.29,0a10.51,10.51,0,0,0,2.31,0,10.77,10.77,0,0,0,2-1.08,10.55,10.55,0,0,0,2.1-1c.58-.46.72-1.41,1.19-2a9.79,9.79,0,0,0,1.09-1.89,9.2,9.2,0,0,0,1-2,9.9,9.9,0,0,0-.08-2.23c0-1.12.12-1.12.12-2.23s.34-1.12.34-2.24-.43-1.12-.43-2.23.07-1.12.07-2.24.47-1.11.47-2.23-.21-1.12-.21-2.23-.4-1.12-.4-2.24.66-1.11.66-2.23-.18-1.12-.18-2.24-.43-1.12-.43-2.23,0-1.12,0-2.24v-2.24c0-1.11.37-1.11.37-2.23s.13-1.12.13-2.24-.43-1.11-.43-2.23-.08-1.12-.08-2.24.47-1.11.47-2.23-.2-1.12-.2-2.24,0-1.12,0-2.24,0-1.11,0-2.23.23-1.12.23-2.24-.61-1.11-.61-2.23.65-1.12.65-2.24-.07-1.12-.07-2.24S92.2,89.14,92.2,88s.12-1.12.12-2.24.44-1.12.44-2.24.13-1.12.13-2.24-.49-1.11-.49-2.23.24-1.12.24-2.24.15-1.12.15-2.24-.17-1.12-.17-2.24,0-1.11,0-2.23-.35-1.12-.35-2.24.28-1.12.28-2.24,0-1.12,0-2.23-.27-1.12-.27-2.24.4-1.11.4-2.23-.52-1.12-.52-2.24.28-1.12.28-2.24.22-1.11.22-2.23-.18-1.12-.18-2.24.1-1.12.1-2.24-.22-1.12-.22-2.24-.16-1.12-.16-2.24,0-1.12,0-2.23.29-1.12.29-2.25.22-1.11.22-2.23-.56-1.12-.56-2.24.68-1.12.68-2.25-.76-1.11-.76-2.23.35-1.12.35-2.24,0-1.12,0-2.24-.09-1.13-.09-2.25.39-1.12.39-2.24.16-1.12.16-2.25-.61-1.12-.61-2.24a9.78,9.78,0,0,0-.24-2.18,9.6,9.6,0,0,0-.84-2c-.33-.67-.33-1.53-.79-2.11a11.07,11.07,0,0,0-1.58-1.63,10.07,10.07,0,0,0-2.05-.94,10.3,10.3,0,0,0-2-1.13,10.33,10.33,0,0,0-2.28.06c-1.14,0-1.14-.33-2.28-.33s-1.14,0-2.28,0-1.14.57-2.28.57-1.14.06-2.28.06-1.14-.27-2.28-.27S70,6.09,68.87,6.09s-1.14.37-2.28.37H64.31c-1.14,0-1.14-.28-2.27-.28S60.9,6,59.76,6s-1.14.48-2.28.48-1.14-.15-2.28-.15-1.14.25-2.28.25-1.14,0-2.28,0-1.14-.29-2.28-.29-1.14.22-2.28.22-1.14-.19-2.29-.19-1.14.31-2.28.31-1.14,0-2.28,0S38.09,6.7,37,6.7s-1.14-.26-2.29-.26-1.14-.31-2.28-.31-1.14.59-2.28.59S29,6.54,27.82,6.54s-1.14.15-2.29.15-1.14-.06-2.28-.06S22.1,6.14,21,6.14s-1.14,0-2.28-.07S17.53,6.33,16.38,6.33Z" transform="translate(-0.01)" style="fill: #d8493d"/>
          </g>
        </g>
        <g id="氣_功" data-name="氣 功" style="isolation: isolate">
          <g>
            <g style="isolation: isolate">
              <path d="M77.2,61.07c-.19.79-.39,1.58-.59,2.39s-.53,1.54-.74,2.34-.7,1.39-.92,2.06-.23,1.54-.48,2.19a6.09,6.09,0,0,1-1.36,2.37,2.89,2.89,0,0,1-2,.66,3.21,3.21,0,0,1-2-.67,6.09,6.09,0,0,1-1.78-2c-.35-.72-.71-1.47-1-2.23s-.51-1.54-.78-2.32-.19-1.62-.42-2.42c-.19-.64-.69-1.21-.87-1.88s.19-1.44,0-2.12-1-1.16-1.13-1.84-.29-1.33-.43-2-.22-1.62-.36-2.43-.16-1.62-.28-2.43-.09-1.62-.19-2.44-.49-1.66-.6-2.53.19-1.75.09-2.62-.12-1.93-.21-2.8c-1-.33-1.15.2-2.21.28s-1,.21-2.11.29-1.06.15-2.12.23-1.06.18-2.12.26-1.07,0-2.13.13-1.07,0-2.13.12-1,.29-2.12.38-1.36-1-2.31-.5A3.07,3.07,0,0,1,45.27,44c0,.83-.83,1.45-.09,1.82,1,.5,1.08-.69,2.13-1s1-.31,2.11-.6,1-.39,2.09-.67A5.81,5.81,0,0,1,54,44a3.31,3.31,0,0,1,1.75,1.09,2.48,2.48,0,0,1,.77,1.41c.1.59-.17,1-.61,1.81-.8,1.43-1.92,1.54-1.07,2.94s1.42.2,3,.08c.85-.08,1.76-.25,2.23.34a4.45,4.45,0,0,1,.9,2.1c.05.69-.72,1.21-1.11,1.8s-.74,1.36-1.59,1.44c-1.08.09-1.12-.4-2.2-.31s-1.09,0-2.17.13-1.08.12-2.16.2-1.07.32-2.15.4-1.06.34-2.15.43-1.38-.84-2.07,0-.3,1.13,0,2.31c.61-.24,1-.67,1.48-.87s1-.4,1.46-.61a4.59,4.59,0,0,1,2.33.12,3.56,3.56,0,0,1,2.2,1c.86.81.93.73,1.81,1.54s1.08.58,2,1.38.44,1.39,1.6,1.67c.65.15.22-.54.68-1a2.74,2.74,0,0,1,2.41-.68,3.36,3.36,0,0,1,2,.83,3.82,3.82,0,0,1,1.38,1.9,3,3,0,0,1-1.12,2.34c-.71.76-.86.61-1.56,1.37s-.7.77-1.4,1.54a2.09,2.09,0,0,1-1.07.6c-.43.15-.77.55-1.22.51a4.44,4.44,0,0,1-2.43-1.54c-.88-.81-1.27-.39-2.15-1.19s-.94-.74-1.83-1.54S51,66.77,50.14,66c-.21-.2-.24-.29-.56-.31a2.07,2.07,0,0,0-.8.1c-.49.16-1.07.23-1.68.45a18.58,18.58,0,0,0-2,.56,12.12,12.12,0,0,0,0,3c0,1-.09,1.8-.72,2.29a3.31,3.31,0,0,1-2.13.62,3.45,3.45,0,0,1-2.13-.76,2.69,2.69,0,0,1-1.33-2.15c0-1.15.51-1.15.51-2.3s-.35-1.15-.35-2.3.19-1.15.19-2.31.08-1.15.08-2.31.74-1.61-.08-2.42-1.21.14-2.3.22-1.1-.14-2.19-.06-1.06.38-2.15.46-1.08.19-2.17.27-1.12-.34-2.21-.26-1.06.44-2.15.53a2.38,2.38,0,0,1-2.09-.51,4.11,4.11,0,0,1-.5-2.06,3,3,0,0,1,.62-2c.38-.63.89-.77,1.75-.85,1.1-.09,1.09-.29,2.19-.38l2.22-.19c1.1-.08,1.13.21,2.23.12s1.11-.07,2.22-.15,1.09-.31,2.2-.4,1.46.49,2.22-.33.6-1.24-.21-2-.76-.09-1.7.16-.89.42-1.82.66-.86.53-1.8.77c-.49.12-1.05.09-1.58.19a4.17,4.17,0,0,1-1.58-.08c-.41-.08-.66-.53-1-.69s-.94-.09-1.23-.5c-1-1.34-.7-1.54-1.68-2.88-.45-.61-1-1.29-.8-1.94s1.2-.82,1.77-1.26,1.19-1.18,2-1.2a2.77,2.77,0,0,1,2.22,1.29c.5.68.38.77.88,1.46s.36.79.87,1.48a1.9,1.9,0,0,0,1,.47c.32.06.64-.22.93-.31.91-.24,1,.09,1.92-.16s1,0,1.43-.89A4.8,4.8,0,0,0,39.34,44c0-.81,0-1.79.5-2.24-1.07-.19-1.17.11-2.24.19s-1.06.39-2.14.47-1.11-.29-2.19-.22-1.07.25-2.15.33-1.07.17-2.15.25-1.08.19-2.16.27l-2.16.17a2.38,2.38,0,0,1-2.17-.56c-.45-.59-.06-1.49-.14-2.18a2.51,2.51,0,0,1,.17-1.85,2.3,2.3,0,0,1,1.89-1.1c1.11-.09,1.13.14,2.24.06s1.1-.18,2.21-.26,1.08-.5,2.19-.58,1.12,0,2.23-.07,1.13.09,2.24,0,1.1-.25,2.21-.33,1.1-.29,2.21-.37,1.13.18,2.24.1,1.14.3,2.26.22,1.07-.65,2.18-.73,1.14.29,2.25.21,1.09-.33,2.2-.42,1.13,0,2.24,0,1.1-.26,2.21-.34,1.11-.2,2.22-.29,1.15.43,2.27.34,1.12,0,2.24-.08c.79,0,1.52-.62,2.11-.52a4.37,4.37,0,0,1,2.76,2.82,6.58,6.58,0,0,1,.25,1.88c0,.86,0,1.72.09,2.54s.57,1.68.65,2.49,0,1.73.12,2.54,0,1.49.13,2.21.29,1.45.4,2.17,0,1.5.17,2.21c.17.94.23,1.88.42,2.77s.87,1.74,1.08,2.61.25,1.68.49,2.48.48,1.4.77,2.18c.21-.65-.06-1.18.13-1.92s.72-1.24.85-1.73A2.23,2.23,0,0,1,73.84,58a2.85,2.85,0,0,1,1.9-.24c.57.2.91.81,1.22,1.3A2.53,2.53,0,0,1,77.2,61.07Zm-41.38,0a3.76,3.76,0,0,1,.78,2,2.39,2.39,0,0,1-1,2c-.81.71-1,.48-1.82,1.19s-.62.91-1.43,1.63-.64.89-1.45,1.6-.86.65-1.67,1.37-.76.76-1.57,1.47a3.2,3.2,0,0,1-2.46,1,4,4,0,0,1-2.13-1.14,3.9,3.9,0,0,1-.88-2.31,2.9,2.9,0,0,1,1.3-2.17c.81-.71.58-1,1.39-1.67s1.16-.31,2-1,.35-1.23,1.16-1.94l1.6-1.44c.81-.72.86-.66,1.67-1.37a3,3,0,0,1,2.58-.66A3.73,3.73,0,0,1,35.82,61.06ZM75.55,21.7a3.55,3.55,0,0,1-.47,2.13A2.42,2.42,0,0,1,73,24.9c-1.1.08-1.12-.24-2.23-.16s-1.08.35-2.19.43-1.09.32-2.2.4-1.11,0-2.22.08-1.1.14-2.21.22-1.09.24-2.2.32-1.1.11-2.21.19-1.12,0-2.22.07-1.13-.25-2.24-.17-1.09.41-2.19.49-1.15-.46-2.26-.38-1.06.77-2.17.85l-2.21.17c-1.11.08-1.12,0-2.23.08s-1.11,0-2.22.07-1.12-.06-2.22,0-1.09.37-2.2.45-1.14-.31-2.25-.23-1.13-.14-2.24-.06-1.1.21-2.21.29-1.1.21-2.21.29a2.94,2.94,0,0,1-2.11-.41,3,3,0,0,1-1.12-1.38,3.14,3.14,0,0,1,0-1.94,4,4,0,0,1,1.23-1.76c.89-.76.75-.92,1.63-1.68s1.34-.24,2.22-1,.65-1,1.54-1.8a2.66,2.66,0,0,1,2.23-.57c.77.11,1.62,0,2.15.58a3.83,3.83,0,0,1,1.08,1.79c.16.67-.17,1-.61,1.55a4.76,4.76,0,0,0,2.14.29c1.12-.08,1.13.11,2.24,0s1.12-.1,2.23-.18,1.13.05,2.24,0,1.07-.68,2.19-.76,1.15.34,2.26.26,1.08-.63,2.19-.71l2.23-.17c1.12-.08,1.17.56,2.28.48s1.08-.65,2.19-.73,1.15.41,2.27.33,1.11,0,2.23-.12,1.11-.12,2.23-.2,1.1-.31,2.22-.39,1.1-.33,2.22-.41,1.12,0,2.24,0l2.24-.17a2.86,2.86,0,0,1,2.24.58A3.41,3.41,0,0,1,75.55,21.7Zm-4.69,7.87a3.21,3.21,0,0,1-.54,1.95,2.48,2.48,0,0,1-1.94.88c-1.13.09-1.16-.23-2.29-.15s-1.11.36-2.25.44-1.12.32-2.25.4-1.14,0-2.28.08-1.13.15-2.26.23-1.12.25-2.26.33-1.13.11-2.27.19-1.14,0-2.28.08-1.16-.25-2.29-.17-1.11.42-2.25.5-1.17-.46-2.31-.38-1.08.77-2.22.86L38.9,35c-1.14.08-1.14,0-2.28.09s-1.14,0-2.28.07-1.15,0-2.29,0-1.11.37-2.25.45a2.36,2.36,0,0,1-2-1.2,3,3,0,0,1-.37-2,2.18,2.18,0,0,1,.42-1.59,2.51,2.51,0,0,1,1.71-.89c1.13-.09,1.13-.15,2.25-.23s1.13-.17,2.25-.26,1.14-.05,2.27-.13,1.13-.05,2.26-.13,1.11-.3,2.24-.38,1.18.61,2.31.53,1.1-.44,2.24-.52,1.14.11,2.27,0,1.1-.52,2.23-.61S51,28.1,52.1,28s1.12-.2,2.24-.28,1.17.38,2.3.3,1.14.11,2.28,0,1.13-.11,2.26-.19,1.14.06,2.27,0,1.09-.68,2.22-.76,1.17.34,2.3.25c.94-.08,1.87-.3,2.32.21A3.46,3.46,0,0,1,70.86,29.57ZM45.33,48.74c-.62.59,0,.78,0,1.64s-.82,1.27-.11,1.74a1.91,1.91,0,0,0,2.54.08c1.08-.73.52-1.38,1.16-2.51s1.84-1.16,1.08-2.21S49,48,47.71,48.1,46.24,47.86,45.33,48.74Z" transform="translate(-0.01)" style="fill: #d8493d"/>
            </g>
            <g style="isolation: isolate">
              <path d="M46.24,120.05a3.59,3.59,0,0,1,.44,2.12,2.6,2.6,0,0,1-1.09,2.14c-1,.58-1.1.37-2.07,1s-1.11.34-2.08.92-1,.48-2,1.06-.68,1.06-1.65,1.64-1,.52-2,1.1-.93.66-1.9,1.24-.94.64-1.91,1.22-1.07.42-2,1-.85.8-1.82,1.38-1.09.4-2.06,1a2.45,2.45,0,0,1-2.22.28,4.65,4.65,0,0,1-1.62-1.62,4.26,4.26,0,0,1-.5-2.46A2.66,2.66,0,0,1,23,129.77c.95-.57.94-.59,1.89-1.16s1-.47,2-1l1.9-1.14c1-.57,1.49,0,2-1s0-1.16,0-2.28-.12-1.13-.12-2.25-.09-1.13-.09-2.25-.09-1.13-.09-2.25.26-1.13.26-2.26.2-1.12.2-2.24-.56-1.13-.56-2.25.54-1.13.54-2.26,0-1.12,0-2.25-.34-1.13-.34-2.25.19-1.13.19-2.26.92-1.6.17-2.45-1.16.11-2.1.18-.92.16-1.86.23-.95,0-1.88,0-1.5.07-1.94-.52a4.21,4.21,0,0,1-.95-2,4,4,0,0,1,.69-2.38c.41-.77,1-.94,2-1C26,92.61,26,92.08,27.1,92s1.12.08,2.23,0,1.13.26,2.25.18,1.11-.1,2.22-.18,1.08-.56,2.19-.64,1.13.1,2.24,0,1.14.21,2.26.13,1.09-.37,2.2-.46a2.64,2.64,0,0,1,2.27.6c.48.59.12,1.54.2,2.27a3.64,3.64,0,0,1-.07,2.33,2.21,2.21,0,0,1-2,1.24c-1,.08-1,0-1.95.1s-1,0-2,0S38,97.27,37.37,98c-.73.93-.43,1.1-.43,2.28s.43,1.17.43,2.35-.45,1.18-.45,2.35.64,1.18.64,2.35.08,1.18.08,2.36-.17,1.17-.17,2.35-.2,1.18-.2,2.36.37,1.17.37,2.35-.74,1.18-.74,2.36-.49,1.55.44,2.28,1-.12,1.84-.63.64-.88,1.51-1.39,1-.21,1.9-.73,1.33-.71,2.06-.34A3.77,3.77,0,0,1,46.24,120.05ZM74.1,137a5.42,5.42,0,0,1-.44,1.92,4.63,4.63,0,0,1-1,1.84,5.52,5.52,0,0,1-2.14.76,3.72,3.72,0,0,1-2.28-.47c-1-.37-.94-.48-1.92-.84s-1.18.16-2.16-.21-1-.42-2-.79-1-.28-2-.65a2.71,2.71,0,0,1-1.71-2,5.77,5.77,0,0,1,.46-2.77,5.09,5.09,0,0,1,1.44-2.33,3,3,0,0,1,2.69-.15c1,.39,1.09.24,2.11.63s.87,1.51,1.78.89.15-1,.24-2.12,0-1.16.08-2.33.06-1.16.15-2.32.2-1.15.29-2.31.08-1.16.17-2.33.29-1.14.38-2.3,0-1.16.14-2.32,0-1.17.07-2.34,0-1.17.09-2.33,0-1.17.09-2.33.36-1.14.45-2.31,1.17-1.66.32-2.47-1.33.59-2.54.68-1.26-.46-2.48-.38-1.22.07-2.44.15-1.39-.29-2.34.48-.39,1-.65,2.09-.5,1.06-.76,2.16-.13,1.15-.39,2.25-.18,1.13-.44,2.24-.37,1.09-.64,2.2,0,1.17-.25,2.28-.13,1.14-.39,2.25-.52,1-.78,2.16-.49,1-.75,2.16.27,1.23,0,2.34-.42,1.07-.68,2.19-.6,1-.86,2.14-.23,1.12-.49,2.23.2,1.22-.06,2.33-.44,1.07-.69,2.19a2.81,2.81,0,0,1-1.79,1.89,3.85,3.85,0,0,1-2.58.61,4,4,0,0,1-2.23-1c-.53-.61,0-1.64.21-2.74s-.06-1.2.21-2.32.28-1.12.55-2.24.31-1.11.57-2.24.39-1.09.65-2.22-.07-1.2.2-2.32.7-1,1-2.14-.16-1.23.1-2.35.7-1,1-2.14-.37-1.27-.1-2.39.19-1.15.45-2.27.43-1.09.7-2.21.45-1.08.72-2.21-.1-1.21.16-2.34,1.87-1.45,1.2-2.39-1.33.4-2.35.47-1.06-.38-2.09-.31-1,.49-2,.57a2.23,2.23,0,0,1-2-1A3.47,3.47,0,0,1,43.31,104a4.08,4.08,0,0,1,.47-2.49,2.76,2.76,0,0,1,2.27-1.33c1-.07,1,.06,2,0s1,.24,2,.16,1-.34,2-.42,1.16.33,1.91-.35.28-1,.53-2,.19-1.08.44-2.14.09-1.11.34-2.18.22-1.07.47-2.14.34-1,.59-2.12a2.67,2.67,0,0,1,1.67-1.59,4.57,4.57,0,0,1,2.3-.72c.45,0,.74.66,1.15.82s1.11-.22,1.42,0a3,3,0,0,1,.79,1,2.65,2.65,0,0,1,0,1.32c-.27,1.18-.36,1.16-.64,2.34s-.41,1.15-.68,2.33,0,1.25-.27,2.43-1.6,1.28-.92,2.29c.57.85,1,.15,2.06.08s1-.22,2-.3,1-.21,2-.29,1-.14,2-.22,1-.18,2-.26a6.67,6.67,0,0,1,2,.16,4.23,4.23,0,0,1,1.76.91,4.12,4.12,0,0,1,1.43,1.73c.2.61-.4,1.39-.46,2.19-.08,1.13.28,1.15.21,2.28s-.28,1.11-.35,2.24.37,1.15.29,2.28,0,1.13-.12,2.26,0,1.14,0,2.26-.54,1.1-.61,2.23-.27,1.11-.35,2.24,0,1.13-.13,2.26-.21,1.12-.28,2.24.52,1.17.45,2.3-.5,1.1-.58,2.23.48,1.16.4,2.29-.06,1.13-.14,2.26-.67,1.08-.79,2.21S74.18,135.87,74.1,137Z" transform="translate(-0.01)" style="fill: #d8493d"/>
            </g>
          </g>
        </g>
      </g>
    </g>
  </g>
</svg>
