<svg xmlns="http://www.w3.org/2000/svg" viewBox="0 0 112.96 166.7">
  <g id="Calque_2" data-name="Calque 2">
    <g id="Calque_1-2" data-name="Calque 1">
      <g>
        <g id="Groupe_2731" data-name="Groupe 2731">
          <g id="Rectangle_1121" data-name="Rectangle 1121">
            <path d="M98.6,158.91c-1.13.14-1.15,0-2.28.15s-1.16-.12-2.29,0-1.09.52-2.22.65-1.14.06-2.28.19-1.16-.17-2.3,0-1.14.07-2.27.21-1.08.52-2.22.66-1.16-.14-2.29,0-1.17-.2-2.3-.07-1.1.37-2.23.5-1.15,0-2.28.17-1.07.71-2.2.84-1.2-.43-2.33-.3-1.15,0-2.28.1-1.13.16-2.27.29-1.06.75-2.19.88-1.13.16-2.26.29l-2.27.27c-1.13.13-1.15,0-2.28.13s-1.2-.41-2.33-.28-1.12.27-2.25.4-1.1.47-2.23.6-1.12.22-2.26.35-1.16-.14-2.3,0-1.08.59-2.21.72-1.19-.33-2.33-.2-1.08.55-2.22.68-1.13.15-2.27.29-1.13.16-2.27.3a16.58,16.58,0,0,1-2.33-.35,17,17,0,0,1-2.33.18,15.79,15.79,0,0,1-2.13-1,15.84,15.84,0,0,1-2.3-.44,15.6,15.6,0,0,1-1.9-1.35c-.63-.43-.91-1.28-1.47-1.79a16.42,16.42,0,0,1-1.75-1.45,15.84,15.84,0,0,1-1.6-1.68,17.41,17.41,0,0,1-1-2.07c-.29-.7,0-1.61-.15-2.35s-.93-1.35-1-2.12c-.13-1.11.11-1.14,0-2.25s-.16-1.11-.29-2.22,0-1.12-.1-2.23-.12-1.11-.25-2.22-.6-1.06-.73-2.17.14-1.14,0-2.25,0-1.12-.17-2.22-.56-1.06-.69-2.17,0-1.13-.12-2.24,0-1.13-.14-2.24.35-1.16.22-2.27-.47-1.07-.6-2.18-.42-1.08-.55-2.19-.12-1.11-.25-2.22.07-1.13-.06-2.24-.39-1.08-.52-2.19.36-1.17.23-2.28-.43-1.08-.56-2.19.11-1.14,0-2.25-.1-1.11-.23-2.22-.16-1.11-.29-2.22-.33-1.09-.46-2.2-.29-1.09-.42-2.2-.17-1.11-.3-2.22.48-1.18.35-2.29-.22-1.1-.35-2.21S8.08,93.43,8,92.32s-.31-1.09-.44-2.2S7.32,89,7.19,87.9s.65-1.2.53-2.31-.72-1-.85-2.16.42-1.17.29-2.28S7.05,80,6.92,78.92s-.22-1.1-.35-2.21-.33-1.09-.46-2.2-.34-1.09-.47-2.2-.29-1.09-.42-2.19S5.14,69,5,67.89s.33-1.16.2-2.28-.32-1.09-.44-2.2,0-1.12-.16-2.23S4,60.12,3.9,59s0-1.12-.17-2.23-.19-1.11-.32-2.22-.17-1.11-.3-2.22.43-1.18.3-2.29-.05-1.12-.18-2.23-.7-1-.83-2.16-.26-1.1-.39-2.21l-.26-2.22c-.13-1.12.65-1.21.52-2.32s-.66-1-.79-2.16-.29-1.1-.42-2.21,0-1.13-.1-2.24S.9,31.17.77,30.06.45,29,.32,27.85.24,26.73.11,25.61A16.36,16.36,0,0,1,0,23.3c0-.77.57-1.47.7-2.22a16.19,16.19,0,0,1,.1-2.32,16.48,16.48,0,0,1,1-2.08,18.68,18.68,0,0,1,1.05-2,17,17,0,0,1,1.32-1.91c.51-.57,1.53-.6,2.12-1.09s1-1.23,1.61-1.63A16.51,16.51,0,0,1,9.84,8.75a16.93,16.93,0,0,1,2.27-.48,16.49,16.49,0,0,1,2.25-.36c1.13-.13,1.15,0,2.28-.12s1.15,0,2.28-.14,1.13-.15,2.27-.28,1.08-.54,2.21-.67,1.11-.32,2.25-.45,1.18.27,2.31.13,1.09-.48,2.22-.61,1.14-.12,2.27-.25,1.18.35,2.31.21S35.84,5.11,37,5s1.11-.29,2.25-.42,1.19.41,2.32.28,1.14-.08,2.27-.21,1.11-.34,2.24-.47,1.11-.38,2.24-.52,1.21.5,2.34.37,1.12-.26,2.25-.39S54,3.13,55.11,3s1.18.28,2.31.15,1.1-.43,2.24-.56,1.16.12,2.29,0,1.14-.07,2.28-.2,1-.78,2.19-.91,1.15,0,2.28-.11,1.16,0,2.29-.08,1.15,0,2.29-.14,1.07-.66,2.21-.8,1.18.27,2.32.14S78.92.16,80.06,0a16.05,16.05,0,0,1,2.3.14,15.91,15.91,0,0,1,2.29,0,16.44,16.44,0,0,1,2.17.77,15.91,15.91,0,0,1,2.1.85A14.75,14.75,0,0,1,90.84,3a14.81,14.81,0,0,1,1.76,1.4,17,17,0,0,1,1.82,1.42,17.79,17.79,0,0,1,1.23,2A16.75,16.75,0,0,1,97,9.68c.3.69-.15,1.64,0,2.39a15.67,15.67,0,0,1,.6,2.16c.13,1.12.47,1.08.6,2.19s-.17,1.14,0,2.25.21,1.1.34,2.21.16,1.11.29,2.21-.19,1.15-.06,2.26.48,1.07.61,2.18.4,1.07.53,2.18.16,1.11.29,2.22-.33,1.16-.2,2.27.06,1.12.19,2.23.63,1.06.76,2.17.27,1.09.4,2.2-.39,1.17-.26,2.28,0,1.13.09,2.24.25,1.1.37,2.21.68,1,.81,2.15,0,1.13.16,2.24.07,1.11.2,2.23.22,1.1.35,2.21.06,1.12.19,2.23.15,1.1.28,2.21,0,1.13.14,2.24-.4,1.17-.27,2.28.73,1,.86,2.15.3,1.1.43,2.21-.62,1.19-.49,2.3.5,1.07.63,2.18.45,1.08.58,2.19-.27,1.16-.14,2.27.38,1.08.51,2.19-.12,1.14,0,2.25.38,1.08.51,2.2.18,1.1.31,2.21-.39,1.17-.26,2.29.14,1.11.27,2.22.24,1.09.37,2.2.07,1.12.2,2.23.35,1.08.48,2.19-.12,1.14,0,2.25.09,1.12.22,2.23.44,1.08.57,2.19.39,1.08.52,2.19.09,1.11.22,2.23,0,1.13.08,2.24-.14,1.14,0,2.26.06,1.12.19,2.23.7,1,.83,2.16-.34,1.16-.21,2.28l.26,2.22c.13,1.11.62,1.06.75,2.17s-.42,1.17-.29,2.28.41,1.08.54,2.2-.21,1.15-.08,2.26.63,1.06.76,2.17,0,1.13.14,2.24-.2,1.16-.07,2.27.72,1.05.85,2.17a16.37,16.37,0,0,1-.19,2.32,15.84,15.84,0,0,1-.63,2.21,14.88,14.88,0,0,1-.35,2.22,14.05,14.05,0,0,1-.94,2c-.33.68-.18,1.66-.61,2.29a17.11,17.11,0,0,1-1.42,1.85c-.52.56-1.59.53-2.18,1a16.72,16.72,0,0,1-1.77,1.37,15.7,15.7,0,0,1-1.95,1.13,13.85,13.85,0,0,1-2.1.87A16.24,16.24,0,0,1,98.6,158.91ZM15.08,14.09a10,10,0,0,0-2.15.38,10.15,10.15,0,0,0-2.11.76c-.64.4-1,1.16-1.48,1.69a9.68,9.68,0,0,0-1.41,1.66A9.9,9.9,0,0,0,6.7,20.45a10.21,10.21,0,0,0-.56,2.19,10.53,10.53,0,0,0,.41,2.22c.13,1.11-.14,1.14,0,2.25s-.2,1.15-.07,2.26.36,1.08.49,2.19,0,1.12.17,2.23.7,1,.83,2.15-.44,1.18-.31,2.29,0,1.13.1,2.24.16,1.1.29,2.21.74,1,.87,2.15.15,1.11.28,2.22.14,1.11.27,2.22,0,1.13.12,2.24-.41,1.17-.28,2.28.26,1.09.39,2.2.47,1.07.6,2.18.21,1.1.34,2.21-.15,1.15,0,2.26.59,1.06.72,2.17S11,66,11.12,67.08s.55,1.06.67,2.17.16,1.11.29,2.22.16,1.11.29,2.22-.32,1.16-.19,2.27.54,1.07.66,2.18-.31,1.16-.18,2.27.58,1.06.71,2.17-.08,1.14.05,2.25-.36,1.17-.23,2.28.4,1.08.53,2.19.46,1.07.59,2.18.1,1.12.23,2.23-.48,1.18-.35,2.29.73,1,.86,2.15-.11,1.14,0,2.25.16,1.11.29,2.22,0,1.13.1,2.24.13,1.11.25,2.22.61,1.06.74,2.17-.15,1.14,0,2.25,0,1.12.17,2.23.57,1.06.7,2.17,0,1.13.11,2.24,0,1.13.15,2.24-.36,1.17-.23,2.28.48,1.07.61,2.18.42,1.08.55,2.19.11,1.12.24,2.23-.06,1.13.07,2.25.39,1.08.52,2.19-.36,1.17-.23,2.28.43,1.08.56,2.19-.11,1.14,0,2.25.1,1.12.23,2.23.16,1.11.29,2.23.33,1.09.46,2.2.3,1.1.43,2.21.16,1.11.29,2.23c.09.76-.33,1.63-.09,2.32a10.92,10.92,0,0,0,1.09,2,11.23,11.23,0,0,0,1.69,1.53,10.28,10.28,0,0,0,1.82,1.21,9.7,9.7,0,0,0,2,.88c.7.24,1.26,1.17,2,1.25s1.5-.5,2.25-.59c1.14-.13,1.2.42,2.33.28s1.14-.11,2.27-.24,1.12-.23,2.25-.36,1.11-.33,2.25-.46,1.1-.34,2.24-.47,1.11-.3,2.24-.43,1.14-.09,2.27-.22,1.19.33,2.32.2,1.11-.32,2.24-.45,1.14,0,2.27-.16,1.08-.58,2.22-.72,1.14,0,2.27-.17,1.12-.2,2.26-.33,1.12-.17,2.26-.31,1.2.44,2.33.31,1.14-.06,2.27-.19,1.07-.71,2.2-.84,1.12-.26,2.25-.39l2.27-.27c1.14-.13,1.23.65,2.36.52s1.07-.67,2.21-.8,1.11-.29,2.25-.42,1.15,0,2.28-.11,1.14-.06,2.27-.19,1.12-.32,2.25-.46,1.14-.08,2.28-.21L93.3,153c1.13-.14,1.19.34,2.33.21s1.08-.59,2.22-.72a10.33,10.33,0,0,0,2.19-.36A10.8,10.8,0,0,0,102,151a10.28,10.28,0,0,0,1.6-1.49c.53-.54,1.52-.71,1.92-1.35a11.35,11.35,0,0,0,.62-2.22,10.59,10.59,0,0,0,.26-2.2,9.62,9.62,0,0,0,.27-2.21c-.13-1.11-.07-1.12-.2-2.23s0-1.12-.11-2.23,0-1.13-.13-2.24-.15-1.11-.28-2.21-.54-1.07-.67-2.18-.31-1.08-.44-2.19.27-1.16.14-2.27-.48-1.06-.61-2.17-.12-1.12-.25-2.23.35-1.16.22-2.28-.62-1-.75-2.16-.28-1.09-.41-2.2.41-1.17.28-2.28-.07-1.12-.2-2.23-.33-1.09-.46-2.2-.39-1.08-.51-2.19.49-1.18.36-2.29-.25-1.1-.38-2.21-.48-1.07-.61-2.18.28-1.16.15-2.27-.42-1.07-.55-2.18.12-1.14,0-2.26-.06-1.11-.19-2.23-.78-1-.91-2.14,0-1.13-.1-2.24.06-1.13-.07-2.24,0-1.13-.14-2.24-.66-1-.79-2.16.27-1.16.14-2.27-.32-1.09-.45-2.2.11-1.14,0-2.25-.36-1.09-.48-2.2.1-1.14,0-2.25-.14-1.11-.27-2.22,0-1.12-.18-2.23-.12-1.11-.25-2.22-.47-1.07-.6-2.18,0-1.13-.13-2.23-.43-1.08-.56-2.19.6-1.2.47-2.31-.31-1.09-.44-2.2-.48-1.07-.61-2.18.17-1.15,0-2.26-.21-1.1-.34-2.21-.16-1.11-.29-2.22.19-1.15.06-2.26-.48-1.08-.61-2.19S94.08,36.09,94,35s-.16-1.11-.29-2.22.33-1.17.2-2.28-.06-1.12-.19-2.23-.63-1.06-.76-2.17-.27-1.1-.4-2.21.39-1.17.26-2.29,0-1.13-.09-2.24-.25-1.11-.38-2.22-.68-1.05-.81-2.17a9.79,9.79,0,0,0-.39-2.13,9.48,9.48,0,0,0-.91-2,9,9,0,0,0-1.43-1.64,9,9,0,0,0-1.67-1.41,9.43,9.43,0,0,0-2-.93A9.58,9.58,0,0,0,83,6.26c-.73-.08-1.51-.61-2.27-.52-1.14.13-1.06.74-2.2.87s-1.11.3-2.24.43-1.22-.61-2.35-.48-1.09.5-2.23.63-1.09.45-2.22.59-1.18-.27-2.32-.14-1.1.38-2.23.51-1.16-.11-2.29,0-1.1.38-2.23.51-1.13.19-2.26.32S57,8.61,55.83,8.74L53.57,9c-1.13.13-1.12.24-2.25.37s-1.14.08-2.27.21-1.11.35-2.24.49-1.16-.12-2.3,0-1.13.09-2.27.22-1.1.44-2.23.58-1.1.4-2.24.53-1.13.09-2.27.22-1.15-.05-2.29.08-1.16-.13-2.3,0-1.14.06-2.27.19-1.06.71-2.2.84-1.19-.34-2.32-.21l-2.27.27c-1.14.13-1.08.62-2.22.75s-1.23-.51-2.36-.28S16.22,14,15.08,14.09Z" style="fill: #d8493d"/>
          </g>
        </g>
        <g id="氣_功" data-name="氣 功" style="isolation: isolate">
          <g>
            <g style="isolation: isolate">
              <path d="M81.71,61.06c-.1.8-.11,1.62-.21,2.45s-.58,1.56-.7,2.38-.08,1.53-.22,2.23-.43,1.47-.61,2.14a5.86,5.86,0,0,1-1,2.44,2.86,2.86,0,0,1-1.83,1.07c-.65.07-1.19-.42-1.85-.81a5.35,5.35,0,0,1-1.84-1.71c-.43-.67-.66-1.46-1.06-2.18S71,68,70.6,67.24s-.32-1.63-.64-2.39-.34-1.32-.6-2-.86-1.12-1.1-1.77.06-1.46-.16-2.12-.39-1.29-.61-2-1.14-1.34-1.37-2.12.24-1.75,0-2.54-.6-1.52-.8-2.31-.21-1.71-.42-2.56-.59-1.62-.79-2.47-.63-1.25-.83-2.11a3.48,3.48,0,0,0-2,0c-1,.21-1,.46-2,.66s-1.09,0-2.14.2-1,.15-2.1.35-1,.37-2.06.57-1,.49-2,.69-1.11-.09-2.16.11-1.06,0-2,.56a2,2,0,0,1,1.36,1.79c.09.82-.58,1.21.2,1.49,1,.38,1.06,0,2.08-.4s.76-1,1.78-1.43,1-.34,2.07-.74a5.85,5.85,0,0,1,2.5-.06,3.41,3.41,0,0,1,1.88.94c.49.39,1.31.59,1.48,1.17a3.84,3.84,0,0,1-.39,2.28c-.63,1.51-2.42,1.6-1.41,2.89s1.58.13,3.14-.18a1.5,1.5,0,0,1,1.72.4c.53.54,1.28.85,1.44,1.53a3.25,3.25,0,0,1-.55,1.94c-.32.63-.71,1.4-1.55,1.58-1.07.21-1.16-.28-2.23-.07s-1.07.18-2.14.39-1,.35-2.1.56-1,.3-2.11.52-1,.34-2.11.55-1.85-.82-2.45.09.31,1.4.77,2.53c.58-.31,1-.43,1.47-.69s1.08-.31,1.5-.56a4,4,0,0,1,2-.65,3.37,3.37,0,0,1,2.22.81c1,.71,1,.64,2,1.34s.9.78,1.86,1.48.93,1,2.11,1.11c.66.07.33-.54.73-1.07a3.13,3.13,0,0,1,2.15-1.52,3.93,3.93,0,0,1,2.17,1,3.46,3.46,0,0,1,1.2,1.91c.24.77-.14,1.36-.74,2.17s-.42,1-1,1.81-.81.69-1.42,1.54c-.28.4-.25,1.11-.66,1.3s-1-.27-1.4-.26a4.3,4.3,0,0,1-2.8-.56c-1-.7-.75-1-1.72-1.71s-1.35-.17-2.32-.86-.87-.84-1.84-1.54a1,1,0,0,0-.77-.17c-.33,0-.69-.18-1-.06-.47.22-1.11.24-1.69.53a19.11,19.11,0,0,0-1.66,1.31c-.09,1.49.54,1.47.71,3a3.11,3.11,0,0,1-.71,2.55,3.57,3.57,0,0,1-2.19.62,3.46,3.46,0,0,1-2.27-.29c-.75-.42-.84-1.19-1-2.16C45,73,44.88,73,44.75,71.83s-.5-1.1-.63-2.24.26-1.19.13-2.34S44,66.12,43.89,65s.5-1.53-.41-2.24-1.07,0-2.14.24-1,.52-2.08.73-1.14-.14-2.21.07-1,.67-2,.87-1.1,0-2.18.26-1.1,0-2.17.27a1.71,1.71,0,0,1-1.72-.6c-.48-.48-1.07-.88-1.23-1.56a3.19,3.19,0,0,1,.54-2,1.92,1.92,0,0,1,1.56-1.18c1.09-.22,1.07-.31,2.16-.52S33,59,34.13,58.82s1-.43,2.14-.64,1.1-.14,2.19-.36,1.14,0,2.23-.18,1.45.28,2.11-.62.74-1.57-.15-2.21-1,.26-1.92.61-.84.51-1.74.86-.83.52-1.74.87c-.47.17-1,.41-1.46.58a5,5,0,0,1-1.61.32,5.33,5.33,0,0,1-1.2-.42,2.88,2.88,0,0,1-1-.87c-1.12-1.22-1.16-1.18-2.29-2.4a2.21,2.21,0,0,1-.64-2c.14-.67.88-1,1.39-1.5a3,3,0,0,1,2-1,2.26,2.26,0,0,1,2.26.6c.58.62.51.69,1.09,1.31s.37.82,1,1.44c.22.21.78.21,1.11.23s.53-.45.81-.56c.88-.35,1.11.25,2-.1s1.27-.14,1.58-1c.54-1.56-.27-1.6-.46-3.24a2,2,0,0,1,.68-1.75,6,6,0,0,0-2.15-.07c-1.06.2-1,.5-2.07.7s-1,.43-2.09.63-1.11-.05-2.17.15l-2.14.39c-1.06.21-1,.47-2.08.67s-1.19-.43-2.25-.22c-.8.17-1.24.21-1.75-.32a3.71,3.71,0,0,1-1.09-1.69c-.17-.68-.51-1.5-.2-2.15s1.29-.87,2.21-1.06c1.1-.22,1.08-.28,2.18-.49s1-.54,2.12-.75,1.19.31,2.29.09,1.07-.34,2.16-.55,1-.51,2.13-.73,1.12-.07,2.22-.28,1.07-.35,2.16-.56,1.1-.18,2.2-.4,1.21.39,2.3.18,1-.47,2.14-.68,1.07-.35,2.16-.56,1.06-.39,2.16-.6,1.16.13,2.26-.08,1-.55,2.13-.76,1.17.18,2.26,0,1.11-.17,2.21-.38,1-.57,2.13-.78a7.23,7.23,0,0,1,2.07.26c.82,0,1.58-.16,2,.21s.45,1.14.74,1.77.85,1,1,1.66c.15.86.56,1.64.72,2.45S70,44.7,70.13,45.5,71.21,47,71.4,47.82s-.13,1.56,0,2.26.51,1.4.7,2.1.19,1.49.39,2.19c.29.91.74,1.75,1,2.61s1,1.64,1.33,2.48.31,1.7.64,2.46.59,1.87,1,2.62c.13-.67.2-1.69.29-2.44s0-1.39.11-1.89c.11-.83.77-1.19,1.35-1.51a2.37,2.37,0,0,1,1.66-.5,2.48,2.48,0,0,1,1.38,1A2.43,2.43,0,0,1,81.71,61.06ZM40.63,65.91a3.72,3.72,0,0,1,1.08,1.87c.15.74-.37,1.27-1,1.91-.71.8-.6.9-1.32,1.7s-.81.72-1.52,1.52-.55,1-1.26,1.75-.61.91-1.33,1.71-1,.56-1.71,1.36-1.24,1.18-2,1.13a3,3,0,0,1-1.86-1c-.6-.5-1.56-.84-1.72-1.66s.48-1.67,1.13-2.4.86-.68,1.57-1.48.41-1.07,1.13-1.87,1.13-.43,1.85-1.23.75-.78,1.47-1.58.2-1.27.91-2.07,1.58-.45,2.41-.34S40.07,65.32,40.63,65.91ZM75.51,22.17a3.47,3.47,0,0,1-.13,2.15c-.31.73-1.06.89-2,1.08-1.08.21-1.06.35-2.15.56s-1.11.09-2.2.29-1,.44-2.13.64-1.07.36-2.16.56-1.16-.15-2.25.06-1.06.32-2.15.53-1.14,0-2.23.21-1,.91-2,1.12-1.17-.19-2.26,0-1.13,0-2.22.23-1,.61-2.11.82-1.19-.34-2.28-.13-1.1.16-2.19.37-1,.9-2.06,1.1-1.22-.48-2.31-.27-1,.4-2.15.61-1.12,0-2.22.22-1,.41-2.14.62-1,.77-2.08,1-1.18-.23-2.28,0-1,.45-2.14.67a2.89,2.89,0,0,1-2.12-.42,2.58,2.58,0,0,1-1.1-1.27,2.87,2.87,0,0,1-.38-1.81A4.19,4.19,0,0,1,24.82,29c.79-.86,1-.65,1.8-1.51s.65-1,1.44-1.85,1-.71,1.76-1.56A3.11,3.11,0,0,1,32,22.94c.78,0,1.29.63,1.88,1.09s1.46.55,1.7,1.2-.17,1.11-.54,1.73a4.74,4.74,0,0,0,2.15-.12c1.1-.21,1.15,0,2.24-.19s1-.78,2.09-1,1.12-.1,2.22-.31,1.13,0,2.23-.25,1.18.25,2.28,0,1.09-.24,2.19-.45,1-.71,2.1-.92,1.16.07,2.25-.14,1-.65,2.12-.86,1.19.28,2.29.07,1.1-.17,2.2-.38,1.08-.35,2.18-.56,1.08-.3,2.18-.51,1.07-.35,2.17-.56,1.2.28,2.3.07,1-.76,2.1-1a2.39,2.39,0,0,1,2.08.66A2.88,2.88,0,0,1,75.51,22.17Zm-3.75,8.36a3.06,3.06,0,0,1-.22,2c-.32.62-1,.7-1.87.88-1.12.22-1.09.36-2.21.57s-1.14.09-2.25.31-1.08.44-2.2.65-1.08.36-2.2.57-1.19-.14-2.31.07-1.09.33-2.21.54-1.16,0-2.28.22-1,.92-2.1,1.13-1.19-.18-2.31,0-1.15,0-2.27.24-1,.62-2.16.83-1.22-.34-2.34-.12-1.13.17-2.25.38-1,.9-2.1,1.12-1.26-.48-2.38-.27-1.08.41-2.2.63-1.16,0-2.28.24c-.88.18-1.37.25-1.89-.33s-1.32-1.07-1.36-1.8.48-1.22.81-1.71a2.64,2.64,0,0,1,1.62-1.22c1.1-.22,1.15,0,2.26-.23s1.12-.15,2.23-.36,1.08-.39,2.19-.6,1.06-.5,2.17-.71,1.17.09,2.29-.13,1.07-.4,2.18-.61,1.16,0,2.27-.19,1.1-.32,2.21-.54,1.19.22,2.31,0,1-.87,2.1-1.08,1.12-.13,2.24-.34,1.17.08,2.28-.13,1.16,0,2.27-.19,1-.79,2.12-1,1.13-.11,2.25-.32,1.15-.05,2.26-.26,1.21.25,2.33,0c.92-.19,1.31-.17,1.81.28S71.64,29.85,71.76,30.53ZM48.64,52.46c-.54.66.19.83.29,1.68s-.78,1.56,0,1.94c1,.53,1.6.16,2.48-.6s.65-1.19,1.16-2.38,1.67-1.54.8-2.5-1.1.78-2.34,1.06S49.44,51.48,48.64,52.46Z" style="fill: #d8493d"/>
            </g>
            <g style="isolation: isolate">
              <path d="M58.2,123a4,4,0,0,1,.44,2.28c0,.78-.54,1.19-1.29,1.76s-.57,1.12-1.47,1.81-1.12.39-2,1.08-.64,1-1.54,1.72-.93.65-1.82,1.34-.88.71-1.78,1.39-1.27.21-2.17.9-.52,1.18-1.42,1.87-1.19.31-2.09,1-.81.81-1.72,1.5-.81.8-1.71,1.49a2.17,2.17,0,0,1-2.06.45,4.42,4.42,0,0,1-1.88-1.24A4.38,4.38,0,0,1,35,138,2.51,2.51,0,0,1,36,135.68c.88-.67.75-.84,1.63-1.51s1.26-.18,2.14-.85.43-1.25,1.32-1.93,1.92.14,2.35-.88-.86-1.22-1-2.34.63-1.2.5-2.32-.77-1-.9-2.16-.14-1.12-.27-2.24.37-1.17.24-2.29-.61-1.06-.74-2.18-.08-1.12-.21-2.24-.27-1.1-.41-2.22.58-1.2.45-2.32-.62-1.06-.75-2.18-.1-1.12-.23-2.24.59-1.41-.26-2.16c-.69-.63-.76.46-1.68.64s-1,0-1.87.19-1-.2-1.92,0-1.68.41-2.2-.13-.2-1.51-.36-2.23A3.08,3.08,0,0,1,32,99.91c.32-.82.54-1.68,1.46-1.87,1.09-.21,1.08-.26,2.18-.47s1.16.17,2.26,0,1-.57,2.12-.78,1.2.33,2.29.13,1-.65,2.11-.86,1.18.18,2.27,0,1.09-.26,2.19-.47,1-.74,2.09-1a2.77,2.77,0,0,1,2.33.65c.55.53.37,1.47.54,2.19a3.37,3.37,0,0,1-.12,2.21c-.3.82-.54,1.71-1.46,1.89s-1-.13-2,0-1,.17-1.93.35-1.39-.4-1.9.44c-.61,1,.5,1.12.64,2.28s0,1.19.16,2.36-.22,1.21-.08,2.37.23,1.16.37,2.33.34,1.14.47,2.31-.44,1.24-.3,2.4.62,1.12.76,2.29-.19,1.21,0,2.38.73,1.1.87,2.27-.92,1.44.09,2c.85.52.58-.28,1.38-.89s.65-.79,1.45-1.39,1-.36,1.79-1a2.47,2.47,0,0,1,2.25-.73A4.47,4.47,0,0,1,58.2,123Zm29.71,13.81a5.72,5.72,0,0,1-.53,2c-.21.66-.78,1-1.26,1.48s-.82,1.33-1.54,1.6a4.09,4.09,0,0,1-2.39-.29c-1-.25-1.12.17-2.14-.08s-1-.29-2-.54-1-.22-2-.47-.88-.84-1.9-1.09-1.78-.35-2-1.23a5.71,5.71,0,0,1,.42-2.71,4.31,4.31,0,0,1,1.15-2.24,2.4,2.4,0,0,1,2.32-.71c1.06.27,1.09.19,2.15.46s1.06,1.22,1.88.5.13-.95.08-2.11-.08-1.16-.12-2.32-.26-1.16-.3-2.32.57-1.19.53-2.35-.78-1.14-.83-2.3.74-1.19.69-2.36-.81-1.13-.85-2.29.73-1.2.68-2.36-.69-1.14-.73-2.31-.06-1.16-.1-2.33.46-1.18.42-2.35.45-1.42-.48-2.12-1,.21-2.21.44-1.17.36-2.37.59-1.34-.47-2.54-.25-1.4,0-2.25.89-.12,1.06-.25,2.2-.1,1.13-.23,2.26.12,1.16,0,2.3-.29,1.11-.42,2.24-.51,1.09-.64,2.22.4,1.19.27,2.33-.89,1-1,2.17-.11,1.14-.24,2.27.47,1.2.34,2.33-.07,1.14-.2,2.27-.52,1.09-.65,2.23.24,1.17.11,2.31-.68,1.07-.81,2.2.32,1.19.19,2.32-.54,1.09-.66,2.23a2.49,2.49,0,0,1-1.23,2.14c-.82.53-1.62,1.27-2.53,1.17a4.08,4.08,0,0,1-2.26-1.05c-.6-.54-.3-1.58-.18-2.7s.14-1.14.27-2.29-.47-1.21-.34-2.36.45-1.11.58-2.25.15-1.15.29-2.3.05-1.15.18-2.3-.23-1.19-.1-2.33.25-1.14.38-2.28.49-1.11.62-2.25,0-1.16.16-2.31-.07-1.17.06-2.32.71-1.08.84-2.23-.35-1.2-.22-2.35.46-1.11.59-2.26.55-1.2-.23-2.06-.65.32-1.66.51-1.08-.19-2.1,0-1,.42-2,.61a2.53,2.53,0,0,1-2.25-.79,3.94,3.94,0,0,1-1.48-1.88,4.42,4.42,0,0,1,.58-2.56,2.67,2.67,0,0,1,2-1.62c1-.19,1.06.17,2,0s1-.34,2-.54,1-.07,2-.26,1.28.15,2-.61,0-1.12.11-2.2.48-1,.61-2.14,0-1.1.13-2.19.33-1.07.46-2.16-.59-1.17-.46-2.26c.1-.83.89-1.41,1.58-1.84A4.23,4.23,0,0,1,68,88.78c.44,0,.93-.36,1.35-.25s.57.77.9,1a1.59,1.59,0,0,1,.61.68c.18.3.9.5.86.91-.13,1.21-.83,1.13-1,2.33s.06,1.23-.07,2.44-.33,1.18-.47,2.39-.81,1.65,0,2.57,1.07-.69,2.07-.89,1.08.24,2.09,0,1-.44,2-.64,1,0,2-.19,1-.14,2-.34a6.67,6.67,0,0,1,1.93-.28,4.65,4.65,0,0,1,2,.43,4.27,4.27,0,0,1,1.25,1.88,5.71,5.71,0,0,1,.66,2.09c0,1.13-.18,1.14-.13,2.27s.17,1.12.22,2.25S86,108.6,86,109.73s.73,1.1.78,2.23,0,1.13,0,2.26-.24,1.14-.19,2.27-.18,1.14-.12,2.27.63,1.1.69,2.23,0,1.13,0,2.26-.12,1.14-.06,2.27-.41,1.15-.36,2.28.09,1.13.14,2.26.57,1.11.63,2.24-.31,1.16-.17,2.29S87.86,135.69,87.91,136.82Z" style="fill: #d8493d"/>
            </g>
          </g>
        </g>
      </g>
    </g>
  </g>
</svg>
