<svg xmlns="http://www.w3.org/2000/svg" viewBox="0 0 83.24 160.97">
  <g id="Calque_2" data-name="Calque 2">
    <g id="Calque_1-2" data-name="Calque 1">
      <g id="Groupe_2738" data-name="Groupe 2738">
        <g id="Rectangle_1121" data-name="Rectangle 1121">
          <path d="M63.92,161.22c-1.14,0-1.13-.46-2.28-.49s-1.14.05-2.29,0-1.15.34-2.3.32-1.13-.49-2.28-.52-1.15.48-2.3.46-1.14-.2-2.29-.22-1.14-.22-2.29-.24-1.14-.27-2.28-.29-1.16.56-2.31.54-1.13-.42-2.28-.45-1.14-.34-2.29-.36-1.16.48-2.3.46-1.15.09-2.3.07-1.14-.33-2.29-.35-1.14-.31-2.28-.34-1.15.11-2.3.09-1.14-.29-2.29-.32-1.16.47-2.3.44-1.14-.43-2.29-.46-1.17.57-2.32.55-1.14-.36-2.29-.39a15.57,15.57,0,0,1-2.33.19c-.76-.12-1.41-.77-2.13-1a17,17,0,0,1-2.3-.44,18.1,18.1,0,0,1-1.83-1.44c-.63-.43-1-1.16-1.56-1.68s-1.53-.63-2-1.21a18,18,0,0,1-1.32-1.91,15.38,15.38,0,0,1-1-2.09A16,16,0,0,1,.67,148a18.77,18.77,0,0,1-.22-2.27,15.42,15.42,0,0,1-.31-2.25c0-1.12,0-1.12.07-2.24s.32-1.11.35-2.23-.18-1.12-.15-2.24-.27-1.12-.25-2.23-.1-1.12-.08-2.24.14-1.11.17-2.23.61-1.1.64-2.22-.41-1.13-.39-2.24.23-1.12.26-2.23-.52-1.14-.5-2.25.1-1.12.12-2.24.21-1.11.24-2.23S1,115.5,1,114.38s.06-1.11.08-2.23S.64,111,.67,109.91s0-1.12,0-2.24,0-1.12,0-2.24.1-1.11.12-2.23.26-1.11.28-2.23.16-1.12.18-2.23-.1-1.12-.08-2.24,0-1.12,0-2.24.44-1.11.47-2.23-.45-1.12-.43-2.24.29-1.11.31-2.23-.18-1.13-.16-2.24.28-1.12.31-2.23.14-1.12.16-2.24-.38-1.13-.35-2.24.17-1.12.19-2.24-.1-1.12-.07-2.24,0-1.12,0-2.24.37-1.11.4-2.22-.22-1.13-.19-2.25.32-1.11.35-2.23,0-1.11,0-2.23-.46-1.13-.43-2.25-.21-1.12-.18-2.23.53-1.11.55-2.23.17-1.12.2-2.23-.31-1.13-.28-2.25.38-1.11.41-2.22-.2-1.13-.18-2.25,0-1.12,0-2.24.22-1.11.25-2.23.09-1.12.11-2.24-.36-1.13-.33-2.25.19-1.11.22-2.23S2.42,35,2.44,33.86,3,32.76,3,31.64s0-1.12.05-2.24-.4-1.13-.37-2.25-.13-1.12-.1-2.24.62-1.11.64-2.23-.66-1.14-.64-2.26,0-1.12.05-2.25-.05-1.12,0-2.24c0-.78.76-1.48.88-2.22a15.77,15.77,0,0,1,.59-2.17c.23-.73,0-1.62.35-2.3a18,18,0,0,1,1.15-2A17.88,17.88,0,0,1,7,5.41a16.85,16.85,0,0,1,1.75-1.5,17.88,17.88,0,0,1,1.76-1.5,16.2,16.2,0,0,1,2-1.14,16.89,16.89,0,0,1,4.57-.6A15.62,15.62,0,0,1,19.39.26c1.14,0,1.14.14,2.28.17s1.14.3,2.29.32,1.14,0,2.29,0S27.4.7,28.54.73s1.15-.34,2.3-.31S32,.78,33.12.81s1.15-.25,2.3-.23,1.15-.12,2.3-.1S38.86.63,40,.65,41.14,1,42.29,1s1.16-.35,2.3-.32,1.16-.2,2.3-.17S48,.6,49.19.63s1.13.56,2.28.59,1.15-.44,2.3-.41,1.13.55,2.28.58,1.15-.17,2.3-.14,1.14.29,2.29.31S61.8,1,63,1.06s1.15.22,2.3.24,1.15-.19,2.3-.16a16.11,16.11,0,0,1,2.27.49,15.75,15.75,0,0,1,2.29.29,17.38,17.38,0,0,1,2,1.15,16.65,16.65,0,0,1,2.12.9c.63.43.93,1.28,1.49,1.79a14,14,0,0,1,1.55,1.62A14.87,14.87,0,0,1,80.7,9.13a15.18,15.18,0,0,1,.89,2.07c.3.7,1.21,1.19,1.41,1.93a16.16,16.16,0,0,1,.19,2.33,18.94,18.94,0,0,1-.3,2.29c0,1.11.13,1.12.1,2.24s.35,1.12.32,2.24S83,23.34,83,24.46s-.18,1.11-.2,2.22-.08,1.12-.1,2.24.06,1.11,0,2.23.07,1.12,0,2.24-.07,1.11-.1,2.23.39,1.13.37,2.24-.1,1.12-.13,2.24,0,1.12-.07,2.23.08,1.12.06,2.24-.12,1.12-.15,2.23.13,1.12.11,2.24-.79,1.1-.82,2.22.52,1.13.49,2.24.21,1.13.18,2.25-.26,1.11-.28,2.23S82,59.09,82,60.2s.58,1.14.55,2.25-.08,1.12-.1,2.24,0,1.11,0,2.23,0,1.12,0,2.24-.19,1.12-.22,2.23S82,72.51,82,73.63s-.14,1.11-.16,2.23S82,77,82,78.1s-.14,1.12-.17,2.24.21,1.12.18,2.24-.53,1.1-.55,2.22.43,1.13.4,2.25.06,1.12,0,2.24-.59,1.11-.61,2.22,0,1.12,0,2.24-.08,1.12-.11,2.24.19,1.12.16,2.24.24,1.12.21,2.24-.55,1.1-.58,2.22,0,1.12-.06,2.23.62,1.14.6,2.26-.22,1.11-.25,2.23-.26,1.11-.29,2.23-.21,1.11-.23,2.23-.11,1.12-.14,2.24.32,1.12.3,2.24.06,1.12,0,2.24.29,1.13.27,2.25S81,124,81,125.08s-.26,1.11-.28,2.23-.31,1.11-.34,2.23.15,1.13.12,2.24-.24,1.12-.27,2.24.18,1.12.15,2.24.29,1.13.26,2.25-.23,1.12-.26,2.24.14,1.13.12,2.25.11,1.13.08,2.25a18,18,0,0,1-.09,2.33,16.9,16.9,0,0,1-.81,2.19A16.37,16.37,0,0,1,79,152a16.75,16.75,0,0,1-1.46,1.81,15.9,15.9,0,0,1-1.28,1.91c-.51.56-1.36.77-1.94,1.26a16.78,16.78,0,0,1-1.84,1.28,15.68,15.68,0,0,1-1.92,1.18c-.7.3-1.26,1-2,1.23a19.33,19.33,0,0,1-2.3.36A16.25,16.25,0,0,1,63.92,161.22ZM19.24,6.65A10.29,10.29,0,0,0,17,6.41a10.5,10.5,0,0,0-2.12.76c-.68.32-1.11,1-1.7,1.45s-1.43.62-1.91,1.2-.46,1.44-.8,2.11a9.43,9.43,0,0,0-.93,2,9.8,9.8,0,0,0-.48,2.16c0,1.12-.26,1.11-.29,2.23s.57,1.13.55,2.25-.42,1.11-.45,2.22S8.53,23.88,8.51,25,9,26.13,9,27.24s.09,1.12.07,2.24-.32,1.11-.35,2.22-.31,1.12-.33,2.23.11,1.12.08,2.24-.29,1.11-.31,2.23.47,1.13.44,2.25-.43,1.11-.46,2.22.58,1.13.55,2.25-.36,1.11-.38,2.23.38,1.12.36,2.24-.51,1.11-.53,2.23.42,1.12.39,2.24-.35,1.11-.38,2.23-.38,1.11-.41,2.23.6,1.13.58,2.25S8.23,61.88,8.2,63s-.11,1.12-.13,2.24-.17,1.11-.2,2.23-.24,1.11-.27,2.23.18,1.12.16,2.24,0,1.12-.08,2.24-.32,1.11-.34,2.23.17,1.12.15,2.24.27,1.12.24,2.24.11,1.12.09,2.24-.14,1.12-.17,2.24S7,86.47,7,87.59s.41,1.13.38,2.25S7.16,91,7.14,92.07s.52,1.13.49,2.25-.09,1.11-.12,2.23-.2,1.11-.23,2.23S7,99.89,6.92,101s-.06,1.11-.09,2.23.42,1.13.4,2.25,0,1.12,0,2.24,0,1.12,0,2.23-.1,1.12-.13,2.24-.25,1.11-.28,2.23-.15,1.12-.18,2.24.11,1.12.08,2.24,0,1.12,0,2.24-.44,1.11-.46,2.23.45,1.13.42,2.25-.28,1.11-.31,2.23.19,1.13.16,2.25-.28,1.11-.3,2.23-.14,1.12-.17,2.24.38,1.13.36,2.25-.17,1.12-.2,2.24.1,1.12.08,2.25,0,1.12,0,2.24a10.49,10.49,0,0,0-.15,2.28A10.06,10.06,0,0,0,7,147.93a10.66,10.66,0,0,0,.91,2.1,10.48,10.48,0,0,0,1.59,1.67c.58.48,1.48.5,2.15.85a9.76,9.76,0,0,0,2.11.55c.72.18,1.36.78,2.12.79,1.15,0,1.14.18,2.29.2s1.15-.31,2.29-.28,1.14.39,2.29.41,1.15-.2,2.29-.17,1.15,0,2.29,0,1.14.22,2.29.24,1.14.1,2.29.12,1.15-.36,2.3-.33,1.14.19,2.29.22,1.15-.23,2.3-.21,1.13.56,2.28.59l2.29,0c1.15,0,1.16-.39,2.31-.37s1.15-.12,2.29-.09,1.14.62,2.28.64,1.16-.66,2.31-.64l2.3.06c1.14,0,1.15-.06,2.29,0s1.14.7,2.29.73,1.14.09,2.29.11,1.17-.5,2.32-.47a11.76,11.76,0,0,0,6.22-1.92,12.67,12.67,0,0,0,2.59-3.51A9.44,9.44,0,0,0,74,147.32a10.31,10.31,0,0,0,.6-2.21c0-1.11-.28-1.12-.26-2.24s.15-1.11.17-2.23.3-1.11.33-2.23,0-1.12,0-2.23-.05-1.12,0-2.24-.34-1.12-.31-2.24.36-1.11.38-2.22-.25-1.13-.22-2.24-.13-1.12-.1-2.24.14-1.12.17-2.24.35-1.11.38-2.22-.36-1.13-.33-2.25-.2-1.12-.17-2.24.06-1.11.09-2.23.56-1.1.59-2.22-.44-1.13-.41-2.25.55-1.1.57-2.22-.16-1.12-.14-2.24.29-1.11.32-2.23-.54-1.13-.51-2.25.22-1.11.24-2.23-.19-1.12-.16-2.24.3-1.11.32-2.23-.22-1.12-.2-2.24.34-1.11.37-2.23-.25-1.13-.23-2.24.51-1.11.54-2.23l0-2.24c0-1.12-.1-1.12-.08-2.24s.19-1.11.21-2.23-.67-1.13-.64-2.25.28-1.12.3-2.23.45-1.11.47-2.23-.13-1.12-.1-2.24-.35-1.13-.32-2.25.28-1.11.31-2.23.18-1.11.2-2.22.08-1.12.1-2.24-.06-1.12,0-2.24-.07-1.12,0-2.24.07-1.11.09-2.23-.38-1.13-.36-2.25.1-1.11.13-2.23,0-1.12.07-2.24-.08-1.12-.06-2.24.12-1.12.15-2.24-.13-1.12-.11-2.24.79-1.1.82-2.22-.52-1.13-.49-2.25-.21-1.13-.18-2.25.26-1.11.28-2.23.41-1.11.44-2.23-.58-1.13-.55-2.26.08-1.11.1-2.24,0-1.12,0-2.24,0-1.12,0-2.25.19-1.12.22-2.24a9.59,9.59,0,0,0-.65-4.36A9.67,9.67,0,0,0,75,11.46a10.13,10.13,0,0,0-1.44-1.68,9.85,9.85,0,0,0-2-1c-.66-.34-1.17-1.06-1.91-1.25a11.1,11.1,0,0,0-2.27.15c-1.14,0-1.14.06-2.29,0S64,7.11,62.84,7.08s-1.15,0-2.29,0S59.4,7,58.26,7s-1.15.19-2.3.16-1.15.24-2.29.21-1.14-.56-2.28-.58l-2.3-.07c-1.14,0-1.16.63-2.3.6S45.64,7.05,44.5,7s-1.14-.26-2.29-.28-1.14-.22-2.29-.24-1.14-.11-2.29-.14-1.16.32-2.3.3-1.15,0-2.3,0S31.88,7,30.73,7s-1.14-.2-2.29-.23-1.14-.26-2.29-.29S25,6.12,23.86,6.09a18,18,0,0,0-2.32.12C20.38,6.31,20.4,6.67,19.24,6.65Z" transform="translate(-0.08 -0.25)" style="fill: #d8493d"/>
        </g>
      </g>
      <g id="摩_托_車" data-name="摩 托 車" style="isolation: isolate">
        <g>
          <g style="isolation: isolate">
            <path d="M28.33,50.67c-.11.75-.73,1.07-1.24,1.34s-1,.81-1.59.68-.74-.72-1.05-1.09a1.73,1.73,0,0,1-.39-1.43c.13-1.15.46-1.11.6-2.27s.18-1.15.32-2.3-.23-1.2-.09-2.36-.13-1.18,0-2.34.7-1.08.84-2.24-.35-1.21-.21-2.37.09-1.16.23-2.31.58-1.1.72-2.26.06-1.16.2-2.32.38-1.13.52-2.28-.26-1.21-.12-2.36.34-1.14.48-2.29.1-1.17.24-2.33c.07-.64.14-1.26.61-1.53a2.39,2.39,0,0,1,2.91.45c.39.36.13.85.06,1.5-.13,1.15.37,1.21.23,2.37s0,1.17-.11,2.32-.16,1.16-.3,2.31-.26,1.14-.4,2.3-.34,1.13-.49,2.28-.27,1.14-.42,2.29.28,1.21.14,2.36-.33,1.13-.48,2.29-.45,1.11-.59,2.27.35,1.22.21,2.37-.24,1.15-.39,2.3-.48,1.13-.54,2.3S28.47,49.51,28.33,50.67Zm33.44-5.81c0,.48-.45.83-.74,1.21s-.58,1-1.2,1.07c-1.22.06-1.24-.32-2.47-.26s-1.23.11-2.45.18-1.25-.27-2.48-.2-1.23,0-2.46.09-1.59-.38-2.45.51.24,1.25.21,2.49a2.49,2.49,0,0,1-1.36,2.12c-.31.22-.52.78-1,.81a8.27,8.27,0,0,1-1.57,0c-1-.11-1-.54-2-.65s-1,0-2.07-.13-1-.34-2-.45c-.56-.07-1,.06-1.24-.37a1.89,1.89,0,0,1,0-1.22,1.27,1.27,0,0,1,.57-.93,2,2,0,0,1,1.43-.57c1.2.12,1.2.18,2.4.29s1.3.84,2.38.29c.65-.33.88-1.39.24-1.75-1-.6-1.38.52-2.57.58s-1.19.24-2.39.3-1.2,0-2.4.1-1.2-.06-2.4,0-1.21-.14-2.41-.08a1.3,1.3,0,0,1-1.25-.64c-.32-.43-.84-.79-.8-1.27a2.11,2.11,0,0,1,.65-1.14c.29-.33.77-.22,1.33-.26,1.21-.07,1.18-.56,2.4-.62s1.22,0,2.43,0,1.23.2,2.45.14,1.19-.56,2.41-.62,1.46.93,2.5.29a.83.83,0,0,0,0-1.48c-1.11-.57-1.24.43-2.48.49s-1.27-.4-2.52-.34-1.22.57-2.46.63-1.26-.12-2.51,0A1.89,1.89,0,0,1,32,42.75c-.32-.33-.22-.74-.15-1.24s-.25-1,0-1.33,1-.21,1.5-.25c1-.06,1,.26,2,.21s1-.56,2-.61,1-.17,2-.21,1,.24,2,.19,1.4.76,2.2.14a1.14,1.14,0,0,0-.06-1.83c-.9-.57-1.17-.19-2.22-.09s-1,.58-2.07.68-1.1-.31-2.15-.21-1,.7-2.07.79a2,2,0,0,1-1.37-.73c-.36-.32-1-.65-1-1.12s.51-.87.76-1.28.56-1,1.18-1.07c1.12-.1,1.15.22,2.27.11s1.16.25,2.28.15,1.07-.73,2.19-.83,1.13-.07,2.25-.18,1.13,0,2.26-.13,1.14,0,2.26-.06,1.15.11,2.28,0,1.1-.3,2.23-.41l2.26-.19a1.51,1.51,0,0,1,1.22.61c.35.3.65.44.72.86a2.19,2.19,0,0,1,0,1.45,1.92,1.92,0,0,1-1.46.94c-1.27.12-1.28,0-2.55.13s-1.32-.47-2.6-.35-1.46-.11-2.48.66c-.68.52-.83,1.27-.16,1.82s1.09-.56,2.11-.62,1,0,2,0,1,.13,2,.07,1,.26,2.05.21,1,0,2-.07c.64,0,1.29-.24,1.62.15a2.59,2.59,0,0,1,.58,1.44,1.92,1.92,0,0,1-2,1.69c-1,0-1,0-2.08,0s-1.06-.18-2.1-.13-1-.07-2.09,0-1,.18-2.08.24-1.22-.48-2.07.13c-.58.42-.86,1.38-.23,1.72,1.05.58,1.37-.49,2.57-.56s1.21.2,2.41.13,1.18-.27,2.38-.34,1.21.19,2.42.13,1.2.05,2.4,0c.62,0,1.13-.26,1.45.1A2.59,2.59,0,0,1,61.77,44.86ZM34.24,33.24a1.72,1.72,0,0,1-1.41.71c-.47.09-1,.46-1.38.23s-.32-.84-.45-1.27a1.67,1.67,0,0,1,.2-1.39c.72-1.32,1-1.17,1.73-2.5.3-.55.43-.64.89-.72s.8-.37,1.16-.13.82.44,1,.83-.44.83-.73,1.36C34.63,31.76,35,31.91,34.24,33.24ZM62,19c0,.48-.46.83-.74,1.23s-.58,1-1.2,1.08c-1.17.07-1.19-.32-2.35-.26s-1.34-.44-2.35.16c-.55.34-.75,1.29-.2,1.63.88.52,1.23,0,2.25,0s1-.42,2-.47c.64,0,1.31-.06,1.63.31s0,1,0,1.45.32,1,0,1.34a2.21,2.21,0,0,1-1.43.74c-1.09.06-1.12-.38-2.21-.32s-1.54-.58-2.26.24-.3,1.27-.33,2.48.38,1.22.35,2.42a1.73,1.73,0,0,1-.81,1.4,1.94,1.94,0,0,1-1.34.51,2.35,2.35,0,0,1-1.62-.27,2.22,2.22,0,0,1-.64-1.74c0-1.13.1-1.13.13-2.26s1.19-1.78.35-2.55-1.45.46-2.64.53a2,2,0,0,1-1.56-.43,2.59,2.59,0,0,1-.54-1.46A2.43,2.43,0,0,1,47,23.39a2,2,0,0,1,1.47-.48c1.29-.08,1.53.59,2.66,0,.56-.31.38-.92-.18-1.24-.91-.53-.93-.11-2-.06s-1.07-.26-2.12-.21-1,.54-2.07.6-1.06-.05-2.11,0-1.33-.74-2.2-.14c-.57.4-.32.82.25,1.22.76.53.73.32,1.66.27s.92-.12,1.84-.18c.62,0,1.35-.14,1.68.22s.13,1,.15,1.45.33,1.14,0,1.53a2.48,2.48,0,0,1-1.63.62c-1,.06-1-.13-2-.08s-1.58-.87-2.16-.05c-.81,1.13.52,1.52.49,2.91s-.43,1.39-.46,2.79c0,.73-.43,1-.89,1.32s-.78.92-1.31.88a3,3,0,0,1-1.62-.53c-.43-.34-.45-1.1-.44-1.77,0-1.31.32-1.3.35-2.62s.87-1.86-.12-2.72-1.56-.23-3-.15c-.56,0-1.05.34-1.35,0s-.09-.85-.13-1.3-.48-1.05-.2-1.44,1-.39,1.62-.43c1.53-.09,1.52.13,2.9-.55.61-.3.83-.76.25-1.11-.92-.55-1.11.46-2.18.51a1.75,1.75,0,0,1-1.36-.85c-.3-.38-.1-.82-.12-1.3s-.41-1-.14-1.37a2.26,2.26,0,0,1,1.5-.67c1-.06,1,0,2,0s1,.1,2,.05,1,.16,2,.11,1.09.12,2-.3c.34-.16-.13-.36-.3-.7-.29-.56-.06-.91.19-1.37s.39-.85.87-1.09a2.7,2.7,0,0,1,1.51-.52,2.13,2.13,0,0,1,1.51,1c.57,1.15-.11,1.56,1,2.27.9.6,1,.5,2.07.45s1.06-.48,2.14-.54,1.09.15,2.18.1,1-.59,2.14-.65,1.08,0,2.17,0,1.09.13,2.17.07a1.56,1.56,0,0,1,1.28.71C61.39,18.29,61.93,18.54,62,19ZM44.3,33.33c-.28.22-.78,0-1.17,0s-1,.39-1.33.14-.29-.87-.28-1.38c0-1.47,0-1.47,0-2.94,0-.45.35-.51.65-.74a1.21,1.21,0,0,1,.86-.26c.39-.05.72-.32,1.08-.06a1.52,1.52,0,0,1,.79,1.14c0,1.47-.59,1.46-.62,2.93C44.3,32.59,44.59,33.12,44.3,33.33Zm4.76-1c-.23.63-.86.77-1.32.92s-1,.54-1.39.31-.35-.79-.51-1.16a1.83,1.83,0,0,1,0-1.35c.42-1.23.74-1.12,1.16-2.35.18-.53.29-.64.68-.81s.6-.54,1-.42,1,.24,1.21.65-.25,1-.46,1.61C49.13,31,49.5,31.1,49.06,32.33ZM62,30.62c0,.34-.41.62-.58.95s-.24.93-.63,1c-1.12.24-1.2-.12-2.32.12-.84.18-1.42.08-1.8-.41s-.19-.9-.18-1.62c0-1.37.07-1.37.1-2.73,0-.45-.22-.79.08-1s.62-.62,1-.64.61.56,1,.82.9.4.89.9c0,.82-.4.8,0,1.53.2.36.24.21.64.11s.77-.17,1,.1S61.92,30.23,62,30.62Z" transform="translate(-0.08 -0.25)" style="fill: #d8493d"/>
          </g>
          <g style="isolation: isolate">
            <path d="M37.37,72.89a2.62,2.62,0,0,1-.24,1.64,2.16,2.16,0,0,1-1.69.64c-1,.06-1.14-.47-1.84.29s.14.88.11,2-.39,1-.06,2c.12.35-.22-.35.1-.53a2.42,2.42,0,0,1,1.93-.25c.48.21.73.86,1,1.31s0,1,0,1.7a1.77,1.77,0,0,1-.93,1.6c-1.27.68-1.36.45-2.23,1.61a2.19,2.19,0,0,0-.66,1.89c0,1.07.07,1.08,0,2.15s.48,1.08.46,2.15.05,1.07,0,2.14-.26,1.07-.28,2.14,0,1.07,0,2.15a3.27,3.27,0,0,1-.81,1.92c-.39.5-.77,1.19-1.33,1.37s-1.26-.2-1.86-.35-.9-.68-1.36-1.25A24.79,24.79,0,0,1,26.08,97a18.52,18.52,0,0,1-1.38-2.37c-.34-.75-1.17-1.32-1.46-2.12s-.6-1.58-.83-2.4a8.6,8.6,0,0,1-.08-1.63c0-.54.53-1,.65-1.49s-.17-1.07.07-1.44.81-.4,1.23-.65c1.13-.63.87-1.1,2-1.73s1.67,0,2.38-1c.61-.92.45-1.08.47-2.19s-.58-1.13-.55-2.24.9-1.31.22-2.19c-.52-.67-.82-.32-1.68-.27s-.81.76-1.66.81-1.1-.74-1.48-1.2a2.13,2.13,0,0,1-.57-1.37c0-.53-.31-1.06,0-1.51s.85-.37,1.5-.41c1-.06,1-.09,2-.15s1.39.47,2.11-.25-.07-1-.05-2,.24-1,.26-1.93-.15-1-.13-1.93A1.85,1.85,0,0,1,30,63.67c.48-.37.82-.79,1.38-.73a2.78,2.78,0,0,1,1.51.79c.47.41.48.94.47,1.64,0,1.37.37,1.38.34,2.74s-1.09,1.65-.39,2.82c.42.71,1-.2,1.79-.25.65,0,.9.46,1.28.92S37.33,72.33,37.37,72.89ZM28.53,87.18c-1.23-.66-1.06.84-2.3,1.5-.28.14-.51.11-.52.4s.27.47.32.7.27.56.46,1,.39,1,.62,1.47.39,1,.64,1.47.44.81.6,1.09c0,.06-.17.26-.09.23s.47-.07.47-.15c0-1.3-.31-1.31-.28-2.61s-.67-1.45-.32-2.71S29.69,87.79,28.53,87.18Zm32.15-6.69A3.19,3.19,0,0,1,60.43,82a1.86,1.86,0,0,1-1.46.6c-1.12.07-1.1.33-2.22.4s-1.11.14-2.22.2-1.12.07-2.23.14-1.25-.86-2,0,.08.94.05,2.11-.37,1.15-.4,2.32-.36,1.16-.39,2.32.31,1.18.28,2.34a2.53,2.53,0,0,0,1.27,2.63,2.48,2.48,0,0,0,2.9.16,6.17,6.17,0,0,0,1.82-2c.5-.74.91-1.52,1.57-1.51a3.35,3.35,0,0,1,1.93.64A3.09,3.09,0,0,1,60,94.12a2.68,2.68,0,0,1-.64,2.1A13.15,13.15,0,0,1,58,97.44c-.43.41-.69,1.09-1.18,1.44s-1.24.31-1.76.57a11,11,0,0,1-1.72.41,7.11,7.11,0,0,1-3.16.34,5.17,5.17,0,0,1-2.43-.85c-.8-.58-1.82-1.07-2.2-2.1a9.45,9.45,0,0,1-.5-1.81,11.83,11.83,0,0,1,.07-1.86c0-1,.55-1,.57-2s-.48-1-.46-2.06.41-1,.43-2-.51-1-.48-2.06,1.05-1.29.33-2-1-.36-2-.3-1,.66-1.93.71-1-.11-2,0c-.51,0-.64-.39-.94-.8s-1.13-.65-1.18-1.15.7-1,1-1.5a1.08,1.08,0,0,1,1.1-.66c1-.06,1-.46,2-.52s1,.31,2,.25,1.56.56,2.18-.24c.78-1,0-1.41,0-2.7s-.11-1.29-.08-2.58,1.25-2,.19-2.75-1.43.58-2.74,1-1.39.16-2.69.6c-.51.18-.87.44-1.24.12a2.92,2.92,0,0,1-.78-1.23,2.47,2.47,0,0,1,.13-1.39c.11-.49.16-1,.72-1.22,1.11-.37,1.22,0,2.33-.4s1-.6,2.12-1,1.24,0,2.34-.34.93-.92,2-1.29,1.24,0,2.34-.35,1-.84,2.06-1.21,1.23,0,2.34-.37,1.09-.41,2.2-.78c.53-.19.79.13,1.19.4a1.74,1.74,0,0,1,.72,1c.22.48.6.82.46,1.33a1.77,1.77,0,0,1-1,1.33c-1,.34-1.18-.19-2.18.15s-.85.8-1.86,1.13-1,.38-2,.72-1.64-.54-2.25.32,0,1.24,0,2.37-.27,1.12-.29,2.25.38,1.14.35,2.27-1,1.56-.2,2.36,1.19-.06,2.26-.12,1.06-.34,2.14-.4,1.08,0,2.16-.06,1.08,0,2.16-.05c.62,0,.76.43,1.06.91S60.67,79.92,60.68,80.49Z" transform="translate(-0.08 -0.25)" style="fill: #d8493d"/>
          </g>
          <g style="isolation: isolate">
            <path d="M59.83,140.27c.05.56-.4,1-.72,1.47a1.71,1.71,0,0,1-1.38.74c-1.1.05-1.1,0-2.2.08s-1.1-.11-2.2-.06-1.08.37-2.18.42-1.09.27-2.19.32l-2.2.1c-1.1,0-1.11-.15-2.21-.1s-1.3-.66-2.14.06c-.68.58-.39.8-.41,1.71s0,.9,0,1.8c0,.7-.09,1.11-.54,1.42s-.9.87-1.46.85-1-.67-1.44-1-1-.68-1-1.33c0-1.66.92-1.77,0-3.12-.7-1-.94-.34-2.13-.29s-1.17.51-2.37.57-1.19.11-2.38.17-1.21-.27-2.41-.21-1.18.4-2.37.46-1.22-.42-2.42-.36c-.28,0-.72.45-.94.32s-.29-.57-.44-.77a2.15,2.15,0,0,1-.35-.73c-.08-.27.24-.56.25-.85a1.58,1.58,0,0,1,.46-1c.26-.36.35-1,.94-1,1.2-.06,1.2-.19,2.41-.25s1.23.35,2.43.29,1.23.24,2.44.18,1.18-.64,2.39-.7,1.2-.22,2.41-.28,1.75,1.32,2.68.54c.75-.64.48-1.51-.32-2.09-1.05-.76-1.18-.39-2.48-.33s-1.29,0-2.59.11c-.56,0-1,.15-1.23-.29a3.22,3.22,0,0,1-.61-1.45,2.65,2.65,0,0,1,.22-1.5c.26-.37,1-.25,1.57-.29,1.34-.08,1.32-.36,2.66-.44s1.52.71,2.5-.2,1.15-1.4.37-2.29-1.16.2-2.19.24-1-.22-2.06-.18-1,.33-2,.37-1.42-.76-2.11,0,.15,1.2.12,2.34-.08,1.14-.11,2.29a1.78,1.78,0,0,1-.76,1.51,2.45,2.45,0,0,1-1.52.26,2.6,2.6,0,0,1-1.64-.3,1.92,1.92,0,0,1-.77-1.58c0-1.05.29-1,.31-2.09s-.2-1.05-.18-2.1.3-1,.33-2.09.24-1.05.27-2.1-.74-1.07-.71-2.12,0-1,.06-2.1c0-.64.63-1,1.06-1.34s.86-.78,1.43-.79.95.67,1.44,1,.76.57.74,1.22c0,1,0,1,0,2s-.85,1.55-.11,2.26,1.23-.33,2.25-.38,1-.13,2.05-.18,1,.43,2.07.38,1.56.51,2.25-.25a1.66,1.66,0,0,0-.05-2.54c-.93-.81-1.33.41-2.56.47s-1.25-.41-2.49-.34c-.7,0-1.31.22-1.67-.15a2.25,2.25,0,0,1-.46-1.45c0-.59.31-.85.6-1.25s.43-1,1-1c1.38-.08,1.39.13,2.77,0s1.48.39,2.57-.45c.8-.62.76-.86,0-1.53s-.88-.39-2-.33-1.1.12-2.19.17-1.08.39-2.18.45-1.1,0-2.19.08-1.11,0-2.2,0-1.1.13-2.2.19a1.4,1.4,0,0,1-1.21-.81,2.85,2.85,0,0,1-.61-1.35,2.61,2.61,0,0,1,.14-1.56,2.18,2.18,0,0,1,1.58-.8c1.11-.06,1.11-.14,2.22-.19s1.12.25,2.23.19,1.1-.39,2.21-.44,1.13.35,2.24.29,1.12,0,2.23,0,1.5.62,2.21-.23.44-1.29.47-2.59c0-.64-.15-1.11.29-1.41a2.48,2.48,0,0,1,1.46-.22c.59,0,1.25-.29,1.75.06s.22,1,.2,1.66c0,1.13-.45,1.46.35,2.26s1.08-.07,2.18-.13,1.11.13,2.2.07,1.09-.29,2.18-.35,1.11.19,2.21.14,1.09-.16,2.19-.22,1.08-.54,2.17-.6a2.42,2.42,0,0,1,1.74.81,2.39,2.39,0,0,1,.53,1.44,2.28,2.28,0,0,1-.43,1.54,1.89,1.89,0,0,1-1.49.76l-2.26.11c-1.13.05-1.11.41-2.24.47s-1.15-.34-2.29-.28-1.11.44-2.24.5-1.15-.24-2.28-.18-1.48-.77-2.32,0a1.21,1.21,0,0,0,0,2c.77.72,1-.31,2.06-.37s1.08.56,2.12.51,1-.39,2.08-.44,1,0,2.1-.07,1-.28,2.08-.33a3.22,3.22,0,0,1,2.86,1.13,3.55,3.55,0,0,1,.41,2.94c-.29,1.09-.17,1.12-.46,2.2s-.67,1-.95,2.07-.37,1.07-.66,2.15-.83,1.09-.8,2.22c0,.31.62-.37.93-.41a2.17,2.17,0,0,1,1.8.66,2.37,2.37,0,0,1,.51,1.52,2.61,2.61,0,0,1-.28,1.68c-.32.45-1,.51-1.67.55-1,0-1,0-2.08,0s-1,.33-2.08.38-1,.17-2.08.22-1.07-.46-2.11-.41-1,.63-2.07.68-1.55-1.2-2.3-.47-.43,1.34.31,2,.89-.2,2-.25,1.09.47,2.16.41,1-.4,2.12-.45,1.08.1,2.15,0l2.14-.11,2.14-.1c1.07-.06,1.08.11,2.15.05a1.67,1.67,0,0,1,1.49.47C59.25,139.41,59.82,139.73,59.83,140.27ZM42.94,124.74c-.76.78-1,1.23-.29,2.06s1-.07,1.93-.11.94,0,1.88-.06a1.69,1.69,0,0,1,1.4.55c.35.34.81.6.86,1.08a3.05,3.05,0,0,1-.23,1.75,2.43,2.43,0,0,1-1.74,1c-1,0-1-.16-2.07-.12s-1.29-.76-2,0-1.17,1.61-.36,2.44,1.33,0,2.43-.1S45.87,133,47,133s1.16.22,2-.48.69-.78,1-1.86-.07-1.17.22-2.24.11-1.12.4-2.2,1.74-1.32,1.05-2.2-1.24.43-2.33.48-1.08.11-2.17.16a8.52,8.52,0,0,1-2.19-.21C43.88,124.31,43.7,124,42.94,124.74Z" transform="translate(-0.08 -0.25)" style="fill: #d8493d"/>
          </g>
        </g>
      </g>
    </g>
  </g>
</svg>
