<svg xmlns="http://www.w3.org/2000/svg" width="115.095" height="158.635" viewBox="0 0 115.095 158.635">
  <g id="Groupe_80" data-name="Groupe 80" transform="matrix(0.995, 0.105, -0.105, 0.995, -3373.428, 2493.193)">
    <g id="Groupe_131" data-name="Groupe 131" transform="translate(3112.826 -2830.782)">
      <g id="Rectangle_1121" data-name="Rectangle 1121">
        <g id="Groupe_130" data-name="Groupe 130">
          <path id="Tracé_304" data-name="Tracé 304" d="M3123.227-2824.409c.887-.094.945.446,1.831.353s.86-.351,1.748-.444.908.107,1.8.013.866-.308,1.754-.4.829-.646,1.717-.74.948.475,1.835.381.9.053,1.791-.041.866-.285,1.75-.378.856-.376,1.742-.47.884-.126,1.771-.219.943.423,1.831.329.855-.395,1.742-.488.888-.081,1.773-.174.878-.178,1.765-.272.91.113,1.8.02.856-.394,1.745-.487.9.011,1.785-.084.874-.225,1.762-.319.923.235,1.812.141.832-.625,1.719-.718.9.039,1.792-.054.931.313,1.82.219.86-.366,1.75-.459.872-.253,1.76-.346.929.286,1.818.192.883-.156,1.772-.249.9.05,1.791-.044.835-.607,1.724-.7.969.666,1.86.572.8-.91,1.694-1,.968.641,1.858.548.827-.7,1.719-.8.909.074,1.8-.02a12.421,12.421,0,0,1,1.841-.226,12.566,12.566,0,0,1,1.881.072c.6.126,1,.964,1.562,1.181a11.008,11.008,0,0,1,1.507.937c.526.3,1.185.343,1.656.724s1.255.47,1.662.921.142,1.414.474,1.924,1.354.638,1.6,1.2-.232,1.37-.073,1.963a11.038,11.038,0,0,1,.265,1.746c.094.881.133.876.225,1.757s.452.843.544,1.724.128.877.221,1.758.235.865.328,1.747-.021.893.072,1.775-.163.909-.071,1.791-.136.907-.042,1.79.31.859.4,1.742-.1.9,0,1.783.632.825.726,1.707-.338.926-.245,1.808.087.881.181,1.763.167.874.259,1.755.313.857.406,1.739.023.889.116,1.771-.254.919-.162,1.8.63.826.723,1.71-.188.912-.094,1.794.084.883.178,1.765.338.857.431,1.738-.458.939-.365,1.822.584.83.677,1.711.027.889.12,1.771-.2.913-.1,1.8.744.814.838,1.7-.053.9.039,1.78-.115.9-.021,1.786.231.867.325,1.75-.461.94-.368,1.823.523.838.617,1.721.446.846.54,1.728-.246.918-.153,1.8-.208.915-.115,1.8.04.888.132,1.771.342.857.435,1.74-.087.9.006,1.784.617.827.711,1.71-.581.954-.487,1.837.294.859.386,1.739.085.882.179,1.763-.093.9,0,1.784.766.813.859,1.7-.185.911-.093,1.793.078.882.172,1.764-.02.894.073,1.776.387.852.481,1.735-.057.9.037,1.782.177.873.271,1.756-.238.917-.145,1.8.706.819.8,1.7-.019.9.075,1.778-.581.955-.487,1.838.359.856.452,1.74.176.875.269,1.759.06.888.153,1.772-.06.9.033,1.784.485.843.578,1.727.085.883.178,1.767.124.881.217,1.765-.413.938-.32,1.823.646.827.74,1.712-.225.919-.132,1.8.1.886.2,1.773.132.882.225,1.769c.065.613.477,1.229.447,1.827-.031.613-.543,1.176-.667,1.763a11.262,11.262,0,0,1-.764,1.629c-.219.569.214,1.45-.089,1.974s-1.248.62-1.629,1.092-.541,1.121-.992,1.528a11.609,11.609,0,0,1-1.547.946c-.5.328-.857.95-1.416,1.2s-1.272-.006-1.864.152a11.191,11.191,0,0,1-1.748.269c-.887.094-.862.34-1.749.435s-.893.037-1.78.131-.858.381-1.745.475-.893.048-1.782.142-.9-.069-1.792.025-.9-.061-1.791.033-.88.172-1.767.265-.836.56-1.721.654-.874.214-1.759.307-.963-.627-1.85-.532-.858.381-1.746.475-.908-.112-1.8-.019-.871.246-1.757.339-.874.222-1.76.315-.852.436-1.74.53-.951-.5-1.839-.41-.878.183-1.765.276-.893.049-1.781.142-.906-.069-1.8.024-.89.065-1.778.158-.822.732-1.711.825-.919-.193-1.807-.1-.886.129-1.774.223-.9.022-1.785.116-.932-.314-1.821-.22-.849.486-1.737.581-.916-.169-1.8-.076-.9,0-1.788.093-.894.053-1.784.147-.8.953-1.689,1.047-.98-.764-1.87-.669-.83.684-1.721.777-.9,0-1.793.091a13.28,13.28,0,0,1-1.846.4,12.336,12.336,0,0,1-1.792-.6,11.719,11.719,0,0,1-1.78-.441,12.48,12.48,0,0,1-1.781-.582c-.526-.3-.625-1.239-1.1-1.62s-1.413-.276-1.82-.727-.383-1.258-.715-1.769a11.563,11.563,0,0,1-.629-1.682,10.935,10.935,0,0,1-.7-1.628c-.154-.578-.876-1.069-.94-1.682-.094-.881.087-.9-.006-1.78s.094-.9,0-1.781-.089-.881-.181-1.762-.08-.882-.173-1.763.094-.9,0-1.782-.314-.859-.407-1.741-.265-.865-.358-1.747-.348-.855-.441-1.738,0-.891-.1-1.774.248-.917.155-1.8.039-.895-.053-1.776-.492-.839-.585-1.72.056-.9-.036-1.778.405-.934.312-1.815-.508-.838-.6-1.719.276-.921.183-1.8-.5-.841-.588-1.723.2-.914.107-1.8-.035-.889-.128-1.77-.188-.872-.28-1.754-.382-.851-.475-1.733.358-.929.264-1.811-.77-.81-.864-1.693.619-.958.526-1.84-.662-.824-.756-1.706-.065-.885-.159-1.768.37-.931.277-1.812-.1-.883-.191-1.764-.525-.837-.618-1.719-.034-.889-.127-1.773-.042-.888-.135-1.771-.127-.879-.22-1.761-.334-.856-.427-1.739.414-.937.322-1.819-.641-.826-.735-1.709-.12-.88-.214-1.762.605-.956.513-1.839-.216-.87-.31-1.752-.548-.833-.641-1.713.126-.9.033-1.785.125-.906.033-1.788-.224-.869-.318-1.752.106-.9.013-1.785-.151-.875-.244-1.757.089-.9,0-1.782-.441-.847-.534-1.73.117-.906.024-1.789-.654-.824-.747-1.706.274-.922.181-1.8-.295-.863-.388-1.747.354-.931.261-1.814-.682-.822-.775-1.705.629-.96.535-1.844-.473-.844-.565-1.729-.4-.852-.489-1.736-.131-.88-.224-1.765.487-.945.394-1.83-.135-.878-.229-1.761.07-.9-.024-1.785-.3-.863-.394-1.748-.718-.819-.811-1.7.373-.935.28-1.82-.437-.85-.531-1.737.49-.948.4-1.835a11.535,11.535,0,0,1-.193-1.779,11.369,11.369,0,0,1,.168-1.792,11.523,11.523,0,0,1,.4-1.771,11.645,11.645,0,0,1,1.024-1.507,11.875,11.875,0,0,1,.806-1.63,11.7,11.7,0,0,1,1.369-1.191,11.382,11.382,0,0,1,1.354-1.194,11.887,11.887,0,0,1,1.482-1.11,12.246,12.246,0,0,1,1.813-.371A11.838,11.838,0,0,1,3123.227-2824.409Z" transform="translate(-3112.826 2830.781)" fill="none" stroke="#d8493d" stroke-miterlimit="4.002" stroke-width="6.003"/>
        </g>
      </g>
      <g id="Soustraction_1" data-name="Soustraction 1" transform="translate(5.291 6.487)">
        <path id="Tracé_305" data-name="Tracé 305" d="M3194.487-2699.3c-.888.094-.928-.282-1.816-.189s-.879.188-1.767.282-.824.692-1.712.786-.969-.675-1.856-.58-.844.514-1.733.607-.933-.365-1.819-.271-.8.886-1.689.979-.935-.356-1.823-.262-.87.266-1.759.36-.938-.385-1.824-.292-.859.357-1.746.45-.889.078-1.776.171-.881.166-1.77.259-.9-.066-1.793.029-.892.052-1.78.145-.875.209-1.764.3-.859.375-1.749.469-.871.255-1.759.349-.931-.3-1.82-.2-.907-.083-1.8.011-.86.374-1.75.469-.856.4-1.746.49-.914-.135-1.8-.041-.928-.268-1.817-.174-.849.454-1.738.548-.9-.049-1.793.044-.857.415-1.747.508-.947-.438-1.837-.344-.824.718-1.715.812-.883.176-1.775.271-.923-.2-1.815-.106c-.61.063-1.184-.388-1.768-.458a7.357,7.357,0,0,1-1.687-.363c-.567-.2-1.3-.045-1.8-.368a8.7,8.7,0,0,1-1.556-1.024c-.419-.425-.469-1.191-.787-1.7a7.869,7.869,0,0,1-.6-1.661,7.542,7.542,0,0,1-.37-1.7c-.094-.886-.4-.854-.5-1.74s.208-.918.115-1.8-.66-.827-.754-1.714-.044-.892-.138-1.78.532-.954.439-1.84-.7-.823-.794-1.709.151-.913.057-1.8.216-.919.123-1.8-.507-.842-.6-1.729.128-.909.035-1.8.158-.913.065-1.8-.024-.894-.117-1.781-.211-.874-.3-1.761-.766-.817-.861-1.705-.139-.882-.233-1.77.231-.921.138-1.807-.217-.874-.311-1.76.371-.936.278-1.822-.612-.833-.705-1.719.37-.936.276-1.823-.676-.826-.769-1.714.141-.913.047-1.8.446-.944.353-1.832-.351-.859-.444-1.747.108-.908.013-1.8-.308-.865-.4-1.751-.646-.83-.74-1.717.475-.948.381-1.836.053-.9-.04-1.79-.286-.867-.379-1.755-.378-.857-.471-1.745-.125-.885-.219-1.773.424-.942.329-1.83-.394-.856-.488-1.743-.081-.889-.176-1.777-.177-.876-.271-1.761.114-.908.021-1.794-.394-.856-.487-1.743.01-.9-.084-1.788-.225-.873-.319-1.76.235-.921.142-1.807-.626-.831-.719-1.718.04-.9-.053-1.791.312-.93.219-1.819-.365-.858-.459-1.746-.252-.871-.346-1.759.287-.929.192-1.818-.155-.881-.249-1.769.05-.9-.043-1.793-.607-.834-.7-1.722.667-.969.573-1.859-.91-.8-1-1.692.642-.966.548-1.856-.7-.825-.8-1.714.075-.906-.019-1.793-.269-.871-.363-1.759-.265-.872-.36-1.762.593-.962.5-1.852.1-.911.007-1.8-.434-.856-.528-1.748-.567-.841-.662-1.733c-.063-.61.738-1.2.807-1.784.073-.6-.6-1.379-.4-1.937s1.123-.8,1.445-1.3a7.434,7.434,0,0,1,1.126-1.3,7.313,7.313,0,0,1,1.324-1.092c.5-.313.865-.881,1.439-1.078a8.138,8.138,0,0,1,1.756-.424c.889-.094.873-.236,1.761-.33s.9.02,1.79-.074.914.162,1.8.069.913.135,1.8.042.865-.31,1.753-.4.906.1,1.791,0,.83-.633,1.716-.727.933.338,1.821.244.888-.089,1.777-.183.88-.167,1.766-.261.864-.313,1.751-.407.895-.023,1.781-.117.925.254,1.814.16.832-.63,1.72-.725.917.188,1.8.094.888-.086,1.777-.18.863-.339,1.752-.433.946.458,1.834.363.838-.584,1.727-.678.9-.028,1.784-.121.92.195,1.809.1.821-.745,1.709-.839.906.052,1.8-.042.911.115,1.8.02.873-.232,1.761-.326.948.46,1.838.366.844-.524,1.734-.618.853-.448,1.743-.542.927.246,1.817.152.923.207,1.816.112.9-.04,1.79-.134a8.032,8.032,0,0,1,1.75-.236,7.669,7.669,0,0,1,1.667.579c.567.2,1.337,0,1.84.322s.537,1.215.958,1.641a7.559,7.559,0,0,1,1.225,1.229,7.572,7.572,0,0,1,.74,1.581,7.684,7.684,0,0,1,.19,1.724c.094.886.766.814.859,1.7s-.184.915-.091,1.8.079.888.173,1.775-.02.9.074,1.787.388.856.482,1.743-.057.9.037,1.79.179.877.272,1.764-.238.921-.144,1.808.705.821.8,1.707-.018.9.076,1.784-.58.957-.487,1.843.36.859.453,1.745.176.879.269,1.766.06.891.154,1.78-.06.9.035,1.791.484.846.578,1.733.086.887.179,1.774.124.883.217,1.77-.412.94-.319,1.826.646.829.74,1.716-.224.921-.131,1.809.1.887.2,1.774.132.883.225,1.77.489.846.583,1.733-.339.932-.245,1.819-.175.916-.082,1.8.863.807.956,1.7-.629.963-.535,1.851.424.853.517,1.74-.1.908-.006,1.8.469.848.563,1.735-.384.939-.29,1.827.04.894.135,1.781.34.862.434,1.75.038.893.132,1.781.381.856.475,1.741.047.89.141,1.776-.069.9.024,1.792-.06.9.034,1.793.172.879.265,1.766.56.837.654,1.723.214.875.307,1.761-.626.964-.533,1.852.381.858.475,1.746-.112.909-.019,1.8.245.872.338,1.76.223.875.317,1.764.436.852.529,1.74-.5.952-.41,1.841.183.88.277,1.767.049.9.142,1.784-.069.906.024,1.795.065.892.158,1.781.732.822.825,1.71-.192.918-.1,1.806.129.885.222,1.775.022.9.117,1.787-.314.933-.221,1.823.487.848.581,1.739-.169.919-.075,1.811,0,.9.093,1.793a7.234,7.234,0,0,1-.052,1.7c-.072.6.623,1.387.422,1.945s-1.239.731-1.561,1.234-.226,1.321-.653,1.743a8.336,8.336,0,0,1-1.49,1.05c-.5.313-.948.91-1.522,1.107A9.356,9.356,0,0,1,3194.487-2699.3Zm-27.627-55.784c-.051.005-.152-.364-.2-.359a3.866,3.866,0,0,0-1.962,1.095c-.528.568-.224,1.465-.088,2.229.113.893-.672.984-.578,1.879s.514.852.609,1.748-.364.947-.269,1.844.887.814.982,1.71-.355.945-.261,1.841.267.879.362,1.775-.385.949-.29,1.848.358.869.453,1.767.078.9.173,1.8.167.889.261,1.788-.064.915.031,1.814.053.9.147,1.8.211.887.305,1.785.376.869.471,1.768.256.88.351,1.776-.3.94-.2,1.838-.083.918.012,1.817.375.87.47,1.769.4.868.493,1.768-.134.925-.038,1.826-.258.935-.173,1.837c.034.547.476,1.045.605,1.573a9.179,9.179,0,0,0,.4,1.6c.222.5.76.8,1.07,1.253.387.529.479,1.369,1,1.756s1.38.146,2,.366a7.324,7.324,0,0,0,1.58.234,7.908,7.908,0,0,0,1.628.281c.165-.017.4.4.567.376a14.215,14.215,0,0,0,1.474-.381c.476-.139.794-.749,1.252-.939a13.634,13.634,0,0,0,1.239-.8c.522-.264,1.24-.182,1.72-.515a13.307,13.307,0,0,0,1.494-.982c.385-.365.772-.766,1.117-1.167s.432-1.017.735-1.451c.344-.519.931-.9,1.231-1.443s.069-1.353.325-1.919.525-1.1.735-1.689.994-.993,1.156-1.594c.213-.752-.478-1.514-.924-2.156a3.712,3.712,0,0,0-1.5-1.593c-.452-.2-.973-.584-1.463-.535-.222.024-.371.479-.581.551a2.509,2.509,0,0,0-1.664,1.526c-.191.534-.627.952-.849,1.473s-.514.986-.767,1.492-.407,1.044-.689,1.536c-.365.645-.241,1.644-.723,2.2a11.908,11.908,0,0,1-1.624,1.61,4.2,4.2,0,0,1-1.637.424c-.112.025-.22.168-.334.181-.346.04-.636-.447-.969-.555-.428-.148-1.1-.023-1.362-.389-.32-.459-.091-1.166-.127-1.724-.086-.9-.677-.838-.772-1.735s.14-.922.045-1.82.444-.956.35-1.855-.353-.872-.447-1.771.106-.921.012-1.82-.31-.878-.405-1.778-.968-1.026-.729-1.9c.232-.855,1.061-.506,1.594-1.213s.65-.616,1.183-1.321.377-.822.91-1.526.306-.879.84-1.587.508-.725,1.041-1.431.948-.393,1.482-1.1.293-.889.827-1.6.543-.7,1.077-1.406.467-.76,1-1.467.7-.584,1.238-1.294.3-.89.831-1.6a2.031,2.031,0,0,0,.406-1.914,3.326,3.326,0,0,0-1.233-1.625,3.037,3.037,0,0,0-1.927-.895c-.036,0,0,.538-.036.541a2.307,2.307,0,0,0-1.8,1.008c-.537.744-.879.494-1.428,1.229s-.331.9-.88,1.637-.423.832-.973,1.57-.855.508-1.4,1.244-.5.774-1.052,1.513-.668.653-1.22,1.392-.137,2.122-1.036,1.913c-.87-.2.407-1.261.313-2.15s-.91-.8-1-1.691.642-.964.549-1.851-.7-.824-.8-1.712.075-.906-.019-1.8-.268-.871-.362-1.76-.265-.872-.36-1.761.593-.963.5-1.854.083-.9.007-1.793a3.065,3.065,0,0,0-1.528-2.058A3.077,3.077,0,0,0,3166.861-2755.081Zm-11.6,37.075c.087.841-.288.88-.2,1.721s.183.832.272,1.674.688.777.776,1.618-.679.923-.59,1.766.51.8.6,1.644-.356.884-.281,1.729c.038.74,1.059,1.082,1.674,1.494.591.385,1.1.963,1.8.918.1,0,.185-.178.284-.189.615-.069,1.479.033,1.928-.392a3,3,0,0,0,.559-2.487c-.112-.88-.075-.881-.169-1.762s-.165-.874-.257-1.757.066-.9-.027-1.778-.052-.885-.144-1.766-.208-.868-.3-1.75-.375-.852-.468-1.735-.255-.865-.348-1.747.3-.922.206-1.8.084-.9-.01-1.782-.373-.853-.467-1.736-.4-.85-.49-1.732.136-.907.043-1.79.269-.921.175-1.8-.453-.846-.547-1.729.051-.9-.042-1.781-.413-.849-.507-1.732.439-.939.346-1.822-.717-.816-.811-1.7-.175-.874-.269-1.758.2-.914.108-1.8.353-.932.259-1.815-.128-.881-.222-1.766-.56-.836-.654-1.722-.29-.87-.37-1.757c-.045-.787-.082-1.6-.759-2a3.481,3.481,0,0,0-2.008-.635c-.051.005-.1.007-.154.012a3.287,3.287,0,0,0-1.732,1.136,2.61,2.61,0,0,0-.912,2.082c.119.926.665.864.763,1.792s.048.933.146,1.862-.528,1-.43,1.924.706.866.8,1.8.492,1.128-.049,1.891c-.512.722-.931-.146-1.8.012s-.8.567-1.669.726-.913-.062-1.786.1-.919-.091-1.792.068-.886.089-1.759.248-.854.275-1.729.433-.755.833-1.631.985a1.291,1.291,0,0,0-1.16.922,3.355,3.355,0,0,0-.581,1.735,4.1,4.1,0,0,0,.921,1.854c.336.5.789,1.149,1.386,1.078.07-.007.068-.531.14-.55.856-.155.938.306,1.794.154s.755-.729,1.612-.883.9.079,1.757-.073.954.381,1.812.228.813-.407,1.671-.56.9.046,1.756-.108.893-1.088,1.577-.545c.719.571.6.766.7,1.678s-.473.974-.375,1.888-.051.929.046,1.843.289.894.385,1.807.379.886.476,1.8.615,1.123.2,1.946-1.146.127-1.941.61-.638.741-1.431,1.223-.8.473-1.6.955-.752.556-1.549,1.04-.9.3-1.7.787-.64.742-1.437,1.226-.852.4-1.65.881-.723.617-1.531,1.084c-.636.322-1.269.814-1.258,1.527s.678,1.2,1.066,1.8a3.522,3.522,0,0,0,1.28,1.333c.306.173.549.625.9.595.271-.033.448-.378.678-.523.752-.463.669-.6,1.423-1.059s.955-.136,1.709-.6.723-.516,1.478-.978.829-.338,1.583-.8.486-.9,1.242-1.366,1.156.189,1.913-.275.327-1.176,1.09-1.63A2.178,2.178,0,0,1,3155.264-2718.006Zm-15.057-68.15c-.055.006-.147-.365-.2-.36a3.57,3.57,0,0,0-1.9.974c-.509.513-.207,1.359-.084,2.07.112.9-.671.994-.576,1.9s.517.862.612,1.767-.363.954-.268,1.858.889.822.984,1.727-.354.955-.258,1.861.268.888.364,1.8-.384.957-.288,1.864.359.882.455,1.79.091.907.176,1.817a2.474,2.474,0,0,0,1.051,1.757,3.539,3.539,0,0,0,1.858.75c.112,0,.25.034.351.023a3.821,3.821,0,0,0,1.782-.87,2.327,2.327,0,0,0,.567-2.249c-.117-.9-.258-.892-.353-1.8s.3-.947.2-1.853.082-.922-.014-1.827-.376-.876-.471-1.781-.4-.875-.5-1.782.134-.93.037-1.837.266-.945.171-1.852-.456-.87-.552-1.778.035-.92-.048-1.83c-.041-.751-.665-1.215-1.321-1.581-.574-.33-1.175-.97-1.833-.9A1.547,1.547,0,0,0,3140.207-2786.156Zm29.638.254-.362-.073c-.235.8-.144.826-.378,1.625s.343.971.108,1.771-.977.584-1.212,1.385.171.919-.064,1.719-.678.672-.913,1.474.529,1.028.293,1.832a2.053,2.053,0,0,1-.876,1.434c-.693.587-.82.306-1.715.464s-.979-.318-1.874-.161-.85.419-1.745.575-.9.141-1.791.3-.882.229-1.777.385-.924,0-1.82.157-.9.115-1.8.273-.876.272-1.773.429-.848.436-1.747.594-.872.33-1.771.475c-.687.087-1.436.184-1.752.8a3.639,3.639,0,0,0-.449,2.012,3.849,3.849,0,0,0,1.159,1.809c.383.44.934.362,1.513.289.081-.008.185.208.265.192.89-.16.954.2,1.844.041s.828-.516,1.719-.675.915-.016,1.806-.175.835-.476,1.726-.635.985.367,1.875.208.782-.777,1.674-.935.876-.24,1.768-.4.944.133,1.835-.027.971.282,1.862.124.884-.194,1.775-.353.809-.621,1.7-.779.86-.341,1.752-.5.97.273,1.863.115.922.007,1.814-.152.9-.155,1.789-.314.839-.473,1.734-.623a2.327,2.327,0,0,0,1.782-.925c.282-.569-.146-1.279-.216-1.91a3.03,3.03,0,0,0-.764-1.739c-.42-.472-.9-1.233-1.527-1.135-.089.009-.08.622-.173.644-.992.176-1.035-.069-2.028.1s-1.021.755-1.79.1c-.646-.548-.07-.613.163-1.427s.448-.755.681-1.571.477-.747.711-1.564.3-.8.534-1.613.12-.849.354-1.667-.417-1.005-.182-1.824.187-.834.425-1.653a4.927,4.927,0,0,0,.5-1.973,3.055,3.055,0,0,0-.714-1.506c-.369-.391-.594-1.063-1.106-1.226-.48-.155-1.038.3-1.54.367-.156.017-.386-.419-.553-.385-.9.163-.8.737-1.7.9s-.944-.07-1.845.091-1-.373-1.9-.211-.857.416-1.759.577-.937-.037-1.839.124-.864.374-1.766.536-.8.708-1.706.87-1-.4-1.9-.24-.928.016-1.829.177-.869.352-1.772.514-.852.442-1.755.6-.9.193-1.8.354-1-.35-1.9-.188-.849.472-1.756.622a2.091,2.091,0,0,0-1.611,1.15,3.273,3.273,0,0,0-.178,1.934,3.835,3.835,0,0,0,.725,1.868,1.73,1.73,0,0,0,1.582.311c.083-.009.177.082.258.064.906-.162.884-.291,1.79-.453s.964.164,1.872,0,.812-.687,1.718-.849.931-.029,1.838-.191.979.241,1.885.079.857-.43,1.763-.591.879-.319,1.785-.481.975.215,1.882.053.9-.223,1.8-.385.933-.02,1.841-.182.819-.67,1.729-.833,1.044.593,1.953.428A2.43,2.43,0,0,0,3169.844-2785.9Zm2.669-12.123-.239.28c.592.611.66.544,1.252,1.155s1.026.192,1.619.8.046,1.131.626,1.755c.439.526,1.394.518,2.076.48.056-.006.185.443.229.432.663-.118.92-1.132,1.357-1.643.459-.488,1.124-.843,1.239-1.5a1.933,1.933,0,0,0-.695-1.735c-.632-.641-.279-.984-.9-1.631s-.817-.466-1.444-1.116-.614-.66-1.24-1.31-.678-.6-1.305-1.25-.512-.762-1.14-1.413-.6-.679-1.223-1.329-.711-.571-1.339-1.222-.833-.456-1.462-1.109-.758-.533-1.378-1.194c-.256-.312-.375-.836-.766-.937a2.984,2.984,0,0,0-.845-.23c-.113.012-.2.313-.307.34-.38.1-.581.517-.91.729s-.754.282-1.009.6c-.339.444-.889.925-.925,1.482-.023.573.549,1.1.968,1.494.571.578.459.687,1.021,1.273s.8.364,1.359.952,1,.474.681,1.223c-.355.846-.548.639-1.442.841s-.874.282-1.769.483-.96-.086-1.854.116-.993-.236-1.886-.034-.887.236-1.782.438-.791.66-1.686.861-.854.382-1.749.584-.991-.227-1.886-.025-.93.037-1.823.238-.9.2-1.79.4-.827.5-1.723.705-.963-.094-1.858.108-.77.758-1.666.961-.908.153-1.806.356-1.026.677-1.562-.069,0-.687.493-1.443.7-.625,1.2-1.385.76-.587,1.258-1.345.152-.988.652-1.747.686-.638,1.185-1.4.711-.62,1.21-1.379.559-.723,1.059-1.483.4-.827.9-1.589-.079-1.157.442-1.906a1.792,1.792,0,0,0,.367-1.787c-.19-.641-.258-1.229-.825-1.582a3.274,3.274,0,0,0-2.031-.435c-.055.005-.157-.46-.211-.454-.722.1-1.11.918-1.481,1.545-.495.776-.9.516-1.4,1.286s-.016,1.093-.523,1.863-.7.64-1.208,1.41-.958.47-1.462,1.238-.29.912-.8,1.683-.675.658-1.18,1.427-.326.889-.832,1.659-.042,1.076-.549,1.847-.984.456-1.49,1.226-.629.691-1.137,1.463-.346.879-.854,1.652-.26.938-.779,1.7a2.864,2.864,0,0,0-.565,1.719c-.018.576-.364,1.287-.09,1.793a3.353,3.353,0,0,0,1.6,1.081,3.01,3.01,0,0,0,1.591.248c.13-.014.248-.117.38-.145.855-.191.9.01,1.756-.182s.79-.487,1.646-.68.881-.091,1.738-.284.828-.322,1.685-.516.929.129,1.785-.064.739-.715,1.6-.907.887-.063,1.745-.256.947.206,1.8.012.8-.459,1.655-.652.823-.349,1.68-.542.942.179,1.8-.014.844-.254,1.7-.447.89-.053,1.749-.246.744-.7,1.6-.89,1.025.552,1.881.359.677-.994,1.535-1.187,1.021.528,1.88.335.724-.792,1.583-.985.9-.029,1.756-.222.822-.365,1.683-.559.822-.362,1.683-.556l.339.478C3172.746-2797.956,3172.508-2798.024,3172.514-2798.024Z" transform="translate(-3118.769 2823.496)" fill="#d8493d"/>
      </g>
    </g>
  </g>
</svg>
