<svg xmlns="http://www.w3.org/2000/svg" viewBox="0 0 88.58 162.88">
  <g id="Calque_2" data-name="Calque 2">
    <g id="Calque_1-2" data-name="Calque 1">
      <g id="Groupe_2767" data-name="Groupe 2767">
        <g id="Rectangle_1121" data-name="Rectangle 1121">
          <path d="M24.53,162.88l-2.92-.26L19,161.29l-2.54-1.22L14,158.58l-1.93-1.64-1-2.34L10,152.38,9.33,150l-.7-2.4-.22-2.54.29-2.57L8.17,140l-.51-2.52.54-2.59-.26-2.53-.11-2.55-.9-2.49.22-2.57.23-2.57-.94-2.5.08-2.55-.27-2.54L6.19,112l.35-2.58-.3-2.53v-2.56l-.48-2.52-.43-2.53V96.77l0-2.56-.54-2.52-.1-2.55L4.51,86.6,4.61,84l.25-2.58L4.07,79l-.32-2.54L3.5,73.88l-.18-2.53.52-2.59-.5-2.52.23-2.57-1-2.49V58.62l-.26-2.54.75-2.6L2.7,50.94l-.41-2.53-.52-2.52.6-2.6-.28-2.54-.93-2.5,0-2.55.33-2.58-.29-2.55L.56,28.06.48,25.5V20.37L.92,17.9.55,15.29l1.6-2.11,1-2.26L4.66,9,6.08,6.86l2.38-1,2.23-1L13,3.93l2.45-.37L18,3.21l2.53-.1L23,2.93l2.52-.33,2.55.23,2.5-.58,2.54,0,2.51-.48L38.18,2l2.49-.67,2.55.09,2.55.22,2.53-.17,2.55.1L53.34.83l2.56.27L58.42.69,60.92,0l2.59.6L66,.42l2.48.34L71,1.27,73,3l2.11,1.34,1.59,1.93L78.56,8l.75,2.44,1,2.34-.09,2.54,1,2.49-.38,2.58.37,2.53-.35,2.58L80.83,28l.64,2.51-.3,2.57.27,2.53.82,2.5-.13,2.57L82,43.26l0,2.55.44,2.53.22,2.53.2,2.54L83.05,56l.57,2.52L83.84,61l-.72,2.6.14,2.55.61,2.51-.32,2.58.56,2.52.74,2.51-.57,2.59.62,2.52L84.48,84l1,2.49,0,2.56.11,2.54-.49,2.58.22,2.54.52,2.53-.22,2.56.62,2.52-.3,2.58.64,2.51.15,2.55-.37,2.58.21,2.54.45,2.53.45,2.53-.41,2.59.24,2.54.31,2.53-.14,2.57.67,2.52.17,2.55L87.93,140l1.11,2.5-.17,2.57-1.21,2.32L87.47,150l-1.15,2.26-1.38,2.17-2.38,1.15-1.69,1.93-2.25,1.2-2.39,1-2.61-.46-2.53.2-2.53.11-2.49.64-2.54,0-2.53.24-2.53,0-2.54.07-2.54,0-2.49.74L48.35,161l-2.5.56L43.26,161l-2.5.58-2.49.69-2.54,0-2.53.23-2.59-.67-2.53.18-2.52.46ZM15.82,9.63l-2.5.5-2.61.62-2,1.79L7.42,14.88,6.8,17.42,6.11,20l.13,2.54.14,2.55.52,2.52.21,2.54-.29,2.57.53,2.52.51,2.52-.54,2.59.27,2.53.1,2.55.9,2.5-.22,2.57-.22,2.56.93,2.5L9,58.13l.28,2.53.06,2.56L9,65.79l.3,2.54v2.55l.48,2.53.43,2.53v2.55l0,2.56.53,2.52.1,2.55L11,88.66l-.09,2.56-.25,2.58.78,2.5.33,2.53.25,2.54.18,2.54-.52,2.59.5,2.52L12,111.59l1,2.49,0,2.56.26,2.54-.74,2.61.37,2.53.42,2.53.51,2.53-.6,2.59.28,2.54.93,2.5,0,2.57L14,142.16l.3,2.55.67,2.52.41,2.48,1,2.36,1.59,2,2,1.84,2.74.09,2.55,1,2.52-.35,2.53-.11,2.49-.69,2.56.42,2.54-.09,2.51-.39,2.53-.18,2.51-.36,2.54-.1,2.53-.17,2.52-.34,2.55.23,2.5-.57,2.54-.05,2.51-.48,2.56.28,2.5-.68,2.56.09,2.56.22,2.61-.52,2.53-.95L80,150.07l1.82-1.95.63-2.59L82.12,143l.6-2.59-.38-2.53-.26-2.54-.49-2.52.4-2.58-.36-2.53,0-2.56-.7-2.5.25-2.57-.38-2.53.29-2.58-1-2.49.38-2.58-.37-2.53.36-2.57-.07-2.55-.64-2.52.3-2.57-.27-2.54L79,92.07l.14-2.57.1-2.56,0-2.55-.43-2.53-.23-2.54-.2-2.54-.13-2.55-.57-2.52-.22-2.54.72-2.6L78,64l-.61-2.52.33-2.57-.57-2.52-.73-2.51L77,51.32l-.62-2.52.43-2.58-1-2.5,0-2.55-.11-2.55L76.19,36,76,33.48,75.45,31l.22-2.57-.62-2.52.3-2.58-.64-2.52-.15-2.56.37-2.59L74.36,13l-1.44-2.27L71,8.92,69.12,7l-2.58-.81-2.68,0L61.31,6l-2.49.67-2.53.17-2.56-.38L51.26,7.57l-2.53,0L46.15,7l-2.49.82L41.13,8l-2.51.36L36,7.66l-2.49.78L31,8.68l-2.52.38-2.58-.67-2.53.21-2.54.1-2.5.65Z" transform="translate(-0.46)" style="fill: #d8493d"/>
        </g>
      </g>
      <g id="台_北" data-name="台 北" style="isolation: isolate">
        <g>
          <g style="isolation: isolate">
            <path d="M59.67,31.17l-.53,1.22L58,33.12l-1.66-.29-.83-1.9L54,29.46l-2.62.7-2.46.93-2.69-.31L43.77,32l-2.68-.31-2.53.62L36,32.79l-2.52.65L31,34.28,28.31,34l-2.5.75-1.29-.6-1.26-.52-.2-1.31.75-1.23,1-2.25,2-1.59.69-2.51,2-1.6,1.43-2,1.53-1.92,1.24-2.12,1.4-.61,1.72,0,1.2,1.3-.87,1.74-1.51,2L34.52,24,33,26l-1.66,1.93L29.51,30l2.81-.64,2.66-.2,2.63-.38L40.18,28l2.6-.55,2.68-.1,2.62-.49,2.3-.87-2.15-2.9-.12-1.07.15-1.15.79-.42.72-.49.8.14.62.5,2.08,1.52,1.55,2,1.83,1.73L58,28.07,59.62,30ZM30.72,53.48,29.39,54l-1.29-.34L27,52.49l.48-2.57-.28-2.52-.4-2.51-.64-2.51.63-2.58L26.74,38l1.73.1,1.47.18.73,1.29L31,42.07l.54,2.51L31,47.15l.45,2.52-.29,2.56Zm27.61-5.07-.15,1.23-1,.76-2.4.79-2.55-.31-2.45.45-2.43.58-2.4.8-2.57-.45L40,53.38l-2.57-.45-2.45.5L33.77,53,33,51.65,32.94,50l1.68-.29L37.36,49l2.85.07,2.71-.9,2.8-.31,2.94-.17.39-2.43,1.36-1.92L50.28,41l1.3-2.16L49,39l-2.43.21-2.39.55L41.7,40l-2.35.86L37,41.4l-2.48-.12-1.34-.5-1.09-1.32.37-1.73,1.6-.82,2.51.07,2.41-.6,2.49-.06,2.47-.23,2.42-.61,2.45-.41,2.51,0,2.46-.36,1.57-.5.81,1,.14,1.23.11,1.55-.89,2.13-.54,2.24-.84,2.14L53.41,47l3.19-.9,1.64.7Z" transform="translate(-0.46)" style="fill: #d8493d"/>
          </g>
          <g style="isolation: isolate">
            <path d="M42.51,100.86l-1.74.56-1.57-.68L39,99.2l-.6-2.58L38.1,94l-.27-2.35-2.15.47-2.07,1.2-2.1,1.15-1.72,1.86-1.65-.1L27,95l-.2-1.66.7-1.42,2.64-1.18,2.27-1.83,2.62-1.23,2.46-1.28L38,83.67l-1.14-2.78L37,78.22l-2.12.18-2.31.5-2.42-.28-2.25,1-1.3-.92-1-1.47.93-1.35.84-1.11,2.41-.08,2.37-.39,2.36-.49,2.58-.06,0-2.58-.39-2.39,0-2.41.5-1.26,1.17-.55,1.55.07.7,1.49.61,2.5L41,71.15l.34,2.52,0,2.53L42,78.69l.24,2.53-.54,2.56.77,2.49v2.54l.19,2.53,0,2.54-.26,2.56L42.9,99Zm21.88-9.73-1.15,2.7-1.68,2.38L59.5,97.59l-2,1.76-3.24,1.14-3.07-.09L49.41,98l-1-3.35-.16-2.66-.95-2.6-.08-2.67L47.1,84l0-2.67-.4-2.64L46.82,76l-.67-2.63,0-2.67L46,68.05l.53-2.71-.26-1.93L48,62.82l1.65.63,1,1.63-.45,2.52L51.1,70l-.23,2.51L51.44,75l-.28,2.84,1.56-2.35,1.76-1.78,1.52-2,1.46-2,1.72-.59,1.3.58,1,1.15L61,72.16,59.33,74l-1.55,2-1.34,2.14L54.75,80,53.5,82.24l-2,1.7.32,2.5,0,2.44.69,2.41.23,2.44-.29,1.39,1.13.16.89.21,1-.46,2.41-2.31,1.35-1.52.51-2,1.34-.83,1.36,0,1.26,1Z" transform="translate(-0.46)" style="fill: #d8493d"/>
          </g>
        </g>
      </g>
      <g id="_101" data-name=" 101" style="isolation: isolate">
        <g style="isolation: isolate">
          <path d="M35.49,114.08l-.07,2.58.42,2.48.22,2.5-.16,2.52.54,2.48-.18,2.52.69,2.47.09,2.51.08,2.51-.39,2.54.13,2.51.18,2.21-2.07.22-2.69.71.48-2.86-.7-2.44.45-2.52-.23-2.48-.68-2.45.1-2.5v-2.5l0-2.8-2.6.58-2.29,0-.63-2.25.33-2.33.44.25,2.84-1,1.64-2.3.37-2.83Z" transform="translate(-0.46)" style="fill: #d8493d"/>
          <path d="M49.42,143.27l-2.43.65-2.23-1.13-2-1L41,140.24l-.85-2.14-.56-2.29-.48-2.71-.35-2.71-.4-2.72.28-2.76.22-2.75-.38-2.41.87-2.26,1.36-2,2.12-1.17,2.22-1,2.43-.12,2.44-.3,2.25,1,2.13.93,1.43,1.78,1.71,1.82L57.38,121l-.08,2.74,1,2.67-.45,2.77.71,2.7-.15,2.75L58,137l-.62,2.22L55.9,141l-1.64,1.88-2.5.12Zm-.25-3.87,2.45-1.26,2.14-1.71L54,133.6l-.32-2.76-.05-2.77-.36-2.76-.49-2.75L52.11,120l-1.81-1.51-2.51-.71-2.81.27-1.36,2.44-.37,2.68.3,2.76v2.77l.43,2.76,0,2.78.86,2.55,1.53,2.28Z" transform="translate(-0.46)" style="fill: #d8493d"/>
          <path d="M68.51,111.66l.07,2.88.31,2.5-.51,2.54.6,2.47.26,2.5.48,2.48.13,2.5-.42,2.54.12,2.51.09,2.51.69,2.47-.09,2.57-2.4.56-2.19-.54-.59-2.22.19-2.5L64.77,135l.35-2.52L64.81,130l-.71-2.45.25-2.52,0-2.65-2.47.14-2,0-.4-2,.21-2.25.09.33,2.78-1.2,1.77-2.18.18-3.11Z" transform="translate(-0.46)" style="fill: #d8493d"/>
        </g>
      </g>
    </g>
  </g>
</svg>
