<svg xmlns="http://www.w3.org/2000/svg" viewBox="0 0 104.53 162.72">
  <g id="Calque_2" data-name="Calque 2">
    <g id="Calque_1-2" data-name="Calque 1">
      <g id="Groupe_2768" data-name="Groupe 2768">
        <g id="Rectangle_1121" data-name="Rectangle 1121">
          <path d="M22.43,162.41l-2.69.19L17,162.27l-2.12-1.83-2.39-1.21-1.74-2-2-1.82-1.54-2.3-.42-2.75-.31-2.69-.52-2.52.33-2.57L6.18,140l.26-2.56-.39-2.53-.41-2.53.19-2.56,0-2.55-.61-2.52L5,122.21l.22-2.56-.42-2.53.4-2.57-1-2.51L5,109.46l-.15-2.55L4,104.4l-.23-2.54L3.6,99.31l.67-2.58L4,94.19l-.6-2.53.21-2.56.25-2.57L3.57,84l-.73-2.51.43-2.58-.75-2.51.76-2.6-.87-2.5.31-2.57L2.05,66.2l.31-2.56L2,61.1V58.55L1.72,56l-.38-2.54.51-2.58-.44-2.53-.26-2.54.31-2.57.12-2.57L.69,38.17,1,35.6,1.13,33,.87,30.49.42,28,.33,25.4l.14-2.57L0,20.29l.29-2.51.2-2.53.66-2.49L3,10.92,4.33,8.78,6.12,7,8,5.33l2.39-.91,2.45-.6,2.47-.62L17.89,3l2.54,0L23,2.72l2.57.4,2.51-.63,2.54-.1,2.54-.08,2.56.27,2.55.11,2.54-.06,2.54-.22,2.51-.67,2.53-.26,2.55-.08,2.55,0L56,1.27l2.55,0L61.08.9,63.62.67,66.18,1,68.72,1,71.25.37,73.79.15l2.56.1L78.93.8,81.46.22l2.47.45L86.55.38,88.68,1.9l2.15,1.21,1.89,1.56L94.6,6.3l1.43,2,1.35,2.14L97.85,13l.71,2.46L98.08,18l.4,2.53,0,2.55.71,2.52-.37,2.57.44,2.52L99,33.27l.56,2.52.22,2.54-.38,2.57.25,2.54.54,2.53L100,48.53l-.47,2.57.17,2.55.69,2.52.16,2.54-.22,2.57.74,2.51-.4,2.57-.29,2.57.3,2.54L101,74l.35,2.53-.43,2.58.81,2.51-.19,2.57.49,2.53.29,2.53-.08,2.56.22,2.54-.54,2.58.45,2.53.16,2.54.5,2.53.17,2.55.15,2.54-.64,2.59.43,2.53.54,2.53-.62,2.59.76,2.52-.25,2.57-.08,2.55.07,2.55.19,2.55.72,2.53-.58,2.58.66,2.53-.32,2.58-.21,2.45.07,2.55-.88,2.36-1.38,2.1-1.27,2.21-1.69,1.94-2.13,1.47-2.37,1-2.64-.09L89.33,160l-2.55-.1-2.56-.25-2.52.55-2.55-.13-2.53.37-2.56-.32-2.54-.1L69,160.5l-2.55-.12-2.5.87-2.56-.34-2.52.64-2.57-.6-2.55.13-2.52.43-2.57-.3-2.52.52-2.53.33-2.55.17-2.57-.56-2.5,1-2.59-.78-2.53.4-2.52.62-2.58-.5-2.55.2ZM15.64,9.05l-2.56.88-2.16,1.44L8.41,12.48,7.15,14.87,6,17.3,6.32,20l.45,2.53-.29,2.56.07,2.55.52,2.53-.33,2.57.08,2.54-.26,2.57L7,40.36l.4,2.53-.19,2.56,0,2.55.6,2.52L8,53.07l-.22,2.56.42,2.53-.39,2.57.94,2.51L8,65.83l.14,2.54L9,70.88l.24,2.54L9.41,76l-.67,2.59L9,81.1l.6,2.52-.21,2.56-.25,2.57.3,2.54.73,2.52-.43,2.57.75,2.51-.76,2.59.87,2.51-.31,2.57.67,2.52-.3,2.57.37,2.53v2.56l.26,2.54.38,2.54-.51,2.58.44,2.53.26,2.55L11.54,132l-.11,2.57.89,2.51L12,139.69l-.12,2.57.27,2.55.44,2.54L13,149.9l.88,2.48,1.95,1.76,2,1.66,2.52.62,2.54,0,2.58.65,2.52-.41,2.54-.18,2.52-.44,2.56.08,2.54,0,2.52-.42,2.53-.24,2.55,0,2.53-.2,2.57.4,2.51-.63,2.54-.1,2.55-.08,2.56.28,2.55.1,2.55-.06,2.54-.22,2.52-.67,2.53-.26,2.54-.08,2.55,0,2.55-.15,2.55,0,2.54-.4,2.54-.23h2.6L94,152.06l1.67-2L97,148l1.06-2.29.88-2.57-.58-2.52.26-2.56-.9-2.51.59-2.58-.09-2.55,0-2.54-.38-2.54-.15-2.54-.43-2.53.12-2.56-.52-2.53.48-2.57-.4-2.53,0-2.55L96.13,105l.37-2.57-.45-2.53.27-2.57-.55-2.52-.22-2.54.38-2.58-.25-2.54-.54-2.52L95.36,82l.47-2.57-.17-2.55L95,74.38l-.16-2.54L95,69.27l-.74-2.51.4-2.57L95,61.62l-.3-2.54-.3-2.53L94,54l.43-2.57-.81-2.52.19-2.56-.49-2.53-.29-2.54.07-2.56-.21-2.55.54-2.58L93,31.07l-.15-2.55L92.35,26l-.17-2.55L92,20.88l.64-2.59-.43-2.54-.86-2.45-.45-2.67L88.76,9.05,86.85,7.27,84.42,6.18l-2.68-.26-2.54.19-2.51.72-2.58-.59-2.51.67L69,6.58H66.49L64,7.24l-2.54.09-2.55-.08-2.52.48-2.52.37-2.55.14-2.54,0-2.58-.7-2.5,1-2.56-.09L38.56,8.2,36,8.75l-2.56-.13L31,9l-2.57-.33-2.55-.1L23.31,9l-2.56-.12-2.55.87Z" transform="translate(0 -0.15)" style="fill: #d8493d"/>
        </g>
      </g>
      <g id="寺_廟" data-name="寺 廟" style="isolation: isolate">
        <g>
          <g style="isolation: isolate">
            <path d="M77.94,48.05l-.19,2.13L76,51.65l-2.27,0-2.19.58-2.13.1-.1,2.57.12,2.66.09,2.66.26,2.66-.31,2.68.64,2.64-.45,2-1,1.66-1.82.64-2.48.34L62,71.92l-2.27-1-2.58.23-2.25-1.09L53,68.69l-.34-2.37L54,64.22l2.4-.68,2.33.6,2.3.76,2.59.87L63.2,63l.1-2.51L62.59,58,63,55.5l-.27-2.41-2.53-.21L57.71,54l-2.61-.14-2.56.36L50,54.94l-2.61-.11-2.58.22-2.59,0-2.54.54-2.57.22-2.51.75L32,56.25l-2.5.9-2.59.17L24.79,57l-.92-2.13,1-2.26,1.45-1.64,2.53-.63,2.64.16,2.57-.38,2.57-.41L39.3,50l2.5-1,2.56-.45,2.58-.29,2.66.35,2.56-.53,2.53-.67,2.55-.58,2.64.11h2.81L62.87,45l.2-1.26.59-1.53-2.48.67-2.5.29-2.46.64-2.56-.18-2.43.83-2.57-.26-2.51.22L43.68,45l-2.51.18-2.5.36-2.44.82-2.52.18-2.5.28-2.58-.29-2.41,1.07-1.67-1.31-.76-1.83-.22-2.37,2-1.43,2.75.16L31,40.14l2.71-.1,2.62-.9,2.73,0,2.7-.28,2.7-.25,2.67-.45-.16-2.49-.34-2.17-2.34-.13-2.61.14-2.53.87-2.6.22-2.57.54-2.69-.43L28.64,35l-1.84-.3-1-2.12.17-2.46L28.13,29l2.6-.48,2.63-.26L36,28.08l2.63-.27,2.62-.37,2.65-.21,2.25-.69.63-2.19v-2.5L47,19.21l2.61-.2,2.31.42,1,2.11-.24,2.27L53,26.12,55.65,26l2.61-.15,2.54-.71,2.55-.73,2.68.45,2.51-1.08,2.7.54,2.22-.06.26,2.28L74.23,29l-2.29,1.31L69.33,31l-2.67.11L64,31.55l-2.71-.17-2.67.15-2.6.85-2.9-.17.43,2.71-.13,2.72,2.71-1,2.68.35,2.63-.13,2.61-.34,2.52-1,2.68.2,2.61-.36,2.64-.14,1.94.44,1.1,2.07L77.15,40l-1.93,1.22-2.88-.13-2.85.27-2.84.55L68.25,43l.6,1.68L69,46l3.14-.54,3.15-.17,2.42.35ZM50.44,66.86l-1.37,1.7-2.37.2-2.16-1.39-2.44-.81-2.25-1.2L37.66,64l-2.3-1.11L33.9,61l.3-2.4,1.74-1.2,2-.44,2.19,1.32,2.33,1,2.29,1.12,2.53.61,2.17,1.4,1.24,2.12Z" transform="translate(0 -0.15)" style="fill: #d8493d"/>
          </g>
          <g style="isolation: isolate">
            <path d="M34.14,141.39l-1.34,1.73-2,1.13-2-1L28.47,141l-.41-2.55-.38-2.55,1-2.5.1-2.54-.5-2.55.68-2.52-.18-2.54.19-2.54.24-2.53-.78-2.57.09-2.53,1-2.51-.38-2.55-.29-2.55.74-2.52-.28-2.56.24-2.54,1-2.15,2.34-.68,2.22.81.26,2.26.31,2.55L35,103.2l.62,2.57-.66,2.52.58,2.57-.45,2.52-.51,2.53.72,2.58L35,121l.27,2.56-.6,2.52.27,2.56-.52,2.53L34,133.72l.73,2.58-.39,2.54Zm46.67-1.15-1,.67L78.67,142l-1.43-.13-3-1.26L71,140.31l-2-1.1.75-2.14,1-1.68,1.69-1,2.8,1.1L75,132.59v-2.51l0-2.51-1-2.47-.13-2.51.75-2.54L74,117.56l-.49-2.49.52-2.54L73.58,110l0-2.52L73.4,105l-3.06.6-1.67-1.12-.74,2.92.32,3,1.58.36,2.11.06.41,2.16.2,2.14-2.08.92-2.83,0,.62,2.84-.32,2.42,2.3-.69,2.17,1.24L73.57,124l-.91,1.83-1.7.68-3,1.12-.23,2.31-.38,2.6.16,2.6.24,2.62-.38,2.6-.71,1.8-2,.5-1.18-.34-1-.41-.66-.71-.37-1,.49-2-.43-2-2.92.1-2.91.41-3,.36.58,2.19-.23,2.09L52,142.87l-1.59,1.5-2.22-.89-1.13-1.75-.33-3.58-2.45.34-2.62.48-2.63.29-1.67-.66L36.81,137l-.32-2.24,2-1.15,2.64-.92,2.78.17,2.62-.48.39-2.2-2.28-.82-.76.95-1.74.65-2.35.05-.91-2.08,0-2.42.21-2.45-.35-2.41,0-2.43-.56-2.41.48-2.46.26-1.92,2-.56,1.7-.21.86,1L46,111.36l-.57-2.22-3,.69-3.18-.1-2-.55-.88-2,1-1.68L38.66,104l2.15-.41,2.17-.25,2.36.37-.05-1.13.52-2,2-1,2.34,1,.87,2.47,3.22-.26,3.09-.47,1.74.55,1.16,1.83-.48,1.79-1.74,1.28-2.26-.21-2.14.8-2.4-.23.08,2.53,2.45-.5,2.29-.17,1.45.1,1.55.56.71,1.58.14,1.76L59,116.3l.45,2.46L58.39,121l-.4,2.46,2.34.61.72,2.07-.94,1.66L58.6,129l-3.1.14-2.79.85-.14,1.75,2.27-.23,2.28-.2,2.27-.4,2.24-.3-.32-2.55.59-2.55.22-2.56-.5-2.58.15-2.56-.18-2.57.81-2.56.13-2.56-.38-2.58L62,105l-.17-2.58,1.36-1.82,2-.7,1.47.34,1.05.81.68-1,1.33-.57,2.87-.25,2.79-.89,2.45,1.66.61,1.25,1.25,1.41-.45,2.62.47,2.58.07,2.6L79.61,113l.23,2.59-.06,2.61,0,2.61.53,2.57.55,2.58-.64,2.63.9,2.57-.73,2.64,1,2.56L80.72,139Zm-3-47.84-.67,2L75.67,96l-2.56.22-2.62-.2L68,96.87l-2.5.78L62.84,97l-2.56.3-2.48.9L55.18,98l-2.52.58-2.57.21-2.57.16-2.45,1.17-2.56.32-2.67-.55-1.78-.18-1.22-1.86,1-2,1.55-1.4,2.89-.19,2.85-.43,2.85-.54,2.72-.5-.07-.52-.5-1.88,1.88-1,2.21-1.23,1.73,1.56L58,92l2.29,0,2.49.12L65.17,91l2.47-.08,2.4-.65,2.52.21,2.4-.65,1.84.92ZM46.2,116.71l-2.43-.89.64,2.44,2.1-.19,2.25.25,1.89.05L52,120.05l-1.21,1.65-1.56.77-2.3.86-2.76-.14.32,3,2.12-1.06,2.81-.19,2.45-1.1.26-2.53,1.23-2.66-.09-2.83L51,116.5l-2.45-.34Z" transform="translate(0 -0.15)" style="fill: #d8493d"/>
          </g>
        </g>
      </g>
    </g>
  </g>
</svg>
