<svg xmlns="http://www.w3.org/2000/svg" viewBox="0 0 105.17 163.73">
  <g id="Calque_2" data-name="Calque 2">
    <g id="Calque_1-2" data-name="Calque 1">
      <g id="Groupe_2763" data-name="Groupe 2763">
        <g id="Rectangle_1121" data-name="Rectangle 1121">
          <path d="M90.53,159.92,88,159.81l-2.52.32-2.55.08-2.55-.13-2.54.21-2.52.3-2.55-.12H70.19l-2.54.1-2.54.17-2.5.73-2.54.26-2.55-.11-2.54.21-2.55-.13-2.53.47-2.58-.53-2.53.38-2.54.16-2.55,0-2.5.9-2.55,0-2.54.24-2.55.09L27,163.16l-2.55.27-2.55.3-2.33-1.19-2.37-.7L15,160.69l-2.35-1.07-1.62-2-1.2-2.23-1.46-2.09-.89-2.42-.31-2.55L7,145.8l.76-2.6-.84-2.5-.16-2.55.51-2.58-.58-2.52-.19-2.54V128l-.07-2.55-.33-2.53-.45-2.53.3-2.57.22-2.56-.94-2.5L5,110.18l.3-2.57-.16-2.55.21-2.56L4.66,100,5,97.41,4.8,94.86l-.68-2.51.49-2.58-.68-2.52.32-2.57V82.12L3.8,79.6V77l-.63-2.52L3.22,72l-.49-2.52.19-2.57-.39-2.53.07-2.56-.42-2.53,0-2.55.49-2.58-.15-2.55-.69-2.52.58-2.59L1.64,44l.09-2.57-.5-2.53V36.31l.12-2.56L.63,31.23l.08-2.56.23-2.58L.51,23.55.36,21l.32-2.51L.82,16l1.24-2.22,1.19-2.16L4.83,9.69,6.57,8,8.35,6.16l2.47-.63,2.29-.93,2.47-.31,2.51-.65,2.57.3,2.54-.17,2.51-.57,2.59.65,2.51-.55,2.51-.58,2.54-.07,2.57.46,2.51-.71L43.52,3,46,2.53l2.56.1,2.53-.19,2.54-.23,2.51-.63,2.55-.16,2.54-.1,2.54-.19,2.58.53,2.53-.18,2.54-.39L74,.85l2.58.37L79.09.6,81.61,0l2.55.42,2.58.06,2.38,1L91,3.27l2,1.47L94.7,6.49l1.49,2,1.34,2.13.33,2.5.55,2.43.48,2.52-.4,2.58.23,2.54v2.55l.88,2.51-.53,2.58.54,2.52.38,2.53-.55,2.58.78,2.51-.28,2.57.2,2.54L100,48.62l.92,2.5-.13,2.56.43,2.53L101,58.78l.23,2.54.1,2.55-.4,2.57.16,2.55.52,2.52.26,2.54-.25,2.57.63,2.52.33,2.54-.65,2.59.5,2.52.53,2.53.13,2.54-.56,2.58L103,97l.08,2.55v2.55l.08,2.55,0,2.56.64,2.51v5.12l-.06,2.56.13,2.55.69,2.51,0,2.57.69,2.51,0,2.55-.66,2.6.64,2.52-.28,2.58.42,2.54-.24,2.58.42,2.48-.38,2.49-.59,2.48-1.65,2-1.68,1.81-1.74,1.73-1.95,1.49-2.14,1.3-2.36.91ZM15.92,10.32l-2.59.23-2.27,1.29-2,1.64-1.7,2L6.54,18l0,2.63-.11,2.56v2.55l.1,2.55.18,2.54.72,2.52.26,2.53-.1,2.56L7.76,41l-.14,2.56.47,2.52-.53,2.59L8,51.2l.15,2.54,0,2.56L9,58.8l0,2.56.24,2.54.09,2.54L9.08,69l.27,2.54.5,2.52-.62,2.59L9.5,79.2l.17,2.54.72,2.52-.06,2.56-.15,2.56.55,2.52.3,2.54L11.14,97l.19,2.54-.76,2.6.84,2.51.16,2.54-.51,2.58.58,2.53.19,2.54v2.56l.07,2.55.33,2.54.45,2.53-.3,2.57-.22,2.57.94,2.5.22,2.55-.3,2.57.17,2.55L13,142.89l.69,2.52L13.31,148l.57,2.61,1.6,2.1,1.22,2.38,2.46,1,2.31,1.29,2.67.34,2.52-.45h2.55l2.51-.63,2.55.06,2.52-.48,2.55.18,2.52-.39,2.56.07,2.52-.41,2.54,0,2.58.5L54.6,156l2.51-.69,2.58.58,2.5-.73,2.56.09,2.52-.5h2.55l2.56.12,2.51-.71,2.55.08,2.56.23,2.53-.43,2.55-.15,2.56.13,2.53-.47,2.66,0,2.42-1.15,2.11-1.68,1.48-2.26.45-2.64.7-2.6-.38-2.53-.11-2.54-.66-2.52.31-2.57L99,130.46l-.58-2.52.65-2.59-.54-2.52-.58-2.52-.07-2.55.45-2.58-.71-2.51.56-2.58-.43-2.53.1-2.56-.19-2.54-.23-2.54-.63-2.52-.16-2.54-.1-2.55-.19-2.55.53-2.58-.18-2.54-.39-2.54-.24-2.54L96.42,77l-.62-2.52L95.2,72l.22-2.57-.55-2.52,0-2.55.53-2.59-.16-2.54-.18-2.54-.23-2.54-.43-2.54L94.68,49l-.36-2.54-.49-2.53.4-2.58L94,38.81V36.25l-.87-2.51.53-2.58-.55-2.53-.38-2.54.56-2.59L92.51,21l.28-2.58-.2-2.56-.19-2.68-1.84-2-1.45-2.1-2.26-1.2L84.57,6.67,82,6.57l-2.54.09-2.57-.4-2.54.16-2.52.52-2.53.26L66.72,7l-2.51.63-2.53.33L59.1,7.26l-2.52.49-2.51.54-2.54.13L49,7.86l-2.52.53-2.55.08H41.33l-2.54.08-2.55,0-2.52.65H28.63L26.07,9.1l-2.54.13L21,9.92l-2.56-.05Z" transform="translate(-0.36)" style="fill: #d8493d"/>
        </g>
      </g>
      <g id="寬_容" data-name="寬 容" style="isolation: isolate">
        <g>
          <g style="isolation: isolate">
            <path d="M79.57,65.74l.72,2.06L78.8,69.35l-2.61,1.18-2.32,2L71,73l-2.46.35L66,73.61l-2.42.89-2.5.14-3-1.23L55.57,72l-2-1.74.13-2.64-.34-3.85-2.23.76-2.31-.25L46.69,65l.61.87v1.33l-.48,1.23-1.06.76L43.41,70.4l-2.54.75-2.16,1.68-2.43,1-2.57.71-2.53.8-2.31,1.32-2.38,0-1.69-1.4.29-2.15,1.37-1.59,2.13-1.27,2.29-.91,2.46-.51,2.2-1.1,2.18-1.19L40,65.59l-1.4-1-1.26-1.15.84-1.82,1.55-1L42.33,60,45,59.68l2.55-1,2.71.29,2.65-.14,2.62-.48,2.6-.58,2.62-.49,2.69.1,2.66-.61.13-2.69.73-2.57.34-2.6,0-2.66.39-2.9-2.91.11L62.15,44l-2.52.83-2.53.66L54.42,45l-2.5,1-2.66-.29L46.68,46l-2.52.88-2.62,0-2.6.22-2-.28-.52-1.9.44-1.67,1.64-.82,2.39-1-.52-1.31.08-.55L38,40.23l-2.53.25-2.48.58-2.59-.21-2.12,0-.68-1.75L25,38.69l-.74-2.45-.39-3.13L23.6,30l1.09-1.7,1.83-1.34,2.17.78,1.25,1.9.26,2.86.2,2.7,2.36.36,2.4-.9,2.52.06L40,34l.2-1.22.26-1.54-2.6.47-2.71-.23-1.95-.22-.77-1.91.36-2.1,1.89-.84,2.63-1.14,2.8,0L42.9,25l2.79-.37-.78-1.81-.58-1.52,1.27-1.67,1.22-.7,1.46-.12,1.46.24,1,1.17L52,21.84l1,1.55,2.28-.18,2.41-.29,2.4-.4,2.44-.13,2.38-.61,2.53.53,2.33-1,2.52.45,3.1.73,1.34,2,.08,2.51-.21,2-.24,2-1,2.38-2.61.05-.15,2.12-1.91.34-2.48.37-2.46.48-2.47.5-2.33.49-.12,1.62,2.62,0,2.45-.76,2.53-.15,2.4-.38,2,1.38,1,3.8-1,2.5-.21,2.59.46,2.65-.6,2.55,0,2.56.44-.48L75,56.56l.49,1.77-.07,1.76-1.78.78-1.88.73-1.91.19.23,1,.54,1.8-1.07,1.89-2.3,1.06L65,66.11l-.74-1.94L62.88,63l-3.25.29-.19,2.36,1.15,2.46,1.73.68,2.24.09,2.15-.42,2.09-.6,2.09-.65,2.58-1.32,2.63-1.22,2.08-.46Zm-15.87-18-.17,1.53-2,.55L58.89,50l-2.53,1.28-2.72-.09L51,51.33l-2.67.24-2.57,1-2.66.37-2.77-.53-2.65.44L35.3,53.91l-.25,1.24,2.67-.44,2.54-.84,2.67.2,2.54-.75,2.64-.06,2.63-.13,2.61-.28L56,52.61l2.57-.56,2.65,0,2.23-.27,1,1.53-.73,1.59-1.88.66-2.6.66-2.65.27L53.89,57l-2.71-.21-2.62.53L46,58l-2.65.27-2.71-.14L38,58.64l-2.64.61.16,3.54L34.42,64.7,32.74,66l-2-1-.93-1.86-.43-2.75-.13-2.77-.77-2.74.48-2.8L29,49.26l-.29-2.77.52-2,1.9-1,2.13.91,1.24,1.76.31,3,2.61.1L40.08,49l2.57-.65,2.64-.1,2.63-.23,2.59-.48,2.55-.84,2.58-.67,2.72.47,2.53-1,2,1ZM45.16,30.34l1.15,2.1-.24,2.84v2.83L47,40.54l2.36,0,2.72-.15L54.93,40l-.76-2.84L54,34.43l.72-2.77.17-1.29.74-.67L53,29.39l-2.58.44-2.55.83Zm13.07-1.65,1.61.94.31,1.73.28.92,2.32-1.23,2.4.13,2.38-.1,2.53-.29L70,27.61l-2,.51-2.51-.57-2.39.4-2.32,1.11Z" transform="translate(-0.36)" style="fill: #d8493d"/>
          </g>
          <g style="isolation: isolate">
            <path d="M82.8,118.5l1.13,2.07-1.1,2.34-1.49,1.81-1.22,0-1.05.49-1.43.78-1-1.18L74.31,124l-2.45-.57-2.22-1.06-2.24-1L65.33,120,63,119.13l-3.16-.77L56,118l-2.65.55-2.48,1.1-2.68.56-2.1,1.48-2.24,1.25-2.16,1.38-1.85,1.84-2.09,1.48-2.29,1.2-2.14,1.41-2.44.43-1.39-1.6-1.33-2L30,125.25l2.13-1.41,2.11-1.45,1.84-1.86,2.56-.76,2.11-1.44,1.93-1.71,2.15-1.4,2-1.63,2.47-.91,2-1.61,1.84-1.86,2.37-.26,1.81,1.19.39,2.53,2.37-.81,2.18.44,2.89,1,3.28,1,2.06,1.71,2.45.94,2.31,1.22,2.38.81,1.18-1,1.8-.21Zm-49.25-9.29-2.18,1L29,109.4l-1.42-2.29.55-2.27-.27-2.22-.79-2.2,1.46-1.64,1.52-1,2.62-.11L34.16,100l.16,2.23-.22,2.25.39,2.22Zm17-5.14,1,2.51L50,108.75l-2.27,1.59L45,111.2l-2.29,1.56-2,2-2.84.66-2.24,1.65-2.39.88-1.89-1.43-.68-2.46,1.67-2,2.24-1.65L36.94,109l2.62-1,2.34-1.48,2.19-1.75,2.6-1,2-.44Zm-7.74,39.26-2.23,1-2.24-.92L37,141.16l.52-2.65-.29-2.61-.82-2.58.76-2.67.39-1.8,1.6-1.38,2.58.48,1.46,2.36L43,133l.41,2.6.21,2.62-.33,2.64Zm37.71-41.69-1.42,2.54-2.57.29-2.16-.82-.05-2.44.11-3.45-2.65.88-2.62-.57-2.47.56-2.43.86-2.51.33-2.49.36-2.55,0-2.47.57-2.49.39L49.18,101l-2.5.39-2.46.68-2.57-.12-2.5.4-1.7-.74-.83-1.71-.15-2.31,2.07-1.44,2.78-.1,2.74-.35,2.76-.26L50,95.2l-2.31-2.29L48,91.07l1.26-1.35,1.14-.55,1.3-.7,1.09,1,.87.7,1.73,1.85,1.42,2.06,2.38-.56,2.49.28L64,93.29l2.35-.85,2.45-.1,2.42-.3,2.51.32,2.3-1.19,3.76,1.34.73,1.93.41,2L80.13,99Zm-1.94,34.23-.17,2.41-1.86,1.2L74,140l-2.65-.34-2.55.47-2.48,1-2.68-.57-2.54.57-2.5.87-2.57.33-2.57.37H50.85l-2.54.59-2.05-.54-.61-1.94-.19-1.21,0-1.34,1.12-.69L47.7,137l2.47-.12,2.45-.27,2.39-.8,2.44-.4,2.49,0,2.46-.3,2.48-.23,1.47-2.54.29-2.68-2.13-.09-2.39.31-2.4.35-2.34.83-2.5-.46-2.4.35-2.36.66-2.41.3-2-.33-.48-1.94-.09-2.26,1.89-1.88,2.68-.11,2.65-.32,2.73.3,2.54-1.21,2.69-.08,2.69,0,2.62-.62,2.74.25,2.1-.16,1.55,1,1.52,1.89-.32,2.74-1,2.38-.74,2.68,3.23-.62,2.27.85Zm1.84-24.75-1.48,1.95-2.61,0-2.52-.53-2.29-1.35L69,110.65l-2.66-.07L64.12,109l-2.54-.48-2.09-1.44.28-2.66,1.42-1.65,2.32.11,2.54.46,2.49.64,2.34,1.17,2.49.64,2.58.35,2.36,1.14,1.77,1.49Z" transform="translate(-0.36)" style="fill: #d8493d"/>
          </g>
        </g>
      </g>
    </g>
  </g>
</svg>
