<svg xmlns="http://www.w3.org/2000/svg" viewBox="0 0 120.94 132.93">
  <g id="Calque_2" data-name="Calque 2">
    <g id="Calque_1-2" data-name="Calque 1">
      <g id="Rectangle_1420" data-name="Rectangle 1420">
        <path d="M110.49,132l-2.56.1-2.57-.14-2.56.62-2.56-.52-2.56.35H95.12L92.55,132l-2.56.46-2.56.37-2.57-.23-2.56-.47-2.56.69-2.56,0-2.57,0-2.56-.7-2.56.77-2.57-.2-2.56,0-2.56-.23-2.56.16-2.56.15-2.57-.38-2.56.62L49,132.69l-2.56-.51-2.57.75-2.56-.49H38.73l-2.56.07-2.57.06L31,132l-2.56.81H25.91l-2.57-.29-2.57-.46-2.57.66L15.63,132l-2.57.93-2.57-.75L8,132l-2.63-.53-1.89-1.89-1.8-1.94L1.09,125l-.66-2.52,0-2.54-.4-2.54.3-2.54-.3-2.55.67-2.54.06-2.54-.72-2.55.54-2.54L.2,99.59.56,97,.28,94.5.53,92,0,89.41l.13-2.54.14-2.55,0-2.54,0-2.55.43-2.54L.3,74.14l0-2.54.47-2.55L.2,66.51.41,64l.22-2.54V58.88L.7,56.33.18,53.79l.13-2.54L.76,48.7l.08-2.54L.68,43.61.59,41.06l-.5-2.54L.9,36,.38,33.42l.44-2.54V28.33L.5,25.78.05,23.24l.24-2.55.59-2.55L.07,15.58.91,13,.36,10.47l.5-2.58L2,5.58l1.28-2.3L5.36,1.59,8,1.05,10.49.91l2.56,0L15.61.69h2.56L20.73.16H23.3l2.56,0L28.42.4H31L33.54.32l2.57.06,2.56.39L41.23.34H43.8L46.36.2,48.92.08l2.57.3L54.05.06l2.57.53L59.17,1,61.73.1,64.3.22l2.56.22,2.56,0L72,.65,74.55.48,77.11.34l2.57.14L82.24,0l2.57.65,2.56.11L89.94.72,92.51.29l2.56.18L97.63.1l2.57.37,2.57.48,2.57-.28,2.57-.34,2.58.45h2.6l2.4,1,1.86,1.81,1.4,2.1,1,2.29.56,2.47L120,13l.19,2.54.35,2.54,0,2.54.31,2.55-.36,2.54-.07,2.54.48,2.55-.41,2.54-.42,2.55.54,2.54V41l.13,2.55-.49,2.54.17,2.55.4,2.54-.64,2.55,0,2.54,0,2.55.39,2.54L120,63.9l.84,2.54.1,2.55-.49,2.54.5,2.54-.31,2.54.14,2.55-.66,2.54.44,2.55.1,2.54.32,2.55,0,2.54-.58,2.55,0,2.55-.08,2.55.54,2.54-.24,2.55.39,2.55-.78,2.54.54,2.55-.35,2.55.32,2.55-.5,2.56.15,2.55.2,2.69-1.4,2.3-1.73,1.92-2,1.6-2.43.78ZM10.49,6,7.43,7.41,6,10.47,6.63,13l-.52,2.54.35,2.54v2.54L6,23.19l.45,2.54.37,2.54-.23,2.55-.46,2.54.68,2.55,0,2.54,0,2.54-.7,2.55.77,2.54-.2,2.55,0,2.54-.23,2.55.16,2.54.16,2.55-.39,2.54L7,63.9,6.7,66.44,6.19,69l.75,2.54-.49,2.54v2.54l.07,2.55.06,2.54-.52,2.55.8,2.54v2.55l-.29,2.54-.45,2.55L6.77,97,6,99.53l.93,2.54-.74,2.55.1,2.55.53,2.54-.35,2.55.25,2.55-.5,2.55.32,2.56,0,2.55L8,125l2.53,1.36,2.56-.31,2.56.68,2.56.06,2.56-.72,2.57.54,2.56-.43,2.56.37,2.56-.28,2.56.25,2.57-.5,2.56.14,2.56.13,2.57,0,2.56,0,2.56.44,2.57-.48,2.56,0,2.57.47,2.55-.6,2.56.22,2.57.22h2.56l2.56.08,2.56-.52,2.57.13,2.56.45,2.57.08,2.56-.16,2.57-.09,2.56-.5,2.57.81,2.57-.52,2.56.44,2.56,0,2.57-.31,2.57-.44,2.57.23,2.57.6,2.58-.81,3.12-.46.75-3.13.16-2.54.17-2.54-.39-2.54-.07-2.55.5-2.54.19-2.54,0-2.55-.24-2.54V99.59L114.18,97V94.5l0-2.55.26-2.54,0-2.54-.06-2.55,0-2.54.39-2.55-.43-2.54V74.14l-.15-2.54-.12-2.55.3-2.54L114.07,64l.54-2.54.37-2.54-.86-2.55.11-2.54.22-2.54V48.7l.22-2.54-.17-2.55-.14-2.55.14-2.54L114,36l.65-2.55.11-2.54-.07-2.55-.43-2.55.18-2.54-.37-2.55.38-2.55.47-2.56L114.69,13l-.35-2.56-.81-3-3-.91-2.56,0-2.57-.31L102.8,6l-2.56,0-2.56.24L95.12,6l-2.57.2L90,6.54l-2.56,0-2.57.31L82.3,6.54l-2.56-.08-2.56.48-2.57-.4-2.56-.42-2.56.54-2.57,0-2.56.14L61.8,6.29l-2.56.17-2.56.39-2.57-.63-2.56,0L49,6.23l-2.56.4L43.86,6l-2.56.84-2.57.09-2.56-.49-2.57.51L31,6.62l-2.56.14-2.56-.67-2.57.44-2.57.11L18.2,7l-2.57,0-2.56-.58Z" transform="translate(-0.04 -0.03)" style="fill: #d8493d"/>
      </g>
      <g id="英文_翻譯" data-name="英文 翻譯" style="isolation: isolate">
        <g>
          <g style="isolation: isolate">
            <path d="M59.33,27.53l0,1.76-1.73.56L54.86,30l-2.69.52H49.53l-.27,1.85-.54,1.74L47,34.69l-1.76-.51-.45-1.81.18-2-2.77.17-2.53.56-2.56,0-2.36.54L35,33.47l-1.4,1.45L32,35.76l-1.33-1-1.24-1.25.31-1.58-2.68.45-2.77-.41-2.71.38-.93.22L20,32l.06-1-.67-.8.63-1.5,1.38-.88,2.77-.39,2.81.13,2.56-.42.62-1.82.15-1.59L31.85,23l2.06.29.57,2,.29,1.35,2.32.57,2.53-.41,2.55-.24L44.4,26l.45-1.75.29-1.74,1.65-.25,1.72.53,1.19,1.46-.09,1.46,2.41-.1,2.6-.35,2.68.61,1.62,0Zm.14,18.26,0,1.78-1.76.63-2.46.13-2.43.51H50.4l-2.47-.15-2.44.46-2.44.32-2.45.28-2.48-.2-2.7-.13-1.69,3,2.78-.56L39,51.57l2.55-.74,2.31,0,1.53,1.28,2.09.71,1.18,1.5,2,.55L52,56.13l1.34.68.5.86.88-.44.48-.89.75-.67,1.77,0,1.67.65.38,1.69-.62,1.54-.49.65-1,.34-.61.84L56,61.32l-2.31,1-2.74-1.09-1.4-.75L48.24,59l-2-.79L45.1,56.42l-2.75-1.14-3,.06-2,.92-2.2-.1L33.3,57.24l-2.15.37L30,59.31l-.65,2-1.66,1.35-1.87-.32-1.36-1.08.86-1.54L26.08,57,28,55l1.25-2.39,1.43-2.77-3.21.63-2.87-.32-2.8.56-1.27-.55-.11-1.46-.12-1.48,1.29-1.15,1.65.15L23.68,44,23,41.66l0-2.34.75-1.72,1.67.06,2-.26.82,1.92,0,2.21L28,43.75l.13,2.15,2.34-.36,2.51.19.81-2.62,1.52-1.93L33.11,41l-2.3.93-1.29-1L29,39.62l.2-1.65L30.59,37l2.53.33,2.44-1,2.29-.13,2-3,1.36-.56,1.6-.36L43.54,34l.87,1.41-1.06,1.08,3-.29,2.84-.74,2.9.15,3.32.69.5,1.57.37,1.65-.55,2.26-.19,2,1.91,0,1.72.38ZM40.88,40.73,40,43.18l-1.66,2,2.42-.15,2.43-.51H45.6l2.49.16,2.37-.44.33-2.17.51-1.88-2.43-.09-2.7-.19-2.67.22Z" transform="translate(-0.04 -0.03)" style="fill: #d8493d"/>
            <path d="M103.35,55.51l-1.9,2-1.67,2.91-.93,1.18H97.44l-2.82-.44-2.07-2.36-2.64-1.58-1.42-1.84L86.59,54l-1.66-1.79-1.45,1.84L82,55.67l-1.31,1.62L79,58.53,77.63,60l-1.69,1.13-3.86.73-3-1.31-1.61-3.06-1.23-1.74-.45-2-.28-2.14.63-2.14.08-2.4.67-2.32.19-2.34,1-2.12,1.7-1.64L72,37.94l2.51-.78,2.23,1.62,2,1.26,1.67,1.65,1.87,2,2.38,2,2.11-3.16L88.47,39l2-3.08,1.85-2.31-2.61-.18-2.58.2-2.58.15L82,34.09l-2.57.41L76.82,35l-2.58.27-2.59,0-2.59.19-2.63-.33L65,34.92l-.18-1.73.51-1.32,1.11-.69,2.5-.29,2.5-.23,2.49-.5,2.54.31,2.5-.38,2.92-.28-2.42-3.25-.93-1.76,1.61-1.12,2-1.05,2.39,1.43L86,26.61l1.28,2.8,2.82.19,2.69-1.08,2.82.7,2.75-.33,2.76-.16.87-.25.64.6.65.75-.16,1-.2,1.63-1.59.77L98.28,33l-3.11.13L96,35l.22,2.31-1.38,1.75-1,2L92.6,42.92l-1.67,1.7-1.29,2-1.81,1.91,2.45,1.63,1.85,2,2.17,1.28L96,55.16l.43.6.27-.91.78-1,.75-1.13,1.91-.94,2-.62.39,1.22.8.58.31,1.1Zm-22.2-6.4-1.34-2-2.1-1.4-2-1.24-1.56-1.76-1.1.07-1.3.06-.94,3.21-1,3.37.49,2.89.47,2.87.9,1,1.17.53,1.24-.2,1.29-.29,1.34-1.71L78,52.83l1.47-2.06Z" transform="translate(-0.04 -0.03)" style="fill: #d8493d"/>
          </g>
          <g style="isolation: isolate">
            <path d="M57.25,109.05l-3.27,0-3.5-.66-.84-1.64.63-1.42,1-1,1.78-.09,1.08.42.14-2.12.26-2.17-.37-2.09-1.22,1.48-1.51,1.3-1.45.73-1.37-1.15.67,3-.44,3-1.52,2.53-3.32.18-2.91-1.61-1-.85.17-1.59,1.13-.88,1.78.35,1.44.19,0-3.29-.33-3.17-1.38,1.43-1.44,1.37-.83.39-1.1.46-.8-1-.94-.72.2,2.11-.28,2,1.22.5-.27,1.42-.12,1.31-1.16.91-2.37.41-2.41-.14-2.38.3-2.41-.15-1.12-.37-.38-1.35L26,106l1.32-.71v-2.17l-1.62.48-.2,2.14.23,2.39-1.19,1.56-1.49.53-1.15-.67-.51-1.42v-2.48l0-2.49-.42-2.49.28-2.49.28-2.5-.17-.86-1.56-.31L19.41,93l.46-1.6,1.18-2.26,2.33-1.28.4-.85-2-.28-1.57.1-.72-1.61L20.63,84l1-1.28,3-.24,2.79-.28.16-.7-1.77.44-1.63.22-1.26.59-.64-.92-.84-.73-.62-.94-.42-1.45.79-1.11-.1-.91-1.09-.87.75-1.44,1.25-1,2.41.11,2.31-.55h2.4l2.33-.38,2.34-.39L36,71.26l1.87.54L39.19,73,38,74.37l-1.08,1.08L34.37,76,32,76.56l-.21.88,3.66-1.09,1.36.15,1.26.1.25,1.29L38,79.31l-1.11,2.6,2,.35L39,83.85l-.38,1.36-1.13.53-.81.34,1.59,1.55,1.1,2.1.84,1.61-.66,1.49-.77.86-.7-.31-.13,2.33.09,2.6,1.92-2,1.63-2.2,1.84-2L44.64,92l-.45-2.3.45-2.32-1.25.84-1.13,0-.81-.64L40.33,87,40,84.81l-1.06-2-.87-2,.64-1.41L40,78.8l1.5-.26,1.3,1,.9,2.22.56,2.53.28-2.6-.35-2.42L44.08,77l-2.51-.4-1.81,0L39.29,75l.7-1.46,1.34-1,2-.54,2.09,0,2.88.7.18,2.71.14,3.63,1.57-.49L51.52,78l1,1.14,1,2.61.66,2.94-.45-3,.36-2.83.13-2.9L51.67,76l-1.43-.6-.64-1.28,0-1.77,1.84-.82,2-.34,2,.05,2.18,1.25.81,2.1.2,2.65L59,79.92l.1,2.65v2.66l-.23,2.66-.46,2.65L59,93.2l-.44,2.66-.09,2.66.24,2.66-.12,2.66-.18,2.67ZM27.75,76.66,25.56,77l-1.84,1,.62.21V79l.9.55.86-.31,1.38-.54Zm5.37,12.09-.52-1.08.13-.81-.95-.36-.39,3.68-.5,1.54-1.43.69L28,91.93l-.4-1.75.18-3.61-3.14.49h.91l.62.66,1,1.35-1,1.47-1.36,2.34,2-.12,2.49.2,2.45-.49,2.49.29L36,92.28l-1.51-1.7Zm-5.69,8L25.18,97l.49,1.85,1.52.18Zm3.75-.26,0,2.4,1.53.35,0,1.38-.61,1.22-1,1,.22,2.13,1.66-.19.34-2.7.46-2.74-.18-2.72Zm.32-16.69.1,2.58,1.71-.67-.15-.34.65-.92.28-1.4Zm23,6.72-1.13.75-.82,1-1.25-.65-.43-1.09-1-2.56-1.1-2.53.09,2.6-.16,2.6-.26,2.59.42,2.6.16,2.6-.19,2.49,1.47-1.89,2.2-1.28,1.23-2,.4-2.53Z" transform="translate(-0.04 -0.03)" style="fill: #d8493d"/>
            <path d="M78,78.24,78.11,80l-2,.71-2.42.45-2.45.08-2.44.13-2.47-.12-2-.66L64,79l.13-1.72,1.9-.65,2.72-.36-.37-1.46L68.2,73l1-1.21L71,71.62l1.92,1.14,1,3.43,1.84-.43,1.55.95Zm-9.79,29.87-1.29,1.18-1.69-.72-1-1.71.09-2.32,0-2.32.28-2.32.08-2.33L65.46,96l1.35-.94,1.47.8.8,1.7-.34,2.32v2.32l.08,2.32v2.33Zm8.47-23.75.22,1.86-2,.84-2.42.46L70,87.61l-2.44.14-2-.82-.66-1.5.69-1.49,1.52-1.19,2.42.07L72,82.5l2.43.16,1.62.45Zm0,6.46.22,1.74L75,93.31l-2.38.46-2.42.09L67.8,94l-2-.83-.6-1.45.72-1.57,1.4-1.2L69.7,89l2.4-.31,2.43.18,1.56.5Zm.61,15.08.32,1.69-1.58.77-2.11.43-2.14.07-1.35-.23-.49-.91.07-1.91,1-2,.4-2.28,1-2.08-1.16.17-1-.78-.41-1.42L70,95.84l1-.72,2-.64,2.11.45,1.85.62-.07,1.25L76.77,98,76,100.82l-.29,2.94,0-.15,1.07.87Zm26.05-15.77.27,1.6-1.89.7L99,92.88,99.17,94l-1,1.26h1.65l1.81.67.48,1.51L102,98.84l-1.79.46-2.33.31-2.37-.18-2.5.23.07,2.17,2.79-.17,2.65-.67,2.73.41,1.76.19.25,1.49-.42,1.14-1.27.7-2.75.87L96,105.54l-3-.09V108l-.47,1.77-1.58.65-1.54-.67L88.92,108l-.38-1.86-2.66.36-2.74.07-2.7.47-1.53-.9-1.36-.83.7-1.82,1.78-.58,2.84-.51,2.89.25,2.95-.51,0-2.06-3.22.21H82.27l-1.52-.42-.64-1.1.14-1.41,1.66-.73,2.11-.1-.59-1.23-.74-.94.76-1-2.88.25-1.89-.19L78.06,92l.25-1.66,1.91-.11L83,89.79l2.78-.44,2.71-.42.16-1.33-2.24.27-2.19-.17L82.06,88l-1.52-.56-1.12-1.17.73-1.31,1.54-.64L84,83.53l2.33.11,2.1-.34.26-1.1-2.56.17-1.4-.54L84,80.73l.24-1.33,1.5-.91-.4-2.69-1.09-.69-.17-1.32.35-1.18.88-1,2.48.18,2.44-.37,2.42-.73,2.52.77,2.43-.59,2.49.25,2.63.14.29,2.86-1.86,3.23,1.85.43.54,1.61L103.11,81l-1.75.54-2.73.06-2.75-.06-2.6.66L93,83.67l2.34-.29,2.14-.22,2.12-.43,1.93.39.07,1.53.35,1.62-1.94.59-2.26.41L95.42,87l-2.29.37L93,89.18,95.92,89l2.73-.21,2.69-.69,1.51.73ZM82.49,82l-1.27,1.25-1.72-.79-1-2,.09-3,0-3,.89-1.76,1.43-.6,1.52.7,1.12,1.66-.25,3,.15,3Zm4.74,11.23,2.29,2.5h3l1.23-2.83L92,93.31l-2.23.13Zm4.38-18.1-1.89.6-.19,2.34L91,77.77ZM95,74.85l.58,2.72h1.09l.59-2.45Z" transform="translate(-0.04 -0.03)" style="fill: #d8493d"/>
          </g>
        </g>
      </g>
    </g>
  </g>
</svg>
