<svg xmlns="http://www.w3.org/2000/svg" viewBox="0 0 107.03 163.96">
  <g id="Calque_2" data-name="Calque 2">
    <g id="Calque_1-2" data-name="Calque 1">
      <g id="Groupe_2769" data-name="Groupe 2769">
        <g id="Rectangle_1121" data-name="Rectangle 1121">
          <path d="M82.23,163.82l-1.13-.11-2.57.34L76,163.48l-2.56.14-2.49-.9-2.53-.28-2.59.75-2.5-.7L60.83,162l-2.59.59-2.47-1-2.54-.2-2.55,0-2.59.51-2.51-.46-2.57.17-2.47-1.17L38,161l-2.5-.79-2.59.54-2.54-.06-2.53-.33-2.49-.86-2.6.58-2.54-.27-2.49-1-2.61.7-2.53-.43-2.14-1.53-2.55-.47-1.71-1.91L4,153.85l-1.26-2.21-1.38-2.12-.57-2.46v-2.5l-.21-2.45.35-2.53L.15,137l.65-2.51L1.45,132l-.19-2.57.43-2.52-.21-2.57.2-2.54.16-2.54-.29-2.58.68-2.51.6-2.51L2.35,109l.56-2.51-.41-2.59,1-2.49,0-2.55.27-2.54.34-2.53-.4-2.58.08-2.55V86.13l.79-2.5L4.06,81,5,78.54,5.2,76l-.29-2.57.2-2.55.69-2.51-.59-2.59.54-2.51-.27-2.58.8-2.5-.09-2.56.7-2.51-.37-2.58L6.79,48l-.07-2.56,0-2.56.39-2.53L8,37.85l-.32-2.58,0-2.56.7-2.51L8,27.61l.7-2.51-.37-2.59L9.09,20l.29-2.55-.07-2.57-.07-2.56L10,9.9l1.62-2,1.23-2.18,1.45-2.15,2.34-1.11,2-1.62L21.17.08l2.61.4L26.26.09l2.52.37,2.53.26L33.88.44l2.54.19L39,.52,41.5.74l2.5.73,2.52.37L49.06,2h2.55l2.55,0,2.5.67,2.54.13,2.58-.35,2.52.46,2.55,0,2.56-.1,2.52.48,2.56-.17,2.5.7,2.54.2,2.53.39,2.57-.21,2.54.13,2.56.09,2.55.09L94.75,5l2.54.42,2.22,1.28,1.84,1.76L103,10.35l1.73,1.81L106,14.34l1.15,2.31-.06,2.59-.38,2.49.48,2.58-.27,2.54-.29,2.53,0,2.56-.44,2.52L105.89,37l-.38,2.53-.25,2.54.61,2.59-1,2.49-.15,2.54v2.56l-.35,2.53.68,2.6L104,59.85l.08,2.56-.44,2.53.67,2.6-.38,2.53-.49,2.52.06,2.56-.7,2.51.13,2.56-.17,2.55.06,2.56-.1,2.55-.3,2.54L102.32,93l-.41,2.53,0,2.54-.6,2.51-.21,2.55-.22,2.54.7,2.6-.52,2.52-.67,2.51.3,2.58-.58,2.52.38,2.58-.48,2.53L99.42,126l-.27,2.54.11,2.57.45,2.58-.46,2.53-.71,2.51.09,2.57.17,2.57-.37,2.55-.54,2.52-.18,2.64-1.21,2.36-.79,2.55-1.56,2.18-1.75,2.1-2.27,1.53-2.53,1-2.78-.12ZM25.12,6l-2.38.22-2,1.3-2.14,1L17.13,10.6l-1.81,2-.63,2.65.75,2.6-.7,2.51-.49,2.52.59,2.6-1,2.48-.19,2.54,0,2.55.51,2.59-.47,2.53.18,2.56-1.17,2.48.54,2.59-.79,2.5L13,50.91l-.06,2.55L12.61,56l-.86,2.49.58,2.6-.27,2.53-1,2.49.7,2.61-.23,2.54-1,2.48.54,2.6-.73,2.51.36,2.58L10.26,84l.06,2.56L9.91,89l-.58,2.51V94.1L9,96.64l.75,2.6-.66,2.51-.65,2.51.2,2.58-.43,2.52.2,2.57-.19,2.55L8,117l.29,2.58-.68,2.51-.6,2.52.48,2.59L7,129.74l.41,2.59-1,2.5,0,2.56-.27,2.55-.34,2.54.73,2.62.9,2.41,1.55,2,1.54,2.18,2.62.52,2.39,1.19,2.54.26,2.57-.29,2.53.19,2.5.69,2.6-.59,2.5.55L33.3,154l2.49.8,2.56-.09,2.49.7,2.58-.37,2.53.27,2.56-.08,2.55,0,2.52.39,2.49.82,2.58-.32,2.55,0,2.5.7,2.58-.43,2.5.7,2.58-.37,2.5.81,2.54.3,2.56-.08,2.58-.27,2.53-.11,2.65-.3,2.07-1.69,1.33-2.22,1.59-2.06,0-2.61L92,146l1-2.49-.19-2.57.37-2.53.26-2.53-.28-2.58.19-2.54-.11-2.56.22-2.54.73-2.5.37-2.53.16-2.54v-2.56l0-2.55.66-2.51.13-2.55-.35-2.58.47-2.52,0-2.56-.11-2.56.48-2.53-.16-2.57.7-2.5.19-2.55L97,85l-.2-2.57L97,79.89l.09-2.55.08-2.56.38-2.52-.18-2.57.33-2.53.54-2.52.36-2.53-.13-2.56,0-2.56-.18-2.57L99,51.91l.58-2.51-.48-2.6.27-2.54.29-2.54,0-2.56.44-2.52.31-2.54.39-2.53L101,29l-.6-2.6,1-2.5.14-2.56-.34-2.68-.7-2.61-2.16-1.7L97,12l-2.53-1-2.59-.79-2.6.67-2.52-.39L84.24,10l-2.55.06-2.5-.7-2.56.13L74.1,9.32l-2.55.06L69,9.28,66.48,9l-2.55-.07L61.41,8.5l-2.54-.05-2.51-.6-2.54-.21-2.54-.22-2.6.7L46.17,7.6l-2.51-.67-2.57.3-2.51-.58L36,7l-2.52-.47L31,6l-2.54-.28-2.57.11Z" transform="translate(-0.15 -0.08)" style="fill: #d8493d"/>
        </g>
      </g>
      <g id="素_食" data-name="素 食" style="isolation: isolate">
        <g>
          <g style="isolation: isolate">
            <path d="M84,40.84l-1.37,1.48L81,43.8l-2.48-.92L76,43.11l-2.47-.17-2.47.71-2.48,0-2.48.07-2.47-.34-2.48-.25-2.48,0-2.4.48-1.47,1.86-2.48,1.1-2.81,1.32,2.67.34,2.21-.42,2.1-.13,2.79-.33,2.35-1.63,2.7-.79,2.54-.4L68,46.23l0,1.59L67,49.69l-2.22.94-2.3.77-2.42.46L57.89,53l-2.17,1.09-2.18,1.08-2.41.52-2.26.86,2.46.21,2.47-.12,2.46-.25,2.47-.23,2.47.68,2.47-.12,2.48.25,2.47-.5-1.71-2-.65-2.22,1.33-1.74,2.23-.67,1.65,1.62,2,1.58.86,2.4,1.38,2,2,1.57,1.53,1.91.31,2.29L78.12,64.4l-1.76.54-2.11-.4L72,61.62l-2.5-.51H66.76l-2.71.41L61.33,61l-2.58.5-.58,2.56.33,2.76-.29,2.72.14,2.75-1.16,1.41-1.13.87-3.44.67L50.19,74,47.8,72.71l-2.4-1.3-1.33-1.13.86-1.84,1-1.37,1.81.37,2.12.44,1.72.61.83-2.15-.36-2.49.45-2.67-3,.34-2.77-.09-2.84-.25,1.78,2.45.14,1.65-1.44,1-1.88,1.58-2.32.63-2,1.35-2.36.58-2.22.87-1.87,1.62-2.21-.68-1.27-1.25-.59-1.8L28.81,68l2.08-1.22,2.2-1,2.08-1.23,2-1.48,2.34-.67,2.24-1-3.07.48-3-.87-1.88.24,0-1.59-.35-1.42,1.34-.59L37,55.93l2.72-.73,2.69-.81,2.54-1.18,2.7-1.31-3-.46L41.75,52l-2.83,0-1.2-.75-1-.95,1.45-1.91,2.32-1.25,2.21-1.48L45.35,45l2.56-1.65-3,.23-2.62.16-2.61.17-2.62-.4-2.63-.18-2.62-.1-1.67-.63L29.26,41l.94-1.63L31.92,38l2.63.39,2.62-.24,2.63-.34,2.63.23h2.63l2.63-.32,2.64.69,2.5-.42.36-2H50.38l-2.73.45-2.73-.77H42.19l-2.74.44-2.73,0-1.65-.94-.58-1.53-.06-2,2.39-.16,2.77-.28,2.77.16,2.77-.1L47.9,31l2.78-.07,2.92.43.19-2.47-2.64.69-2.45-.91-2.45.61-2.45-.47-2.46.61L38.89,29l-2.46.57L34,28.91l-1.52-.77-1-1.47.93-1.59,1.66-1.54,2.48-.13,2.48.75L41.53,24l2.49.35,2.48-.15,2.49.1L51.48,24l2.25-.54.09-1.2,1.53-2,2.34-.6,1.93,1.17,1.21,2L60.56,24l2.6-.43,2.51.34,2.52-.22,2.53.27,2.52-.38,2.52-.21,2.53-.08,2.53.19,2.24,1,.63,2-.57,2-2.24.23-2.57.33-2.58-.4-2.57.85-2.58-.64L68,28.62l-2.58.44-2.58,0-2.49.1-.19,1.89L62.65,31l2.53.34L67.71,31l2.54-.15,2.53.38,2.54.12,2.54.16,2.46.12.11,2-.38,1.77-2.11.27-2.59.37-2.59-.35-2.6.15-2.59.42-2.6,0-2.6-.4-2.65.14.14,1.85,2.43,0,2.65.18,2.66.14,2.66-.33,2.66.66,2.66,0,2.66-.91,2.67.33,2.3.75ZM80.9,72.07l-2.06.79-1.21,1.86-1.82-.17-1.44.32-1.44-.67-1.85-.5-1.66-1.54-1.73-1.48L66.23,68.9l-.77-.25-1.09.8-1.89,1-1.54-1.06-.76-1.81,1-1.45L64,63.73l2.21-1.25,2.91,1.08,1.41,2.36,2.35,1.33,1.73,2,.81-.3,1.9-.89,1.41-.48,1.91.22,1.08,1.94Z" transform="translate(-0.15 -0.08)" style="fill: #d8493d"/>
          </g>
          <g style="isolation: isolate">
            <path d="M77.86,107.89l-2.73.07-1.21.31-.8-.87-1.59-2.14-1.62-2.13-2.28-2L66,98.67l-1.69-1.34L62.62,96l-3.26-.88-2-.34-1.94.63-2.06.27-2,.56-2.31,0L46.86,97l-2.37-.12-2.14,1-2.2.13-1.77,1-2.33,1.08-1.75,1.74-1.7,1.81-1.53,2-1.94,1.57-2.06.34-2.15-1.08-.66-1.91,1.25-1.67,1.83-1.71,1.53-2L31,97.77l1.68-1.88,1.93-1.6,1.73-1.83,1.49-2.09,2-1.53,1.82-.41,1.72.59.43,1.51.54,1.74,3.11-1.17L50.9,91l3.31-1.1,3.23.41,1.91-.52,1.94.15,3.6,1,2.76,1.38,2.44,2.19,1.55,1.91,1.57,1.89,1.46,1.94,1.5,1.89,2.15-1,1.13-.29.76,1.42,1,1.8-.58,2.23ZM73.8,122.51l-1.2,1.64-1.66,1.24-2.62-.22-2.63-.07-2.62,0-2.62.56-2.63-.24-2.62.3-2.62-.25L50,125.27l-2.63-.4-2.62.47-2.63.06-2.63.3-2.63-.37.23,2.71-.73,2.66.34,2.73-.6,2.67,2.23-1,2.54.24,2.33-.63,1.56-.23,1.28.18.53,1.07.12,1.11,0,2.06-1.5,1.22-2.72.18-2.61.62-2.52,1-2.72.17-2,.45-1.73-.73-1.23-3.15-.3-2.68.45-2.62.5-2.63-.14-2.66.68-2.62.13-2.64-.3-2.68.63-2.62-.51-2.69.89-2.6-.26-2.69.21-2.65L32.78,105l2.09-.69,2.3.8.89,2.23-.13,2.38-.21,2.39,2.5,0,2.46.2,2.47-.39,2.47.57,2.46-.28,2.47-.56,2.48.08,2.47.77,2.41.13-.25,2.06-.4,1.37-1.73.44-2.51.7-2.51,0-2.51.06-2.52-.34L45,116.6H42.45l-2.52.49-2.54-.25L37,120.19l2.74.4,2.59-.28,2.59-.46,2.59-.2,2.6.78,2.59-.61,2.6.3,2.6-.29,2.73.51,1-2.3.13-2.46.76-2.24.93-2.17,1.22-2.23-2.6.15-2.47.21-2.46.19-2.46-.41-2.47,0-2.46-.23-2.47.1-2.47.24-2.47.21-2.29-1.42-.66-1.63.92-1.39,1.54-1.14,2.32-.19,2.32-.22,2.33,0,2,.28-1.2-2.45L48.74,99,51,98l1.92-.3,1.75.13,1.54,1.89,1.23,2.13,1.21,2.37,2.54.06,2.35-.74,2.35-.11,2.47,1,1.93,1.46,1.11,1.8-.83,2.21-.42,2.72L68.77,115l-.44,2.72L67.27,120l3.61-.35L72.71,121Zm-.44,21.11-1.88.49L70,145l-2.39-.53-2.17-1-2.1-1.33-2.42-.81-2-1.48-2.28-1-2-1.51-2-1.43-1.91-1.64-2.38-.89-2.16-1.24-1.32-1.6,1-1.86,1.72-1.9,2.54.72,2.39.84L54.37,130l2.39.88,1.88,2.06,2.57-1.49,2.36-1.51,2.25-1.72L68.35,127l2.11-.24,1.69.91.45,2.08L71.14,131l-2.53,1.4-2.32,1.78-3,1.35L66,137.25l2.32,1.62,2-.35,1.2-1.84,1.73-1.28,1.78-.27,1.93.64.45,1.91-.79,1.83-1.5,2.17Z" transform="translate(-0.15 -0.08)" style="fill: #d8493d"/>
          </g>
        </g>
      </g>
    </g>
  </g>
</svg>
