<?xml version="1.0" encoding="UTF-8" standalone="no"?>
<!DOCTYPE svg PUBLIC "-//W3C//DTD SVG 1.1//EN" "http://www.w3.org/Graphics/SVG/1.1/DTD/svg11.dtd">
<svg width="100%" height="100%" viewBox="0 0 186 35" version="1.1" xmlns="http://www.w3.org/2000/svg" xmlns:xlink="http://www.w3.org/1999/xlink" xml:space="preserve" xmlns:serif="http://www.serif.com/" style="fill-rule:evenodd;clip-rule:evenodd;stroke-linejoin:round;stroke-miterlimit:2;">
    <g id="Groupe_34" transform="matrix(1,0,0,1,1033,513)">
        <g transform="matrix(1,0,0,1,-1033,-485)">
            <g id="lorispinna_">
                <g>
                    <g transform="matrix(35,0,0,35,0,0)">
                        <rect x="0.055" y="-0.699" width="0.193" height="0.699" style="fill:rgb(50,89,159);fill-rule:nonzero;"/>
                    </g>
                    <g transform="matrix(35,0,0,35,10.605,0)">
                        <path d="M0.319,0.012C0.477,0.012 0.61,-0.112 0.61,-0.259C0.61,-0.406 0.477,-0.529 0.319,-0.529C0.16,-0.529 0.027,-0.406 0.027,-0.259C0.027,-0.112 0.16,0.012 0.319,0.012ZM0.319,-0.148C0.258,-0.148 0.207,-0.199 0.207,-0.259C0.207,-0.319 0.258,-0.369 0.319,-0.369C0.379,-0.369 0.43,-0.319 0.43,-0.259C0.43,-0.199 0.379,-0.148 0.319,-0.148Z" style="fill:rgb(50,89,159);fill-rule:nonzero;"/>
                    </g>
                    <g transform="matrix(35,0,0,35,32.865,0)">
                        <path d="M0.244,-0.425L0.244,-0.517L0.051,-0.517L0.051,-0L0.244,-0L0.244,-0.219C0.244,-0.313 0.304,-0.369 0.406,-0.369L0.406,-0.529C0.336,-0.529 0.278,-0.489 0.244,-0.425Z" style="fill:rgb(50,89,159);fill-rule:nonzero;"/>
                    </g>
                    <g transform="matrix(35,0,0,35,47.6,0)">
                        <path d="M0.153,-0.572C0.207,-0.572 0.251,-0.618 0.251,-0.672C0.251,-0.724 0.207,-0.77 0.153,-0.77C0.097,-0.77 0.053,-0.724 0.053,-0.672C0.053,-0.618 0.097,-0.572 0.153,-0.572ZM0.055,-0L0.248,-0L0.248,-0.517L0.055,-0.517L0.055,-0Z" style="fill:rgb(50,89,159);fill-rule:nonzero;"/>
                    </g>
                    <g transform="matrix(35,0,0,35,58.24,0)">
                        <path d="M0.257,0.012C0.397,0.012 0.482,-0.056 0.482,-0.163C0.482,-0.285 0.374,-0.316 0.28,-0.337C0.228,-0.349 0.205,-0.352 0.205,-0.369C0.205,-0.384 0.223,-0.398 0.25,-0.398C0.299,-0.398 0.358,-0.371 0.401,-0.343L0.466,-0.461C0.407,-0.5 0.33,-0.529 0.25,-0.529C0.115,-0.529 0.034,-0.451 0.034,-0.351C0.034,-0.229 0.139,-0.206 0.233,-0.186C0.281,-0.176 0.311,-0.166 0.311,-0.148C0.311,-0.131 0.298,-0.122 0.262,-0.122C0.207,-0.122 0.133,-0.148 0.083,-0.183L0.011,-0.066C0.074,-0.017 0.167,0.012 0.257,0.012Z" style="fill:rgb(50,89,159);fill-rule:nonzero;"/>
                    </g>
                    <g transform="matrix(35,0,0,35,75.95,0)">
                        <path d="M0.409,-0.529C0.342,-0.529 0.285,-0.502 0.244,-0.456L0.244,-0.517L0.051,-0.517L0.051,0.172L0.244,0.172L0.244,-0.061C0.285,-0.015 0.342,0.012 0.409,0.012C0.548,0.012 0.646,-0.1 0.646,-0.259C0.646,-0.417 0.548,-0.529 0.409,-0.529ZM0.348,-0.148C0.287,-0.148 0.244,-0.194 0.244,-0.259C0.244,-0.323 0.287,-0.369 0.348,-0.369C0.415,-0.369 0.462,-0.323 0.462,-0.259C0.462,-0.194 0.415,-0.148 0.348,-0.148Z" style="fill:rgb(50,89,159);fill-rule:nonzero;"/>
                    </g>
                    <g transform="matrix(35,0,0,35,99.54,0)">
                        <path d="M0.153,-0.572C0.207,-0.572 0.251,-0.618 0.251,-0.672C0.251,-0.724 0.207,-0.77 0.153,-0.77C0.097,-0.77 0.053,-0.724 0.053,-0.672C0.053,-0.618 0.097,-0.572 0.153,-0.572ZM0.055,-0L0.248,-0L0.248,-0.517L0.055,-0.517L0.055,-0Z" style="fill:rgb(50,89,159);fill-rule:nonzero;"/>
                    </g>
                    <g transform="matrix(35,0,0,35,110.18,0)">
                        <path d="M0.39,-0.529C0.328,-0.529 0.276,-0.505 0.244,-0.465L0.244,-0.517L0.051,-0.517L0.051,-0L0.244,-0L0.244,-0.29C0.244,-0.336 0.275,-0.369 0.318,-0.369C0.364,-0.369 0.396,-0.334 0.396,-0.284L0.396,-0L0.58,-0L0.58,-0.329C0.58,-0.446 0.501,-0.529 0.39,-0.529Z" style="fill:rgb(50,89,159);fill-rule:nonzero;"/>
                    </g>
                    <g transform="matrix(35,0,0,35,132.16,0)">
                        <path d="M0.39,-0.529C0.328,-0.529 0.276,-0.505 0.244,-0.465L0.244,-0.517L0.051,-0.517L0.051,-0L0.244,-0L0.244,-0.29C0.244,-0.336 0.275,-0.369 0.318,-0.369C0.364,-0.369 0.396,-0.334 0.396,-0.284L0.396,-0L0.58,-0L0.58,-0.329C0.58,-0.446 0.501,-0.529 0.39,-0.529Z" style="fill:rgb(50,89,159);fill-rule:nonzero;"/>
                    </g>
                    <g transform="matrix(35,0,0,35,154.14,0)">
                        <path d="M0.301,-0.529C0.214,-0.529 0.137,-0.504 0.065,-0.468L0.124,-0.351C0.167,-0.373 0.2,-0.386 0.249,-0.386C0.309,-0.386 0.355,-0.356 0.355,-0.305L0.355,-0.302C0.318,-0.317 0.28,-0.325 0.246,-0.325C0.121,-0.325 0.023,-0.254 0.023,-0.153C0.023,-0.056 0.111,0.012 0.222,0.012C0.271,0.012 0.32,-0.005 0.355,-0.037L0.355,-0L0.54,-0L0.54,-0.305C0.54,-0.446 0.432,-0.529 0.301,-0.529ZM0.269,-0.102C0.232,-0.102 0.206,-0.125 0.206,-0.158C0.206,-0.193 0.234,-0.218 0.273,-0.218C0.303,-0.218 0.337,-0.211 0.355,-0.202L0.355,-0.153C0.351,-0.123 0.315,-0.102 0.269,-0.102Z" style="fill:rgb(50,89,159);fill-rule:nonzero;"/>
                    </g>
                    <g transform="matrix(35,0,0,35,174.685,0)">
                        <path d="M0.16,-0.313C0.222,-0.313 0.273,-0.366 0.273,-0.431C0.273,-0.491 0.222,-0.544 0.16,-0.544C0.093,-0.544 0.042,-0.491 0.042,-0.431C0.042,-0.366 0.093,-0.313 0.16,-0.313ZM0.148,0.155C0.227,0.089 0.273,0.008 0.273,-0.065C0.273,-0.155 0.224,-0.219 0.155,-0.219C0.094,-0.219 0.042,-0.166 0.042,-0.102C0.042,-0.04 0.092,0.012 0.152,0.012C0.143,0.045 0.119,0.08 0.085,0.107L0.148,0.155Z" style="fill:rgb(50,89,159);fill-rule:nonzero;"/>
                    </g>
                </g>
            </g>
        </g>
        <g id="Rectangle_20" transform="matrix(1,0,0,1,-1031,-481)">
            <rect x="0" y="0" width="71" height="2" style="fill:rgb(50,89,159);"/>
        </g>
        <g id="Rectangle_21" transform="matrix(1,0,0,1,-944,-481)">
            <rect x="0" y="0" width="84" height="2" style="fill:rgb(50,89,159);"/>
        </g>
    </g>
</svg>
